<?xml version="1.0" encoding="utf-8"?>
<!-- Generator: Adobe Illustrator 21.1.0, SVG Export Plug-In . SVG Version: 6.00 Build 0)  -->
<svg version="1.1" id="Layer_1" xmlns="http://www.w3.org/2000/svg" xmlns:xlink="http://www.w3.org/1999/xlink" x="0px" y="0px"
	 viewBox="0 0 413.6 567" style="enable-background:new 0 0 413.6 567;" xml:space="preserve">
<style type="text/css">
	.st0{clip-path:url(#SVGID_2_);}
	.st1{clip-path:url(#SVGID_4_);fill:#C52127;}
	.st2{clip-path:url(#SVGID_4_);fill:#FFC40E;}
	.st3{opacity:0.3;}
	.st4{fill:url(#SVGID_5_);}
	.st5{filter:url(#Adobe_OpacityMaskFilter);}
	.st6{opacity:0.75;mask:url(#SVGID_6_);}
	.st7{fill:#F16667;}
	.st8{opacity:0.19;fill:url(#SVGID_7_);}
	.st9{opacity:0.2;}
	.st10{filter:url(#Adobe_OpacityMaskFilter_1_);}
	.st11{mask:url(#SVGID_8_);}
	.st12{fill:#FFFFFF;}
	.st13{opacity:0.6;}
	.st14{filter:url(#Adobe_OpacityMaskFilter_2_);}
	.st15{mask:url(#SVGID_9_);}
	.st16{opacity:0.8;}
	.st17{filter:url(#Adobe_OpacityMaskFilter_3_);}
	.st18{mask:url(#SVGID_10_);}
	.st19{clip-path:url(#SVGID_2_);fill:#EE4036;}
</style>
<g>
	<defs>
		<path id="SVGID_1_" d="M367.7,184.2c38,96.2,41.3,185.5,41.3,185.5c0,200.6-200.6,194.8-200.6,194.8h-4.1
			c0,0-200.6,5.8-200.6-194.8c0,0-0.2-68.5,23.7-148.7l5.3,14.2l-0.8,9.9l7.4,8.2l5.8-6.6l13.2,4.1l4.9-13.2l13.2,13.2l4.8-12.3
			l26.6,4.1l6.5-8.2l20.1,4.1l10.4,11.5l15.6,11.5l-7.4-19.7l10.7,4.9l18.9,28.8l4.1-20.6l13.2,0.8l-1.6-20.6l16.4,9l5.8,17.3
			l18.1,2.5l-3.3-13.2l26.3,31.2l0.8-17.3l29.6,37l1.6-18.9l14.8,9l9.9-11.5l31.2,6.8l9.9-18.3l-8.2-12.3l16.4-9.9l-9.9-18.1
			l5.8-18.9l-12.3-6.6L367.7,184.2z"/>
	</defs>
	<clipPath id="SVGID_2_">
		<use xlink:href="#SVGID_1_"  style="overflow:visible;"/>
	</clipPath>
	<g class="st0">
		<g>
			<defs>
				<path id="SVGID_3_" d="M278.1,42.3C401.6,165.9,409,369.7,409,369.7c0,200.6-200.6,194.8-200.6,194.8h-4.1
					c0,0-200.6,5.8-200.6-194.8c0,0-0.7-212.4,130.9-327.4C134.7,42.3,204.8-30.9,278.1,42.3z"/>
			</defs>
			<clipPath id="SVGID_4_">
				<use xlink:href="#SVGID_3_"  style="overflow:visible;"/>
			</clipPath>
			<rect x="-16.6" y="9.8" class="st1" width="444" height="141.2"/>
			<rect x="-15.6" y="423.3" class="st1" width="444" height="141.2"/>
			<rect x="-15.6" y="151.1" class="st2" width="443" height="272.2"/>
		</g>
		<g class="st3">
			<g>
				<linearGradient id="SVGID_5_" gradientUnits="userSpaceOnUse" x1="317.0157" y1="28.7815" x2="132.8533" y2="563.1827">
					<stop  offset="0" style="stop-color:#FFFFFF"/>
					<stop  offset="1" style="stop-color:#603813"/>
				</linearGradient>
				<path class="st4" d="M278.1,42.3C401.6,165.9,409,369.7,409,369.7c0,200.6-200.6,194.8-200.6,194.8h-4.1
					c0,0-200.6,5.8-200.6-194.8c0,0-0.7-212.4,130.9-327.4C134.7,42.3,204.8-30.9,278.1,42.3z"/>
			</g>
			<defs>
				<filter id="Adobe_OpacityMaskFilter" filterUnits="userSpaceOnUse" x="3.7" y="9.8" width="405.3" height="554.7">
					
						<feColorMatrix  type="matrix" values="-1 0 0 0 1  0 -1 0 0 1  0 0 -1 0 1  0 0 0 1 0" color-interpolation-filters="sRGB" result="source"/>
				</filter>
			</defs>
			<mask maskUnits="userSpaceOnUse" x="3.7" y="9.8" width="405.3" height="554.7" id="SVGID_6_">
				<g class="st5">
					<image style="overflow:visible;" width="410" height="560" xlink:href="F3B1928.jpg"  transform="matrix(1 0 0 1 1 7)">
					</image>
				</g>
			</mask>
			<g class="st6">
				<path class="st7" d="M278.1,42.3C401.6,165.9,409,369.7,409,369.7c0,200.6-200.6,194.8-200.6,194.8h-4.1
					c0,0-200.6,5.8-200.6-194.8c0,0-0.7-212.4,130.9-327.4C134.7,42.3,204.8-30.9,278.1,42.3z"/>
			</g>
		</g>
		
			<linearGradient id="SVGID_7_" gradientUnits="userSpaceOnUse" x1="263.7271" y1="548.1182" x2="314.2731" y2="497.5722" gradientTransform="matrix(2.740000e-02 -1.8737 1.6469 2.400000e-02 -534.6668 1007.9061)">
			<stop  offset="0" style="stop-color:#FFFFFF"/>
			<stop  offset="1" style="stop-color:#F05A28"/>
		</linearGradient>
		<path class="st8" d="M401.4,355.1c0,0-26.5,203-174.1,200.9C227.3,556,336.1,530.7,401.4,355.1z"/>
		<g class="st9">
			<defs>
				<filter id="Adobe_OpacityMaskFilter_1_" filterUnits="userSpaceOnUse" x="81.1" y="88.6" width="53.1" height="61.9">
					<feFlood  style="flood-color:white;flood-opacity:1" result="back"/>
					<feBlend  in="SourceGraphic" in2="back" mode="normal"/>
				</filter>
			</defs>
			<mask maskUnits="userSpaceOnUse" x="81.1" y="88.6" width="53.1" height="61.9" id="SVGID_8_">
				<g class="st10">
					<image style="overflow:visible;" width="58" height="67" xlink:href="F3B1929.jpg"  transform="matrix(1 0 0 1 79 86)">
					</image>
				</g>
			</mask>
			<g class="st11">
				
					<ellipse transform="matrix(0.5871 -0.8095 0.8095 0.5871 -52.3124 136.4738)" class="st12" cx="107.6" cy="119.5" rx="35.2" ry="20.6"/>
			</g>
		</g>
		<g class="st13">
			<defs>
				<filter id="Adobe_OpacityMaskFilter_2_" filterUnits="userSpaceOnUse" x="92.4" y="101.8" width="30.4" height="35.5">
					<feFlood  style="flood-color:white;flood-opacity:1" result="back"/>
					<feBlend  in="SourceGraphic" in2="back" mode="normal"/>
				</filter>
			</defs>
			<mask maskUnits="userSpaceOnUse" x="92.4" y="101.8" width="30.4" height="35.5" id="SVGID_9_">
				<g class="st14">
					<image style="overflow:visible;" width="35" height="41" xlink:href="F3B192F.jpg"  transform="matrix(1 0 0 1 90 99)">
					</image>
				</g>
			</mask>
			<g class="st15">
				
					<ellipse transform="matrix(0.5872 -0.8095 0.8095 0.5872 -52.3139 136.4619)" class="st12" cx="107.6" cy="119.5" rx="20.2" ry="11.8"/>
			</g>
		</g>
		<g class="st16">
			<defs>
				<filter id="Adobe_OpacityMaskFilter_3_" filterUnits="userSpaceOnUse" x="96.2" y="106.2" width="22.8" height="26.6">
					<feFlood  style="flood-color:white;flood-opacity:1" result="back"/>
					<feBlend  in="SourceGraphic" in2="back" mode="normal"/>
				</filter>
			</defs>
			<mask maskUnits="userSpaceOnUse" x="96.2" y="106.2" width="22.8" height="26.6" id="SVGID_10_">
				<g class="st17">
					<image style="overflow:visible;" width="28" height="31" xlink:href="F3B192A.jpg"  transform="matrix(1 0 0 1 94 104)">
					</image>
				</g>
			</mask>
			<g class="st18">
				
					<ellipse transform="matrix(0.5872 -0.8095 0.8095 0.5872 -52.3151 136.4637)" class="st12" cx="107.6" cy="119.5" rx="15.1" ry="8.8"/>
			</g>
		</g>
	</g>
	<polygon class="st19" points="298.6,268.2 283.7,280.1 288.7,297.1 283.1,303.1 281.5,315.7 272.2,321.6 266.7,346.2 235.1,348.9 
		233.3,358.4 216.8,368.7 217.7,379.8 206.4,411.4 225.8,379.5 220.5,372.2 239.3,360.6 238.6,352.7 269.4,355.4 279,369.8 
		292.5,373.5 300.5,394.4 290.2,405.5 292.1,415.6 287,427.2 287.2,456 269.1,469.5 294,457.8 292.2,427.6 303.8,418.1 297.3,408.8 
		306.5,395.2 301.4,385 307.8,375.6 286.3,363.2 284,356 277.3,349.9 302.8,353.9 312.8,343 332.2,354.8 346.3,357.7 352.7,350.2 
		371,358.8 349.5,342.2 343.4,350.6 334.6,349.7 314.5,334.5 297.5,345 283.4,333.1 283.7,325.5 292.9,323.4 290.4,312.7 
		303.5,304.1 308.4,294.6 320.7,281.3 	"/>
	<polygon class="st19" points="401.4,276.7 387.2,264.6 378.3,266.4 367.9,259.7 352.1,264.8 332,261.4 356.7,269.1 367,264.5 
		379.7,270.2 385.5,268.3 	"/>
	<polygon class="st19" points="-11.8,238.8 9.2,257.1 9.7,276.7 19.1,282.8 19.1,292.1 22.2,290.9 19.1,301.3 26,300.9 20.6,323.6 
		47.3,326.6 46.3,343.7 55.3,347.8 59.8,367.6 102.7,373.7 112.3,398.9 123.7,402.2 125.7,407.6 148.2,427.1 163,414 174,429.2 
		164.2,403.4 148.6,416.8 133,404.8 131.7,393.4 120.7,391 115.2,364.9 96.1,361.2 91,350 67.3,348 64.5,321 53.5,316.4 47.4,293.6 
		38.9,292 36.4,281.1 31.5,276.3 30.8,265.2 23.6,260 20.7,242.2 	"/>
	<polygon class="st19" points="242.6,487 219.1,493 207.8,487.8 203.7,489.8 198.2,487.2 187.2,502.3 168.5,493.5 161.4,513.7 
		146.6,515.3 135.3,530.1 116.2,531.5 114.5,546.1 103,551.5 88.9,551.3 84.3,567.1 73.2,563.9 68.7,573.6 59.9,569.6 54.1,582.2 
		25.7,580.5 51,510.7 60.5,542.7 69.3,535.9 79.9,555.4 85.5,543.4 102,543.4 110.7,522.9 138,518 141.7,504.6 153.4,503.9 
		155.3,487.1 168,468.1 162.2,461.1 170.8,453.7 164.8,444.5 178.2,454.7 170.4,461.4 176.1,466.8 161.9,487.3 173.8,484.6 
		176.3,488.5 185.7,494.5 197.9,478.5 203.6,483.1 208.2,481.7 213.4,485.7 	"/>
</g>
</svg>
