<?xml version="1.0" encoding="utf-8"?>
<!-- Generator: Adobe Illustrator 21.1.0, SVG Export Plug-In . SVG Version: 6.00 Build 0)  -->
<svg version="1.1" id="Layer_1" xmlns="http://www.w3.org/2000/svg" xmlns:xlink="http://www.w3.org/1999/xlink" x="0px" y="0px"
	 viewBox="0 0 413.6 567" style="enable-background:new 0 0 413.6 567;" xml:space="preserve">
<style type="text/css">
	.st0{clip-path:url(#SVGID_4_);}
	.st1{fill:#FFFFFF;}
	.st2{fill:#212E62;}
	.st3{fill:#D33036;}
	.st4{clip-path:url(#SVGID_4_);fill:#212E62;}
	.st5{filter:url(#Adobe_OpacityMaskFilter);}
	.st6{opacity:0.75;mask:url(#SVGID_7_);}
	.st7{clip-path:url(#SVGID_11_);}
	.st8{clip-path:url(#SVGID_11_);fill:#FFFFFF;}
	.st9{opacity:0.32;fill:url(#SVGID_14_);}
	.st10{opacity:0.2;}
	.st11{filter:url(#Adobe_OpacityMaskFilter_1_);}
	.st12{mask:url(#SVGID_15_);}
	.st13{opacity:0.4;}
	.st14{filter:url(#Adobe_OpacityMaskFilter_2_);}
	.st15{mask:url(#SVGID_16_);}
	.st16{opacity:0.6;}
	.st17{filter:url(#Adobe_OpacityMaskFilter_3_);}
	.st18{mask:url(#SVGID_17_);}
	.st19{opacity:0.19;fill:url(#SVGID_18_);}
</style>
<g>
	<g>
		<g>
			<g>
				<defs>
					<path id="SVGID_1_" d="M280.1,40.2c124.2,124.2,131.6,329,131.6,329c0,201.6-201.6,195.8-201.6,195.8h-4.1
						c0,0-201.6,5.8-201.6-195.8c0,0-0.7-213.5,131.6-329C136.1,40.2,206.6-33.3,280.1,40.2z"/>
				</defs>
				<clipPath id="SVGID_2_">
					<use xlink:href="#SVGID_1_"  style="overflow:visible;"/>
				</clipPath>
			</g>
			<g>
				<defs>
					<path id="SVGID_3_" d="M280.1,40.2c124.2,124.2,131.6,329,131.6,329c0,201.6-201.6,195.8-201.6,195.8h-4.1
						c0,0-201.6,5.8-201.6-195.8c0,0-0.7-213.5,131.6-329C136.1,40.2,206.6-33.3,280.1,40.2z"/>
				</defs>
				<clipPath id="SVGID_4_">
					<use xlink:href="#SVGID_3_"  style="overflow:visible;"/>
				</clipPath>
				<g class="st0">
					<rect x="-26.5" y="-7.2" class="st1" width="446.8" height="589.6"/>
				</g>
				<g class="st0">
					<polygon class="st2" points="161.2,246.4 161.2,-29.6 19.8,175.9 					"/>
				</g>
				<g class="st0">
					<polygon class="st2" points="264.5,246.4 264.5,-20.9 410.6,174.4 					"/>
				</g>
				<g class="st0">
					<polygon class="st2" points="161.2,364.3 161.2,600 -54.6,475.8 					"/>
				</g>
				<g class="st0">
					<polygon class="st2" points="264.5,364.3 264.5,628.5 491.5,482.1 					"/>
				</g>
				<g class="st0">
					<polygon class="st3" points="184.3,628.5 184.3,335.1 -10,335.1 -10,273.5 184.3,273.5 184.3,-7.2 242.6,-7.2 242.6,274.6 
						464.3,274.6 464.3,336.1 241.5,336.1 241.5,628.5 					"/>
				</g>
				<g class="st0">
					<polygon class="st3" points="154.9,356 112.1,356 -33.3,429.1 -33.3,449.9 					"/>
				</g>
				<g class="st0">
					<polygon class="st3" points="315.6,356 357.3,356 443.8,403 443.8,420.7 					"/>
				</g>
				<g class="st0">
					<polygon class="st3" points="269.7,254.7 310.4,254.7 411.7,207.1 411.7,185.8 					"/>
				</g>
				<g class="st0">
					<polygon class="st3" points="111.1,254.7 10.9,204.6 10.9,227.1 71,254.7 					"/>
				</g>
				<g class="st0">
					<polygon class="st2" points="36.1,254.7 -13.5,229.7 -13.5,254.7 					"/>
				</g>
				<polygon class="st4" points="43.5,356 -56.9,356 -56.9,403 				"/>
				<polygon class="st4" points="364.5,254.7 420.7,254.7 420.7,229.7 				"/>
				<polygon class="st4" points="377.2,356 425.2,356 425.2,379.5 				"/>
			</g>
			<g>
				<defs>
					<path id="SVGID_5_" d="M280.1,40.2c124.2,124.2,131.6,329,131.6,329c0,201.6-201.6,195.8-201.6,195.8h-4.1
						c0,0-201.6,5.8-201.6-195.8c0,0-0.7-213.5,131.6-329C136.1,40.2,206.6-33.3,280.1,40.2z"/>
				</defs>
				<clipPath id="SVGID_6_">
					<use xlink:href="#SVGID_5_"  style="overflow:visible;"/>
				</clipPath>
			</g>
		</g>
		<defs>
			<filter id="Adobe_OpacityMaskFilter" filterUnits="userSpaceOnUse" x="-56.9" y="-29.6" width="548.4" height="658.1">
				
					<feColorMatrix  type="matrix" values="-1 0 0 0 1  0 -1 0 0 1  0 0 -1 0 1  0 0 0 1 0" color-interpolation-filters="sRGB" result="source"/>
			</filter>
		</defs>
		<mask maskUnits="userSpaceOnUse" x="-56.9" y="-29.6" width="548.4" height="658.1" id="SVGID_7_">
			<g class="st5">
				<image style="overflow:visible;" width="553" height="663" xlink:href="4BACC2BF.jpg"  transform="matrix(1 0 0 1 -59 -32)">
				</image>
			</g>
		</mask>
		<g class="st6">
			<g>
				<defs>
					<path id="SVGID_8_" d="M280.1,40.2c124.2,124.2,131.6,329,131.6,329c0,201.6-201.6,195.8-201.6,195.8h-4.1
						c0,0-201.6,5.8-201.6-195.8c0,0-0.7-213.5,131.6-329C136.1,40.2,206.6-33.3,280.1,40.2z"/>
				</defs>
				<clipPath id="SVGID_9_">
					<use xlink:href="#SVGID_8_"  style="overflow:visible;"/>
				</clipPath>
			</g>
			<g>
				<defs>
					<path id="SVGID_10_" d="M280.1,40.2c124.2,124.2,131.6,329,131.6,329c0,201.6-201.6,195.8-201.6,195.8h-4.1
						c0,0-201.6,5.8-201.6-195.8c0,0-0.7-213.5,131.6-329C136.1,40.2,206.6-33.3,280.1,40.2z"/>
				</defs>
				<clipPath id="SVGID_11_">
					<use xlink:href="#SVGID_10_"  style="overflow:visible;"/>
				</clipPath>
				<g class="st7">
					<rect x="-26.5" y="-7.2" class="st1" width="446.8" height="589.6"/>
				</g>
				<g class="st7">
					<polygon class="st1" points="161.2,246.4 161.2,-29.6 19.8,175.9 					"/>
				</g>
				<g class="st7">
					<polygon class="st1" points="264.5,246.4 264.5,-20.9 410.6,174.4 					"/>
				</g>
				<g class="st7">
					<polygon class="st1" points="161.2,364.3 161.2,600 -54.6,475.8 					"/>
				</g>
				<g class="st7">
					<polygon class="st1" points="264.5,364.3 264.5,628.5 491.5,482.1 					"/>
				</g>
				<g class="st7">
					<polygon class="st1" points="184.3,628.5 184.3,335.1 -10,335.1 -10,273.5 184.3,273.5 184.3,-7.2 242.6,-7.2 242.6,274.6 
						464.3,274.6 464.3,336.1 241.5,336.1 241.5,628.5 					"/>
				</g>
				<g class="st7">
					<polygon class="st1" points="154.9,356 112.1,356 -33.3,429.1 -33.3,449.9 					"/>
				</g>
				<g class="st7">
					<polygon class="st1" points="315.6,356 357.3,356 443.8,403 443.8,420.7 					"/>
				</g>
				<g class="st7">
					<polygon class="st1" points="269.7,254.7 310.4,254.7 411.7,207.1 411.7,185.8 					"/>
				</g>
				<g class="st7">
					<polygon class="st1" points="111.1,254.7 10.9,204.6 10.9,227.1 71,254.7 					"/>
				</g>
				<g class="st7">
					<polygon class="st1" points="36.1,254.7 -13.5,229.7 -13.5,254.7 					"/>
				</g>
				<polygon class="st8" points="43.5,356 -56.9,356 -56.9,403 				"/>
				<polygon class="st8" points="364.5,254.7 420.7,254.7 420.7,229.7 				"/>
				<polygon class="st8" points="377.2,356 425.2,356 425.2,379.5 				"/>
			</g>
			<g>
				<defs>
					<path id="SVGID_12_" d="M280.1,40.2c124.2,124.2,131.6,329,131.6,329c0,201.6-201.6,195.8-201.6,195.8h-4.1
						c0,0-201.6,5.8-201.6-195.8c0,0-0.7-213.5,131.6-329C136.1,40.2,206.6-33.3,280.1,40.2z"/>
				</defs>
				<clipPath id="SVGID_13_">
					<use xlink:href="#SVGID_12_"  style="overflow:visible;"/>
				</clipPath>
			</g>
		</g>
	</g>
	<linearGradient id="SVGID_14_" gradientUnits="userSpaceOnUse" x1="75.483" y1="94.6906" x2="320.2412" y2="547.6484">
		<stop  offset="0" style="stop-color:#FFFFFF;stop-opacity:0.6"/>
		<stop  offset="7.387038e-02" style="stop-color:#F4F1EE;stop-opacity:0.6329"/>
		<stop  offset="0.2197" style="stop-color:#D9CDC3;stop-opacity:0.6979"/>
		<stop  offset="0.4218" style="stop-color:#AC937D;stop-opacity:0.788"/>
		<stop  offset="0.5162" style="stop-color:#96765A;stop-opacity:0.83"/>
		<stop  offset="0.6227" style="stop-color:#8F6E51;stop-opacity:0.8674"/>
		<stop  offset="0.7993" style="stop-color:#7C5837;stop-opacity:0.9295"/>
		<stop  offset="1" style="stop-color:#603813"/>
	</linearGradient>
	<path class="st9" d="M280.1,40.2c124.2,124.2,131.6,329,131.6,329c0,201.6-201.6,195.8-201.6,195.8h-4.1c0,0-201.6,5.8-201.6-195.8
		c0,0-0.7-213.5,131.6-329C136.1,40.2,206.6-33.3,280.1,40.2z"/>
	<g class="st10">
		<defs>
			<filter id="Adobe_OpacityMaskFilter_1_" filterUnits="userSpaceOnUse" x="99.6" y="52.1" width="70.4" height="82.1">
				<feFlood  style="flood-color:white;flood-opacity:1" result="back"/>
				<feBlend  in="SourceGraphic" in2="back" mode="normal"/>
			</filter>
		</defs>
		<mask maskUnits="userSpaceOnUse" x="99.6" y="52.1" width="70.4" height="82.1" id="SVGID_15_">
			<g class="st11">
				<image style="overflow:visible;" width="75" height="87" xlink:href="4BACC2BD.jpg"  transform="matrix(1 0 0 1 97 50)">
				</image>
			</g>
		</mask>
		<g class="st12">
			<path class="st1" d="M156.9,109.1c-15.1,20.9-37.3,30.6-49.5,21.7c-12.2-8.9-9.9-33,5.3-53.8c15.1-20.9,37.3-30.6,49.5-21.7
				C174.4,64.2,172,88.3,156.9,109.1z"/>
		</g>
	</g>
	<g class="st13">
		<defs>
			<filter id="Adobe_OpacityMaskFilter_2_" filterUnits="userSpaceOnUse" x="114.6" y="69.6" width="40.3" height="47">
				<feFlood  style="flood-color:white;flood-opacity:1" result="back"/>
				<feBlend  in="SourceGraphic" in2="back" mode="normal"/>
			</filter>
		</defs>
		<mask maskUnits="userSpaceOnUse" x="114.6" y="69.6" width="40.3" height="47" id="SVGID_16_">
			<g class="st14">
				<image style="overflow:visible;" width="45" height="52" xlink:href="4BACC2C3.jpg"  transform="matrix(1 0 0 1 112 67)">
				</image>
			</g>
		</mask>
		<g class="st15">
			
				<ellipse transform="matrix(0.5871 -0.8095 0.8095 0.5871 -19.7059 147.5493)" class="st1" cx="134.8" cy="93.1" rx="26.7" ry="15.7"/>
		</g>
	</g>
	<g class="st16">
		<defs>
			<filter id="Adobe_OpacityMaskFilter_3_" filterUnits="userSpaceOnUse" x="119.7" y="75.5" width="30.2" height="35.2">
				<feFlood  style="flood-color:white;flood-opacity:1" result="back"/>
				<feBlend  in="SourceGraphic" in2="back" mode="normal"/>
			</filter>
		</defs>
		<mask maskUnits="userSpaceOnUse" x="119.7" y="75.5" width="30.2" height="35.2" id="SVGID_17_">
			<g class="st17">
				<image style="overflow:visible;" width="35" height="40" xlink:href="4BACC2C5.jpg"  transform="matrix(1 0 0 1 117 73)">
				</image>
			</g>
		</mask>
		<g class="st18">
			<path class="st1" d="M144.3,100c-6.5,9-16,13.1-21.3,9.3c-5.3-3.8-4.2-14.2,2.3-23.1c6.5-9,16-13.1,21.3-9.3
				C151.8,80.7,150.8,91,144.3,100z"/>
		</g>
	</g>
	
		<linearGradient id="SVGID_18_" gradientUnits="userSpaceOnUse" x1="263.8282" y1="550.449" x2="314.6222" y2="499.6549" gradientTransform="matrix(2.740000e-02 -1.8737 1.6469 2.400000e-02 -534.6668 1007.9061)">
		<stop  offset="0" style="stop-color:#FFFFFF"/>
		<stop  offset="1" style="stop-color:#F05A28"/>
	</linearGradient>
	<path class="st19" d="M405.4,354.1c0,0-26.6,204-175,201.9C230.4,556,339.8,530.6,405.4,354.1z"/>
</g>
</svg>
