<?xml version="1.0" encoding="utf-8"?>
<!-- Generator: Adobe Illustrator 21.1.0, SVG Export Plug-In . SVG Version: 6.00 Build 0)  -->
<svg version="1.1" id="Layer_1" xmlns="http://www.w3.org/2000/svg" xmlns:xlink="http://www.w3.org/1999/xlink" x="0px" y="0px"
	 viewBox="0 0 413.6 567" style="enable-background:new 0 0 413.6 567;" xml:space="preserve">
<style type="text/css">
	.st0{clip-path:url(#SVGID_2_);fill:#C52127;}
	.st1{clip-path:url(#SVGID_2_);fill:#FFC40E;}
	.st2{opacity:0.3;}
	.st3{fill:url(#SVGID_3_);}
	.st4{filter:url(#Adobe_OpacityMaskFilter);}
	.st5{opacity:0.75;mask:url(#SVGID_4_);}
	.st6{fill:#F16667;}
	.st7{opacity:0.19;fill:url(#SVGID_5_);}
	.st8{opacity:0.2;}
	.st9{filter:url(#Adobe_OpacityMaskFilter_1_);}
	.st10{mask:url(#SVGID_6_);}
	.st11{fill:#FFFFFF;}
	.st12{opacity:0.6;}
	.st13{filter:url(#Adobe_OpacityMaskFilter_2_);}
	.st14{mask:url(#SVGID_7_);}
	.st15{opacity:0.8;}
	.st16{filter:url(#Adobe_OpacityMaskFilter_3_);}
	.st17{mask:url(#SVGID_8_);}
</style>
<g>
	<g>
		<defs>
			<path id="SVGID_1_" d="M280,39.2c124.2,124.2,131.6,329,131.6,329c0,201.6-201.6,195.8-201.6,195.8H206
				c0,0-201.6,5.8-201.6-195.8c0,0-0.7-213.5,131.6-329C136,39.2,206.5-34.3,280,39.2z"/>
		</defs>
		<clipPath id="SVGID_2_">
			<use xlink:href="#SVGID_1_"  style="overflow:visible;"/>
		</clipPath>
		<rect x="-16" y="6.5" class="st0" width="446.1" height="141.9"/>
		<rect x="-15.1" y="422.1" class="st0" width="446.1" height="141.9"/>
		<rect x="-15.1" y="148.5" class="st1" width="445.2" height="273.6"/>
	</g>
	<g class="st2">
		<g>
			<linearGradient id="SVGID_3_" gradientUnits="userSpaceOnUse" x1="319.2046" y1="25.6175" x2="134.1389" y2="562.6394">
				<stop  offset="0" style="stop-color:#FFFFFF"/>
				<stop  offset="1" style="stop-color:#603813"/>
			</linearGradient>
			<path class="st3" d="M280,39.2c124.2,124.2,131.6,329,131.6,329c0,201.6-201.6,195.8-201.6,195.8H206c0,0-201.6,5.8-201.6-195.8
				c0,0-0.7-213.5,131.6-329C136,39.2,206.5-34.3,280,39.2z"/>
		</g>
		<defs>
			<filter id="Adobe_OpacityMaskFilter" filterUnits="userSpaceOnUse" x="4.4" y="6.6" width="407.2" height="557.5">
				
					<feColorMatrix  type="matrix" values="-1 0 0 0 1  0 -1 0 0 1  0 0 -1 0 1  0 0 0 1 0" color-interpolation-filters="sRGB" result="source"/>
			</filter>
		</defs>
		<mask maskUnits="userSpaceOnUse" x="4.4" y="6.6" width="407.2" height="557.5" id="SVGID_4_">
			<g class="st4">
				<image style="overflow:visible;" width="412" height="562" xlink:href="37939319.jpg"  transform="matrix(1 0 0 1 2 4)">
				</image>
			</g>
		</mask>
		<g class="st5">
			<path class="st6" d="M280,39.2c124.2,124.2,131.6,329,131.6,329c0,201.6-201.6,195.8-201.6,195.8H206c0,0-201.6,5.8-201.6-195.8
				c0,0-0.7-213.5,131.6-329C136,39.2,206.5-34.3,280,39.2z"/>
		</g>
	</g>
	
		<linearGradient id="SVGID_5_" gradientUnits="userSpaceOnUse" x1="264.1311" y1="549.614" x2="314.925" y2="498.82" gradientTransform="matrix(2.740000e-02 -1.8737 1.6469 2.400000e-02 -534.6668 1007.9061)">
		<stop  offset="0" style="stop-color:#FFFFFF"/>
		<stop  offset="1" style="stop-color:#F05A28"/>
	</linearGradient>
	<path class="st7" d="M404,353.5c0,0-26.6,204-175,201.9C229,555.4,338.4,530,404,353.5z"/>
	<g class="st8">
		<defs>
			<filter id="Adobe_OpacityMaskFilter_1_" filterUnits="userSpaceOnUse" x="82.1" y="85.7" width="53.4" height="62.2">
				<feFlood  style="flood-color:white;flood-opacity:1" result="back"/>
				<feBlend  in="SourceGraphic" in2="back" mode="normal"/>
			</filter>
		</defs>
		<mask maskUnits="userSpaceOnUse" x="82.1" y="85.7" width="53.4" height="62.2" id="SVGID_6_">
			<g class="st9">
				<image style="overflow:visible;" width="58" height="67" xlink:href="3793931B.jpg"  transform="matrix(1 0 0 1 80 83)">
				</image>
			</g>
		</mask>
		<g class="st10">
			
				<ellipse transform="matrix(0.5871 -0.8095 0.8095 0.5871 -49.6316 136.2917)" class="st11" cx="108.8" cy="116.8" rx="35.4" ry="20.7"/>
		</g>
	</g>
	<g class="st12">
		<defs>
			<filter id="Adobe_OpacityMaskFilter_2_" filterUnits="userSpaceOnUse" x="93.5" y="99" width="30.6" height="35.6">
				<feFlood  style="flood-color:white;flood-opacity:1" result="back"/>
				<feBlend  in="SourceGraphic" in2="back" mode="normal"/>
			</filter>
		</defs>
		<mask maskUnits="userSpaceOnUse" x="93.5" y="99" width="30.6" height="35.6" id="SVGID_7_">
			<g class="st13">
				<image style="overflow:visible;" width="36" height="41" xlink:href="3793931E.jpg"  transform="matrix(1 0 0 1 91 96)">
				</image>
			</g>
		</mask>
		<g class="st14">
			
				<ellipse transform="matrix(0.5872 -0.8095 0.8095 0.5872 -49.6333 136.2799)" class="st11" cx="108.8" cy="116.8" rx="20.3" ry="11.9"/>
		</g>
	</g>
	<g class="st15">
		<defs>
			<filter id="Adobe_OpacityMaskFilter_3_" filterUnits="userSpaceOnUse" x="97.3" y="103.4" width="22.9" height="26.7">
				<feFlood  style="flood-color:white;flood-opacity:1" result="back"/>
				<feBlend  in="SourceGraphic" in2="back" mode="normal"/>
			</filter>
		</defs>
		<mask maskUnits="userSpaceOnUse" x="97.3" y="103.4" width="22.9" height="26.7" id="SVGID_8_">
			<g class="st16">
				<image style="overflow:visible;" width="28" height="32" xlink:href="3793931F.jpg"  transform="matrix(1 0 0 1 95 101)">
				</image>
			</g>
		</mask>
		<g class="st17">
			
				<ellipse transform="matrix(0.5872 -0.8095 0.8095 0.5872 -49.6344 136.2817)" class="st11" cx="108.8" cy="116.8" rx="15.2" ry="8.9"/>
		</g>
	</g>
</g>
</svg>
