<?xml version="1.0" encoding="utf-8"?>
<!-- Generator: Adobe Illustrator 21.1.0, SVG Export Plug-In . SVG Version: 6.00 Build 0)  -->
<svg version="1.1" id="Layer_1" xmlns="http://www.w3.org/2000/svg" xmlns:xlink="http://www.w3.org/1999/xlink" x="0px" y="0px"
	 viewBox="0 0 413.6 567" style="enable-background:new 0 0 413.6 567;" xml:space="preserve">
<style type="text/css">
	.st0{clip-path:url(#SVGID_2_);fill:none;stroke:#EC1C24;stroke-miterlimit:10;}
	.st1{clip-path:url(#SVGID_2_);}
	.st2{clip-path:url(#SVGID_6_);}
	.st3{fill:#239C48;}
	.st4{fill:#FFFFFF;}
	.st5{fill:#EB2B3A;}
	.st6{filter:url(#Adobe_OpacityMaskFilter);}
	.st7{opacity:0.21;mask:url(#SVGID_9_);}
	.st8{clip-path:url(#SVGID_13_);}
	.st9{fill:#94CB73;}
	.st10{opacity:0.2;}
	.st11{filter:url(#Adobe_OpacityMaskFilter_1_);}
	.st12{mask:url(#SVGID_16_);}
	.st13{opacity:0.6;}
	.st14{filter:url(#Adobe_OpacityMaskFilter_2_);}
	.st15{mask:url(#SVGID_17_);}
	.st16{opacity:0.8;}
	.st17{filter:url(#Adobe_OpacityMaskFilter_3_);}
	.st18{mask:url(#SVGID_18_);}
	.st19{opacity:0.19;fill:url(#SVGID_19_);}
	.st20{opacity:0.3;}
	.st21{fill:url(#SVGID_20_);}
	.st22{filter:url(#Adobe_OpacityMaskFilter_4_);}
	.st23{opacity:0.75;mask:url(#SVGID_21_);}
	.st24{fill:url(#SVGID_22_);}
	.st25{filter:url(#Adobe_OpacityMaskFilter_5_);}
	.st26{opacity:0.75;mask:url(#SVGID_23_);}
	.st27{clip-path:url(#SVGID_2_);fill:#00A551;}
</style>
<g>
	<defs>
		<path id="SVGID_1_" d="M12.5,306.4c-6.6,38-7.5,63.2-7.5,63.2C5,570,205.5,564.2,205.5,564.2h4.1c0,0,200.5,5.8,200.5-194.7
			c0,0,0.3-100.3-42.2-200.4l-6.7,95l-23.4-53l-23.2-25.4L292.1,229l-2-43.4l-24.3,51.3l-11.7-29.6l-13.2,124.6l-9.2-59.3l-35.8-72
			l0.6,69l-30.2-47.4L109.9,211l18.7,42.7l-60-37.3l29.6,63.1l-32.3,7.5L61,321.4l-30.8-41.9L12.5,306.4z"/>
	</defs>
	<clipPath id="SVGID_2_">
		<use xlink:href="#SVGID_1_"  style="overflow:visible;"/>
	</clipPath>
	<path class="st0" d="M238.2,508.3"/>
	<g class="st1">
		<g>
			<g>
				<g>
					<defs>
						<path id="SVGID_3_" d="M279.1,42.4C402.6,165.9,410,369.6,410,369.6c0,200.5-200.5,194.7-200.5,194.7h-4.1
							c0,0-200.5,5.8-200.5-194.7c0,0-0.7-212.3,130.9-327.2C135.9,42.4,206-30.7,279.1,42.4z"/>
					</defs>
					<clipPath id="SVGID_4_">
						<use xlink:href="#SVGID_3_"  style="overflow:visible;"/>
					</clipPath>
				</g>
				<g>
					<defs>
						<path id="SVGID_5_" d="M279.1,42.4C402.6,165.9,410,369.6,410,369.6c0,200.5-200.5,194.7-200.5,194.7h-4.1
							c0,0-200.5,5.8-200.5-194.7c0,0-0.7-212.3,130.9-327.2C135.9,42.4,206-30.7,279.1,42.4z"/>
					</defs>
					<clipPath id="SVGID_6_">
						<use xlink:href="#SVGID_5_"  style="overflow:visible;"/>
					</clipPath>
					<g class="st2">
						<rect x="-6.2" y="-32.2" class="st3" width="142.7" height="622.1"/>
					</g>
					<g class="st2">
						<rect x="136.1" y="-30.6" class="st4" width="142.7" height="622.1"/>
					</g>
					<g class="st2">
						<rect x="278.5" y="-32.1" class="st5" width="142.7" height="622.1"/>
					</g>
				</g>
				<g>
					<defs>
						<path id="SVGID_7_" d="M279.1,42.4C402.6,165.9,410,369.6,410,369.6c0,200.5-200.5,194.7-200.5,194.7h-4.1
							c0,0-200.5,5.8-200.5-194.7c0,0-0.7-212.3,130.9-327.2C135.9,42.4,206-30.7,279.1,42.4z"/>
					</defs>
					<clipPath id="SVGID_8_">
						<use xlink:href="#SVGID_7_"  style="overflow:visible;"/>
					</clipPath>
				</g>
			</g>
			<defs>
				<filter id="Adobe_OpacityMaskFilter" filterUnits="userSpaceOnUse" x="-6.2" y="-32.2" width="427.4" height="623.7">
					
						<feColorMatrix  type="matrix" values="-1 0 0 0 1  0 -1 0 0 1  0 0 -1 0 1  0 0 0 1 0" color-interpolation-filters="sRGB" result="source"/>
				</filter>
			</defs>
			<mask maskUnits="userSpaceOnUse" x="-6.2" y="-32.2" width="427.4" height="623.7" id="SVGID_9_">
				<g class="st6">
					<image style="overflow:visible;" width="433" height="629" xlink:href="ECA469D9.jpg"  transform="matrix(1 0 0 1 -9 -35)">
					</image>
				</g>
			</mask>
			<g class="st7">
				<g>
					<defs>
						<path id="SVGID_10_" d="M279.1,42.4C402.6,165.9,410,369.6,410,369.6c0,200.5-200.5,194.7-200.5,194.7h-4.1
							c0,0-200.5,5.8-200.5-194.7c0,0-0.7-212.3,130.9-327.2C135.9,42.4,206-30.7,279.1,42.4z"/>
					</defs>
					<clipPath id="SVGID_11_">
						<use xlink:href="#SVGID_10_"  style="overflow:visible;"/>
					</clipPath>
				</g>
				<g>
					<defs>
						<path id="SVGID_12_" d="M279.1,42.4C402.6,165.9,410,369.6,410,369.6c0,200.5-200.5,194.7-200.5,194.7h-4.1
							c0,0-200.5,5.8-200.5-194.7c0,0-0.7-212.3,130.9-327.2C135.9,42.4,206-30.7,279.1,42.4z"/>
					</defs>
					<clipPath id="SVGID_13_">
						<use xlink:href="#SVGID_12_"  style="overflow:visible;"/>
					</clipPath>
					<g class="st8">
						<rect x="-6.2" y="-32.2" class="st9" width="142.7" height="622.1"/>
					</g>
					<g class="st8">
						<rect x="136.1" y="-30.6" class="st9" width="142.7" height="622.1"/>
					</g>
					<g class="st8">
						<rect x="278.5" y="-32.1" class="st9" width="142.7" height="622.1"/>
					</g>
				</g>
				<g>
					<defs>
						<path id="SVGID_14_" d="M279.1,42.4C402.6,165.9,410,369.6,410,369.6c0,200.5-200.5,194.7-200.5,194.7h-4.1
							c0,0-200.5,5.8-200.5-194.7c0,0-0.7-212.3,130.9-327.2C135.9,42.4,206-30.7,279.1,42.4z"/>
					</defs>
					<clipPath id="SVGID_15_">
						<use xlink:href="#SVGID_14_"  style="overflow:visible;"/>
					</clipPath>
				</g>
			</g>
		</g>
		<g class="st10">
			<defs>
				<filter id="Adobe_OpacityMaskFilter_1_" filterUnits="userSpaceOnUse" x="86.9" y="93.1" width="53.1" height="61.9">
					<feFlood  style="flood-color:white;flood-opacity:1" result="back"/>
					<feBlend  in="SourceGraphic" in2="back" mode="normal"/>
				</filter>
			</defs>
			<mask maskUnits="userSpaceOnUse" x="86.9" y="93.1" width="53.1" height="61.9" id="SVGID_16_">
				<g class="st11">
					<image style="overflow:visible;" width="58" height="66" xlink:href="ECA469DB.jpg"  transform="matrix(1 0 0 1 84 91)">
					</image>
				</g>
			</mask>
			<g class="st12">
				
					<ellipse transform="matrix(0.5871 -0.8095 0.8095 0.5871 -53.555 142.991)" class="st4" cx="113.4" cy="124" rx="35.2" ry="20.6"/>
			</g>
		</g>
		<g class="st13">
			<defs>
				<filter id="Adobe_OpacityMaskFilter_2_" filterUnits="userSpaceOnUse" x="98.2" y="106.3" width="30.4" height="35.4">
					<feFlood  style="flood-color:white;flood-opacity:1" result="back"/>
					<feBlend  in="SourceGraphic" in2="back" mode="normal"/>
				</filter>
			</defs>
			<mask maskUnits="userSpaceOnUse" x="98.2" y="106.3" width="30.4" height="35.4" id="SVGID_17_">
				<g class="st14">
					<image style="overflow:visible;" width="35" height="40" xlink:href="ECA469DE.jpg"  transform="matrix(1 0 0 1 96 104)">
					</image>
				</g>
			</mask>
			<g class="st15">
				
					<ellipse transform="matrix(0.5872 -0.8095 0.8095 0.5872 -53.5566 142.9786)" class="st4" cx="113.4" cy="124" rx="20.1" ry="11.8"/>
			</g>
		</g>
		<g class="st16">
			<defs>
				<filter id="Adobe_OpacityMaskFilter_3_" filterUnits="userSpaceOnUse" x="102" y="110.7" width="22.8" height="26.6">
					<feFlood  style="flood-color:white;flood-opacity:1" result="back"/>
					<feBlend  in="SourceGraphic" in2="back" mode="normal"/>
				</filter>
			</defs>
			<mask maskUnits="userSpaceOnUse" x="102" y="110.7" width="22.8" height="26.6" id="SVGID_18_">
				<g class="st17">
					<image style="overflow:visible;" width="27" height="32" xlink:href="ECA469DF.jpg"  transform="matrix(1 0 0 1 100 108)">
					</image>
				</g>
			</mask>
			<g class="st18">
				
					<ellipse transform="matrix(0.5872 -0.8095 0.8095 0.5872 -53.5578 142.9807)" class="st4" cx="113.4" cy="124" rx="15.1" ry="8.8"/>
			</g>
		</g>
		
			<linearGradient id="SVGID_19_" gradientUnits="userSpaceOnUse" x1="265.7404" y1="548.0083" x2="316.2537" y2="497.4951" gradientTransform="matrix(2.740000e-02 -1.8737 1.6469 2.400000e-02 -534.6668 1007.9061)">
			<stop  offset="0" style="stop-color:#FFFFFF"/>
			<stop  offset="1" style="stop-color:#F05A28"/>
		</linearGradient>
		<path class="st19" d="M401.3,351.4c0,0-26.5,202.9-174,200.8C227.2,552.2,336,526.9,401.3,351.4z"/>
		<g class="st20">
			<g>
				<linearGradient id="SVGID_20_" gradientUnits="userSpaceOnUse" x1="178.6337" y1="283.2624" x2="393.077" y2="436.0838">
					<stop  offset="0" style="stop-color:#FFFFFF"/>
					<stop  offset="1" style="stop-color:#603813"/>
				</linearGradient>
				<path class="st21" d="M279.1,42.4C402.6,165.9,410,369.6,410,369.6c0,200.5-200.5,194.7-200.5,194.7h-4.1
					c0,0-200.5,5.8-200.5-194.7c0,0-0.7-212.3,130.9-327.2C135.9,42.4,206-30.7,279.1,42.4z"/>
			</g>
			<defs>
				<filter id="Adobe_OpacityMaskFilter_4_" filterUnits="userSpaceOnUse" x="5" y="9.9" width="405" height="554.4">
					
						<feColorMatrix  type="matrix" values="-1 0 0 0 1  0 -1 0 0 1  0 0 -1 0 1  0 0 0 1 0" color-interpolation-filters="sRGB" result="source"/>
				</filter>
			</defs>
			<mask maskUnits="userSpaceOnUse" x="5" y="9.9" width="405" height="554.4" id="SVGID_21_">
				<g class="st22">
					<image style="overflow:visible;" width="409" height="560" xlink:href="ECA469DA.jpg"  transform="matrix(1 0 0 1 3 7)">
					</image>
				</g>
			</mask>
			<g class="st23">
				<path class="st4" d="M279.1,42.4C402.6,165.9,410,369.6,410,369.6c0,200.5-200.5,194.7-200.5,194.7h-4.1
					c0,0-200.5,5.8-200.5-194.7c0,0-0.7-212.3,130.9-327.2C135.9,42.4,206-30.7,279.1,42.4z"/>
			</g>
		</g>
		<g class="st20">
			<g>
				<linearGradient id="SVGID_22_" gradientUnits="userSpaceOnUse" x1="215.2467" y1="291.5566" x2="181.9709" y2="623.0808">
					<stop  offset="0" style="stop-color:#FFFFFF"/>
					<stop  offset="1" style="stop-color:#603813"/>
				</linearGradient>
				<path class="st24" d="M279.1,42.4C402.6,165.9,410,369.6,410,369.6c0,200.5-200.5,194.7-200.5,194.7h-4.1
					c0,0-200.5,5.8-200.5-194.7c0,0-0.7-212.3,130.9-327.2C135.9,42.4,206-30.7,279.1,42.4z"/>
			</g>
			<defs>
				<filter id="Adobe_OpacityMaskFilter_5_" filterUnits="userSpaceOnUse" x="5" y="9.9" width="405" height="554.4">
					
						<feColorMatrix  type="matrix" values="-1 0 0 0 1  0 -1 0 0 1  0 0 -1 0 1  0 0 0 1 0" color-interpolation-filters="sRGB" result="source"/>
				</filter>
			</defs>
			<mask maskUnits="userSpaceOnUse" x="5" y="9.9" width="405" height="554.4" id="SVGID_23_">
				<g class="st25">
					<image style="overflow:visible;" width="409" height="560" xlink:href="ECA469D5.jpg"  transform="matrix(1 0 0 1 3 7)">
					</image>
				</g>
			</mask>
			<g class="st26">
				<path class="st4" d="M279.1,42.4C402.6,165.9,410,369.6,410,369.6c0,200.5-200.5,194.7-200.5,194.7h-4.1
					c0,0-200.5,5.8-200.5-194.7c0,0-0.7-212.3,130.9-327.2C135.9,42.4,206-30.7,279.1,42.4z"/>
			</g>
		</g>
	</g>
	<polygon class="st27" points="61.4,278.9 58.5,297.8 73.7,306.9 73.7,315.1 81.1,325.3 78.2,336 91,357.8 69.6,381.2 74.7,389.4 
		69.6,408.2 77.8,415.7 91,446.5 83.6,410 74.7,408.2 80.7,387 74.7,381.6 99.2,362.7 116,366.7 128.3,360.3 148.5,370.1 
		148.5,385.3 156.7,391.5 160.8,403.4 180.5,424.3 176.4,446.5 186.7,421.1 164.9,400.1 167,385.3 155.9,382.9 153.4,366.7 
		142.7,362.7 141.1,351.4 116.8,357 110.3,353.3 101.2,353.3 122.6,338.9 122.6,324.1 144.8,319.6 157.1,312.2 156.7,302.3 
		176,296.2 148.9,298.6 150.1,308.9 143.1,314.3 118.1,316.7 112.7,336 94.3,336.8 89.3,331.1 94.7,323.3 85.6,317.1 89.3,301.9 
		86.4,291.7 86.4,273.6 	"/>
	<polygon class="st27" points="238.2,501.6 259.8,483.9 274.2,483.9 277.5,479.8 284.5,479.8 288.6,458.9 312.4,458.9 309.9,434.4 
		324.7,425.6 329.2,404.6 348.5,393.9 343.2,377.9 352.7,366.7 367.4,360.1 364.6,341.4 377.7,339.3 377.7,327 388.8,327 388.8,311 
		419.2,299.1 426.6,384.1 401.3,355.3 395.3,366.7 374.8,351.4 374.8,366.7 357.6,374.6 358.4,400.3 332.4,418.6 335,434.4 
		323.1,440.8 329.2,459.3 325.1,485.1 334.6,489.7 329.2,501.6 339.9,508.3 321,504 325.9,493.4 317.3,490.5 322.3,462.1 
		311.2,470.8 306.6,467.9 293.9,466.3 289,488.8 280.8,486.8 276.7,490.5 269.3,488.8 	"/>
	<polygon class="st27" points="347.3,203.3 328.4,228.4 332.4,243.2 322.3,261.3 332.4,287.1 328.8,321.2 339.1,278.9 330.5,262.3 
		338.7,240.3 334.8,230.9 	"/>
</g>
</svg>
