<?xml version="1.0" encoding="utf-8"?>
<!-- Generator: Adobe Illustrator 21.1.0, SVG Export Plug-In . SVG Version: 6.00 Build 0)  -->
<svg version="1.1" id="Layer_1" xmlns="http://www.w3.org/2000/svg" xmlns:xlink="http://www.w3.org/1999/xlink" x="0px" y="0px"
	 viewBox="0 0 413.6 567" style="enable-background:new 0 0 413.6 567;" xml:space="preserve">
<style type="text/css">
	.st0{clip-path:url(#SVGID_2_);}
	.st1{clip-path:url(#SVGID_4_);fill:#FFFFFF;}
	.st2{clip-path:url(#SVGID_4_);fill:#145FAC;}
	.st3{opacity:0.3;}
	.st4{fill:url(#SVGID_5_);}
	.st5{filter:url(#Adobe_OpacityMaskFilter);}
	.st6{opacity:0.75;mask:url(#SVGID_6_);}
	.st7{fill:#B5B1D7;}
	.st8{opacity:0.19;fill:url(#SVGID_7_);}
	.st9{opacity:0.2;}
	.st10{filter:url(#Adobe_OpacityMaskFilter_1_);}
	.st11{mask:url(#SVGID_8_);}
	.st12{fill:#FFFFFF;}
	.st13{opacity:0.6;}
	.st14{filter:url(#Adobe_OpacityMaskFilter_2_);}
	.st15{mask:url(#SVGID_9_);}
	.st16{opacity:0.8;}
	.st17{filter:url(#Adobe_OpacityMaskFilter_3_);}
	.st18{mask:url(#SVGID_10_);}
	.st19{clip-path:url(#SVGID_2_);fill:#3D6CB3;}
</style>
<g>
	<defs>
		<path id="SVGID_1_" d="M45.1,185.7c-37.8,95.7-41,184.4-41,184.4c0,199.5,199.5,193.7,199.5,193.7h4c0,0,199.5,5.8,199.5-193.7
			c0,0,0.2-68.1-23.5-147.9l-5.3,14.1l0.8,9.8l-7.4,8.2l-5.7-6.5l-13.1,4.1l-4.9-13.1l-13.1,13.1l-4.7-12.3l-26.4,4.1l-6.5-8.2
			l-37.3-10.8l7.1,26.4L252.6,273l4.9-26.4l-12.2-11l-15.8,40.8l0.4-27.1l-13.2,19.5l-2.7-32.5l-31.1,17.1L187,277l-8.8,11.1
			l-1.1-36.2l-25.5,44.7l-1.5-30.8l-23.4-9.2l-7.7,27.2l-12,30.9l-12.6-33.3l-25.9,39.9l-18-30.2L67,269.7L43.3,264l18.4-12.9
			l-17.6-17.9h15.5L45.1,185.7z"/>
	</defs>
	<clipPath id="SVGID_2_">
		<use xlink:href="#SVGID_1_"  style="overflow:visible;"/>
	</clipPath>
	<g class="st0">
		<g>
			<defs>
				<path id="SVGID_3_" d="M276.8,44.7C399.7,167.5,407,370.2,407,370.2c0,199.5-199.5,193.7-199.5,193.7h-4
					c0,0-199.5,5.8-199.5-193.7c0,0-0.7-211.2,130.2-325.5C134.3,44.7,204-28.1,276.8,44.7z"/>
			</defs>
			<clipPath id="SVGID_4_">
				<use xlink:href="#SVGID_3_"  style="overflow:visible;"/>
			</clipPath>
			<rect x="0.8" y="8.2" class="st1" width="232.2" height="234.8"/>
			<rect x="0.8" y="148.9" class="st2" width="94.1" height="94.1"/>
			<rect x="138.9" y="148.9" class="st2" width="94.1" height="94.1"/>
			<rect x="0.8" y="8.2" class="st2" width="94.1" height="94.1"/>
			<rect x="138.9" y="8.2" class="st2" width="94.1" height="94.1"/>
			<rect x="233" y="103.1" class="st2" width="203.5" height="46.6"/>
			<rect x="233" y="149.7" class="st1" width="203.5" height="46.6"/>
			<rect x="233" y="196.3" class="st2" width="203.5" height="46.6"/>
			<rect x="233" y="11" class="st2" width="203.5" height="46.6"/>
			<rect x="233" y="57.6" class="st1" width="203.5" height="46.6"/>
			<rect x="0.8" y="335" class="st1" width="435.7" height="46.6"/>
			<rect x="0.8" y="381.6" class="st2" width="435.7" height="46.6"/>
			<rect x="0.8" y="428.2" class="st1" width="435.7" height="46.6"/>
			<rect x="0.8" y="242.9" class="st1" width="435.7" height="46.6"/>
			<rect x="0.8" y="289.5" class="st2" width="435.7" height="46.6"/>
			<rect x="0.8" y="566.9" class="st2" width="435.7" height="46.6"/>
			<rect x="0.8" y="474.8" class="st2" width="435.7" height="46.6"/>
			<rect x="0.8" y="521.4" class="st1" width="435.7" height="46.6"/>
		</g>
		<g class="st3">
			<g>
				<linearGradient id="SVGID_5_" gradientUnits="userSpaceOnUse" x1="213.2349" y1="292.5667" x2="180.128" y2="622.4089">
					<stop  offset="0" style="stop-color:#FFFFFF"/>
					<stop  offset="1" style="stop-color:#3E54A3"/>
				</linearGradient>
				<path class="st4" d="M276.8,44.7C399.7,167.5,407,370.2,407,370.2c0,199.5-199.5,193.7-199.5,193.7h-4
					c0,0-199.5,5.8-199.5-193.7c0,0-0.7-211.2,130.2-325.5C134.3,44.7,204-28.1,276.8,44.7z"/>
			</g>
			<defs>
				<filter id="Adobe_OpacityMaskFilter" filterUnits="userSpaceOnUse" x="4.1" y="12.3" width="402.9" height="551.6">
					
						<feColorMatrix  type="matrix" values="-1 0 0 0 1  0 -1 0 0 1  0 0 -1 0 1  0 0 0 1 0" color-interpolation-filters="sRGB" result="source"/>
				</filter>
			</defs>
			<mask maskUnits="userSpaceOnUse" x="4.1" y="12.3" width="402.9" height="551.6" id="SVGID_6_">
				<g class="st5">
					<image style="overflow:visible;" width="407" height="556" xlink:href="FE1825F6.jpg"  transform="matrix(1 0 0 1 2 10)">
					</image>
				</g>
			</mask>
			<g class="st6">
				<path class="st7" d="M276.8,44.7C399.7,167.5,407,370.2,407,370.2c0,199.5-199.5,193.7-199.5,193.7h-4
					c0,0-199.5,5.8-199.5-193.7c0,0-0.7-211.2,130.2-325.5C134.3,44.7,204-28.1,276.8,44.7z"/>
			</g>
		</g>
		
			<linearGradient id="SVGID_7_" gradientUnits="userSpaceOnUse" x1="264.5705" y1="544.8983" x2="314.8275" y2="494.6412" gradientTransform="matrix(2.740000e-02 -1.8737 1.6469 2.400000e-02 -534.6668 1007.9061)">
			<stop  offset="0" style="stop-color:#FFFFFF"/>
			<stop  offset="1" style="stop-color:#F05A28"/>
		</linearGradient>
		<path class="st8" d="M396,354.4c0,0-26.3,201.9-173.1,199.7C222.8,554.2,331.1,529,396,354.4z"/>
		<g class="st9">
			<defs>
				<filter id="Adobe_OpacityMaskFilter_1_" filterUnits="userSpaceOnUse" x="80.7" y="93.6" width="52.8" height="61.6">
					<feFlood  style="flood-color:white;flood-opacity:1" result="back"/>
					<feBlend  in="SourceGraphic" in2="back" mode="normal"/>
				</filter>
			</defs>
			<mask maskUnits="userSpaceOnUse" x="80.7" y="93.6" width="52.8" height="61.6" id="SVGID_8_">
				<g class="st10">
					<image style="overflow:visible;" width="58" height="67" xlink:href="FE1825FA.jpg"  transform="matrix(1 0 0 1 78 91)">
					</image>
				</g>
			</mask>
			<g class="st11">
				
					<ellipse transform="matrix(0.5871 -0.8095 0.8095 0.5871 -56.4611 138.0193)" class="st12" cx="107.1" cy="124.4" rx="35" ry="20.5"/>
			</g>
		</g>
		<g class="st13">
			<defs>
				<filter id="Adobe_OpacityMaskFilter_2_" filterUnits="userSpaceOnUse" x="91.9" y="106.7" width="30.2" height="35.3">
					<feFlood  style="flood-color:white;flood-opacity:1" result="back"/>
					<feBlend  in="SourceGraphic" in2="back" mode="normal"/>
				</filter>
			</defs>
			<mask maskUnits="userSpaceOnUse" x="91.9" y="106.7" width="30.2" height="35.3" id="SVGID_9_">
				<g class="st14">
					<image style="overflow:visible;" width="36" height="40" xlink:href="FE1825FD.jpg"  transform="matrix(1 0 0 1 89 104)">
					</image>
				</g>
			</mask>
			<g class="st15">
				
					<ellipse transform="matrix(0.5872 -0.8095 0.8095 0.5872 -56.4623 138.0076)" class="st12" cx="107.1" cy="124.4" rx="20" ry="11.7"/>
			</g>
		</g>
		<g class="st16">
			<defs>
				<filter id="Adobe_OpacityMaskFilter_3_" filterUnits="userSpaceOnUse" x="95.7" y="111.1" width="22.7" height="26.4">
					<feFlood  style="flood-color:white;flood-opacity:1" result="back"/>
					<feBlend  in="SourceGraphic" in2="back" mode="normal"/>
				</filter>
			</defs>
			<mask maskUnits="userSpaceOnUse" x="95.7" y="111.1" width="22.7" height="26.4" id="SVGID_10_">
				<g class="st17">
					<image style="overflow:visible;" width="28" height="31" xlink:href="FE1825FE.jpg"  transform="matrix(1 0 0 1 93 109)">
					</image>
				</g>
			</mask>
			<g class="st18">
				<path class="st12" d="M114.2,129.5c-4.9,6.7-12,9.8-15.9,7c-3.9-2.9-3.2-10.6,1.7-17.3c4.9-6.7,12-9.9,15.9-7
					C119.8,115.1,119.1,122.8,114.2,129.5z"/>
			</g>
		</g>
	</g>
	<polygon class="st19" points="-8.4,438.6 19.3,440.7 31.3,456.1 42.4,455.4 47.9,462.8 49.6,460 53.4,470.2 58.6,465.8 67.8,487.1 
		90.9,473.7 100.2,487.9 109.8,485.8 125.2,499 163,478.5 185.5,492.9 196.6,488.8 201.4,491.9 231,494.2 235,475 252.8,480.5 
		229.7,465.8 225.2,485.7 205.6,485.3 197.8,477 187.6,481.6 167.8,464.1 150.4,472.4 139.6,466.5 119.5,478.9 101.2,459 
		89.7,461.8 71.4,447.2 63.6,451 55.2,443.7 48.5,442.8 41.3,434.4 32.5,434.5 19.6,422 	"/>
	<polygon class="st19" points="313.9,224 309.4,254.2 319.6,257.5 319.6,264.8 327,264.8 327,276.3 335.1,284.4 329.4,294.3 
		339.2,310.6 329.4,324.5 345.8,354.4 322.9,400.5 338.4,354.4 320.4,322.1 327.6,312.2 316.3,312.2 309.4,299.2 294.3,316.3 
		260.8,312.2 291.8,307.3 309.4,289.5 319.6,305.7 327.8,304.1 321.2,293.4 324.5,282.8 318,277.1 318.8,271.4 313.1,268.1 
		309.4,260.7 300,263.2 287.7,224 	"/>
	<polygon class="st19" points="84.8,291.5 89.2,314.1 84.8,330.2 98.7,348 84.8,368.8 118.7,383.6 111.8,409.7 129.3,434 107,409.3 
		113.6,385.2 78.8,372.5 67.4,379.4 74.5,382 62.1,401.9 68.3,383.9 58.2,382.6 75.5,369.6 73.5,364.7 81,365.4 95.1,349.1 
		76.2,332.4 72.2,339.9 60.5,340.6 54.6,351 59.5,335 70.6,337 73.5,326.6 80.7,324.6 79.1,313.9 71.9,310.6 73.9,288.1 	"/>
</g>
</svg>
