<?xml version="1.0" encoding="utf-8"?>
<!-- Generator: Adobe Illustrator 21.1.0, SVG Export Plug-In . SVG Version: 6.00 Build 0)  -->
<svg version="1.1" id="Layer_1" xmlns="http://www.w3.org/2000/svg" xmlns:xlink="http://www.w3.org/1999/xlink" x="0px" y="0px"
	 viewBox="0 0 413.6 567" style="enable-background:new 0 0 413.6 567;" xml:space="preserve">
<style type="text/css">
	.st0{clip-path:url(#SVGID_2_);}
	.st1{clip-path:url(#SVGID_6_);}
	.st2{fill:#293688;}
	.st3{fill:#FFFFFF;}
	.st4{fill:#EB2B3A;}
	.st5{filter:url(#Adobe_OpacityMaskFilter);}
	.st6{opacity:0.1;mask:url(#SVGID_9_);}
	.st7{clip-path:url(#SVGID_13_);}
	.st8{opacity:0.2;}
	.st9{filter:url(#Adobe_OpacityMaskFilter_1_);}
	.st10{mask:url(#SVGID_16_);}
	.st11{opacity:0.4;}
	.st12{filter:url(#Adobe_OpacityMaskFilter_2_);}
	.st13{mask:url(#SVGID_17_);}
	.st14{opacity:0.6;}
	.st15{filter:url(#Adobe_OpacityMaskFilter_3_);}
	.st16{mask:url(#SVGID_18_);}
	.st17{opacity:0.19;fill:url(#SVGID_19_);}
	.st18{opacity:0.3;}
	.st19{fill:url(#SVGID_20_);}
	.st20{filter:url(#Adobe_OpacityMaskFilter_4_);}
	.st21{opacity:0.75;mask:url(#SVGID_21_);}
	.st22{clip-path:url(#SVGID_2_);fill:#7E2417;}
</style>
<g>
	<defs>
		<path id="SVGID_1_" d="M402.5,305c6.6,38.1,7.5,63.4,7.5,63.4c0,201-201,195.2-201,195.2H205c0,0-201,5.8-201-195.2
			c0,0-0.3-100.6,42.3-200.9l7.1,45.6l9.9-45.6l36.4,16.6l11.1,40.2l13.3-40.3l24.3,51.4l11.8-29.7l33.4,103.8l4.3-56.2l51.9-61.1
			l-3.1,45.7l33.4-57.6l24.6,29.2l-9.5,21.8l50.9-16.3l2.5,74.3l5.6-48.2l26.6,60.5l-4.2-22.4L402.5,305z"/>
	</defs>
	<clipPath id="SVGID_2_">
		<use xlink:href="#SVGID_1_"  style="overflow:visible;"/>
	</clipPath>
	<g class="st0">
		<g>
			<g>
				<g>
					<defs>
						<path id="SVGID_3_" d="M278.8,41C402.6,164.8,410,369,410,369c0,201-201,195.2-201,195.2H205c0,0-201,5.8-201-195.2
							c0,0-0.7-212.8,131.2-328C135.2,41,205.5-32.3,278.8,41z"/>
					</defs>
					<clipPath id="SVGID_4_">
						<use xlink:href="#SVGID_3_"  style="overflow:visible;"/>
					</clipPath>
				</g>
				<g>
					<defs>
						<path id="SVGID_5_" d="M278.8,41C402.6,164.8,410,369,410,369c0,201-201,195.2-201,195.2H205c0,0-201,5.8-201-195.2
							c0,0-0.7-212.8,131.2-328C135.2,41,205.5-32.3,278.8,41z"/>
					</defs>
					<clipPath id="SVGID_6_">
						<use xlink:href="#SVGID_5_"  style="overflow:visible;"/>
					</clipPath>
					<g class="st1">
						<rect x="-7.1" y="-25.6" class="st2" width="143" height="623.6"/>
					</g>
					<g class="st1">
						<rect x="135.5" y="-24" class="st3" width="143" height="623.6"/>
					</g>
					<g class="st1">
						<rect x="278.3" y="-25.5" class="st4" width="143" height="623.6"/>
					</g>
				</g>
				<g>
					<defs>
						<path id="SVGID_7_" d="M278.8,41C402.6,164.8,410,369,410,369c0,201-201,195.2-201,195.2H205c0,0-201,5.8-201-195.2
							c0,0-0.7-212.8,131.2-328C135.2,41,205.5-32.3,278.8,41z"/>
					</defs>
					<clipPath id="SVGID_8_">
						<use xlink:href="#SVGID_7_"  style="overflow:visible;"/>
					</clipPath>
				</g>
			</g>
			<defs>
				<filter id="Adobe_OpacityMaskFilter" filterUnits="userSpaceOnUse" x="-7.1" y="-25.6" width="428.5" height="625.2">
					
						<feColorMatrix  type="matrix" values="-1 0 0 0 1  0 -1 0 0 1  0 0 -1 0 1  0 0 0 1 0" color-interpolation-filters="sRGB" result="source"/>
				</filter>
			</defs>
			<mask maskUnits="userSpaceOnUse" x="-7.1" y="-25.6" width="428.5" height="625.2" id="SVGID_9_">
				<g class="st5">
					<image style="overflow:visible;" width="434" height="630" xlink:href="AD77DF5F.jpg"  transform="matrix(1 0 0 1 -10 -28)">
					</image>
				</g>
			</mask>
			<g class="st6">
				<g>
					<defs>
						<path id="SVGID_10_" d="M278.8,41C402.6,164.8,410,369,410,369c0,201-201,195.2-201,195.2H205c0,0-201,5.8-201-195.2
							c0,0-0.7-212.8,131.2-328C135.2,41,205.5-32.3,278.8,41z"/>
					</defs>
					<clipPath id="SVGID_11_">
						<use xlink:href="#SVGID_10_"  style="overflow:visible;"/>
					</clipPath>
				</g>
				<g>
					<defs>
						<path id="SVGID_12_" d="M278.8,41C402.6,164.8,410,369,410,369c0,201-201,195.2-201,195.2H205c0,0-201,5.8-201-195.2
							c0,0-0.7-212.8,131.2-328C135.2,41,205.5-32.3,278.8,41z"/>
					</defs>
					<clipPath id="SVGID_13_">
						<use xlink:href="#SVGID_12_"  style="overflow:visible;"/>
					</clipPath>
					<g class="st7">
						<rect x="-7.1" y="-25.6" width="143" height="623.6"/>
					</g>
					<g class="st7">
						<rect x="135.5" y="-24" width="143" height="623.6"/>
					</g>
					<g class="st7">
						<rect x="278.3" y="-25.5" width="143" height="623.6"/>
					</g>
				</g>
				<g>
					<defs>
						<path id="SVGID_14_" d="M278.8,41C402.6,164.8,410,369,410,369c0,201-201,195.2-201,195.2H205c0,0-201,5.8-201-195.2
							c0,0-0.7-212.8,131.2-328C135.2,41,205.5-32.3,278.8,41z"/>
					</defs>
					<clipPath id="SVGID_15_">
						<use xlink:href="#SVGID_14_"  style="overflow:visible;"/>
					</clipPath>
				</g>
			</g>
		</g>
		<g class="st8">
			<defs>
				<filter id="Adobe_OpacityMaskFilter_1_" filterUnits="userSpaceOnUse" x="78.3" y="90.3" width="70.2" height="81.8">
					<feFlood  style="flood-color:white;flood-opacity:1" result="back"/>
					<feBlend  in="SourceGraphic" in2="back" mode="normal"/>
				</filter>
			</defs>
			<mask maskUnits="userSpaceOnUse" x="78.3" y="90.3" width="70.2" height="81.8" id="SVGID_16_">
				<g class="st9">
					<image style="overflow:visible;" width="75" height="87" xlink:href="AD77DF5D.jpg"  transform="matrix(1 0 0 1 76 88)">
					</image>
				</g>
			</mask>
			<g class="st10">
				<path class="st3" d="M135.5,147.2c-15.1,20.8-37.2,30.5-49.4,21.7c-12.2-8.8-9.8-32.9,5.3-53.6c15.1-20.8,37.2-30.5,49.3-21.7
					C152.9,102.4,150.6,126.5,135.5,147.2z"/>
			</g>
		</g>
		<g class="st11">
			<defs>
				<filter id="Adobe_OpacityMaskFilter_2_" filterUnits="userSpaceOnUse" x="93.3" y="107.8" width="40.2" height="46.9">
					<feFlood  style="flood-color:white;flood-opacity:1" result="back"/>
					<feBlend  in="SourceGraphic" in2="back" mode="normal"/>
				</filter>
			</defs>
			<mask maskUnits="userSpaceOnUse" x="93.3" y="107.8" width="40.2" height="46.9" id="SVGID_17_">
				<g class="st12">
					<image style="overflow:visible;" width="45" height="52" xlink:href="AD77DF63.jpg"  transform="matrix(1 0 0 1 91 105)">
					</image>
				</g>
			</mask>
			<g class="st13">
				
					<ellipse transform="matrix(0.5871 -0.8095 0.8095 0.5871 -59.4179 146.0215)" class="st3" cx="113.4" cy="131.3" rx="26.6" ry="15.6"/>
			</g>
		</g>
		<g class="st14">
			<defs>
				<filter id="Adobe_OpacityMaskFilter_3_" filterUnits="userSpaceOnUse" x="98.4" y="113.7" width="30.1" height="35.1">
					<feFlood  style="flood-color:white;flood-opacity:1" result="back"/>
					<feBlend  in="SourceGraphic" in2="back" mode="normal"/>
				</filter>
			</defs>
			<mask maskUnits="userSpaceOnUse" x="98.4" y="113.7" width="30.1" height="35.1" id="SVGID_18_">
				<g class="st15">
					<image style="overflow:visible;" width="35" height="40" xlink:href="AD77DF65.jpg"  transform="matrix(1 0 0 1 96 111)">
					</image>
				</g>
			</mask>
			<g class="st16">
				<path class="st3" d="M122.9,138.1c-6.5,8.9-16,13.1-21.2,9.3c-5.2-3.8-4.2-14.1,2.3-23c6.5-8.9,16-13.1,21.2-9.3
					C130.4,118.9,129.4,129.2,122.9,138.1z"/>
			</g>
		</g>
		
			<linearGradient id="SVGID_19_" gradientUnits="userSpaceOnUse" x1="263.2531" y1="544.696" x2="313.8912" y2="494.058" gradientTransform="matrix(2.740000e-02 -1.8737 1.6469 2.400000e-02 -534.6668 1007.9061)">
			<stop  offset="0" style="stop-color:#FFFFFF"/>
			<stop  offset="1" style="stop-color:#F05A28"/>
		</linearGradient>
		<path class="st17" d="M395.8,355.6c0,0-26.5,203.4-174.4,201.3C221.4,556.8,330.4,531.5,395.8,355.6z"/>
		<g class="st18">
			<g>
				<linearGradient id="SVGID_20_" gradientUnits="userSpaceOnUse" x1="188.0194" y1="299.0019" x2="375.8121" y2="521.3883">
					<stop  offset="0" style="stop-color:#FFFFFF"/>
					<stop  offset="1" style="stop-color:#603813"/>
				</linearGradient>
				<path class="st19" d="M278.8,41C402.6,164.8,410,369,410,369c0,201-201,195.2-201,195.2H205c0,0-201,5.8-201-195.2
					c0,0-0.7-212.8,131.2-328C135.2,41,205.5-32.3,278.8,41z"/>
			</g>
			<defs>
				<filter id="Adobe_OpacityMaskFilter_4_" filterUnits="userSpaceOnUse" x="4" y="8.4" width="406" height="555.7">
					
						<feColorMatrix  type="matrix" values="-1 0 0 0 1  0 -1 0 0 1  0 0 -1 0 1  0 0 0 1 0" color-interpolation-filters="sRGB" result="source"/>
				</filter>
			</defs>
			<mask maskUnits="userSpaceOnUse" x="4" y="8.4" width="406" height="555.7" id="SVGID_21_">
				<g class="st20">
					<image style="overflow:visible;" width="410" height="561" xlink:href="AD77DF67.jpg"  transform="matrix(1 0 0 1 2 6)">
					</image>
				</g>
			</mask>
			<g class="st21">
				<path class="st3" d="M278.8,41C402.6,164.8,410,369,410,369c0,201-201,195.2-201,195.2H205c0,0-201,5.8-201-195.2
					c0,0-0.7-212.8,131.2-328C135.2,41,205.5-32.3,278.8,41z"/>
			</g>
		</g>
	</g>
	<polygon class="st22" points="89.3,176.3 84.7,191.9 89.3,198.5 84.7,210.9 93.3,236.8 87.2,255.8 103.7,275.9 93.3,291.6 
		106.6,301.9 146.5,283.4 171.2,308.1 145.3,290.4 105.3,321.2 88.9,298.2 84.7,307.7 73.6,301.9 73.6,316.7 59.2,336.9 66.2,368 
		49.3,329.1 67.8,315.9 67,294.1 78.3,298.2 83.5,284.6 95.4,276.8 74.9,255.8 87.2,237.2 72.8,209.2 78.3,202.6 73.2,199.3 
		76.5,194.7 60,163.1 	"/>
	<polygon class="st22" points="210.3,229.8 231.3,271.4 231.3,283.8 260.6,308.5 260.6,320 279.1,312.6 273.8,345.1 293.1,345.1 
		303.8,374.4 297.2,333.6 279.9,339 286.1,304.4 265.9,313.8 267.2,304.4 278.5,302.1 272.5,290.8 286.5,286.3 292.7,273.1 
		333.1,273.1 285.3,265.6 283.6,282.1 263.9,286.3 270.1,297.4 258.5,299.4 249.1,286.3 236.3,282.5 241.2,268.5 235.1,261.5 
		239.2,254.5 230.9,202.6 	"/>
	<polygon class="st22" points="114.4,506.2 139.1,493 157.6,499.6 166.7,493 175.3,496.3 175.3,493 184,499.6 186,493 205.4,506.2 
		217.8,482.3 233.4,489.3 240.4,482.3 260.6,485.2 281.6,447.3 308.6,447.3 315.8,437.8 321.5,437.8 347.9,423.8 340.9,405.3 
		359,400.3 331.4,400.3 338.4,419.7 321.5,430 310.4,427.1 304.2,436.6 277.9,432.4 267.6,448.9 255.2,449.7 244.9,471.2 
		218.6,464.2 210.3,472.8 186.9,470.3 182.3,477.7 171.2,476.1 165,479 154.3,475.7 146.9,480.6 129.2,476.9 	"/>
</g>
</svg>
