<?xml version="1.0" encoding="utf-8"?>
<!-- Generator: Adobe Illustrator 21.1.0, SVG Export Plug-In . SVG Version: 6.00 Build 0)  -->
<svg version="1.1" id="Layer_1" xmlns="http://www.w3.org/2000/svg" xmlns:xlink="http://www.w3.org/1999/xlink" x="0px" y="0px"
	 viewBox="0 0 413.6 567" style="enable-background:new 0 0 413.6 567;" xml:space="preserve">
<style type="text/css">
	.st0{clip-path:url(#SVGID_2_);}
	.st1{clip-path:url(#SVGID_6_);}
	.st2{fill:#FFFFFF;}
	.st3{fill:#212E62;}
	.st4{fill:#D33036;}
	.st5{clip-path:url(#SVGID_6_);fill:#212E62;}
	.st6{filter:url(#Adobe_OpacityMaskFilter);}
	.st7{opacity:0.75;mask:url(#SVGID_9_);}
	.st8{clip-path:url(#SVGID_13_);}
	.st9{clip-path:url(#SVGID_13_);fill:#FFFFFF;}
	.st10{opacity:0.32;fill:url(#SVGID_16_);}
	.st11{opacity:0.2;}
	.st12{filter:url(#Adobe_OpacityMaskFilter_1_);}
	.st13{mask:url(#SVGID_17_);}
	.st14{opacity:0.4;}
	.st15{filter:url(#Adobe_OpacityMaskFilter_2_);}
	.st16{mask:url(#SVGID_18_);}
	.st17{opacity:0.6;}
	.st18{filter:url(#Adobe_OpacityMaskFilter_3_);}
	.st19{mask:url(#SVGID_19_);}
	.st20{opacity:0.19;fill:url(#SVGID_20_);}
	.st21{clip-path:url(#SVGID_2_);fill:#2D326A;}
</style>
<g>
	<defs>
		<path id="SVGID_1_" d="M404.7,304.5c6.6,38.4,7.5,63.9,7.5,63.9c0,202.5-202.5,196.6-202.5,196.6h-4.1c0,0-202.5,5.9-202.5-196.6
			c0,0-0.3-101.4,42.6-202.4l15.8-15.4l9.1,34.9l6.6-6.6l8.3,17.4l28.2-10l14.1,37.3l6.1-10l26.5,31.3l69.5-28l14-29.9l-14-36.5
			l51.4,28.2l10,19.1l3.3,24.9l23.2-10l20.8,39l8.3-11.6l26.6,52.3l5-14.1L404.7,304.5z"/>
	</defs>
	<clipPath id="SVGID_2_">
		<use xlink:href="#SVGID_1_"  style="overflow:visible;"/>
	</clipPath>
	<g class="st0">
		<g>
			<g>
				<g>
					<defs>
						<path id="SVGID_3_" d="M280.1,37.9c124.7,124.7,132.2,330.5,132.2,330.5c0,202.5-202.5,196.6-202.5,196.6h-4.1
							c0,0-202.5,5.9-202.5-196.6c0,0-0.7-214.4,132.2-330.5C135.4,37.9,206.2-36,280.1,37.9z"/>
					</defs>
					<clipPath id="SVGID_4_">
						<use xlink:href="#SVGID_3_"  style="overflow:visible;"/>
					</clipPath>
				</g>
				<g>
					<defs>
						<path id="SVGID_5_" d="M280.1,37.9c124.7,124.7,132.2,330.5,132.2,330.5c0,202.5-202.5,196.6-202.5,196.6h-4.1
							c0,0-202.5,5.9-202.5-196.6c0,0-0.7-214.4,132.2-330.5C135.4,37.9,206.2-36,280.1,37.9z"/>
					</defs>
					<clipPath id="SVGID_6_">
						<use xlink:href="#SVGID_5_"  style="overflow:visible;"/>
					</clipPath>
					<g class="st1">
						<rect x="-27.9" y="-9.8" class="st2" width="448.8" height="592.2"/>
					</g>
					<g class="st1">
						<polygon class="st3" points="160.6,245 160.6,-32.3 18.6,174.2 						"/>
					</g>
					<g class="st1">
						<polygon class="st3" points="264.4,245 264.4,-23.5 411.1,172.6 						"/>
					</g>
					<g class="st1">
						<polygon class="st3" points="160.6,363.4 160.6,600.1 -56.1,475.4 						"/>
					</g>
					<g class="st1">
						<polygon class="st3" points="264.4,363.4 264.4,628.7 492.4,481.7 						"/>
					</g>
					<g class="st1">
						<polygon class="st4" points="183.9,628.7 183.9,334.1 -11.3,334.1 -11.3,272.2 183.9,272.2 183.9,-9.8 242.4,-9.8 
							242.4,273.3 465.1,273.3 465.1,335.1 241.3,335.1 241.3,628.7 						"/>
					</g>
					<g class="st1">
						<polygon class="st4" points="154.3,355 111.3,355 -34.8,428.5 -34.8,449.4 						"/>
					</g>
					<g class="st1">
						<polygon class="st4" points="315.7,355 357.6,355 444.5,402.2 444.5,420 						"/>
					</g>
					<g class="st1">
						<polygon class="st4" points="269.6,253.3 310.5,253.3 412.3,205.5 412.3,184.1 						"/>
					</g>
					<g class="st1">
						<polygon class="st4" points="110.3,253.3 9.7,203 9.7,225.6 70.1,253.3 						"/>
					</g>
					<g class="st1">
						<polygon class="st3" points="34.9,253.3 -14.9,228.2 -14.9,253.3 						"/>
					</g>
					<polygon class="st5" points="42.4,355 -58.4,355 -58.4,402.2 					"/>
					<polygon class="st5" points="364.9,253.3 421.2,253.3 421.2,228.2 					"/>
					<polygon class="st5" points="377.6,355 425.8,355 425.8,378.6 					"/>
				</g>
				<g>
					<defs>
						<path id="SVGID_7_" d="M280.1,37.9c124.7,124.7,132.2,330.5,132.2,330.5c0,202.5-202.5,196.6-202.5,196.6h-4.1
							c0,0-202.5,5.9-202.5-196.6c0,0-0.7-214.4,132.2-330.5C135.4,37.9,206.2-36,280.1,37.9z"/>
					</defs>
					<clipPath id="SVGID_8_">
						<use xlink:href="#SVGID_7_"  style="overflow:visible;"/>
					</clipPath>
				</g>
			</g>
			<defs>
				<filter id="Adobe_OpacityMaskFilter" filterUnits="userSpaceOnUse" x="-58.4" y="-32.3" width="550.8" height="661">
					
						<feColorMatrix  type="matrix" values="-1 0 0 0 1  0 -1 0 0 1  0 0 -1 0 1  0 0 0 1 0" color-interpolation-filters="sRGB" result="source"/>
				</filter>
			</defs>
			<mask maskUnits="userSpaceOnUse" x="-58.4" y="-32.3" width="550.8" height="661" id="SVGID_9_">
				<g class="st6">
					<image style="overflow:visible;" width="556" height="666" xlink:href="234E33BC.jpg"  transform="matrix(1 0 0 1 -61 -35)">
					</image>
				</g>
			</mask>
			<g class="st7">
				<g>
					<defs>
						<path id="SVGID_10_" d="M280.1,37.9c124.7,124.7,132.2,330.5,132.2,330.5c0,202.5-202.5,196.6-202.5,196.6h-4.1
							c0,0-202.5,5.9-202.5-196.6c0,0-0.7-214.4,132.2-330.5C135.4,37.9,206.2-36,280.1,37.9z"/>
					</defs>
					<clipPath id="SVGID_11_">
						<use xlink:href="#SVGID_10_"  style="overflow:visible;"/>
					</clipPath>
				</g>
				<g>
					<defs>
						<path id="SVGID_12_" d="M280.1,37.9c124.7,124.7,132.2,330.5,132.2,330.5c0,202.5-202.5,196.6-202.5,196.6h-4.1
							c0,0-202.5,5.9-202.5-196.6c0,0-0.7-214.4,132.2-330.5C135.4,37.9,206.2-36,280.1,37.9z"/>
					</defs>
					<clipPath id="SVGID_13_">
						<use xlink:href="#SVGID_12_"  style="overflow:visible;"/>
					</clipPath>
					<g class="st8">
						<rect x="-27.9" y="-9.8" class="st2" width="448.8" height="592.2"/>
					</g>
					<g class="st8">
						<polygon class="st2" points="160.6,245 160.6,-32.3 18.6,174.2 						"/>
					</g>
					<g class="st8">
						<polygon class="st2" points="264.4,245 264.4,-23.5 411.1,172.6 						"/>
					</g>
					<g class="st8">
						<polygon class="st2" points="160.6,363.4 160.6,600.1 -56.1,475.4 						"/>
					</g>
					<g class="st8">
						<polygon class="st2" points="264.4,363.4 264.4,628.7 492.4,481.7 						"/>
					</g>
					<g class="st8">
						<polygon class="st2" points="183.9,628.7 183.9,334.1 -11.3,334.1 -11.3,272.2 183.9,272.2 183.9,-9.8 242.4,-9.8 
							242.4,273.3 465.1,273.3 465.1,335.1 241.3,335.1 241.3,628.7 						"/>
					</g>
					<g class="st8">
						<polygon class="st2" points="154.3,355 111.3,355 -34.8,428.5 -34.8,449.4 						"/>
					</g>
					<g class="st8">
						<polygon class="st2" points="315.7,355 357.6,355 444.5,402.2 444.5,420 						"/>
					</g>
					<g class="st8">
						<polygon class="st2" points="269.6,253.3 310.5,253.3 412.3,205.5 412.3,184.1 						"/>
					</g>
					<g class="st8">
						<polygon class="st2" points="110.3,253.3 9.7,203 9.7,225.6 70.1,253.3 						"/>
					</g>
					<g class="st8">
						<polygon class="st2" points="34.9,253.3 -14.9,228.2 -14.9,253.3 						"/>
					</g>
					<polygon class="st9" points="42.4,355 -58.4,355 -58.4,402.2 					"/>
					<polygon class="st9" points="364.9,253.3 421.2,253.3 421.2,228.2 					"/>
					<polygon class="st9" points="377.6,355 425.8,355 425.8,378.6 					"/>
				</g>
				<g>
					<defs>
						<path id="SVGID_14_" d="M280.1,37.9c124.7,124.7,132.2,330.5,132.2,330.5c0,202.5-202.5,196.6-202.5,196.6h-4.1
							c0,0-202.5,5.9-202.5-196.6c0,0-0.7-214.4,132.2-330.5C135.4,37.9,206.2-36,280.1,37.9z"/>
					</defs>
					<clipPath id="SVGID_15_">
						<use xlink:href="#SVGID_14_"  style="overflow:visible;"/>
					</clipPath>
				</g>
			</g>
		</g>
		<linearGradient id="SVGID_16_" gradientUnits="userSpaceOnUse" x1="74.5337" y1="92.5886" x2="320.3857" y2="547.5709">
			<stop  offset="0" style="stop-color:#FFFFFF;stop-opacity:0.6"/>
			<stop  offset="7.387038e-02" style="stop-color:#F4F1EE;stop-opacity:0.6329"/>
			<stop  offset="0.2197" style="stop-color:#D9CDC3;stop-opacity:0.6979"/>
			<stop  offset="0.4218" style="stop-color:#AC937D;stop-opacity:0.788"/>
			<stop  offset="0.5162" style="stop-color:#96765A;stop-opacity:0.83"/>
			<stop  offset="0.6227" style="stop-color:#8F6E51;stop-opacity:0.8674"/>
			<stop  offset="0.7993" style="stop-color:#7C5837;stop-opacity:0.9295"/>
			<stop  offset="1" style="stop-color:#603813"/>
		</linearGradient>
		<path class="st10" d="M280.1,37.9c124.7,124.7,132.2,330.5,132.2,330.5c0,202.5-202.5,196.6-202.5,196.6h-4.1
			c0,0-202.5,5.9-202.5-196.6c0,0-0.7-214.4,132.2-330.5C135.4,37.9,206.2-36,280.1,37.9z"/>
		<g class="st11">
			<defs>
				<filter id="Adobe_OpacityMaskFilter_1_" filterUnits="userSpaceOnUse" x="98.7" y="49.8" width="70.7" height="82.4">
					<feFlood  style="flood-color:white;flood-opacity:1" result="back"/>
					<feBlend  in="SourceGraphic" in2="back" mode="normal"/>
				</filter>
			</defs>
			<mask maskUnits="userSpaceOnUse" x="98.7" y="49.8" width="70.7" height="82.4" id="SVGID_17_">
				<g class="st12">
					<image style="overflow:visible;" width="76" height="88" xlink:href="234E33BD.jpg"  transform="matrix(1 0 0 1 96 47)">
					</image>
				</g>
			</mask>
			<g class="st13">
				<path class="st2" d="M156.3,107.1c-15.2,21-37.5,30.7-49.7,21.8c-12.3-8.9-9.9-33.1,5.3-54c15.2-20.9,37.5-30.7,49.7-21.8
					C173.9,62,171.5,86.1,156.3,107.1z"/>
			</g>
		</g>
		<g class="st14">
			<defs>
				<filter id="Adobe_OpacityMaskFilter_2_" filterUnits="userSpaceOnUse" x="113.9" y="67.4" width="40.5" height="47.2">
					<feFlood  style="flood-color:white;flood-opacity:1" result="back"/>
					<feBlend  in="SourceGraphic" in2="back" mode="normal"/>
				</filter>
			</defs>
			<mask maskUnits="userSpaceOnUse" x="113.9" y="67.4" width="40.5" height="47.2" id="SVGID_18_">
				<g class="st15">
					<image style="overflow:visible;" width="46" height="52" xlink:href="234E33BB.jpg"  transform="matrix(1 0 0 1 111 65)">
					</image>
				</g>
			</mask>
			<g class="st16">
				
					<ellipse transform="matrix(0.5871 -0.8095 0.8095 0.5871 -18.2812 146.1245)" class="st2" cx="134.1" cy="91" rx="26.8" ry="15.7"/>
			</g>
		</g>
		<g class="st17">
			<defs>
				<filter id="Adobe_OpacityMaskFilter_3_" filterUnits="userSpaceOnUse" x="118.9" y="73.3" width="30.4" height="35.4">
					<feFlood  style="flood-color:white;flood-opacity:1" result="back"/>
					<feBlend  in="SourceGraphic" in2="back" mode="normal"/>
				</filter>
			</defs>
			<mask maskUnits="userSpaceOnUse" x="118.9" y="73.3" width="30.4" height="35.4" id="SVGID_19_">
				<g class="st18">
					<image style="overflow:visible;" width="36" height="40" xlink:href="234E33C4.jpg"  transform="matrix(1 0 0 1 116 71)">
					</image>
				</g>
			</mask>
			<g class="st19">
				<path class="st2" d="M143.6,97.9c-6.5,9-16.1,13.2-21.3,9.4c-5.3-3.8-4.3-14.2,2.3-23.2c6.5-9,16.1-13.2,21.4-9.4
					C151.2,78.5,150.2,88.9,143.6,97.9z"/>
			</g>
		</g>
		
			<linearGradient id="SVGID_20_" gradientUnits="userSpaceOnUse" x1="263.9225" y1="550.6948" x2="314.9435" y2="499.6738" gradientTransform="matrix(2.740000e-02 -1.8737 1.6469 2.400000e-02 -534.6668 1007.9061)">
			<stop  offset="0" style="stop-color:#FFFFFF"/>
			<stop  offset="1" style="stop-color:#F05A28"/>
		</linearGradient>
		<path class="st20" d="M405.9,353.2c0,0-26.7,205-175.8,202.8C230.1,556,340,530.4,405.9,353.2z"/>
	</g>
	<polygon class="st21" points="173.3,238.8 177.7,261.8 173.3,278.2 187.4,296.2 173.3,317.4 207.7,332.4 200.6,358.8 218.4,383.5 
		195.8,358.5 202.5,334 167.1,321.1 155.5,328.1 162.8,330.7 150.2,350.9 156.5,332.7 146.3,331.4 163.8,318.1 161.8,313.2 
		169.4,313.8 183.6,297.3 164.5,280.4 160.5,288 148.6,288.7 142.6,299.3 147.6,283.1 158.8,285.1 161.8,274.5 169.1,272.5 
		167.4,261.6 160.2,258.3 162.1,235.4 	"/>
	<polygon class="st21" points="128.4,192.1 101.9,204.3 107.2,222.2 93,243.4 90,265.5 86.4,276.8 92,293.3 96.3,284.1 100.9,327.7 
		93.6,296.3 90.3,301.9 80.4,277.8 86,265.9 73.8,271.2 73.8,266.2 60.9,271.8 60.9,251.6 39.7,261.9 42.4,242 44.3,254.6 67.2,245 
		66.8,262.2 78.1,257.6 77.4,264.2 86,259.9 84.1,238.1 95.6,228.8 85.7,228.8 76.1,223.5 85.7,224.8 99.9,221.9 93,215.2 
		98.3,212.6 87,206 90,190.4 118.5,177.5 	"/>
	<polygon class="st21" points="313.1,206.8 308.5,242.2 320.4,254.4 308.5,269 318.1,273.3 314.5,289.3 326,310 317.3,320.9 
		317.3,347.1 305.2,377.9 323.2,344.4 320.1,321.9 334.6,307 318.4,289.3 323.2,269.7 313.8,267.3 326.4,252.8 315.8,238.9 
		318.5,232.9 315.5,225.7 332.3,213.7 327.4,203.8 	"/>
</g>
</svg>
