<?xml version="1.0" encoding="utf-8"?>
<!-- Generator: Adobe Illustrator 21.1.0, SVG Export Plug-In . SVG Version: 6.00 Build 0)  -->
<svg version="1.1" id="Layer_1" xmlns="http://www.w3.org/2000/svg" xmlns:xlink="http://www.w3.org/1999/xlink" x="0px" y="0px"
	 viewBox="0 0 413.6 567" style="enable-background:new 0 0 413.6 567;" xml:space="preserve">
<style type="text/css">
	.st0{clip-path:url(#SVGID_4_);}
	.st1{fill:#239C48;}
	.st2{fill:#FFFFFF;}
	.st3{fill:#EB2B3A;}
	.st4{filter:url(#Adobe_OpacityMaskFilter);}
	.st5{opacity:0.21;mask:url(#SVGID_7_);}
	.st6{clip-path:url(#SVGID_11_);}
	.st7{fill:#94CB73;}
	.st8{opacity:0.2;}
	.st9{filter:url(#Adobe_OpacityMaskFilter_1_);}
	.st10{mask:url(#SVGID_14_);}
	.st11{opacity:0.6;}
	.st12{filter:url(#Adobe_OpacityMaskFilter_2_);}
	.st13{mask:url(#SVGID_15_);}
	.st14{opacity:0.8;}
	.st15{filter:url(#Adobe_OpacityMaskFilter_3_);}
	.st16{mask:url(#SVGID_16_);}
	.st17{opacity:0.19;fill:url(#SVGID_17_);}
	.st18{opacity:0.3;}
	.st19{fill:url(#SVGID_18_);}
	.st20{filter:url(#Adobe_OpacityMaskFilter_4_);}
	.st21{opacity:0.75;mask:url(#SVGID_19_);}
	.st22{fill:url(#SVGID_20_);}
	.st23{filter:url(#Adobe_OpacityMaskFilter_5_);}
	.st24{opacity:0.75;mask:url(#SVGID_21_);}
</style>
<g>
	<g>
		<g>
			<g>
				<defs>
					<path id="SVGID_1_" d="M279.2,41.2c124,124,131.4,328.4,131.4,328.4c0,201.2-201.2,195.4-201.2,195.4h-4.1
						c0,0-201.2,5.8-201.2-195.4c0,0-0.7-213.1,131.4-328.4C135.4,41.2,205.7-32.2,279.2,41.2z"/>
				</defs>
				<clipPath id="SVGID_2_">
					<use xlink:href="#SVGID_1_"  style="overflow:visible;"/>
				</clipPath>
			</g>
			<g>
				<defs>
					<path id="SVGID_3_" d="M279.2,41.2c124,124,131.4,328.4,131.4,328.4c0,201.2-201.2,195.4-201.2,195.4h-4.1
						c0,0-201.2,5.8-201.2-195.4c0,0-0.7-213.1,131.4-328.4C135.4,41.2,205.7-32.2,279.2,41.2z"/>
				</defs>
				<clipPath id="SVGID_4_">
					<use xlink:href="#SVGID_3_"  style="overflow:visible;"/>
				</clipPath>
				<g class="st0">
					<rect x="-7.3" y="-33.7" class="st1" width="143.2" height="624.4"/>
				</g>
				<g class="st0">
					<rect x="135.5" y="-32.1" class="st2" width="143.2" height="624.4"/>
				</g>
				<g class="st0">
					<rect x="278.6" y="-33.6" class="st3" width="143.2" height="624.4"/>
				</g>
			</g>
			<g>
				<defs>
					<path id="SVGID_5_" d="M279.2,41.2c124,124,131.4,328.4,131.4,328.4c0,201.2-201.2,195.4-201.2,195.4h-4.1
						c0,0-201.2,5.8-201.2-195.4c0,0-0.7-213.1,131.4-328.4C135.4,41.2,205.7-32.2,279.2,41.2z"/>
				</defs>
				<clipPath id="SVGID_6_">
					<use xlink:href="#SVGID_5_"  style="overflow:visible;"/>
				</clipPath>
			</g>
		</g>
		<defs>
			<filter id="Adobe_OpacityMaskFilter" filterUnits="userSpaceOnUse" x="-7.3" y="-33.7" width="429" height="626">
				
					<feColorMatrix  type="matrix" values="-1 0 0 0 1  0 -1 0 0 1  0 0 -1 0 1  0 0 0 1 0" color-interpolation-filters="sRGB" result="source"/>
			</filter>
		</defs>
		<mask maskUnits="userSpaceOnUse" x="-7.3" y="-33.7" width="429" height="626" id="SVGID_7_">
			<g class="st4">
				<image style="overflow:visible;" width="434" height="631" xlink:href="DE1F5534.jpg"  transform="matrix(1 0 0 1 -10 -36)">
				</image>
			</g>
		</mask>
		<g class="st5">
			<g>
				<defs>
					<path id="SVGID_8_" d="M279.2,41.2c124,124,131.4,328.4,131.4,328.4c0,201.2-201.2,195.4-201.2,195.4h-4.1
						c0,0-201.2,5.8-201.2-195.4c0,0-0.7-213.1,131.4-328.4C135.4,41.2,205.7-32.2,279.2,41.2z"/>
				</defs>
				<clipPath id="SVGID_9_">
					<use xlink:href="#SVGID_8_"  style="overflow:visible;"/>
				</clipPath>
			</g>
			<g>
				<defs>
					<path id="SVGID_10_" d="M279.2,41.2c124,124,131.4,328.4,131.4,328.4c0,201.2-201.2,195.4-201.2,195.4h-4.1
						c0,0-201.2,5.8-201.2-195.4c0,0-0.7-213.1,131.4-328.4C135.4,41.2,205.7-32.2,279.2,41.2z"/>
				</defs>
				<clipPath id="SVGID_11_">
					<use xlink:href="#SVGID_10_"  style="overflow:visible;"/>
				</clipPath>
				<g class="st6">
					<rect x="-7.3" y="-33.7" class="st7" width="143.2" height="624.4"/>
				</g>
				<g class="st6">
					<rect x="135.5" y="-32.1" class="st7" width="143.2" height="624.4"/>
				</g>
				<g class="st6">
					<rect x="278.6" y="-33.6" class="st7" width="143.2" height="624.4"/>
				</g>
			</g>
			<g>
				<defs>
					<path id="SVGID_12_" d="M279.2,41.2c124,124,131.4,328.4,131.4,328.4c0,201.2-201.2,195.4-201.2,195.4h-4.1
						c0,0-201.2,5.8-201.2-195.4c0,0-0.7-213.1,131.4-328.4C135.4,41.2,205.7-32.2,279.2,41.2z"/>
				</defs>
				<clipPath id="SVGID_13_">
					<use xlink:href="#SVGID_12_"  style="overflow:visible;"/>
				</clipPath>
			</g>
		</g>
	</g>
	<g class="st8">
		<defs>
			<filter id="Adobe_OpacityMaskFilter_1_" filterUnits="userSpaceOnUse" x="86.2" y="92" width="53.3" height="62.1">
				<feFlood  style="flood-color:white;flood-opacity:1" result="back"/>
				<feBlend  in="SourceGraphic" in2="back" mode="normal"/>
			</filter>
		</defs>
		<mask maskUnits="userSpaceOnUse" x="86.2" y="92" width="53.3" height="62.1" id="SVGID_14_">
			<g class="st9">
				<image style="overflow:visible;" width="58" height="67" xlink:href="DE1F5535.jpg"  transform="matrix(1 0 0 1 84 90)">
				</image>
			</g>
		</mask>
		<g class="st10">
			
				<ellipse transform="matrix(0.5871 -0.8095 0.8095 0.5871 -53.059 142.1326)" class="st2" cx="112.8" cy="123.1" rx="35.3" ry="20.7"/>
		</g>
	</g>
	<g class="st11">
		<defs>
			<filter id="Adobe_OpacityMaskFilter_2_" filterUnits="userSpaceOnUse" x="97.5" y="105.3" width="30.5" height="35.6">
				<feFlood  style="flood-color:white;flood-opacity:1" result="back"/>
				<feBlend  in="SourceGraphic" in2="back" mode="normal"/>
			</filter>
		</defs>
		<mask maskUnits="userSpaceOnUse" x="97.5" y="105.3" width="30.5" height="35.6" id="SVGID_15_">
			<g class="st12">
				<image style="overflow:visible;" width="36" height="40" xlink:href="DE1F5533.jpg"  transform="matrix(1 0 0 1 95 103)">
				</image>
			</g>
		</mask>
		<g class="st13">
			
				<ellipse transform="matrix(0.5872 -0.8095 0.8095 0.5872 -53.0606 142.1203)" class="st2" cx="112.8" cy="123.1" rx="20.2" ry="11.8"/>
		</g>
	</g>
	<g class="st14">
		<defs>
			<filter id="Adobe_OpacityMaskFilter_3_" filterUnits="userSpaceOnUse" x="101.4" y="109.7" width="22.9" height="26.7">
				<feFlood  style="flood-color:white;flood-opacity:1" result="back"/>
				<feBlend  in="SourceGraphic" in2="back" mode="normal"/>
			</filter>
		</defs>
		<mask maskUnits="userSpaceOnUse" x="101.4" y="109.7" width="22.9" height="26.7" id="SVGID_16_">
			<g class="st15">
				<image style="overflow:visible;" width="28" height="32" xlink:href="DE1F553C.jpg"  transform="matrix(1 0 0 1 99 107)">
				</image>
			</g>
		</mask>
		<g class="st16">
			
				<ellipse transform="matrix(0.5872 -0.8095 0.8095 0.5872 -53.0618 142.1224)" class="st2" cx="112.8" cy="123.1" rx="15.2" ry="8.9"/>
		</g>
	</g>
	
		<linearGradient id="SVGID_17_" gradientUnits="userSpaceOnUse" x1="265.4328" y1="548.2493" x2="316.1356" y2="497.5466" gradientTransform="matrix(2.740000e-02 -1.8737 1.6469 2.400000e-02 -534.6668 1007.9061)">
		<stop  offset="0" style="stop-color:#FFFFFF"/>
		<stop  offset="1" style="stop-color:#F05A28"/>
	</linearGradient>
	<path class="st17" d="M401.8,351.4c0,0-26.6,203.7-174.7,201.5C227.1,552.9,336.3,527.5,401.8,351.4z"/>
	<g class="st18">
		<g>
			<linearGradient id="SVGID_18_" gradientUnits="userSpaceOnUse" x1="178.285" y1="282.9445" x2="393.5329" y2="436.3394">
				<stop  offset="0" style="stop-color:#FFFFFF"/>
				<stop  offset="1" style="stop-color:#603813"/>
			</linearGradient>
			<path class="st19" d="M279.2,41.2c124,124,131.4,328.4,131.4,328.4c0,201.2-201.2,195.4-201.2,195.4h-4.1
				c0,0-201.2,5.8-201.2-195.4c0,0-0.7-213.1,131.4-328.4C135.4,41.2,205.7-32.2,279.2,41.2z"/>
		</g>
		<defs>
			<filter id="Adobe_OpacityMaskFilter_4_" filterUnits="userSpaceOnUse" x="4" y="8.6" width="406.5" height="556.5">
				
					<feColorMatrix  type="matrix" values="-1 0 0 0 1  0 -1 0 0 1  0 0 -1 0 1  0 0 0 1 0" color-interpolation-filters="sRGB" result="source"/>
			</filter>
		</defs>
		<mask maskUnits="userSpaceOnUse" x="4" y="8.6" width="406.5" height="556.5" id="SVGID_19_">
			<g class="st20">
				<image style="overflow:visible;" width="411" height="561" xlink:href="DE1F553F.jpg"  transform="matrix(1 0 0 1 2 6)">
				</image>
			</g>
		</mask>
		<g class="st21">
			<path class="st2" d="M279.2,41.2c124,124,131.4,328.4,131.4,328.4c0,201.2-201.2,195.4-201.2,195.4h-4.1
				c0,0-201.2,5.8-201.2-195.4c0,0-0.7-213.1,131.4-328.4C135.4,41.2,205.7-32.2,279.2,41.2z"/>
		</g>
	</g>
	<g class="st18">
		<g>
			<linearGradient id="SVGID_20_" gradientUnits="userSpaceOnUse" x1="215.0353" y1="291.2699" x2="181.6347" y2="624.038">
				<stop  offset="0" style="stop-color:#FFFFFF"/>
				<stop  offset="1" style="stop-color:#603813"/>
			</linearGradient>
			<path class="st22" d="M279.2,41.2c124,124,131.4,328.4,131.4,328.4c0,201.2-201.2,195.4-201.2,195.4h-4.1
				c0,0-201.2,5.8-201.2-195.4c0,0-0.7-213.1,131.4-328.4C135.4,41.2,205.7-32.2,279.2,41.2z"/>
		</g>
		<defs>
			<filter id="Adobe_OpacityMaskFilter_5_" filterUnits="userSpaceOnUse" x="4" y="8.6" width="406.5" height="556.5">
				
					<feColorMatrix  type="matrix" values="-1 0 0 0 1  0 -1 0 0 1  0 0 -1 0 1  0 0 0 1 0" color-interpolation-filters="sRGB" result="source"/>
			</filter>
		</defs>
		<mask maskUnits="userSpaceOnUse" x="4" y="8.6" width="406.5" height="556.5" id="SVGID_21_">
			<g class="st23">
				<image style="overflow:visible;" width="411" height="561" xlink:href="DE1F553D.jpg"  transform="matrix(1 0 0 1 2 6)">
				</image>
			</g>
		</mask>
		<g class="st24">
			<path class="st2" d="M279.2,41.2c124,124,131.4,328.4,131.4,328.4c0,201.2-201.2,195.4-201.2,195.4h-4.1
				c0,0-201.2,5.8-201.2-195.4c0,0-0.7-213.1,131.4-328.4C135.4,41.2,205.7-32.2,279.2,41.2z"/>
		</g>
	</g>
</g>
</svg>
