<?xml version="1.0" encoding="utf-8"?>
<!-- Generator: Adobe Illustrator 16.0.0, SVG Export Plug-In . SVG Version: 6.00 Build 0)  -->
<!DOCTYPE svg PUBLIC "-//W3C//DTD SVG 1.1//EN" "http://www.w3.org/Graphics/SVG/1.1/DTD/svg11.dtd" [
	<!ENTITY ns_extend "http://ns.adobe.com/Extensibility/1.0/">
	<!ENTITY ns_ai "http://ns.adobe.com/AdobeIllustrator/10.0/">
	<!ENTITY ns_graphs "http://ns.adobe.com/Graphs/1.0/">
	<!ENTITY ns_vars "http://ns.adobe.com/Variables/1.0/">
	<!ENTITY ns_imrep "http://ns.adobe.com/ImageReplacement/1.0/">
	<!ENTITY ns_sfw "http://ns.adobe.com/SaveForWeb/1.0/">
	<!ENTITY ns_custom "http://ns.adobe.com/GenericCustomNamespace/1.0/">
	<!ENTITY ns_adobe_xpath "http://ns.adobe.com/XPath/1.0/">
]>
<svg version="1.1" id="Layer_1" xmlns:x="&ns_extend;" xmlns:i="&ns_ai;" xmlns:graph="&ns_graphs;"
	 xmlns="http://www.w3.org/2000/svg" xmlns:xlink="http://www.w3.org/1999/xlink" x="0px" y="0px" width="480px" height="800px"
	 viewBox="0 0 480 800" enable-background="new 0 0 480 800" xml:space="preserve">
<metadata>
	<sfw  xmlns="&ns_sfw;">
		<slices></slices>
		<sliceSourceBounds  height="871.812" width="1232.908" y="-36.118" x="-108.141" bottomLeftOrigin="true"></sliceSourceBounds>
	</sfw>
</metadata>
<g>
	<defs>
		<filter id="Adobe_OpacityMaskFilter" filterUnits="userSpaceOnUse" x="84.001" y="204.5" width="311.999" height="312">
			<feFlood  style="flood-color:white;flood-opacity:1" result="back"/>
			<feBlend  in="SourceGraphic" in2="back" mode="normal"/>
		</filter>
	</defs>
	<mask maskUnits="userSpaceOnUse" x="84.001" y="204.5" width="311.999" height="312" id="SVGID_4_">
		<g filter="url(#Adobe_OpacityMaskFilter)">
			<image overflow="visible" width="317" height="316" xlink:href="733FC170.jpg"  transform="matrix(1 0 0 1 81.5002 202.5)">
			</image>
		</g>
	</mask>
	<g mask="url(#SVGID_4_)">
		<radialGradient id="SVGID_6_" cx="240.0002" cy="360.5" r="155.9995" gradientUnits="userSpaceOnUse">
			<stop  offset="0" style="stop-color:#FFD615"/>
			<stop  offset="1" style="stop-color:#FFA835"/>
		</radialGradient>
		<circle fill="url(#SVGID_6_)" cx="240" cy="360.5" r="155.999"/>
	</g>
</g>
<g>
	<g>
		<g>
			<defs>
				<rect id="SVGID_11_" x="0" width="480" height="800"/>
			</defs>
			<clipPath id="SVGID_15_">
				<use xlink:href="#SVGID_11_"  overflow="visible"/>
			</clipPath>
			<g clip-path="url(#SVGID_15_)">
				<g>
					
						<radialGradient id="SVGID_22_" cx="238.6052" cy="449.0654" r="286.5375" gradientTransform="matrix(1.0162 0 0 1.4381 -1.61 -232.6486)" gradientUnits="userSpaceOnUse">
						<stop  offset="0" style="stop-color:#0E5120"/>
						<stop  offset="1" style="stop-color:#4A8122"/>
					</radialGradient>
					<path fill="url(#SVGID_22_)" d="M-165.64,335.876c0,0,3.419-10.067,3.59-15.819c0,0,1.354,10.546,2.879,11.745
						c0,0,2.71-5.273,4.912-7.43c0,0,4.063,9.587,3.726,14.621c0,0,2.879-7.191,5.589-9.468c0,0,3.218,16.899,5.081,18.337
						c0,0,4.913-14.621,7.792-18.216c0,0,2.71,10.787,2.71,14.621c0,0,3.218-12.225,4.404-16.06l1.693,11.026
						c0,0,1.355-4.554,2.541-7.91c0,0,3.05,9.827,2.88,15.1c0,0,3.895-5.273,3.895-8.389l2.033,3.596l1.017-7.67l1.524,5.512
						c0,0,1.355-5.273,3.219-9.108c0,0,3.557,10.307,3.387,15.341c0,0,3.219-3.117,3.049-7.431c0,0,2.202,4.076,2.202,5.273
						l3.727-12.464c0,0,6.944,18.936,7.961,22.531c0,0,3.726-9.348,4.233-14.621l3.219,6.472c0,0,1.862-8.869,5.42-11.505
						c0,0,0.678,7.191,2.88,7.671l1.523-3.835c0,0,3.389,5.992,3.389,8.869l1.186-3.356l1.524,3.835l1.016-10.306l2.541,13.901
						l1.524-4.554l1.862,5.752c0,0,1.355-10.066,4.234-13.422c0,0,2.879,2.636,3.896,7.43c0,0,1.017-3.595,2.201-5.273
						c0,0,4.064,6.232,4.404,9.108c0,0-0.339-5.033,1.355-6.232c0,0,6.267,9.347,7.282,17.018c0,0,2.541-4.554,2.541-11.745
						l2.879,5.992l1.863-5.033l1.693,2.876l4.232-9.587c0,0,4.743,12.225,4.743,15.58c0,0-0.509-11.027,3.388-18.337
						c0,0,2.71,6.832,2.71,9.708l2.201-8.149c0,0,2.709,8.149,3.049,14.381l2.71-6.472l0.678,3.116c0,0,3.557-5.513,2.71-8.869
						c0,0,3.895,8.15,4.234,12.704l1.186-4.794l2.371,7.431l1.354-1.679l1.355,4.555l3.895-12.943l2.88,10.306
						c0,0,3.387-9.108,3.218-14.142c0,0,4.233,11.985,4.573,15.34c0,0,2.54-4.794,2.371-8.15c0,0,1.693,10.067,2.709,11.985
						l4.573-9.828l2.541,9.828c0,0,3.728-9.828,3.896-12.943c0,0,1.862,7.669,2.202,11.025c0,0,1.523-4.555,3.218-6.471
						c0,0,3.896,4.554,4.403,11.026l0.848-4.794l1.354,5.992l1.864-6.472l1.187,2.397l1.185-6.232l2.541,8.15
						c0,0,2.709-0.719,3.557-7.191c0,0,1.693,7.911,0,11.026c0,0,1.524-0.479,1.693-3.115l2.202,7.669l4.403-10.307
						c0,0,1.525,4.075,1.187,6.472l2.541-5.273l2.541,11.266l1.016-4.554l4.404,8.628c0,0,3.049-5.752,1.694-11.505
						c0,0,4.572,7.431,4.912,11.505l4.572-14.861c0,0,3.727,5.032,3.388,8.868c0,0,1.186-4.314,2.032-5.752
						c0,0,2.879,7.431,2.879,11.745l3.218-12.943c0,0,2.031,5.992,2.371,8.389l1.354-6.232l1.355,5.034l2.032-5.273l2.71,6.232
						c0,0,2.033-4.554,1.187-9.827c0,0,2.202,4.794,2.372,10.546c0,0,2.879,1.198,2.202-6.232l2.541,5.753
						c0,0,2.541-3.596,1.523-8.15c0,0,6.944,8.951,8.639,17.179c0,0,1.693-12.864,2.88-18.137c0,0,4.402,8.232,5.25,18.137
						c0,0,2.709-9.508,5.589-15.741c0,0,6.604,6.951,7.622,14.621c0,0,1.354-11.024,4.233-17.017c0,0,4.234,11.744,4.065,21.092
						l4.063-9.348c0,0,2.203,2.959,2.203,6.393l2.371-5.913c0,0,1.863,5.034,3.558,10.546c0,0,4.572-6.232,3.388-15.58
						c0,0,2.541,4.397,2.032,10.947c0,0,4.064-5.434,3.557-13.583c0,0,3.726,14.862,4.743,16.06l2.033-10.787l4.572,11.985
						l1.017-7.909l1.354,4.235l2.032-2.079c0,0,3.896,5.274,3.896,9.588v-11.266l5.251,14.861c0,0,2.879-16.059,3.048-24.928
						l5.251,16.299l1.692-12.464c0,0,4.405,17.019,4.743,21.093c0,0,2.371-19.656,3.727-21.573c0,0,6.437,12.465,6.944,15.101
						l0.848-7.911c0,0,4.233,10.548,5.081,16.54c0,0,6.773-17.018,6.943-23.25l2.711,12.225l2.032-15.34l1.354,11.983l1.523-6.231
						c0,0,3.896,9.109,4.234,14.861c0,0,9.484-20.374,9.823-33.557c0,0,2.88,15.58,3.049,21.572l2.709-7.67
						c0,0,2.881,10.308,2.881,15.1c0,0,4.572-13.902,4.911-22.051l2.371,14.621l2.032-11.026c0,0,3.22,12.463,2.88,20.613
						c0,0,7.451-22.77,6.436-33.316c0,0,7.622,16.298,7.622,22.53l5.59-25.647c0,0,8.468,16.3,8.977,23.25l2.032-15.58l2.88,14.861
						c0,0,3.558-11.026,3.727-18.457l3.557,12.225l3.389-11.025c0,0,4.574,11.026,4.912,18.695l1.863-8.389l2.371,8.149
						c0,0,3.389-13.182,3.389-22.05c0,0,3.558,14.381,4.063,20.373l3.896-13.662c0,0,3.22,15.101,3.389,21.092l2.54-9.587
						l6.099,11.426l1.016-10.707l6.268,13.183c0,0,3.049-16.059,5.081-19.895c0,0,6.772,8.869,7.622,16.059l2.541-7.91l2.879,9.269
						l6.606-28.923c0,0,5.249,25.407,9.823,30.44c0,0-1.354-18.216,7.961-35.234c0,0,0.678,12.703,5.589,17.018l5.42-11.265
						c0,0,9.992,20.852,9.992,29.002c0,0,6.605-6.232,8.131-16.778c0,0,2.712,10.546,2.88,16.778l2.709-15.82l3.051,8.15
						l1.523-4.794c0,0,2.712,4.554,2.881,8.149l2.54-8.389l2.541,5.273l3.388-11.504l1.016,7.909l3.728-6.951l1.693,2.876
						l2.201-2.876l1.187,2.157c0,0,3.047-5.272,3.219-9.827l1.016,9.587l3.896-25.167l2.71,14.142l1.693-4.555
						c0,0,3.896,11.026,3.896,14.861l4.063-12.463l2.541,10.067l3.727-12.224l3.558,12.464l1.523-6.232l2.371,4.075
						c0,0-0.337-10.066,2.88-13.901l2.201,6.231l1.356-3.355l1.522,1.917v-4.554l4.573,6.71c0,0,2.372-14.861,1.525-20.134
						c0,0,4.401,11.266,4.401,14.861c0,0,0.68-4.554,0-7.67c0,0,3.22,6.233,3.22,11.026c0,0,5.759,0.719,5.419-10.067l3.051,3.116
						l1.354-5.513l4.065,5.034l3.048-5.273l1.524,2.157c0,0,1.016-6.951,1.692-5.513c0.679,1.438,3.388-2.397,6.099,5.513
						c2.711,7.91,6.437-0.719,6.437-0.719s2.202-12.223,4.742-2.397c2.541,9.827,3.896-11.983,8.131,2.158l1.523-2.158l3.558,4.793
						l5.25-12.703v11.025l6.438-10.067l2.031,7.67l2.541-0.479l0.848,3.356l4.233-11.026l0.68,5.752l1.354-1.678l4.573,7.91
						l6.437-9.109l0.849,5.513l3.726-3.835l0.849,6.711l2.54-8.869l4.233,13.422c0,0,5.929-7.191,3.727-15.819
						c0,0,8.402,5.993,9.282,16.779v154.073h-813L-165.64,335.876z"/>
				</g>
				<defs>
					
						<filter id="Adobe_OpacityMaskFilter_1_" filterUnits="userSpaceOnUse" x="-165.64" y="320.057" width="813.003" height="186.191">
						<feColorMatrix  type="matrix" values="1 0 0 0 0  0 1 0 0 0  0 0 1 0 0  0 0 0 1 0"/>
					</filter>
				</defs>
				<mask maskUnits="userSpaceOnUse" x="-165.64" y="320.057" width="813.003" height="186.191" id="SVGID_7_">
					<g filter="url(#Adobe_OpacityMaskFilter_1_)">
						
							<image overflow="visible" enable-background="new    " width="3413" height="796" xlink:href="733FC150.jpeg"  transform="matrix(0.2394 0 0 0.2391 -167.6394 318.0566)">
						</image>
					</g>
				</mask>
				<g opacity="0.75" mask="url(#SVGID_7_)">
					<path fill="#B72A2A" d="M-165.64,335.876c0,0,3.419-10.067,3.59-15.819c0,0,1.354,10.546,2.879,11.745
						c0,0,2.71-5.273,4.912-7.43c0,0,4.063,9.587,3.726,14.621c0,0,2.879-7.191,5.589-9.468c0,0,3.218,16.899,5.081,18.337
						c0,0,4.913-14.621,7.792-18.216c0,0,2.71,10.787,2.71,14.621c0,0,3.218-12.225,4.404-16.06l1.693,11.026
						c0,0,1.355-4.554,2.541-7.91c0,0,3.05,9.827,2.88,15.1c0,0,3.895-5.273,3.895-8.389l2.033,3.596l1.017-7.67l1.524,5.512
						c0,0,1.355-5.273,3.219-9.108c0,0,3.557,10.307,3.387,15.341c0,0,3.219-3.117,3.049-7.431c0,0,2.202,4.076,2.202,5.273
						l3.727-12.464c0,0,6.944,18.936,7.961,22.531c0,0,3.726-9.348,4.233-14.621l3.219,6.472c0,0,1.862-8.869,5.42-11.505
						c0,0,0.678,7.191,2.88,7.671l1.523-3.835c0,0,3.389,5.992,3.389,8.869l1.186-3.356l1.524,3.835l1.016-10.306l2.541,13.901
						l1.524-4.554l1.862,5.752c0,0,1.355-10.066,4.234-13.422c0,0,2.879,2.636,3.896,7.43c0,0,1.017-3.595,2.201-5.273
						c0,0,4.064,6.232,4.404,9.108c0,0-0.339-5.033,1.355-6.232c0,0,6.267,9.347,7.282,17.018c0,0,2.541-4.554,2.541-11.745
						l2.879,5.992l1.863-5.033l1.693,2.876l4.232-9.587c0,0,4.743,12.225,4.743,15.58c0,0-0.509-11.027,3.388-18.337
						c0,0,2.71,6.832,2.71,9.708l2.201-8.149c0,0,2.709,8.149,3.049,14.381l2.71-6.472l0.678,3.116c0,0,3.557-5.513,2.71-8.869
						c0,0,3.895,8.15,4.234,12.704l1.186-4.794l2.371,7.431l1.354-1.679l1.355,4.555l3.895-12.943l2.88,10.306
						c0,0,3.387-9.108,3.218-14.142c0,0,4.233,11.985,4.573,15.34c0,0,2.54-4.794,2.371-8.15c0,0,1.693,10.067,2.709,11.985
						l4.573-9.828l2.541,9.828c0,0,3.728-9.828,3.896-12.943c0,0,1.862,7.669,2.202,11.025c0,0,1.523-4.555,3.218-6.471
						c0,0,3.896,4.554,4.403,11.026l0.848-4.794l1.354,5.992l1.864-6.472l1.187,2.397l1.185-6.232l2.541,8.15
						c0,0,2.709-0.719,3.557-7.191c0,0,1.693,7.911,0,11.026c0,0,1.524-0.479,1.693-3.115l2.202,7.669l4.403-10.307
						c0,0,1.525,4.075,1.187,6.472l2.541-5.273l2.541,11.266l1.016-4.554l4.404,8.628c0,0,3.049-5.752,1.694-11.505
						c0,0,4.572,7.431,4.912,11.505l4.572-14.861c0,0,3.727,5.032,3.388,8.868c0,0,1.186-4.314,2.032-5.752
						c0,0,2.879,7.431,2.879,11.745l3.218-12.943c0,0,2.031,5.992,2.371,8.389l1.354-6.232l1.355,5.034l2.032-5.273l2.71,6.232
						c0,0,2.033-4.554,1.187-9.827c0,0,2.202,4.794,2.372,10.546c0,0,2.879,1.198,2.202-6.232l2.541,5.753
						c0,0,2.541-3.596,1.523-8.15c0,0,6.944,8.951,8.639,17.179c0,0,1.693-12.864,2.88-18.137c0,0,4.402,8.232,5.25,18.137
						c0,0,2.709-9.508,5.589-15.741c0,0,6.604,6.951,7.622,14.621c0,0,1.354-11.024,4.233-17.017c0,0,4.234,11.744,4.065,21.092
						l4.063-9.348c0,0,2.203,2.959,2.203,6.393l2.371-5.913c0,0,1.863,5.034,3.558,10.546c0,0,4.572-6.232,3.388-15.58
						c0,0,2.541,4.397,2.032,10.947c0,0,4.064-5.434,3.557-13.583c0,0,3.726,14.862,4.743,16.06l2.033-10.787l4.572,11.985
						l1.017-7.909l1.354,4.235l2.032-2.079c0,0,3.896,5.274,3.896,9.588v-11.266l5.251,14.861c0,0,2.879-16.059,3.048-24.928
						l5.251,16.299l1.692-12.464c0,0,4.405,17.019,4.743,21.093c0,0,2.371-19.656,3.727-21.573c0,0,6.437,12.465,6.944,15.101
						l0.848-7.911c0,0,4.233,10.548,5.081,16.54c0,0,6.773-17.018,6.943-23.25l2.711,12.225l2.032-15.34l1.354,11.983l1.523-6.231
						c0,0,3.896,9.109,4.234,14.861c0,0,9.484-20.374,9.823-33.557c0,0,2.88,15.58,3.049,21.572l2.709-7.67
						c0,0,2.881,10.308,2.881,15.1c0,0,4.572-13.902,4.911-22.051l2.371,14.621l2.032-11.026c0,0,3.22,12.463,2.88,20.613
						c0,0,7.451-22.77,6.436-33.316c0,0,7.622,16.298,7.622,22.53l5.59-25.647c0,0,8.468,16.3,8.977,23.25l2.032-15.58l2.88,14.861
						c0,0,3.558-11.026,3.727-18.457l3.557,12.225l3.389-11.025c0,0,4.574,11.026,4.912,18.695l1.863-8.389l2.371,8.149
						c0,0,3.389-13.182,3.389-22.05c0,0,3.558,14.381,4.063,20.373l3.896-13.662c0,0,3.22,15.101,3.389,21.092l2.54-9.587
						l6.099,11.426l1.016-10.707l6.268,13.183c0,0,3.049-16.059,5.081-19.895c0,0,6.772,8.869,7.622,16.059l2.541-7.91l2.879,9.269
						l6.606-28.923c0,0,5.249,25.407,9.823,30.44c0,0-1.354-18.216,7.961-35.234c0,0,0.678,12.703,5.589,17.018l5.42-11.265
						c0,0,9.992,20.852,9.992,29.002c0,0,6.605-6.232,8.131-16.778c0,0,2.712,10.546,2.88,16.778l2.709-15.82l3.051,8.15
						l1.523-4.794c0,0,2.712,4.554,2.881,8.149l2.54-8.389l2.541,5.273l3.388-11.504l1.016,7.909l3.728-6.951l1.693,2.876
						l2.201-2.876l1.187,2.157c0,0,3.047-5.272,3.219-9.827l1.016,9.587l3.896-25.167l2.71,14.142l1.693-4.555
						c0,0,3.896,11.026,3.896,14.861l4.063-12.463l2.541,10.067l3.727-12.224l3.558,12.464l1.523-6.232l2.371,4.075
						c0,0-0.337-10.066,2.88-13.901l2.201,6.231l1.356-3.355l1.522,1.917v-4.554l4.573,6.71c0,0,2.372-14.861,1.525-20.134
						c0,0,4.401,11.266,4.401,14.861c0,0,0.68-4.554,0-7.67c0,0,3.22,6.233,3.22,11.026c0,0,5.759,0.719,5.419-10.067l3.051,3.116
						l1.354-5.513l4.065,5.034l3.048-5.273l1.524,2.157c0,0,1.016-6.951,1.692-5.513c0.679,1.438,3.388-2.397,6.099,5.513
						c2.711,7.91,6.437-0.719,6.437-0.719s2.202-12.223,4.742-2.397c2.541,9.827,3.896-11.983,8.131,2.158l1.523-2.158l3.558,4.793
						l5.25-12.703v11.025l6.438-10.067l2.031,7.67l2.541-0.479l0.848,3.356l4.233-11.026l0.68,5.752l1.354-1.678l4.573,7.91
						l6.437-9.109l0.849,5.513l3.726-3.835l0.849,6.711l2.54-8.869l4.233,13.422c0,0,5.929-7.191,3.727-15.819
						c0,0,8.402,5.993,9.282,16.779v154.073h-813L-165.64,335.876z"/>
				</g>
			</g>
		</g>
	</g>
	<g>
		<g>
			<defs>
				<rect id="SVGID_24_" x="0" width="480" height="800"/>
			</defs>
			<clipPath id="SVGID_25_">
				<use xlink:href="#SVGID_24_"  overflow="visible"/>
			</clipPath>
			<g clip-path="url(#SVGID_25_)">
				<g>
					<path fill="#378636" d="M124.234,485.252c0,0-3.359-0.965-0.496-4.448l0.83,1.13c0,0-1.099-1.576,1.309-3.641l-0.135,1.349
						c0,0,0.627-2.074,2.823-3.09c0,0-1.182,2.373,2.594,0.261c0,0,0.558,1.753,2.445-1.408c0,0,1.349,1.183,0.372,2.552
						c0,0,1.474-1.104,1.35-1.957c0,0,1.795,3.427-0.54,5.601c0,0,2.446-0.595,2.759-2.657c0,0,1.906,6.06-3.562,7.291
						L124.234,485.252z"/>
				</g>
				<defs>
					
						<filter id="Adobe_OpacityMaskFilter_2_" filterUnits="userSpaceOnUse" x="122.582" y="475.404" width="15.284" height="10.829">
						<feColorMatrix  type="matrix" values="1 0 0 0 0  0 1 0 0 0  0 0 1 0 0  0 0 0 1 0"/>
					</filter>
				</defs>
				<mask maskUnits="userSpaceOnUse" x="122.582" y="475.404" width="15.284" height="10.829" id="SVGID_8_">
					<g filter="url(#Adobe_OpacityMaskFilter_2_)">
						
							<image overflow="visible" enable-background="new    " width="83" height="67" xlink:href="733FC151.jpeg"  transform="matrix(0.2342 0 0 0.2221 120.5813 473.4023)">
						</image>
					</g>
				</mask>
				<g opacity="0.75" mask="url(#SVGID_8_)">
					<path fill="#7FBA28" d="M124.234,485.252c0,0-3.359-0.965-0.496-4.448l0.83,1.13c0,0-1.099-1.576,1.309-3.641l-0.135,1.349
						c0,0,0.627-2.074,2.823-3.09c0,0-1.182,2.373,2.594,0.261c0,0,0.558,1.753,2.445-1.408c0,0,1.349,1.183,0.372,2.552
						c0,0,1.474-1.104,1.35-1.957c0,0,1.795,3.427-0.54,5.601c0,0,2.446-0.595,2.759-2.657c0,0,1.906,6.06-3.562,7.291
						L124.234,485.252z"/>
				</g>
			</g>
		</g>
	</g>
	<g>
		<g>
			<defs>
				<rect id="SVGID_26_" x="0" width="480" height="800"/>
			</defs>
			<clipPath id="SVGID_27_">
				<use xlink:href="#SVGID_26_"  overflow="visible"/>
			</clipPath>
			<g clip-path="url(#SVGID_27_)">
				<g>
					<path fill="#358033" d="M267.647,480.849c0,0-7.719-1.299-1.727-7.494c0,0,1.588-1.407,1.637,0.164c0,0,1.291-2.568,3.137-0.38
						c0,0,1.344-3.087,1.914-0.548c0,0,1.431-3.956,3.162-0.621c0,0,1.12,1.182,0.283-2.826c0,0-0.123-2.889,3.428-1.225
						c0,0,0.586-1.51,1.7-1.396c0,0,1.985-0.323,2.212,1.528c0,0,0.919,1.14-0.338,3.365c0,0,2.815-1.286,1.328,1.179
						c0,0,6.486,5.356,0.981,8.728L267.647,480.849z"/>
				</g>
				<defs>
					
						<filter id="Adobe_OpacityMaskFilter_3_" filterUnits="userSpaceOnUse" x="263.641" y="466.501" width="23.939" height="14.821">
						<feColorMatrix  type="matrix" values="1 0 0 0 0  0 1 0 0 0  0 0 1 0 0  0 0 0 1 0"/>
					</filter>
				</defs>
				<mask maskUnits="userSpaceOnUse" x="263.641" y="466.501" width="23.939" height="14.821" id="SVGID_9_">
					<g filter="url(#Adobe_OpacityMaskFilter_3_)">
						
							<image overflow="visible" enable-background="new    " width="121" height="83" xlink:href="733FC150.jpeg"  transform="matrix(0.2321 0 0 0.2284 261.6418 464.501)">
						</image>
					</g>
				</mask>
				<g opacity="0.75" mask="url(#SVGID_9_)">
					<path fill="#7FBA28" d="M267.647,480.849c0,0-7.719-1.299-1.727-7.494c0,0,1.588-1.407,1.637,0.164c0,0,1.291-2.568,3.137-0.38
						c0,0,1.344-3.087,1.914-0.548c0,0,1.431-3.956,3.162-0.621c0,0,1.12,1.182,0.283-2.826c0,0-0.123-2.889,3.428-1.225
						c0,0,0.586-1.51,1.7-1.396c0,0,1.985-0.323,2.212,1.528c0,0,0.919,1.14-0.338,3.365c0,0,2.815-1.286,1.328,1.179
						c0,0,6.486,5.356,0.981,8.728L267.647,480.849z"/>
				</g>
			</g>
		</g>
	</g>
	<g>
		<g>
			<defs>
				<rect id="SVGID_28_" x="0" width="480" height="800"/>
			</defs>
			<clipPath id="SVGID_29_">
				<use xlink:href="#SVGID_28_"  overflow="visible"/>
			</clipPath>
			<g clip-path="url(#SVGID_29_)">
				<g>
					<path fill="#358033" d="M458.276,467.491c0,0,6.137-1.226,1.197-6.032c0,0-1.303-1.086-1.304,0.172
						c0,0-1.096-2.021-2.517-0.228c0,0-1.147-2.435-1.543-0.392c0,0-1.239-3.127-2.542-0.419c0,0-0.867,0.971-0.295-2.252
						c0,0,0.027-2.312-2.77-0.895c0,0-0.505-1.192-1.394-1.076c0,0-1.594-0.211-1.729,1.275c0,0-0.706,0.933,0.352,2.682
						c0,0-2.28-0.959-1.032,0.976c0,0-5.053,4.438-0.572,6.996L458.276,467.491z"/>
				</g>
				<defs>
					
						<filter id="Adobe_OpacityMaskFilter_4_" filterUnits="userSpaceOnUse" x="442.274" y="456.359" width="19.122" height="11.939">
						<feColorMatrix  type="matrix" values="1 0 0 0 0  0 1 0 0 0  0 0 1 0 0  0 0 0 1 0"/>
					</filter>
				</defs>
				<mask maskUnits="userSpaceOnUse" x="442.274" y="456.359" width="19.122" height="11.939" id="SVGID_10_">
					<g filter="url(#Adobe_OpacityMaskFilter_4_)">
						
							<image overflow="visible" enable-background="new    " width="104" height="71" xlink:href="733FC151.jpeg"  transform="matrix(0.2239 0 0 0.2265 440.2756 454.3594)">
						</image>
					</g>
				</mask>
				<g opacity="0.75" mask="url(#SVGID_10_)">
					<path fill="#7FBA28" d="M458.276,467.491c0,0,6.137-1.226,1.197-6.032c0,0-1.303-1.086-1.304,0.172
						c0,0-1.096-2.021-2.517-0.228c0,0-1.147-2.435-1.543-0.392c0,0-1.239-3.127-2.542-0.419c0,0-0.867,0.971-0.295-2.252
						c0,0,0.027-2.312-2.77-0.895c0,0-0.505-1.192-1.394-1.076c0,0-1.594-0.211-1.729,1.275c0,0-0.706,0.933,0.352,2.682
						c0,0-2.28-0.959-1.032,0.976c0,0-5.053,4.438-0.572,6.996L458.276,467.491z"/>
				</g>
			</g>
		</g>
	</g>
	<g>
		<g>
			<defs>
				<rect id="SVGID_30_" x="0" width="480" height="800"/>
			</defs>
			<clipPath id="SVGID_31_">
				<use xlink:href="#SVGID_30_"  overflow="visible"/>
			</clipPath>
			
				<linearGradient id="SVGID_32_" gradientUnits="userSpaceOnUse" x1="368.2307" y1="560.9922" x2="373.042" y2="510.4737" gradientTransform="matrix(1 0 0 1 -0.04 -42.8105)">
				<stop  offset="0" style="stop-color:#1C7B34"/>
				<stop  offset="0.3842" style="stop-color:#67B12F"/>
				<stop  offset="1" style="stop-color:#BBD034"/>
			</linearGradient>
			<path clip-path="url(#SVGID_31_)" fill="url(#SVGID_32_)" d="M82.006,486.297c0,0,167.353-6.08,224.02-11.107
				c0,0,90-9.143,194-9.601c0,0,136.615-3.81,139.975-13.867v249.272H82.006V486.297z"/>
		</g>
	</g>
	<g>
		<g>
			<defs>
				<rect id="SVGID_33_" x="0" width="480" height="800"/>
			</defs>
			<clipPath id="SVGID_34_">
				<use xlink:href="#SVGID_33_"  overflow="visible"/>
			</clipPath>
			<g clip-path="url(#SVGID_34_)">
				<g>
					<path fill="#378636" d="M85.311,490.554c0,0-25.667,1.999-26.167-4.667l3.334,1c0,0-3.879-2.834-2.188-7
						c0,0,0.354,3.166,4.354,4c0,0-4.667-3.5,0.5-5.833c0,0,5.667-0.333,7.084-1.5l-1.917,2.333c0,0,3-2.833,8.5-2.333
						c0,0-5.045,1.333-2.521,2c0,0,5.354,0.833,9.021-3.167c0,0-0.333,2.334-2,3.167c0,0,5.667-0.333,8.167-5
						c0,0,1.5,10.166-6,12.833c0,0,9.667-1.834,11.5-7C96.978,479.387,96.63,490.325,85.311,490.554z"/>
				</g>
				<defs>
					<filter id="Adobe_OpacityMaskFilter_5_" filterUnits="userSpaceOnUse" x="59.144" y="473.554" width="37.834" height="17.281">
						<feColorMatrix  type="matrix" values="1 0 0 0 0  0 1 0 0 0  0 0 1 0 0  0 0 0 1 0"/>
					</filter>
				</defs>
				<mask maskUnits="userSpaceOnUse" x="59.144" y="473.554" width="37.834" height="17.281" id="SVGID_12_">
					<g filter="url(#Adobe_OpacityMaskFilter_5_)">
						
							<image overflow="visible" enable-background="new    " width="179" height="92" xlink:href="733FC150.jpeg"  transform="matrix(0.2346 0 0 0.2322 57.1448 471.5537)">
						</image>
					</g>
				</mask>
				<g opacity="0.75" mask="url(#SVGID_12_)">
					<path fill="#7FBA28" d="M85.311,490.554c0,0-25.667,1.999-26.167-4.667l3.334,1c0,0-3.879-2.834-2.188-7
						c0,0,0.354,3.166,4.354,4c0,0-4.667-3.5,0.5-5.833c0,0,5.667-0.333,7.084-1.5l-1.917,2.333c0,0,3-2.833,8.5-2.333
						c0,0-5.045,1.333-2.521,2c0,0,5.354,0.833,9.021-3.167c0,0-0.333,2.334-2,3.167c0,0,5.667-0.333,8.167-5
						c0,0,1.5,10.166-6,12.833c0,0,9.667-1.834,11.5-7C96.978,479.387,96.63,490.325,85.311,490.554z"/>
				</g>
			</g>
		</g>
	</g>
	<g>
		<g>
			<defs>
				<rect id="SVGID_35_" x="0" width="480" height="800"/>
			</defs>
			<clipPath id="SVGID_36_">
				<use xlink:href="#SVGID_35_"  overflow="visible"/>
			</clipPath>
			<g clip-path="url(#SVGID_36_)">
				<g>
					<path fill="#378636" d="M88.394,491.307c0,0,23.718,10.014,26.3,3.848l-3.479-0.105c0,0,4.576-1.462,4.291-5.948
						c0,0-1.339,2.892-5.397,2.417c0,0,5.534-1.845,1.37-5.69c0,0-5.271-2.108-6.246-3.663l1.081,2.819c0,0-1.951-3.637-7.327-4.9
						c0,0,4.365,2.859,1.762,2.694c0,0-5.345-0.903-7.559-5.857c0,0-0.422,2.319,0.896,3.637c0,0-5.271-2.106-6.167-7.324
						c0,0-4.639,9.17,1.634,14.07c0,0-8.591-4.796-8.696-10.275C80.856,477.025,77.728,487.511,88.394,491.307z"/>
				</g>
				<defs>
					<filter id="Adobe_OpacityMaskFilter_6_" filterUnits="userSpaceOnUse" x="80.428" y="473.232" width="35.09" height="23.929">
						<feColorMatrix  type="matrix" values="1 0 0 0 0  0 1 0 0 0  0 0 1 0 0  0 0 0 1 0"/>
					</filter>
				</defs>
				<mask maskUnits="userSpaceOnUse" x="80.428" y="473.232" width="35.09" height="23.929" id="SVGID_13_">
					<g filter="url(#Adobe_OpacityMaskFilter_6_)">
						
							<image overflow="visible" enable-background="new    " width="167" height="121" xlink:href="733FC151.jpeg"  transform="matrix(0.2342 0 0 0.2321 78.429 471.2305)">
						</image>
					</g>
				</mask>
				<g opacity="0.75" mask="url(#SVGID_13_)">
					<path fill="#7FBA28" d="M88.394,491.307c0,0,23.718,10.014,26.3,3.848l-3.479-0.105c0,0,4.576-1.462,4.291-5.948
						c0,0-1.339,2.892-5.397,2.417c0,0,5.534-1.845,1.37-5.69c0,0-5.271-2.108-6.246-3.663l1.081,2.819c0,0-1.951-3.637-7.327-4.9
						c0,0,4.365,2.859,1.762,2.694c0,0-5.345-0.903-7.559-5.857c0,0-0.422,2.319,0.896,3.637c0,0-5.271-2.106-6.167-7.324
						c0,0-4.639,9.17,1.634,14.07c0,0-8.591-4.796-8.696-10.275C80.856,477.025,77.728,487.511,88.394,491.307z"/>
				</g>
			</g>
		</g>
	</g>
	<g>
		<g>
			<defs>
				<rect id="SVGID_37_" x="0" width="480" height="800"/>
			</defs>
			<clipPath id="SVGID_38_">
				<use xlink:href="#SVGID_37_"  overflow="visible"/>
			</clipPath>
			<g clip-path="url(#SVGID_38_)">
				<g>
					<path fill="#358033" d="M279.276,511.809c0,0-6.245-0.416-1.973-5.823c0,0,1.15-1.246,1.314,0c0,0,0.821-2.146,2.465-0.554
						c0,0,0.821-2.563,1.479-0.588c0,0,0.821-3.262,2.466-0.747c0,0,0.985,0.851,0-2.271c0,0-0.329-2.288,2.629-1.248
						c0,0,0.345-1.248,1.24-1.248c0,0,1.554-0.416,1.883,1.04c0,0,0.82,0.832,0,2.704c0,0,2.137-1.248,1.15,0.832
						c0,0,5.587,3.742,1.479,6.861L279.276,511.809z"/>
				</g>
				<defs>
					
						<filter id="Adobe_OpacityMaskFilter_7_" filterUnits="userSpaceOnUse" x="275.808" y="499.275" width="19.108" height="12.533">
						<feColorMatrix  type="matrix" values="1 0 0 0 0  0 1 0 0 0  0 0 1 0 0  0 0 0 1 0"/>
					</filter>
				</defs>
				<mask maskUnits="userSpaceOnUse" x="275.808" y="499.275" width="19.108" height="12.533" id="SVGID_14_">
					<g filter="url(#Adobe_OpacityMaskFilter_7_)">
						
							<image overflow="visible" enable-background="new    " width="100" height="71" xlink:href="733FC150.jpeg"  transform="matrix(0.2328 0 0 0.2332 273.8108 497.2764)">
						</image>
					</g>
				</mask>
				<g opacity="0.75" mask="url(#SVGID_14_)">
					<path fill="#7FBA28" d="M279.276,511.809c0,0-6.245-0.416-1.973-5.823c0,0,1.15-1.246,1.314,0c0,0,0.821-2.146,2.465-0.554
						c0,0,0.821-2.563,1.479-0.588c0,0,0.821-3.262,2.466-0.747c0,0,0.985,0.851,0-2.271c0,0-0.329-2.288,2.629-1.248
						c0,0,0.345-1.248,1.24-1.248c0,0,1.554-0.416,1.883,1.04c0,0,0.82,0.832,0,2.704c0,0,2.137-1.248,1.15,0.832
						c0,0,5.587,3.742,1.479,6.861L279.276,511.809z"/>
				</g>
			</g>
		</g>
	</g>
	<g>
		<g>
			<defs>
				<rect id="SVGID_39_" x="0" width="480" height="800"/>
			</defs>
			<clipPath id="SVGID_40_">
				<use xlink:href="#SVGID_39_"  overflow="visible"/>
			</clipPath>
			
				<linearGradient id="SVGID_41_" gradientUnits="userSpaceOnUse" x1="90.3948" y1="585.2998" x2="89.1481" y2="508.0036" gradientTransform="matrix(1 0 0 1 -0.04 -42.8105)">
				<stop  offset="0" style="stop-color:#1C7B34"/>
				<stop  offset="0.3842" style="stop-color:#67B12F"/>
				<stop  offset="1" style="stop-color:#BBD034"/>
			</linearGradient>
			<path clip-path="url(#SVGID_40_)" fill="url(#SVGID_41_)" d="M342.857,517.202c0,0-43.497-8.487-71.497-7.859
				c0,0-71.5-0.628-144.5-15.715c0,0-176.887-31.848-286.859-27.657v235.024h502.856V517.202z"/>
		</g>
	</g>
	<g>
		<g>
			<defs>
				<rect id="SVGID_42_" x="0" width="480" height="800"/>
			</defs>
			<clipPath id="SVGID_43_">
				<use xlink:href="#SVGID_42_"  overflow="visible"/>
			</clipPath>
			<g clip-path="url(#SVGID_43_)">
				<g>
					<path fill="#378636" d="M249.023,521.555c0,0-25.667,1.999-26.167-4.667l3.333,1c0,0-3.879-2.834-2.188-7
						c0,0,0.355,3.166,4.355,4c0,0-4.667-3.5,0.5-5.833c0,0,5.667-0.333,7.083-1.5l-1.917,2.333c0,0,3-2.833,8.5-2.333
						c0,0-5.045,1.333-2.521,2c0,0,5.354,0.833,9.021-3.167c0,0-0.333,2.334-2,3.167c0,0,5.667-0.333,8.167-5
						c0,0,1.5,10.166-6,12.833c0,0,9.667-1.834,11.5-7C260.69,510.388,260.342,521.326,249.023,521.555z"/>
				</g>
				<defs>
					
						<filter id="Adobe_OpacityMaskFilter_8_" filterUnits="userSpaceOnUse" x="222.856" y="504.555" width="37.833" height="17.281">
						<feColorMatrix  type="matrix" values="1 0 0 0 0  0 1 0 0 0  0 0 1 0 0  0 0 0 1 0"/>
					</filter>
				</defs>
				<mask maskUnits="userSpaceOnUse" x="222.856" y="504.555" width="37.833" height="17.281" id="SVGID_16_">
					<g filter="url(#Adobe_OpacityMaskFilter_8_)">
						
							<image overflow="visible" enable-background="new    " width="179" height="92" xlink:href="733FC151.jpeg"  transform="matrix(0.2346 0 0 0.2322 220.8557 502.5557)">
						</image>
					</g>
				</mask>
				<g opacity="0.75" mask="url(#SVGID_16_)">
					<path fill="#7FBA28" d="M249.023,521.555c0,0-25.667,1.999-26.167-4.667l3.333,1c0,0-3.879-2.834-2.188-7
						c0,0,0.355,3.166,4.355,4c0,0-4.667-3.5,0.5-5.833c0,0,5.667-0.333,7.083-1.5l-1.917,2.333c0,0,3-2.833,8.5-2.333
						c0,0-5.045,1.333-2.521,2c0,0,5.354,0.833,9.021-3.167c0,0-0.333,2.334-2,3.167c0,0,5.667-0.333,8.167-5
						c0,0,1.5,10.166-6,12.833c0,0,9.667-1.834,11.5-7C260.69,510.388,260.342,521.326,249.023,521.555z"/>
				</g>
			</g>
		</g>
	</g>
	<g>
		<g>
			<defs>
				<rect id="SVGID_44_" x="0" width="480" height="800"/>
			</defs>
			<clipPath id="SVGID_45_">
				<use xlink:href="#SVGID_44_"  overflow="visible"/>
			</clipPath>
			<g clip-path="url(#SVGID_45_)">
				<g>
					<path fill="#378636" d="M377.168,522.472c0,0-6.654-13.414,5.149-16.277l-1.377,2.229c0,0,4.575-3.244,12.195-3.928
						c0,0-5.595,1.426-6.597,3.961c0,0,5.666-3.939,10.442-1.988c0,0,1.276,3.004,3.524,3.334l-4.386-0.153
						c0,0,5.406,0.56,5.181,3.794c0,0-2.982-2.271-3.864-0.618c0,0-0.838,3.284,6.725,3.759c0,0-4.193,0.722-5.878,0.124
						c0,0,1.275,3.004,9.883,2.573c0,0-17.912,4.775-23.563,1.665c0,0,4.43,4.634,13.846,3.641
						C398.449,524.586,378.94,528.641,377.168,522.472z"/>
				</g>
				<defs>
					
						<filter id="Adobe_OpacityMaskFilter_9_" filterUnits="userSpaceOnUse" x="375.299" y="504.496" width="32.867" height="21.397">
						<feColorMatrix  type="matrix" values="1 0 0 0 0  0 1 0 0 0  0 0 1 0 0  0 0 0 1 0"/>
					</filter>
				</defs>
				<mask maskUnits="userSpaceOnUse" x="375.299" y="504.496" width="32.867" height="21.397" id="SVGID_17_">
					<g filter="url(#Adobe_OpacityMaskFilter_9_)">
						
							<image overflow="visible" enable-background="new    " width="158" height="108" xlink:href="A836F523.jpeg"  transform="matrix(0.2339 0 0 0.2356 373.2991 502.4971)">
						</image>
					</g>
				</mask>
				<g opacity="0.75" mask="url(#SVGID_17_)">
					<path fill="#7FBA28" d="M377.168,522.472c0,0-6.654-13.414,5.149-16.277l-1.377,2.229c0,0,4.575-3.244,12.195-3.928
						c0,0-5.595,1.426-6.597,3.961c0,0,5.666-3.939,10.442-1.988c0,0,1.276,3.004,3.524,3.334l-4.386-0.153
						c0,0,5.406,0.56,5.181,3.794c0,0-2.982-2.271-3.864-0.618c0,0-0.838,3.284,6.725,3.759c0,0-4.193,0.722-5.878,0.124
						c0,0,1.275,3.004,9.883,2.573c0,0-17.912,4.775-23.563,1.665c0,0,4.43,4.634,13.846,3.641
						C398.449,524.586,378.94,528.641,377.168,522.472z"/>
				</g>
			</g>
		</g>
	</g>
	<g>
		<g>
			<defs>
				<rect id="SVGID_46_" x="0" width="480" height="800"/>
			</defs>
			<clipPath id="SVGID_47_">
				<use xlink:href="#SVGID_46_"  overflow="visible"/>
			</clipPath>
			<g clip-path="url(#SVGID_47_)">
				<g>
					<path fill="#378636" d="M137.473,529.024c0,0-25.667,1.999-26.167-4.667l3.333,1c0,0-3.879-2.834-2.188-7
						c0,0,0.355,3.166,4.355,4c0,0-4.667-3.5,0.5-5.833c0,0,5.667-0.333,7.083-1.5l-1.917,2.333c0,0,3-2.833,8.5-2.333
						c0,0-5.045,1.333-2.521,2c0,0,5.354,0.833,9.021-3.167c0,0-0.333,2.334-2,3.167c0,0,5.667-0.333,8.167-5
						c0,0,1.5,10.166-6,12.833c0,0,9.667-1.834,11.5-7C149.14,517.857,148.792,528.794,137.473,529.024z"/>
				</g>
				<defs>
					
						<filter id="Adobe_OpacityMaskFilter_10_" filterUnits="userSpaceOnUse" x="111.306" y="512.024" width="37.833" height="17.281">
						<feColorMatrix  type="matrix" values="1 0 0 0 0  0 1 0 0 0  0 0 1 0 0  0 0 0 1 0"/>
					</filter>
				</defs>
				<mask maskUnits="userSpaceOnUse" x="111.306" y="512.024" width="37.833" height="17.281" id="SVGID_18_">
					<g filter="url(#Adobe_OpacityMaskFilter_10_)">
						
							<image overflow="visible" enable-background="new    " width="179" height="96" xlink:href="A836F520.jpeg"  transform="matrix(0.2346 0 0 0.2225 109.3059 510.0234)">
						</image>
					</g>
				</mask>
				<g opacity="0.75" mask="url(#SVGID_18_)">
					<path fill="#7FBA28" d="M137.473,529.024c0,0-25.667,1.999-26.167-4.667l3.333,1c0,0-3.879-2.834-2.188-7
						c0,0,0.355,3.166,4.355,4c0,0-4.667-3.5,0.5-5.833c0,0,5.667-0.333,7.083-1.5l-1.917,2.333c0,0,3-2.833,8.5-2.333
						c0,0-5.045,1.333-2.521,2c0,0,5.354,0.833,9.021-3.167c0,0-0.333,2.334-2,3.167c0,0,5.667-0.333,8.167-5
						c0,0,1.5,10.166-6,12.833c0,0,9.667-1.834,11.5-7C149.14,517.857,148.792,528.794,137.473,529.024z"/>
				</g>
			</g>
		</g>
	</g>
	<g>
		<g>
			<defs>
				<rect id="SVGID_48_" x="0" width="480" height="800"/>
			</defs>
			<clipPath id="SVGID_49_">
				<use xlink:href="#SVGID_48_"  overflow="visible"/>
			</clipPath>
			<g clip-path="url(#SVGID_49_)">
				<g>
					<path fill="#378636" d="M374.565,521.21c0,0,4.271-0.776,1.164-5.437l-1.164,1.294c0,0,1.553-1.813-1.166-4.66v1.683
						c0,0-0.518-2.643-3.104-4.169c0,0,1.165,3.079-3.236,0c0,0-0.906,2.097-2.848-2.045c0,0-1.813,1.294-0.777,3.106
						c0,0-1.682-1.547-1.424-2.585c0,0-2.644,4.011-0.027,6.986c0,0-2.949-1.037-3.079-3.625c0,0-3.105,7.251,3.495,9.45
						L374.565,521.21L374.565,521.21z"/>
				</g>
				<defs>
					
						<filter id="Adobe_OpacityMaskFilter_11_" filterUnits="userSpaceOnUse" x="358.173" y="507.876" width="18.688" height="13.334">
						<feColorMatrix  type="matrix" values="1 0 0 0 0  0 1 0 0 0  0 0 1 0 0  0 0 0 1 0"/>
					</filter>
				</defs>
				<mask maskUnits="userSpaceOnUse" x="358.173" y="507.876" width="18.688" height="13.334" id="SVGID_19_">
					<g filter="url(#Adobe_OpacityMaskFilter_11_)">
						
							<image overflow="visible" enable-background="new    " width="100" height="79" xlink:href="A836F521.jpeg"  transform="matrix(0.228 0 0 0.2218 356.1721 505.8779)">
						</image>
					</g>
				</mask>
				<g opacity="0.75" mask="url(#SVGID_19_)">
					<path fill="#7FBA28" d="M374.565,521.21c0,0,4.271-0.776,1.164-5.437l-1.164,1.294c0,0,1.553-1.813-1.166-4.66v1.683
						c0,0-0.518-2.643-3.104-4.169c0,0,1.165,3.079-3.236,0c0,0-0.906,2.097-2.848-2.045c0,0-1.813,1.294-0.777,3.106
						c0,0-1.682-1.547-1.424-2.585c0,0-2.644,4.011-0.027,6.986c0,0-2.949-1.037-3.079-3.625c0,0-3.105,7.251,3.495,9.45
						L374.565,521.21L374.565,521.21z"/>
				</g>
			</g>
		</g>
	</g>
	<g>
		<g>
			<defs>
				<rect id="SVGID_50_" x="0" width="480" height="800"/>
			</defs>
			<clipPath id="SVGID_51_">
				<use xlink:href="#SVGID_50_"  overflow="visible"/>
			</clipPath>
			<g clip-path="url(#SVGID_51_)">
				<g>
					<path fill="#378636" d="M37.777,533.306c0,0-2.75-0.5-0.75-3.5l0.75,0.833c0,0-1-1.167,0.75-3v1.083c0,0,0.333-1.7,2-2.684
						c0,0-0.75,1.982,2.083,0c0,0,0.583,1.35,1.833-1.316c0,0,1.167,0.833,0.5,2c0,0,1.083-0.994,0.917-1.664
						c0,0,1.702,2.582,0.019,4.498c0,0,1.898-0.668,1.981-2.334c0,0,2,4.668-2.25,6.084H37.777z"/>
				</g>
				<defs>
					<filter id="Adobe_OpacityMaskFilter_12_" filterUnits="userSpaceOnUse" x="36.298" y="524.722" width="12.032" height="8.584">
						<feColorMatrix  type="matrix" values="1 0 0 0 0  0 1 0 0 0  0 0 1 0 0  0 0 0 1 0"/>
					</filter>
				</defs>
				<mask maskUnits="userSpaceOnUse" x="36.298" y="524.722" width="12.032" height="8.584" id="SVGID_20_">
					<g filter="url(#Adobe_OpacityMaskFilter_12_)">
						
							<image overflow="visible" enable-background="new    " width="75" height="58" xlink:href="A836F522.jpeg"  transform="matrix(0.2144 0 0 0.2193 34.2971 522.7236)">
						</image>
					</g>
				</mask>
				<g opacity="0.75" mask="url(#SVGID_20_)">
					<path fill="#7FBA28" d="M37.777,533.306c0,0-2.75-0.5-0.75-3.5l0.75,0.833c0,0-1-1.167,0.75-3v1.083c0,0,0.333-1.7,2-2.684
						c0,0-0.75,1.982,2.083,0c0,0,0.583,1.35,1.833-1.316c0,0,1.167,0.833,0.5,2c0,0,1.083-0.994,0.917-1.664
						c0,0,1.702,2.582,0.019,4.498c0,0,1.898-0.668,1.981-2.334c0,0,2,4.668-2.25,6.084H37.777z"/>
				</g>
			</g>
		</g>
	</g>
	<g>
		<g>
			<defs>
				<rect id="SVGID_52_" x="0" width="480" height="800"/>
			</defs>
			<clipPath id="SVGID_53_">
				<use xlink:href="#SVGID_52_"  overflow="visible"/>
			</clipPath>
			<g clip-path="url(#SVGID_53_)">
				<g>
					<path fill="#358033" d="M18.812,534.031c0,0,5.984-1.832,0.588-6.121c0,0-1.404-0.95-1.279,0.301c0,0-1.291-1.901-2.526,0.025
						c0,0-1.386-2.308-1.574-0.234c0,0-1.545-2.987-2.57-0.163c0,0-0.767,1.052-0.52-2.211c0,0-0.203-2.303-2.845-0.613
						c0,0-0.621-1.137-1.493-0.932c0,0-1.607-0.051-1.595,1.442c0,0-0.609,0.998,0.618,2.633c0,0-2.365-0.728-0.931,1.073
						c0,0-4.584,4.92,0.129,7.019L18.812,534.031z"/>
				</g>
				<defs>
					<filter id="Adobe_OpacityMaskFilter_13_" filterUnits="userSpaceOnUse" x="2.685" y="524.059" width="18.969" height="12.191">
						<feColorMatrix  type="matrix" values="1 0 0 0 0  0 1 0 0 0  0 0 1 0 0  0 0 0 1 0"/>
					</filter>
				</defs>
				<mask maskUnits="userSpaceOnUse" x="2.685" y="524.059" width="18.969" height="12.191" id="SVGID_21_">
					<g filter="url(#Adobe_OpacityMaskFilter_13_)">
						
							<image overflow="visible" enable-background="new    " width="100" height="71" xlink:href="A836F523.jpeg"  transform="matrix(0.2304 0 0 0.2299 0.6868 522.0576)">
						</image>
					</g>
				</mask>
				<g opacity="0.75" mask="url(#SVGID_21_)">
					<path fill="#7FBA28" d="M18.812,534.031c0,0,5.984-1.832,0.588-6.121c0,0-1.404-0.95-1.279,0.301c0,0-1.291-1.901-2.526,0.025
						c0,0-1.386-2.308-1.574-0.234c0,0-1.545-2.987-2.57-0.163c0,0-0.767,1.052-0.52-2.211c0,0-0.203-2.303-2.845-0.613
						c0,0-0.621-1.137-1.493-0.932c0,0-1.607-0.051-1.595,1.442c0,0-0.609,0.998,0.618,2.633c0,0-2.365-0.728-0.931,1.073
						c0,0-4.584,4.92,0.129,7.019L18.812,534.031z"/>
				</g>
			</g>
		</g>
	</g>
	<g>
		<g>
			<defs>
				<rect id="SVGID_54_" x="0" width="480" height="800"/>
			</defs>
			<clipPath id="SVGID_55_">
				<use xlink:href="#SVGID_54_"  overflow="visible"/>
			</clipPath>
			
				<linearGradient id="SVGID_56_" gradientUnits="userSpaceOnUse" x1="235.5134" y1="821.7129" x2="246.1619" y2="575.0285" gradientTransform="matrix(1 0 0 1 -0.04 -42.8105)">
				<stop  offset="0" style="stop-color:#1C7B34"/>
				<stop  offset="0.3842" style="stop-color:#67B12F"/>
				<stop  offset="1" style="stop-color:#BBD034"/>
			</linearGradient>
			<path clip-path="url(#SVGID_55_)" fill="url(#SVGID_56_)" d="M640,540.394c-62.359-21.239-377.642-24.137-377.642-24.137
				c-80.5,1.932-296.5,23.171-296.5,23.171c-26,4.828-125.859,8.689-125.859,8.689V800h799.999V540.394H640z"/>
		</g>
	</g>
	<g>
		<g>
			<defs>
				<rect id="SVGID_57_" x="0" width="480" height="800"/>
			</defs>
			<clipPath id="SVGID_58_">
				<use xlink:href="#SVGID_57_"  overflow="visible"/>
			</clipPath>
			<path clip-path="url(#SVGID_58_)" fill="#95C11F" d="M125.015,620.25c0,0,10.15-17.927,14.742-21.877
				C139.757,598.374,127.19,617.211,125.015,620.25z"/>
		</g>
	</g>
	<g>
		<g>
			<defs>
				<rect id="SVGID_59_" x="0" width="480" height="800"/>
			</defs>
			<clipPath id="SVGID_60_">
				<use xlink:href="#SVGID_59_"  overflow="visible"/>
			</clipPath>
			<path clip-path="url(#SVGID_60_)" fill="#95C11F" d="M163.101,609.312c0,0,10.15-17.926,14.742-21.875
				C177.843,587.436,165.275,606.274,163.101,609.312z"/>
		</g>
	</g>
	<g>
		<g>
			<defs>
				<rect id="SVGID_61_" x="0" width="480" height="800"/>
			</defs>
			<clipPath id="SVGID_62_">
				<use xlink:href="#SVGID_61_"  overflow="visible"/>
			</clipPath>
			<path clip-path="url(#SVGID_62_)" fill="#95C11F" d="M85.573,595.807c0,0,10.15-17.926,14.742-21.876
				C100.315,573.931,87.748,592.769,85.573,595.807z"/>
		</g>
	</g>
	<g>
		<g>
			<defs>
				<rect id="SVGID_63_" x="0" width="480" height="800"/>
			</defs>
			<clipPath id="SVGID_64_">
				<use xlink:href="#SVGID_63_"  overflow="visible"/>
			</clipPath>
			<path clip-path="url(#SVGID_64_)" fill="#95C11F" d="M27.487,647.83c0,0,10.15-17.926,14.742-21.876
				C42.229,625.954,29.662,644.792,27.487,647.83z"/>
		</g>
	</g>
	<g>
		<g>
			<defs>
				<rect id="SVGID_65_" x="0" width="480" height="800"/>
			</defs>
			<clipPath id="SVGID_66_">
				<use xlink:href="#SVGID_65_"  overflow="visible"/>
			</clipPath>
			<path clip-path="url(#SVGID_66_)" fill="#95C11F" d="M115.481,647.83c0,0,10.15-17.926,14.742-21.876
				C130.223,625.954,117.656,644.792,115.481,647.83z"/>
		</g>
	</g>
	<g>
		<g>
			<defs>
				<rect id="SVGID_67_" x="0" width="480" height="800"/>
			</defs>
			<clipPath id="SVGID_68_">
				<use xlink:href="#SVGID_67_"  overflow="visible"/>
			</clipPath>
			<path clip-path="url(#SVGID_68_)" fill="#95C11F" d="M151.751,674.499c0,0,10.149-17.927,14.742-21.876
				C166.494,652.623,153.926,671.46,151.751,674.499z"/>
		</g>
	</g>
	<g>
		<g>
			<defs>
				<rect id="SVGID_69_" x="0" width="480" height="800"/>
			</defs>
			<clipPath id="SVGID_70_">
				<use xlink:href="#SVGID_69_"  overflow="visible"/>
			</clipPath>
			<path clip-path="url(#SVGID_70_)" fill="#95C11F" d="M95.727,634.668c0,0,10.15-17.926,14.742-21.876
				C110.469,612.792,97.901,631.631,95.727,634.668z"/>
		</g>
	</g>
	<g>
		<g>
			<defs>
				<rect id="SVGID_71_" x="0" width="480" height="800"/>
			</defs>
			<clipPath id="SVGID_72_">
				<use xlink:href="#SVGID_71_"  overflow="visible"/>
			</clipPath>
			<path clip-path="url(#SVGID_72_)" fill="#95C11F" d="M143.226,566.127c0,0,10.15-17.925,14.742-21.876
				C157.968,544.251,145.401,563.09,143.226,566.127z"/>
		</g>
	</g>
	<g>
		<g>
			<defs>
				<rect id="SVGID_73_" x="0" width="480" height="800"/>
			</defs>
			<clipPath id="SVGID_74_">
				<use xlink:href="#SVGID_73_"  overflow="visible"/>
			</clipPath>
			<path clip-path="url(#SVGID_74_)" fill="#95C11F" d="M168.498,680.202c0,0,10.149-17.926,14.742-21.876
				C183.24,658.326,170.673,677.165,168.498,680.202z"/>
		</g>
	</g>
	<g>
		<g>
			<defs>
				<rect id="SVGID_75_" x="0" width="480" height="800"/>
			</defs>
			<clipPath id="SVGID_76_">
				<use xlink:href="#SVGID_75_"  overflow="visible"/>
			</clipPath>
			<path clip-path="url(#SVGID_76_)" fill="#95C11F" d="M27.487,669.265c0,0,10.15-17.926,14.742-21.876
				C42.229,647.389,29.662,666.227,27.487,669.265z"/>
		</g>
	</g>
	<g>
		<g>
			<defs>
				<rect id="SVGID_77_" x="0" width="480" height="800"/>
			</defs>
			<clipPath id="SVGID_78_">
				<use xlink:href="#SVGID_77_"  overflow="visible"/>
			</clipPath>
			<path clip-path="url(#SVGID_78_)" fill="#95C11F" d="M202.806,595.806c0,0,10.15-17.926,14.742-21.877
				C217.548,573.929,204.98,592.768,202.806,595.806z"/>
		</g>
	</g>
	<g>
		<g>
			<defs>
				<rect id="SVGID_79_" x="0" width="480" height="800"/>
			</defs>
			<clipPath id="SVGID_80_">
				<use xlink:href="#SVGID_79_"  overflow="visible"/>
			</clipPath>
			<path clip-path="url(#SVGID_80_)" fill="#95C11F" d="M292.627,612.447c0,0,10.149-17.925,14.742-21.875
				C307.37,590.572,294.802,609.41,292.627,612.447z"/>
		</g>
	</g>
	<g>
		<g>
			<defs>
				<rect id="SVGID_81_" x="0" width="480" height="800"/>
			</defs>
			<clipPath id="SVGID_82_">
				<use xlink:href="#SVGID_81_"  overflow="visible"/>
			</clipPath>
			<path clip-path="url(#SVGID_82_)" fill="#95C11F" d="M350.918,640.373c0,0,10.149-17.926,14.742-21.877
				C365.661,618.496,353.093,637.333,350.918,640.373z"/>
		</g>
	</g>
	<g>
		<g>
			<defs>
				<rect id="SVGID_83_" x="0" width="480" height="800"/>
			</defs>
			<clipPath id="SVGID_84_">
				<use xlink:href="#SVGID_83_"  overflow="visible"/>
			</clipPath>
			<path clip-path="url(#SVGID_84_)" fill="#95C11F" d="M332.593,651.31c0,0,10.149-17.926,14.743-21.876
				C347.336,629.434,334.768,648.273,332.593,651.31z"/>
		</g>
	</g>
	<g>
		<g>
			<defs>
				<rect id="SVGID_85_" x="0" width="480" height="800"/>
			</defs>
			<clipPath id="SVGID_86_">
				<use xlink:href="#SVGID_85_"  overflow="visible"/>
			</clipPath>
			<path clip-path="url(#SVGID_86_)" fill="#95C11F" d="M281.801,559.198c0,0,10.15-17.925,14.743-21.876
				C296.544,537.322,283.976,556.16,281.801,559.198z"/>
		</g>
	</g>
	<g>
		<g>
			<defs>
				<rect id="SVGID_87_" x="0" width="480" height="800"/>
			</defs>
			<clipPath id="SVGID_88_">
				<use xlink:href="#SVGID_87_"  overflow="visible"/>
			</clipPath>
			<path clip-path="url(#SVGID_88_)" fill="#95C11F" d="M175.869,662.249c0,0,10.149-17.924,14.741-21.875
				C190.611,640.374,178.044,659.211,175.869,662.249z"/>
		</g>
	</g>
	<g>
		<g>
			<defs>
				<rect id="SVGID_89_" x="0" width="480" height="800"/>
			</defs>
			<clipPath id="SVGID_90_">
				<use xlink:href="#SVGID_89_"  overflow="visible"/>
			</clipPath>
			<path clip-path="url(#SVGID_90_)" fill="#95C11F" d="M420.697,651.311c0,0,10.15-17.926,14.741-21.877
				C435.438,629.434,422.871,648.274,420.697,651.311z"/>
		</g>
	</g>
	<g>
		<g>
			<defs>
				<rect id="SVGID_91_" x="0" width="480" height="800"/>
			</defs>
			<clipPath id="SVGID_92_">
				<use xlink:href="#SVGID_91_"  overflow="visible"/>
			</clipPath>
			<path clip-path="url(#SVGID_92_)" fill="#95C11F" d="M220.656,669.265c0,0,10.15-17.926,14.742-21.876
				C235.398,647.389,222.831,666.227,220.656,669.265z"/>
		</g>
	</g>
	<g>
		<g>
			<defs>
				<rect id="SVGID_93_" x="0" width="480" height="800"/>
			</defs>
			<clipPath id="SVGID_94_">
				<use xlink:href="#SVGID_93_"  overflow="visible"/>
			</clipPath>
			<path clip-path="url(#SVGID_94_)" fill="#95C11F" d="M115.481,687.604c0,0,10.15-17.926,14.742-21.877
				C130.223,665.728,117.656,684.567,115.481,687.604z"/>
		</g>
	</g>
	<g>
		<g>
			<defs>
				<rect id="SVGID_95_" x="0" width="480" height="800"/>
			</defs>
			<clipPath id="SVGID_96_">
				<use xlink:href="#SVGID_95_"  overflow="visible"/>
			</clipPath>
			<path clip-path="url(#SVGID_96_)" fill="#95C11F" d="M377.299,577.067c0,0,10.149-17.927,14.742-21.876
				C392.041,555.191,379.474,574.029,377.299,577.067z"/>
		</g>
	</g>
	<g>
		<g>
			<defs>
				<rect id="SVGID_97_" x="0" width="480" height="800"/>
			</defs>
			<clipPath id="SVGID_98_">
				<use xlink:href="#SVGID_97_"  overflow="visible"/>
			</clipPath>
			<path clip-path="url(#SVGID_98_)" fill="#95C11F" d="M377.299,566.127c0,0,10.149-17.925,14.742-21.876
				C392.041,544.251,379.474,563.09,377.299,566.127z"/>
		</g>
	</g>
	<g>
		<g>
			<defs>
				<rect id="SVGID_99_" x="0" width="480" height="800"/>
			</defs>
			<clipPath id="SVGID_100_">
				<use xlink:href="#SVGID_99_"  overflow="visible"/>
			</clipPath>
			<path clip-path="url(#SVGID_100_)" fill="#95C11F" d="M201.647,577.066c0,0,10.15-17.927,14.742-21.876
				C216.389,555.19,203.822,574.028,201.647,577.066z"/>
		</g>
	</g>
	<g>
		<g>
			<defs>
				<rect id="SVGID_101_" x="0" width="480" height="800"/>
			</defs>
			<clipPath id="SVGID_102_">
				<use xlink:href="#SVGID_101_"  overflow="visible"/>
			</clipPath>
			<path clip-path="url(#SVGID_102_)" fill="#95C11F" d="M452.639,588.005c0,0,10.148-17.926,14.742-21.877
				C467.381,566.128,454.814,584.967,452.639,588.005z"/>
		</g>
	</g>
	<g>
		<g>
			<defs>
				<rect id="SVGID_103_" x="0" width="480" height="800"/>
			</defs>
			<clipPath id="SVGID_104_">
				<use xlink:href="#SVGID_103_"  overflow="visible"/>
			</clipPath>
			<path clip-path="url(#SVGID_104_)" fill="#95C11F" d="M257.87,651.311c0,0,10.148-17.926,14.741-21.877
				C272.612,629.434,260.044,648.274,257.87,651.311z"/>
		</g>
	</g>
	<g>
		<g>
			<defs>
				<rect id="SVGID_105_" x="0" width="480" height="800"/>
			</defs>
			<clipPath id="SVGID_106_">
				<use xlink:href="#SVGID_105_"  overflow="visible"/>
			</clipPath>
			<path clip-path="url(#SVGID_106_)" fill="#95C11F" d="M315.852,570.135c0,0,10.15-17.924,14.743-21.875
				C330.595,548.26,318.027,567.098,315.852,570.135z"/>
		</g>
	</g>
	<g>
		<g>
			<defs>
				<rect id="SVGID_107_" x="0" width="480" height="800"/>
			</defs>
			<clipPath id="SVGID_108_">
				<use xlink:href="#SVGID_107_"  overflow="visible"/>
			</clipPath>
			<path clip-path="url(#SVGID_108_)" fill="#95C11F" d="M111.394,669.265c0,0,10.15-17.926,14.742-21.876
				C126.135,647.389,113.568,666.227,111.394,669.265z"/>
		</g>
	</g>
	<g>
		<g>
			<defs>
				<rect id="SVGID_109_" x="0" width="480" height="800"/>
			</defs>
			<clipPath id="SVGID_110_">
				<use xlink:href="#SVGID_109_"  overflow="visible"/>
			</clipPath>
			<path clip-path="url(#SVGID_110_)" fill="#95C11F" d="M59.402,640.374c0,0,10.15-17.926,14.742-21.877
				C74.144,618.497,61.577,637.334,59.402,640.374z"/>
		</g>
	</g>
	<g>
		<g>
			<defs>
				<rect id="SVGID_111_" x="0" width="480" height="800"/>
			</defs>
			<clipPath id="SVGID_112_">
				<use xlink:href="#SVGID_111_"  overflow="visible"/>
			</clipPath>
			<path clip-path="url(#SVGID_112_)" fill="#95C11F" d="M377.832,612.447c0,0,10.15-17.925,14.742-21.875
				C392.574,590.572,380.007,609.41,377.832,612.447z"/>
		</g>
	</g>
	<g>
		<g>
			<defs>
				<rect id="SVGID_113_" x="0" width="480" height="800"/>
			</defs>
			<clipPath id="SVGID_114_">
				<use xlink:href="#SVGID_113_"  overflow="visible"/>
			</clipPath>
			<path clip-path="url(#SVGID_114_)" fill="#95C11F" d="M380.255,687.604c0,0,10.148-17.926,14.74-21.877
				C394.996,665.728,382.43,684.567,380.255,687.604z"/>
		</g>
	</g>
	<g>
		<g>
			<defs>
				<rect id="SVGID_115_" x="0" width="480" height="800"/>
			</defs>
			<clipPath id="SVGID_116_">
				<use xlink:href="#SVGID_115_"  overflow="visible"/>
			</clipPath>
			<path clip-path="url(#SVGID_116_)" fill="#95C11F" d="M470.711,612.448c0,0,10.149-17.926,14.74-21.877
				C485.452,590.571,472.886,609.41,470.711,612.448z"/>
		</g>
	</g>
	<g>
		<g>
			<defs>
				<rect id="SVGID_117_" x="0" width="480" height="800"/>
			</defs>
			<clipPath id="SVGID_118_">
				<use xlink:href="#SVGID_117_"  overflow="visible"/>
			</clipPath>
			<path clip-path="url(#SVGID_118_)" fill="#95C11F" d="M302.075,635.152c0,0,10.149-17.927,14.742-21.875
				C316.818,613.277,304.25,632.115,302.075,635.152z"/>
		</g>
	</g>
	<g>
		<g>
			<defs>
				<rect id="SVGID_119_" x="0" width="480" height="800"/>
			</defs>
			<clipPath id="SVGID_120_">
				<use xlink:href="#SVGID_119_"  overflow="visible"/>
			</clipPath>
			<path clip-path="url(#SVGID_120_)" fill="#95C11F" d="M355.092,667.525c0,0,10.149-17.928,14.742-21.877
				C369.834,645.648,357.268,664.487,355.092,667.525z"/>
		</g>
	</g>
	<g>
		<g>
			<defs>
				<rect id="SVGID_121_" x="0" width="480" height="800"/>
			</defs>
			<clipPath id="SVGID_122_">
				<use xlink:href="#SVGID_121_"  overflow="visible"/>
			</clipPath>
			<path clip-path="url(#SVGID_122_)" fill="#95C11F" d="M239.883,497.81c0,0,3.604-6.364,5.235-7.769
				C245.119,490.042,240.656,496.732,239.883,497.81z"/>
		</g>
	</g>
	<g>
		<g>
			<defs>
				<rect id="SVGID_123_" x="0" width="480" height="800"/>
			</defs>
			<clipPath id="SVGID_124_">
				<use xlink:href="#SVGID_123_"  overflow="visible"/>
			</clipPath>
			<path clip-path="url(#SVGID_124_)" fill="#95C11F" d="M260.583,490.042c0,0,3.604-6.365,5.234-7.769
				C265.819,482.273,261.356,488.963,260.583,490.042z"/>
		</g>
	</g>
	<g>
		<g>
			<defs>
				<rect id="SVGID_125_" x="0" width="480" height="800"/>
			</defs>
			<clipPath id="SVGID_126_">
				<use xlink:href="#SVGID_125_"  overflow="visible"/>
			</clipPath>
			<path clip-path="url(#SVGID_126_)" fill="#95C11F" d="M254.076,493.926c0,0,3.604-6.366,5.234-7.769
				C259.311,486.158,254.848,492.847,254.076,493.926z"/>
		</g>
	</g>
	<g>
		<g>
			<defs>
				<rect id="SVGID_127_" x="0" width="480" height="800"/>
			</defs>
			<clipPath id="SVGID_128_">
				<use xlink:href="#SVGID_127_"  overflow="visible"/>
			</clipPath>
			<path clip-path="url(#SVGID_128_)" fill="#95C11F" d="M208.883,501.695c0,0,3.604-6.365,5.235-7.77
				C214.119,493.926,209.656,500.616,208.883,501.695z"/>
		</g>
	</g>
	<g>
		<g>
			<defs>
				<rect id="SVGID_129_" x="0" width="480" height="800"/>
			</defs>
			<clipPath id="SVGID_130_">
				<use xlink:href="#SVGID_129_"  overflow="visible"/>
			</clipPath>
			<path clip-path="url(#SVGID_130_)" fill="#95C11F" d="M362.463,649.572c0,0,10.149-17.925,14.741-21.876
				C377.205,627.696,364.639,646.535,362.463,649.572z"/>
		</g>
	</g>
	<g>
		<g>
			<defs>
				<rect id="SVGID_131_" x="0" width="480" height="800"/>
			</defs>
			<clipPath id="SVGID_132_">
				<use xlink:href="#SVGID_131_"  overflow="visible"/>
			</clipPath>
			<path clip-path="url(#SVGID_132_)" fill="#95C11F" d="M285.363,493.926c0,0,3.604-6.366,5.235-7.769
				C290.598,486.158,286.135,492.848,285.363,493.926z"/>
		</g>
	</g>
	<g>
		<g>
			<defs>
				<rect id="SVGID_133_" x="0" width="480" height="800"/>
			</defs>
			<clipPath id="SVGID_134_">
				<use xlink:href="#SVGID_133_"  overflow="visible"/>
			</clipPath>
			<path clip-path="url(#SVGID_134_)" fill="#95C11F" d="M407.25,656.588c0,0,10.148-17.926,14.741-21.877
				C421.992,634.711,409.425,653.549,407.25,656.588z"/>
		</g>
	</g>
	<g>
		<g>
			<defs>
				<rect id="SVGID_135_" x="0" width="480" height="800"/>
			</defs>
			<clipPath id="SVGID_136_">
				<use xlink:href="#SVGID_135_"  overflow="visible"/>
			</clipPath>
			<path clip-path="url(#SVGID_136_)" fill="#95C11F" d="M302.075,674.927c0,0,10.149-17.926,14.742-21.876
				C316.818,653.051,304.25,671.889,302.075,674.927z"/>
		</g>
	</g>
	<g>
		<g>
			<defs>
				<rect id="SVGID_137_" x="0" width="480" height="800"/>
			</defs>
			<clipPath id="SVGID_138_">
				<use xlink:href="#SVGID_137_"  overflow="visible"/>
			</clipPath>
			<path clip-path="url(#SVGID_138_)" fill="#95C11F" d="M444.464,638.634c0,0,10.148-17.927,14.741-21.877
				C459.206,616.757,446.639,635.596,444.464,638.634z"/>
		</g>
	</g>
	<g>
		<g>
			<defs>
				<rect id="SVGID_139_" x="0" width="480" height="800"/>
			</defs>
			<clipPath id="SVGID_140_">
				<use xlink:href="#SVGID_139_"  overflow="visible"/>
			</clipPath>
			<path clip-path="url(#SVGID_140_)" fill="#95C11F" d="M429.598,573.929c0,0,10.148-17.926,14.741-21.877
				C444.339,552.052,431.772,570.89,429.598,573.929z"/>
		</g>
	</g>
	<g>
		<g>
			<defs>
				<rect id="SVGID_141_" x="0" width="480" height="800"/>
			</defs>
			<clipPath id="SVGID_142_">
				<use xlink:href="#SVGID_141_"  overflow="visible"/>
			</clipPath>
			<path clip-path="url(#SVGID_142_)" fill="#95C11F" d="M271.001,506.815c0,0,3.604-6.366,5.234-7.77
				C276.237,499.046,271.774,505.736,271.001,506.815z"/>
		</g>
	</g>
	<g>
		<g>
			<defs>
				<rect id="SVGID_143_" x="0" width="480" height="800"/>
			</defs>
			<clipPath id="SVGID_144_">
				<use xlink:href="#SVGID_143_"  overflow="visible"/>
			</clipPath>
			<g opacity="0.3" clip-path="url(#SVGID_144_)">
				<defs>
					
						<filter id="Adobe_OpacityMaskFilter_14_" filterUnits="userSpaceOnUse" x="-128.641" y="545.636" width="744.664" height="52.99">
						<feColorMatrix  type="matrix" values="1 0 0 0 0  0 1 0 0 0  0 0 1 0 0  0 0 0 1 0"/>
					</filter>
				</defs>
				<mask maskUnits="userSpaceOnUse" x="-128.641" y="545.636" width="744.664" height="52.99" id="SVGID_23_">
					<g filter="url(#Adobe_OpacityMaskFilter_14_)">
						
							<image overflow="visible" enable-background="new    " width="3125" height="242" xlink:href="A836F551.jpeg"  transform="matrix(0.2396 0 0 0.236 -130.6404 543.6357)">
						</image>
					</g>
				</mask>
				<g mask="url(#SVGID_23_)">
					<path fill="#FFFFFF" d="M-128.641,545.649c0,0,382,28.846,470,52.977c0,0-97.979-31.796-168.667-32.267
						c0,0,366.664,11.14,443.331,17.844C616.023,584.203,115.362,544.81-128.641,545.649z"/>
				</g>
			</g>
		</g>
		<g>
			<defs>
				<rect id="SVGID_145_" x="0" width="480" height="800"/>
			</defs>
			<clipPath id="SVGID_146_">
				<use xlink:href="#SVGID_145_"  overflow="visible"/>
			</clipPath>
			<g opacity="0.3" clip-path="url(#SVGID_146_)">
				<defs>
					
						<filter id="Adobe_OpacityMaskFilter_15_" filterUnits="userSpaceOnUse" x="322.604" y="479.922" width="744.664" height="52.99">
						<feColorMatrix  type="matrix" values="1 0 0 0 0  0 1 0 0 0  0 0 1 0 0  0 0 0 1 0"/>
					</filter>
				</defs>
				<mask maskUnits="userSpaceOnUse" x="322.604" y="479.922" width="744.664" height="52.99" id="SVGID_1_">
					<g filter="url(#Adobe_OpacityMaskFilter_15_)">
						
							<image overflow="visible" enable-background="new    " width="3125" height="242" xlink:href="A836F551.jpeg"  transform="matrix(0.2396 0 0 0.236 320.6038 477.9219)">
						</image>
					</g>
				</mask>
				<g mask="url(#SVGID_1_)">
					<path fill="#FFFFFF" d="M322.604,479.936c0,0,382,28.846,470,52.977c0,0-97.98-31.796-168.668-32.267
						c0,0,366.664,11.14,443.332,17.844C1067.268,518.489,566.606,479.096,322.604,479.936z"/>
				</g>
			</g>
		</g>
	</g>
	<g>
		<g>
			<defs>
				<rect id="SVGID_147_" x="0" width="480" height="800"/>
			</defs>
			<clipPath id="SVGID_148_">
				<use xlink:href="#SVGID_147_"  overflow="visible"/>
			</clipPath>
			<path clip-path="url(#SVGID_148_)" fill="#95C11F" d="M68.238,538.537c0,0,6.199-8.708,9.004-10.627
				C77.241,527.91,69.566,537.061,68.238,538.537z"/>
		</g>
	</g>
	<g>
		<g>
			<defs>
				<rect id="SVGID_149_" x="0" width="480" height="800"/>
			</defs>
			<clipPath id="SVGID_150_">
				<use xlink:href="#SVGID_149_"  overflow="visible"/>
			</clipPath>
			<path clip-path="url(#SVGID_150_)" fill="#95C11F" d="M91.499,520.224c0,0,6.197-8.709,9.003-10.629
				C100.502,509.595,92.827,518.748,91.499,520.224z"/>
		</g>
	</g>
	<g>
		<g>
			<defs>
				<rect id="SVGID_151_" x="0" width="480" height="800"/>
			</defs>
			<clipPath id="SVGID_152_">
				<use xlink:href="#SVGID_151_"  overflow="visible"/>
			</clipPath>
			<path clip-path="url(#SVGID_152_)" fill="#95C11F" d="M171.367,498.538c0,0,6.199-8.709,9.004-10.627
				C180.371,487.911,172.696,497.062,171.367,498.538z"/>
		</g>
	</g>
	<g>
		<g>
			<defs>
				<rect id="SVGID_153_" x="0" width="480" height="800"/>
			</defs>
			<clipPath id="SVGID_154_">
				<use xlink:href="#SVGID_153_"  overflow="visible"/>
			</clipPath>
			<path clip-path="url(#SVGID_154_)" fill="#95C11F" d="M187.815,496.149c0,0,6.199-8.709,9.004-10.627
				C196.819,485.522,189.144,494.673,187.815,496.149z"/>
		</g>
	</g>
	<g>
		<g>
			<defs>
				<rect id="SVGID_155_" x="0" width="480" height="800"/>
			</defs>
			<clipPath id="SVGID_156_">
				<use xlink:href="#SVGID_155_"  overflow="visible"/>
			</clipPath>
			<path clip-path="url(#SVGID_156_)" fill="#95C11F" d="M84.567,544.892c0,0,6.199-8.709,9.004-10.628
				C93.571,534.264,85.896,543.416,84.567,544.892z"/>
		</g>
	</g>
	<g>
		<g>
			<defs>
				<rect id="SVGID_157_" x="0" width="480" height="800"/>
			</defs>
			<clipPath id="SVGID_158_">
				<use xlink:href="#SVGID_157_"  overflow="visible"/>
			</clipPath>
			<path clip-path="url(#SVGID_158_)" fill="#95C11F" d="M50.35,505.542c0,0,6.199-8.709,9.004-10.628
				C59.354,494.915,51.678,504.066,50.35,505.542z"/>
		</g>
	</g>
	<g>
		<g>
			<defs>
				<rect id="SVGID_159_" x="0" width="480" height="800"/>
			</defs>
			<clipPath id="SVGID_160_">
				<use xlink:href="#SVGID_159_"  overflow="visible"/>
			</clipPath>
			<path clip-path="url(#SVGID_160_)" fill="#95C11F" d="M19.201,499.858c0,0,6.197-8.709,9.004-10.627
				C28.205,489.231,20.528,498.383,19.201,499.858z"/>
		</g>
	</g>
	<g>
		<g>
			<defs>
				<rect id="SVGID_161_" x="0" width="480" height="800"/>
			</defs>
			<clipPath id="SVGID_162_">
				<use xlink:href="#SVGID_161_"  overflow="visible"/>
			</clipPath>
			<path clip-path="url(#SVGID_162_)" fill="#95C11F" d="M22.985,514.265c0,0,6.2-8.709,9.004-10.629
				C31.989,503.636,24.314,512.789,22.985,514.265z"/>
		</g>
	</g>
	<g>
		<g>
			<defs>
				<rect id="SVGID_163_" x="0" width="480" height="800"/>
			</defs>
			<clipPath id="SVGID_164_">
				<use xlink:href="#SVGID_163_"  overflow="visible"/>
			</clipPath>
			<path clip-path="url(#SVGID_164_)" fill="#95C11F" d="M92.476,509.869c0,0,6.199-8.708,9.004-10.628
				C101.48,499.241,93.804,508.393,92.476,509.869z"/>
		</g>
	</g>
	<g>
		<g>
			<defs>
				<rect id="SVGID_165_" x="0" width="480" height="800"/>
			</defs>
			<clipPath id="SVGID_166_">
				<use xlink:href="#SVGID_165_"  overflow="visible"/>
			</clipPath>
			<path clip-path="url(#SVGID_166_)" fill="#95C11F" d="M156.062,519.58c0,0,6.2-8.709,9.004-10.629
				C165.065,508.951,157.391,518.103,156.062,519.58z"/>
		</g>
	</g>
	<g>
		<g>
			<defs>
				<rect id="SVGID_167_" x="0" width="480" height="800"/>
			</defs>
			<clipPath id="SVGID_168_">
				<use xlink:href="#SVGID_167_"  overflow="visible"/>
			</clipPath>
			<path clip-path="url(#SVGID_168_)" fill="#95C11F" d="M151.561,540.229c0,0,6.199-8.709,9.003-10.629
				C160.563,529.601,152.889,538.752,151.561,540.229z"/>
		</g>
	</g>
	<g>
		<g>
			<defs>
				<rect id="SVGID_169_" x="0" width="480" height="800"/>
			</defs>
			<clipPath id="SVGID_170_">
				<use xlink:href="#SVGID_169_"  overflow="visible"/>
			</clipPath>
			<path clip-path="url(#SVGID_170_)" fill="#95C11F" d="M109.023,510.855c0,0,6.199-8.707,9.004-10.628
				C118.027,500.228,110.352,509.38,109.023,510.855z"/>
		</g>
	</g>
	<g>
		<g>
			<defs>
				<rect id="SVGID_171_" x="0" width="480" height="800"/>
			</defs>
			<clipPath id="SVGID_172_">
				<use xlink:href="#SVGID_171_"  overflow="visible"/>
			</clipPath>
			<path clip-path="url(#SVGID_172_)" fill="#95C11F" d="M332.543,488.531c0,0,5.113-7.186,7.429-8.77
				C339.972,479.762,333.639,487.312,332.543,488.531z"/>
		</g>
	</g>
	<g>
		<g>
			<defs>
				<rect id="SVGID_173_" x="0" width="480" height="800"/>
			</defs>
			<clipPath id="SVGID_174_">
				<use xlink:href="#SVGID_173_"  overflow="visible"/>
			</clipPath>
			<path clip-path="url(#SVGID_174_)" fill="#95C11F" d="M351.733,484.147c0,0,5.115-7.186,7.429-8.769
				C359.161,475.379,352.829,482.929,351.733,484.147z"/>
		</g>
	</g>
	<g>
		<g>
			<defs>
				<rect id="SVGID_175_" x="0" width="480" height="800"/>
			</defs>
			<clipPath id="SVGID_176_">
				<use xlink:href="#SVGID_175_"  overflow="visible"/>
			</clipPath>
			<path clip-path="url(#SVGID_176_)" fill="#95C11F" d="M385.202,492.914c0,0,5.114-7.184,7.43-8.767
				C392.631,484.147,386.298,491.697,385.202,492.914z"/>
		</g>
	</g>
	<g>
		<g>
			<defs>
				<rect id="SVGID_177_" x="0" width="480" height="800"/>
			</defs>
			<clipPath id="SVGID_178_">
				<use xlink:href="#SVGID_177_"  overflow="visible"/>
			</clipPath>
			<path clip-path="url(#SVGID_178_)" fill="#95C11F" d="M429.539,492.914c0,0,5.115-7.184,7.43-8.767
				C436.968,484.147,430.635,491.697,429.539,492.914z"/>
		</g>
	</g>
	<g>
		<g>
			<defs>
				<rect id="SVGID_179_" x="0" width="480" height="800"/>
			</defs>
			<clipPath id="SVGID_180_">
				<use xlink:href="#SVGID_179_"  overflow="visible"/>
			</clipPath>
			<path clip-path="url(#SVGID_180_)" fill="#95C11F" d="M346.015,510.273c0,0,5.114-7.187,7.428-8.769
				C353.443,501.505,347.111,509.055,346.015,510.273z"/>
		</g>
	</g>
	<g>
		<g>
			<defs>
				<rect id="SVGID_181_" x="0" width="480" height="800"/>
			</defs>
			<clipPath id="SVGID_182_">
				<use xlink:href="#SVGID_181_"  overflow="visible"/>
			</clipPath>
			<path clip-path="url(#SVGID_182_)" fill="#95C11F" d="M317.786,494.309c0,0,5.114-7.185,7.429-8.767
				C325.214,485.542,318.881,493.092,317.786,494.309z"/>
		</g>
	</g>
	<g>
		<g>
			<defs>
				<rect id="SVGID_183_" x="0" width="480" height="800"/>
			</defs>
			<clipPath id="SVGID_184_">
				<use xlink:href="#SVGID_183_"  overflow="visible"/>
			</clipPath>
			<path clip-path="url(#SVGID_184_)" fill="#95C11F" d="M456.253,505.888c0,0,5.112-7.184,7.429-8.768
				C463.682,497.121,457.349,504.671,456.253,505.888z"/>
		</g>
	</g>
	<g>
		<g>
			<defs>
				<rect id="SVGID_185_" x="0" width="480" height="800"/>
			</defs>
			<clipPath id="SVGID_186_">
				<use xlink:href="#SVGID_185_"  overflow="visible"/>
			</clipPath>
			<path clip-path="url(#SVGID_186_)" fill="#95C11F" d="M385.202,501.505c0,0,5.114-7.184,7.43-8.768
				C392.631,492.738,386.298,500.288,385.202,501.505z"/>
		</g>
	</g>
	<g>
		<g>
			<defs>
				<rect id="SVGID_187_" x="0" width="480" height="800"/>
			</defs>
			<clipPath id="SVGID_188_">
				<use xlink:href="#SVGID_187_"  overflow="visible"/>
			</clipPath>
			<path clip-path="url(#SVGID_188_)" fill="#95C11F" d="M429.539,508.856c0,0,5.115-7.186,7.43-8.769
				C436.968,500.088,430.635,507.638,429.539,508.856z"/>
		</g>
	</g>
	<g>
		<g>
			<defs>
				<rect id="SVGID_189_" x="0" width="480" height="800"/>
			</defs>
			<clipPath id="SVGID_190_">
				<use xlink:href="#SVGID_189_"  overflow="visible"/>
			</clipPath>
			<path clip-path="url(#SVGID_190_)" fill="#95C11F" d="M427.48,501.505c0,0,5.114-7.184,7.429-8.768
				C434.908,492.738,428.576,500.288,427.48,501.505z"/>
		</g>
	</g>
	<g>
		<g>
			<defs>
				<rect id="SVGID_191_" x="0" width="480" height="800"/>
			</defs>
			<clipPath id="SVGID_192_">
				<use xlink:href="#SVGID_191_"  overflow="visible"/>
			</clipPath>
			<path clip-path="url(#SVGID_192_)" fill="#95C11F" d="M401.283,489.926c0,0,5.114-7.185,7.429-8.769
				C408.711,481.158,402.379,488.708,401.283,489.926z"/>
		</g>
	</g>
	<g>
		<g>
			<defs>
				<rect id="SVGID_193_" x="0" width="480" height="800"/>
			</defs>
			<clipPath id="SVGID_194_">
				<use xlink:href="#SVGID_193_"  overflow="visible"/>
			</clipPath>
			<path clip-path="url(#SVGID_194_)" fill="#95C11F" d="M366.191,498.693c0,0,5.114-7.186,7.428-8.769
				C373.618,489.925,367.287,497.475,366.191,498.693z"/>
		</g>
	</g>
</g>
<path fill="#FFFFFF" stroke="#000000" stroke-miterlimit="10" d="M8.5,800.5"/>
<linearGradient id="SVGID_195_" gradientUnits="userSpaceOnUse" x1="195.5969" y1="114.1768" x2="195.5969" y2="262.3487" gradientTransform="matrix(-0.0881 0.9961 0.9961 0.0881 -209.2609 185.2805)">
	<stop  offset="0" style="stop-color:#7B3524"/>
	<stop  offset="0.0128" style="stop-color:#753320"/>
	<stop  offset="0.0533" style="stop-color:#6A2E17"/>
	<stop  offset="0.1103" style="stop-color:#632B12"/>
	<stop  offset="0.2688" style="stop-color:#612A11"/>
	<stop  offset="0.4102" style="stop-color:#702F15"/>
	<stop  offset="0.5323" style="stop-color:#773217"/>
	<stop  offset="0.7011" style="stop-color:#6B2E14"/>
	<stop  offset="0.8011" style="stop-color:#612A11"/>
	<stop  offset="0.9183" style="stop-color:#632B12"/>
	<stop  offset="0.9605" style="stop-color:#6A2E17"/>
	<stop  offset="0.9905" style="stop-color:#753320"/>
	<stop  offset="1" style="stop-color:#7B3524"/>
</linearGradient>
<polygon fill="url(#SVGID_195_)" points="-121.09,793.391 -70.414,-15.194 47.991,0.457 -2.683,809.041 "/>
<path fill="#6F2A0D" d="M42.52-0.267c0,0-3.868,13.687-1.463,23.346c0,0,1.793,8.73-2.646,20.882c0,0-9.334,39.531-7.074,112.866
	c0,0-1.213,44.849-7.032,63.613c0,0,4.213-45.303,1.395-64.358c0,0-11.585-31.255,4.691-114.878c0,0,7.683-26.534-4.288-43.641
	L42.52-0.267z"/>
<path fill="#6F2A0D" d="M22.452-2.919c0,0,9.3,6.37,4.511,18.759c0,0-5.262,14.589-3.503,23.881c0,0,2.526,17.884-2.248,30.276
	c0,0-8.016,37.438,1.928,86.878c0,0,1.95,11.583-1.302,20.775c0,0-5.881,29.797,1.23,55.082c0,0,5.646,16.6-2.604,41.551
	c0,0-5.6,25.304-6.139,92.606c0,0-0.561,110.331,5.019,90.685l-1.725,27.516c0,0-16.202-24.77-6.317-182.01
	c0,0,1.795-24.24,7.555-43.163c0,0,3.686-9.746,0.632-18.903c0,0-12.813-23.493-6.048-62.772c0,0,2.578-25.136,0.846-50.844
	c0,0-5.607-27.917,0.52-61.644c0,0,2.558-19.477-0.647-32.357c0,0-6.011-16.173-2.982-37.806L22.452-2.919z"/>
<path fill="#7F321E" d="M29.936,288.559c0,0-19.601,99.322-10.24,163.404L29.936,288.559z"/>
<path fill="#7F321E" d="M31.063,270.592c-8.625,36.229-7.022,17.188-7.022,17.188c4.727-20.888,4.213-48.7,4.213-48.7
	c-0.908-24.465,6.09-68.266,6.09-68.266s1.533-12.254-0.701-36.329c0,0-2.678-47.913,8.795-92.821c0,0,4.204-13.124,2.606-41.598
	l2.948,0.39L31.063,270.592z"/>
<path fill="#6F2A0D" d="M23.477,296.764c0,0,1.32,4.136-0.897,14.319c0,0-3.914,18.449-3.421,25.31c0,0-2.899-13.69,0.718-36.709
	C19.875,299.684,21.807,292.581,23.477,296.764z"/>
<path fill="#7F321E" d="M12.686,231.643c0,0,0.104,8.486,3.453,8.929c0,0,2.818,0.109,2.769,9.728c0,0-0.138,10.173-4.669,15.52
	c0,0-10.917,4.002-8.415,75.321c0,0,1.723,24.43-0.396,40.287c0,0,0.62-23.273-1.764-43.546c0,0-5.143-30.744,5.8-74.816
	C9.463,263.064,13.323,250.871,12.686,231.643z"/>
<path fill="#6F2A0D" d="M12.039,275.931c0,0-5.272,10.13-5.017,50.08C7.023,326.011,9.838,286.044,12.039,275.931z"/>
<path fill="#6F2A0D" d="M-29.88,805.447c0,0,21.613-152.804,22.672-244.382c0,0-2.795-54.718-0.449-87.814
	c0,0,12.123-77.096,7.547-142.809c0,0,8.714,26.703,0.264,91.187c0,0-6.839,67.602-4.796,104.106c0,0,5.568,80.002-1.542,124.923
	c0,0-9.843,65.508-7.988,127.462c0,0,4.737,20.366-0.81,29.296L-29.88,805.447z"/>
<path fill="#7F321E" d="M-8.681,782.811c0,0,10.383-47.883,10.896-99.339c0,0-1.54-34.736,7.171-66.992l2.639-42.114
	c0,0-18,38.952-14.788,111.845C-2.764,686.21-0.193,733.542-8.681,782.811z"/>
<path fill="#6F2A0D" d="M16.625,500.953c0.527-8.423-3.985-20.06-3.985-20.06c-7.284-23.47-7.608-93.151-7.608-93.151
	s-3.203,60.723,2.392,93.736c0,0,7.431,27.732,5.534,49.987c0,0-2.79,34.45-10.747,50.384c0,0-2.14,5.338-2.863,28.497
	c0,0,3.033-30.173,13.108-42.854L16.625,500.953z"/>
<path fill="#7F321E" d="M2.34,430.699c0,0-0.419,37.031,2.208,48.984c0,0,2.603,9.686,0.548,18.472c0,0-8.133,33.461-3.294,79.112
	c0,0-5.868-40.393-1.081-76.009c0,0,1.445-9.718,0.388-24.862C1.109,476.396,0.319,454.766,2.34,430.699z"/>
<path fill="#6F2A0D" d="M11.494,512.801c0,0-3.181-29.294-6.064-9.294l-1.274,8.324c0,0,2.432-10.792,3.58-7.101
	C7.736,504.73,11.54,524.037,11.494,512.801z"/>
<path fill="#6F2A0D" d="M3.68,519.411c0,0-2.73,25.116-1.152,40.188c0,0,1.729,13.944,5.609-2.657
	C8.137,556.942,2.155,559.762,3.68,519.411z"/>
<path fill="#5B1E00" d="M8.181,542.761c-1.45,0.144-2.706-4.133-2.804-9.547c-0.099-5.414,0.998-9.921,2.447-10.063
	c1.45-0.143,2.706,4.129,2.804,9.547C10.727,538.11,9.63,542.617,8.181,542.761z"/>
<path fill="#6F2A0D" d="M-35.518,804.702c0,0,2.83-33.792,12.799-91.115c0,0,18.081-105.466,11.287-161.142
	c0,0-3.564-53.162,3.219-83.226c0,0,5.845-57.402,5.286-144.523c0,0,6.97-25.831,6.582-54.331c0,0-1.389-46.468,6.485-81.096
	c0,0,5.895-31.068,0.596-66.587c0,0-8.852-58.869-1.549-127.355L-9.221-7.106c0,0-0.023,24.387,5.245,40.37
	c0,0,10.56,39.612,2.07,103.034c0,0-5.215,63.003-1.332,85.173c0,0,4.607,46.469-6.176,98.546l1.426,9.385
	c0,0,3.045,47.256-8.815,108.535l1.922,9.455c0,0-8.365,61.455-4.997,107.759c0,0,7.512,160.281-28.326,247.874L-35.518,804.702z"/>
<path fill="#7F321E" d="M-19.586,438.417l-3.012,28.052l-0.998,25.921c0,0,0.615,32.202-3.911,52.411
	c0,0-21.712,134.337-23.435,257.862l-10.198-1.348c0,0,11.181-102.37,15.298-168.067l17.835-164.521l-2.118-9.198l3.918-27.506
	c0,0,16.313-142.217,12.287-231.071c0,0-1.304-112.275,3.4-147.322c0,0,3.408-14.36-7.408-61.886l5.721,0.756
	c0,0,2.1,36.557,4.506,49.188c0,0,8.521,43.123,0.492,99.195c0,0-3.954,23.064-1.309,48.893c0,0,8.597,74.981-2.749,121.909
	c0,0-2.901,8.553-1.693,37.163L-19.586,438.417z"/>
<path fill="#6F2A0D" d="M-19.669-8.487l-3.37,13.759l2.24,4.261c0,0,8.854,29.478,2.707,68.864c0,0-4.313,18.679-2.193,47.268
	c0,0,12.419,173.756-8.141,235.018c0,0-9.443,33.287-5.46,97.792l-1.782,51.668c0,0-14.49,114.897-16.12,136.763
	c0,0-5.547,116.359-13.25,153.895l-6.301-0.834c0,0,9.259-57.036,14.021-154.356l3.428-12.003l-0.537-7.433
	c0,0,18.927-115.259,13.448-225.256l7.016-38.426c0,0,18.352-179.593,10.528-209.501c0,0-4.543-40.72,1.484-71.708
	c0,0,9.272-41.237-5.078-73.707l-0.6-17.116L-19.669-8.487z"/>
<path fill="#6F2A0D" d="M-32.053,452.48c0,0,9.474-55.081,10.217-100.57c0,0-2.552,13.5-5.349,22.89
	C-27.185,374.8-34.99,406.508-32.053,452.48z"/>
<path fill="#7F321E" d="M-23.708,554.645c0,0,5.536,149.351-23.78,232.949l1.398-22.32c0,0,23.027-80.184,18.795-190.297
	L-23.708,554.645z"/>
<path fill="#6F2A0D" d="M-28.887,582.835c0,0-16.035,99.792-16.859,176.965C-45.747,759.8-30.292,669.273-28.887,582.835z"/>
<g>
	<g>
		<path fill="#378636" d="M11.31,664.952c0,0-56.738,95.874-35.497,111.352l3.171-15.007c0,0,1.877,20.854,19.056,22.735
			c0,0-9.858-7.813-4.831-25.08c0,0,2.56,25.275,20.409,9.893c0,0,12.168-21.386,18.819-24.536l-11.516,2.729
			c0,0,15.297-5.935,24.356-28.365c0,0-14.283,16.939-11.585,5.767c0,0,7.673-22.544,28.155-28.702c0,0-8.428-3.438-14.456,1.36
			c0,0,12.16-21.392,32.59-21.65c0,0-30.952-26.479-54.468-2.688c0,0,24.968-33.914,45.757-30.566
			C71.279,642.189,34.152,621.346,11.31,664.952z"/>
	</g>
	<defs>
		
			<filter id="Adobe_OpacityMaskFilter_16_" filterUnits="userSpaceOnUse" x="-28.947" y="637.211" width="108.929" height="146.821">
			<feColorMatrix  type="matrix" values="1 0 0 0 0  0 1 0 0 0  0 0 1 0 0  0 0 0 1 0"/>
		</filter>
	</defs>
	<mask maskUnits="userSpaceOnUse" x="-28.947" y="637.211" width="108.929" height="146.821" id="SVGID_2_">
		<g filter="url(#Adobe_OpacityMaskFilter_16_)">
			
				<image overflow="visible" enable-background="new    " width="167" height="121" xlink:href="A836F553.jpeg"  transform="matrix(-0.1867 1.0156 -0.8769 -0.1612 95.1018 635.6943)">
			</image>
		</g>
	</mask>
	<g opacity="0.75" mask="url(#SVGID_2_)">
		<path fill="#7FBA28" d="M11.31,664.952c0,0-56.738,95.874-35.497,111.352l3.171-15.007c0,0,1.877,20.854,19.056,22.735
			c0,0-9.858-7.813-4.831-25.08c0,0,2.56,25.275,20.409,9.893c0,0,12.168-21.386,18.819-24.536l-11.516,2.729
			c0,0,15.297-5.935,24.356-28.365c0,0-14.283,16.939-11.585,5.767c0,0,7.673-22.544,28.155-28.702c0,0-8.428-3.438-14.456,1.36
			c0,0,12.16-21.392,32.59-21.65c0,0-30.952-26.479-54.468-2.688c0,0,24.968-33.914,45.757-30.566
			C71.279,642.189,34.152,621.346,11.31,664.952z"/>
	</g>
</g>
<g>
	<g>
		<path fill="#378636" d="M44.149,757.122c0,0,156.232,43.98,173.241,16.898l-22.913-0.463c0,0,30.144-6.421,28.265-26.124
			c0,0-8.818,12.699-35.554,10.614c0,0,36.455-8.102,9.026-24.992c0,0-34.719-9.261-41.145-16.088l7.122,12.383
			c0,0-12.854-15.973-48.266-21.522c0,0,28.753,12.558,11.604,11.833c0,0-35.206-3.968-49.789-25.726c0,0-2.778,10.186,5.906,15.973
			c0,0-34.725-9.251-40.624-32.169c0,0-30.556,40.274,10.763,61.797c0,0-56.589-21.063-57.283-45.129
			C-5.506,694.398-26.108,740.45,44.149,757.122z"/>
	</g>
	<defs>
		<filter id="Adobe_OpacityMaskFilter_17_" filterUnits="userSpaceOnUse" x="-8.319" y="677.739" width="231.145" height="105.094">
			<feColorMatrix  type="matrix" values="1 0 0 0 0  0 1 0 0 0  0 0 1 0 0  0 0 0 1 0"/>
		</filter>
	</defs>
	<mask maskUnits="userSpaceOnUse" x="-8.319" y="677.739" width="231.145" height="105.094" id="SVGID_3_">
		<g filter="url(#Adobe_OpacityMaskFilter_17_)">
			
				<image overflow="visible" enable-background="new    " width="167" height="121" xlink:href="A836F551.jpeg"  transform="matrix(1.543 0 0 1.0192 -21.4998 668.9482)">
			</image>
		</g>
	</mask>
	<g opacity="0.75" mask="url(#SVGID_3_)">
		<path fill="#7FBA28" d="M44.149,757.122c0,0,156.232,43.98,173.241,16.898l-22.913-0.463c0,0,30.144-6.421,28.265-26.124
			c0,0-8.818,12.699-35.554,10.614c0,0,36.455-8.102,9.026-24.992c0,0-34.719-9.261-41.145-16.088l7.122,12.383
			c0,0-12.854-15.973-48.266-21.522c0,0,28.753,12.558,11.604,11.833c0,0-35.206-3.968-49.789-25.726c0,0-2.778,10.186,5.906,15.973
			c0,0-34.725-9.251-40.624-32.169c0,0-30.556,40.274,10.763,61.797c0,0-56.589-21.063-57.283-45.129
			C-5.506,694.398-26.108,740.45,44.149,757.122z"/>
	</g>
</g>
<g>
	<g>
		<path fill="#378636" d="M164.027,749.976c0,0,18.923,111.479,47.854,106.479l-7.823-13.13c0,0,16.22,13.494,32.159,1.845
			c0,0-13.868,1.87-21.694-14.281c0,0,19.899,16.139,24.309-8.363c0,0-4.639-24.497-1.185-31.78l-7.889,10.662
			c0,0,8.86-15.814,0.846-38.706c0,0-0.281,22.916-5.818,12.885c0,0-9.274-21.925,3.843-41.822c0,0-9.584,3.914-11.351,11.908
			c0,0-4.648-24.495,12.562-40.134c0,0-44.912,4.476-48.247,39.275c0,0-2.526-43.139,17.517-56.467
			C199.113,688.337,152.898,701.514,164.027,749.976z"/>
	</g>
	<defs>
		<filter id="Adobe_OpacityMaskFilter_18_" filterUnits="userSpaceOnUse" x="162.297" y="688.347" width="76.535" height="168.271">
			<feColorMatrix  type="matrix" values="1 0 0 0 0  0 1 0 0 0  0 0 1 0 0  0 0 0 1 0"/>
		</filter>
	</defs>
	<mask maskUnits="userSpaceOnUse" x="162.297" y="688.347" width="76.535" height="168.271" id="SVGID_5_">
		<g filter="url(#Adobe_OpacityMaskFilter_18_)">
			
				<image overflow="visible" enable-background="new    " width="167" height="121" xlink:href="A836F557.jpeg"  transform="matrix(0.5531 0.8675 -0.8594 0.548 214.8342 665.6631)">
			</image>
		</g>
	</mask>
	<g opacity="0.75" mask="url(#SVGID_5_)">
		<path fill="#7FBA28" d="M164.027,749.976c0,0,18.923,111.479,47.854,106.479l-7.823-13.13c0,0,16.22,13.494,32.159,1.845
			c0,0-13.868,1.87-21.694-14.281c0,0,19.899,16.139,24.309-8.363c0,0-4.639-24.497-1.185-31.78l-7.889,10.662
			c0,0,8.86-15.814,0.846-38.706c0,0-0.281,22.916-5.818,12.885c0,0-9.274-21.925,3.843-41.822c0,0-9.584,3.914-11.351,11.908
			c0,0-4.648-24.495,12.562-40.134c0,0-44.912,4.476-48.247,39.275c0,0-2.526-43.139,17.517-56.467
			C199.113,688.337,152.898,701.514,164.027,749.976z"/>
	</g>
</g>
<path fill="#FFFFFF" stroke="#000000" stroke-miterlimit="10" d="M430.374,6.94"/>
<linearGradient id="SVGID_196_" gradientUnits="userSpaceOnUse" x1="127.3303" y1="-32.8018" x2="127.3303" y2="115.3681" gradientTransform="matrix(0.0335 -0.9994 -0.6165 -0.0206 493.3021 534.7087)">
	<stop  offset="0" style="stop-color:#7B3524"/>
	<stop  offset="0.0128" style="stop-color:#753320"/>
	<stop  offset="0.0533" style="stop-color:#6A2E17"/>
	<stop  offset="0.1103" style="stop-color:#632B12"/>
	<stop  offset="0.2688" style="stop-color:#612A11"/>
	<stop  offset="0.4102" style="stop-color:#702F15"/>
	<stop  offset="0.5323" style="stop-color:#773217"/>
	<stop  offset="0.7011" style="stop-color:#6B2E14"/>
	<stop  offset="0.8011" style="stop-color:#612A11"/>
	<stop  offset="0.9183" style="stop-color:#632B12"/>
	<stop  offset="0.9605" style="stop-color:#6A2E17"/>
	<stop  offset="0.9905" style="stop-color:#753320"/>
	<stop  offset="1" style="stop-color:#7B3524"/>
</linearGradient>
<polygon fill="url(#SVGID_196_)" points="514.457,5.415 500.156,815.294 426.772,807.68 441.073,-2.2 "/>
<path fill="#6F2A0D" d="M440.238,808.369c0,0,3.112-13.879,0.182-23.392c0,0-2.268-8.619,1.5-20.995c0,0,7.156-39.982,0.886-113.084
	c0,0-1.243-44.848,3.54-63.902c0,0-1.727,45.465,2.131,64.338c0,0,13.278,30.574,1.604,114.963c0,0-6.22,26.915,6.671,43.341
	L440.238,808.369z"/>
<path fill="#6F2A0D" d="M460.418,809.919c0,0-9.633-5.851-5.529-18.484c0,0,4.455-14.854,2.191-24.037c0,0-3.502-17.72,0.587-30.354
	c0,0,5.954-37.821-6.681-86.643c0,0-2.582-11.458,0.162-20.815c0,0,4.241-30.075-4.243-54.932c0,0-6.547-16.267,0.326-41.632
	c0,0,4.206-25.573,1.061-92.803c0,0-5.48-110.196-9.976-90.275l0.217-27.569c0,0,17.531,23.846,16.271,181.391
	c0,0-0.466,24.303-5.182,43.512c0,0-3.145,9.934,0.403,18.91c0,0,14.08,22.756,9.475,62.347c0,0-1.197,25.24,1.941,50.814
	c0,0,7.127,27.568,2.855,61.581c0,0-1.489,19.587,2.417,32.273c0,0,6.885,15.819,5.046,37.586L460.418,809.919z"/>
<path fill="#7F321E" d="M436.993,519.288c0,0,14.135-100.246,1.279-163.72L436.993,519.288z"/>
<path fill="#7F321E" d="M436.851,537.289c6.629-36.646,6.07-17.547,6.07-17.547c-3.576,21.116-1.54,48.857-1.54,48.857
	c2.246,24.379-2.345,68.497-2.345,68.497s-0.859,12.32,2.688,36.236c0,0,5.297,47.694-3.7,93.163c0,0-3.479,13.334-0.325,41.678
	l-2.967-0.228L436.851,537.289z"/>
<path fill="#6F2A0D" d="M442.992,510.742c0,0-1.544-4.059,0.113-14.348c0,0,2.897-18.636,2.029-25.46c0,0,3.644,13.512,1.295,36.693
	C446.43,507.628,444.89,514.826,442.992,510.742z"/>
<path fill="#7F321E" d="M457.332,575.174c0,0-0.567-8.467-3.937-8.727c0,0-2.82,0.046-3.296-9.562c0,0-0.421-10.164,3.812-15.752
	c0,0,10.683-4.594,4.279-75.669c0,0-3.057-24.299-1.811-40.248c0,0,0.656,23.272,4.146,43.385c0,0,6.818,30.416-1.695,75.021
	C458.83,543.623,455.642,556.009,457.332,575.174z"/>
<path fill="#6F2A0D" d="M455.553,530.917c0,0,4.711-10.404,2.269-50.28C457.822,480.637,457.198,520.698,455.553,530.917z"/>
<path fill="#6F2A0D" d="M468.425-0.1c0,0-13.217,153.757-9.259,245.256c0,0,5.783,54.483,5.255,87.658
	c0,0-7.886,77.645,0.281,143.008c0,0-10.164-26.186-5.255-91.036c0,0,3.127-67.875-0.911-104.213c0,0-9.939-79.577-5.298-124.82
	c0,0,6.242-65.948,0.998-127.708c0,0-5.845-20.077-0.795-29.297L468.425-0.1z"/>
<path fill="#7F321E" d="M448.497,23.663c0,0-7.746,48.379-5.441,99.786c0,0,3.439,34.6-3.493,67.284l-0.329,42.196
	c0,0,15.841-39.879,8.645-112.486C447.878,120.443,442.719,73.322,448.497,23.663z"/>
<path fill="#6F2A0D" d="M438.657,306.483c-0.065,8.439,5.076,19.811,5.076,19.811c8.56,23.036,12.697,92.595,12.697,92.595
	s-0.126-60.807-7.52-93.464c0,0-8.938-27.284-8.262-49.609c0,0,0.9-34.551,7.972-50.896c0,0,1.846-5.447,1.301-28.611
	c0,0-1.379,30.293-10.743,43.506L438.657,306.483z"/>
<path fill="#7F321E" d="M456.767,375.85c0,0-1.609-36.999-4.887-48.79c0,0-3.128-9.528-1.558-18.414c0,0,6.289-33.855-1.041-79.174
	c0,0,8.07,40.011,5.239,75.835c0,0-0.911,9.783,0.974,24.847C455.494,330.154,457.468,351.708,456.767,375.85z"/>
<path fill="#6F2A0D" d="M443.132,294.372c0,0,4.779,29.076,6.563,8.948l0.817-8.381c0,0-1.837,10.909-3.187,7.286
	C447.326,302.225,442.47,283.155,443.132,294.372z"/>
<path fill="#6F2A0D" d="M450.573,287.344c0,0,1.352-25.228-1.049-40.191c0,0-2.489-13.829-5.455,2.96
	C444.069,250.113,449.888,246.971,450.573,287.344z"/>
<path fill="#5B1E00" d="M444.801,264.276c1.439-0.223,2.928,3.979,3.321,9.379c0.396,5.4-0.453,9.96-1.892,10.182
	c-1.44,0.223-2.928-3.974-3.321-9.379C442.513,269.059,443.363,264.499,444.801,264.276z"/>
<path fill="#6F2A0D" d="M474.096,0.335c0,0-0.976,33.896-7.792,91.68c0,0-12.281,106.297-2.449,161.518
	c0,0,6.469,52.887,1.343,83.277c0,0-2.696,57.637,2.631,144.596c0,0-5.544,26.174-3.598,54.61c0,0,3.93,46.322-2.038,81.329
	c0,0-4.184,31.344,3.05,66.521c0,0,12.061,58.295,8.521,127.079l18.511,1.421c0,0-1.312-24.352-7.445-40.021
	c0,0-12.714-38.975-7.707-102.767c0,0,1.758-63.193-3.332-85.118c0,0-7.145-46.146,0.771-98.735l-1.938-9.294
	c0,0-5.626-47.02,2.861-108.854l-2.437-9.335c0,0,4.989-61.821-0.908-107.871c0,0-16.273-159.63,14.716-249.053L474.096,0.335z"/>
<path fill="#7F321E" d="M478.237,366.943l1.473-28.175l-0.423-25.937c0,0-2.378-32.12,1.036-52.547
	c0,0,14.327-135.324,9.284-258.758l10.257,0.787c0,0-5.559,102.829-6.074,168.652l-8.803,165.251l2.618,9.068l-2.406,27.679
	c0,0-8.503,142.897,0.38,231.397c0,0,7.448,112.035,4.668,147.286c0,0-2.617,14.525,10.784,61.388l-5.752-0.441
	c0,0-4.099-36.388-7.192-48.868c0,0-10.868-42.592-5.922-99.019c0,0,2.687-23.246-1.369-48.892c0,0-12.688-74.398-3.93-121.877
	c0,0,2.431-8.698-0.342-37.2L478.237,366.943z"/>
<path fill="#6F2A0D" d="M502.782,813.172l2.612-13.923l-2.471-4.132c0,0-10.455-28.948-6.472-68.612c0,0,3.283-18.887-0.397-47.317
	c0,0-21.911-172.816-4.737-235.111c0,0,7.607-33.753,0.099-97.944l-1.047-51.688c0,0,8.179-115.518,8.609-137.44
	c0,0-0.83-116.489,4.806-154.389l6.338,0.487c0,0-6.124,57.458-5.551,154.893l-2.767,12.173l0.944,7.392
	c0,0-12.591,116.122-1.099,225.655l-4.901,38.752c0,0-8.493,180.328,0.955,209.764c0,0,6.766,40.41,2.443,71.682
	c0,0-7.003,41.682,9.104,73.317l1.536,17.058L502.782,813.172z"/>
<path fill="#6F2A0D" d="M489.916,352.218c0,0-6.444,55.517-4.697,100.979c0,0,1.811-13.618,4.089-23.148
	C489.308,430.049,495.365,397.961,489.916,352.218z"/>
<path fill="#7F321E" d="M475.99,250.665c0,0-13.702-148.824,10.994-233.902l-0.175,22.363c0,0-18.604,81.324-8.351,191.041
	L475.99,250.665z"/>
<path fill="#6F2A0D" d="M479.619,222.232c0,0,10.55-100.52,7.147-177.622C486.767,44.61,476.289,135.847,479.619,222.232z"/>
<linearGradient id="SVGID_197_" gradientUnits="userSpaceOnUse" x1="-79.9304" y1="556.499" x2="219.0706" y2="718.4996" gradientTransform="matrix(1 0 0 -1 -0.02 799.0947)">
	<stop  offset="0" style="stop-color:#7B3524"/>
	<stop  offset="0.0128" style="stop-color:#753320"/>
	<stop  offset="0.0533" style="stop-color:#6A2E17"/>
	<stop  offset="0.1103" style="stop-color:#632B12"/>
	<stop  offset="0.2688" style="stop-color:#612A11"/>
	<stop  offset="0.4102" style="stop-color:#702F15"/>
	<stop  offset="0.5323" style="stop-color:#773217"/>
	<stop  offset="0.7011" style="stop-color:#6B2E14"/>
	<stop  offset="0.8011" style="stop-color:#612A11"/>
	<stop  offset="0.9183" style="stop-color:#632B12"/>
	<stop  offset="0.9605" style="stop-color:#6A2E17"/>
	<stop  offset="0.9905" style="stop-color:#753320"/>
	<stop  offset="1" style="stop-color:#7B3524"/>
</linearGradient>
<path fill="url(#SVGID_197_)" d="M-13.019,237.5c0,0,18.955-35.161,51.237-51.081c0,0,35.816-14.328,61.55-28.124
	c0,0,15.732-11.796,36.732-12.796c0,0,60.652-8,86.326-30H132.5c0,0-34,28-57,28c0,0-66.845,3.237-112.817,40
	C-37.317,183.5-81.538,247.5-13.019,237.5z"/>
<linearGradient id="SVGID_198_" gradientUnits="userSpaceOnUse" x1="469.5803" y1="497.0703" x2="344.5805" y2="679.07" gradientTransform="matrix(1 0 0 -1 -0.02 799.0947)">
	<stop  offset="0" style="stop-color:#7B3524"/>
	<stop  offset="0.0128" style="stop-color:#753320"/>
	<stop  offset="0.0533" style="stop-color:#6A2E17"/>
	<stop  offset="0.1103" style="stop-color:#632B12"/>
	<stop  offset="0.2688" style="stop-color:#612A11"/>
	<stop  offset="0.4102" style="stop-color:#702F15"/>
	<stop  offset="0.5323" style="stop-color:#773217"/>
	<stop  offset="0.7011" style="stop-color:#6B2E14"/>
	<stop  offset="0.8011" style="stop-color:#612A11"/>
	<stop  offset="0.9183" style="stop-color:#632B12"/>
	<stop  offset="0.9605" style="stop-color:#6A2E17"/>
	<stop  offset="0.9905" style="stop-color:#753320"/>
	<stop  offset="1" style="stop-color:#7B3524"/>
</linearGradient>
<path fill="url(#SVGID_198_)" d="M482.008,258.729c0,0-39.023-8.536-63.219-35.185c0,0-23.639-30.483-43.99-51.421
	c0,0-15.673-11.875-22.418-31.787c0,0-24.398-56.102-52.619-74.723l24.881,86.832c0,0,36.283,24.972,42.618,47.082
	c0,0,21.524,63.366,69.528,97.435C436.789,296.963,510.494,321.843,482.008,258.729z"/>
<linearGradient id="SVGID_199_" gradientUnits="userSpaceOnUse" x1="420.551" y1="606.9395" x2="436.0374" y2="655.2206" gradientTransform="matrix(1 0 0 -1 -0.02 799.0947)">
	<stop  offset="0" style="stop-color:#7B3524"/>
	<stop  offset="0.0128" style="stop-color:#753320"/>
	<stop  offset="0.0533" style="stop-color:#6A2E17"/>
	<stop  offset="0.1103" style="stop-color:#632B12"/>
	<stop  offset="0.2688" style="stop-color:#612A11"/>
	<stop  offset="0.4102" style="stop-color:#702F15"/>
	<stop  offset="0.5323" style="stop-color:#773217"/>
	<stop  offset="0.7011" style="stop-color:#6B2E14"/>
	<stop  offset="0.8011" style="stop-color:#612A11"/>
	<stop  offset="0.9183" style="stop-color:#632B12"/>
	<stop  offset="0.9605" style="stop-color:#6A2E17"/>
	<stop  offset="0.9905" style="stop-color:#753320"/>
	<stop  offset="1" style="stop-color:#7B3524"/>
</linearGradient>
<path fill="url(#SVGID_199_)" d="M434.109,143.438c-3.787-5.483-7.529-11-13.104-14.836c-4.577-3.149-13.053-3.276-15.682-8.653
	c-1.008-2.06-0.847-5.01,0.069-7.116c0,0-15.28,4.667-15.28,4.667c0.438,1.675,1.424,3.277,2.858,4.28
	c2.046,1.43,4.929,1.265,7.07,2.568c1.94,1.182,3.836,2.959,5.398,4.596c2.151,2.253,4.202,4.672,5.989,7.223
	c3.396,4,14.148,21,14.148,21c15.092,28.667,45.061,33,45.061,33s18.198-4.833-4.136-22.833c-0.395-0.318-1.976-0.365-2.483-0.508
	c-2.256-0.636-4.457-1.531-6.589-2.497c-6.648-3.012-12.532-7.282-17.3-12.822C437.949,148.973,436.024,146.21,434.109,143.438z"/>
</svg>
