<?xml version="1.0" encoding="utf-8"?>
<!-- Generator: Adobe Illustrator 16.0.0, SVG Export Plug-In . SVG Version: 6.00 Build 0)  -->
<!DOCTYPE svg PUBLIC "-//W3C//DTD SVG 1.1//EN" "http://www.w3.org/Graphics/SVG/1.1/DTD/svg11.dtd" [
	<!ENTITY ns_extend "http://ns.adobe.com/Extensibility/1.0/">
	<!ENTITY ns_ai "http://ns.adobe.com/AdobeIllustrator/10.0/">
	<!ENTITY ns_graphs "http://ns.adobe.com/Graphs/1.0/">
	<!ENTITY ns_vars "http://ns.adobe.com/Variables/1.0/">
	<!ENTITY ns_imrep "http://ns.adobe.com/ImageReplacement/1.0/">
	<!ENTITY ns_sfw "http://ns.adobe.com/SaveForWeb/1.0/">
	<!ENTITY ns_custom "http://ns.adobe.com/GenericCustomNamespace/1.0/">
	<!ENTITY ns_adobe_xpath "http://ns.adobe.com/XPath/1.0/">
]>
<svg version="1.1" id="Layer_1" xmlns:x="&ns_extend;" xmlns:i="&ns_ai;" xmlns:graph="&ns_graphs;"
	 xmlns="http://www.w3.org/2000/svg" xmlns:xlink="http://www.w3.org/1999/xlink" x="0px" y="0px" width="480px" height="123.613px"
	 viewBox="0 0 480 123.613" enable-background="new 0 0 480 123.613" xml:space="preserve">
<metadata>
	<sfw  xmlns="&ns_sfw;">
		<slices></slices>
		<sliceSourceBounds  height="124.095" width="485.848" y="358.693" x="57.5" bottomLeftOrigin="true"></sliceSourceBounds>
	</sfw>
</metadata>
<path fill="#FFFFFF" stroke="#010101" stroke-miterlimit="10" d="M479.514,0"/>
<linearGradient id="SVGID_1_" gradientUnits="userSpaceOnUse" x1="694.4202" y1="1107.7319" x2="694.4202" y2="943.3629" gradientTransform="matrix(0.6003 0.0382 0.0306 0.997 -208.101 -984.8004)">
	<stop  offset="0" style="stop-color:#7C3624"/>
	<stop  offset="0.0128" style="stop-color:#763421"/>
	<stop  offset="0.0533" style="stop-color:#6B2F19"/>
	<stop  offset="0.1103" style="stop-color:#632C14"/>
	<stop  offset="0.2688" style="stop-color:#612C14"/>
	<stop  offset="0.4102" style="stop-color:#703117"/>
	<stop  offset="0.5323" style="stop-color:#783418"/>
	<stop  offset="0.7011" style="stop-color:#6C3016"/>
	<stop  offset="0.8011" style="stop-color:#612C14"/>
	<stop  offset="0.9183" style="stop-color:#632C14"/>
	<stop  offset="0.9605" style="stop-color:#6B2F19"/>
	<stop  offset="0.9905" style="stop-color:#763421"/>
	<stop  offset="1" style="stop-color:#7C3624"/>
</linearGradient>
<polygon fill="url(#SVGID_1_)" points="480.027,123.613 0.027,123.613 0.027,0.002 480,-0.482 "/>
<path fill="#6F2C14" d="M0,6.525c0,0,8.469,3.174,14.018,0.297c0,0,5.048-2.223,12.65,1.595c0,0,24.309,7.336,67.772,1.433
	c0,0,26.797-1.025,38.452,3.84c0,0-27.318-1.941-38.427,1.814c0,0-17.638,13.101-68.771,1.046c0,0-16.51-6.132-25.694,6.648V6.525z"
	/>
<path fill="#6F2C14" d="M0.027,26.363c0,0,3.109-9.849,10.883-5.693c0,0,9.123,4.518,14.508,2.302c0,0,10.435-3.407,18.208,0.734
	c0,0,22.954,6.124,51.555-6.246c0,0,6.73-2.523,12.474,0.261c0,0,18.228,4.377,32.686-3.969c0,0,9.41-6.454,24.949,0.526
	c0,0,15.529,4.321,55.635,1.508c0,0,80.608-8.946,54.813-15.786l22.904,0.482c0,0-21.027,23.515-115.447,21.492
	c0,0-14.578-0.58-26.322-5.377c0,0-6.108-3.188-11.305,0.311c0,0-12.916,13.937-36.861,9.151c0,0-15.176-1.317-30.335,1.69
	c0,0-16.148,6.978-36.736,2.55c0,0-11.807-1.579-19.206,2.256c0,0-9.271,6.651-22.401,4.711V26.363z"/>
<path fill="#80331E" d="M180.242,1.701c0,0,60.754,14.587,98.119,2.069L180.242,1.701z"/>
<path fill="#80331E" d="M160.761,0.354c22.283,6.791,12.29,10.045,12.29,10.045c-12.828-3.671-29.34-1.774-29.34-1.774
	c-14.486,2.123-41.142-2.67-41.142-2.67s-7.424-0.917-21.566,2.508c0,0-28.297,5.055-55.985-4.142c0,0-8.162-3.538-24.979-0.528
	L0.027,0L160.761,0.354z"/>
<path fill="#6F2C14" d="M180.935,9.289c0,0,2.352-1.521,8.599,0.183c0,0,11.309,2.981,15.35,2.147c0,0-7.906,3.572-21.91,1.112
	C182.973,12.731,178.584,11.161,180.935,9.289z"/>
<path fill="#80331E" d="M140.555,24.152c0,0,5.042-0.525,5.027-3.886c0,0-0.171-2.813,5.56-3.242c0,0,6.065-0.37,9.627,3.879
	c0,0,3.292,10.682,45.536,4.638c0,0,14.397-2.934,24.014-1.611c0,0-13.905,0.54-25.774,3.927c0,0-17.871,6.654-45.018-2.057
	C159.527,25.8,151.948,22.562,140.555,24.152z"/>
<path fill="#6F2C14" d="M166.971,22.592c0,0,6.47,4.751,30.228,2.507C197.198,25.099,173.175,24.282,166.971,22.592z"/>
<path fill="#6F2C14" d="M485.656,38.001c0,0-92.758-13.93-147.357-10.425c0,0-32.338,5.51-52.232,4.821
	c0,0-46.901-8.244-85.636-0.41c0,0,15.17-10.016,54.257-4.804c0,0,40.809,3.447,62.369-0.407c0,0,47.156-9.53,74.486-4.682
	c0,0,39.814,6.547,76.537,1.614c0,0,11.73-5.734,17.506-0.653L485.656,38.001z"/>
<path fill="#80331E" d="M479.291,10.503c0,0-29.369-7.962-60.039-5.909c0,0-19.467,2.479-39.393-4.594l-26.371,0.248
	c0,0,24.686,15.999,67.807,9.169C421.295,9.417,449.254,4.498,479.291,10.503z"/>
<path fill="#6F2C14" d="M311.948,0.25c-5.057-0.106-11.609,4.971-11.609,4.971c-13.361,8.427-55.729,16.696-55.729,16.696
	s37.329-4.309,56.515-11.526c0,0,15.889-8.786,29.291-8.005c0,0,20.74,1.066,30.889,8.203c0,0,3.355,1.865,17.201,1.434
	c0,0-18.009-2.369-26.396-11.774L311.948,0.25z"/>
<path fill="#80331E" d="M273.53,19.661c0,0,22.076-1.425,28.973-4.639c0,0,5.549-3.077,10.951-1.465c0,0,20.594,6.438,47.365-0.657
	c0,0-23.555,7.857-45.154,4.862c0,0-5.904-0.958-14.832,0.852C300.832,18.614,288.024,20.476,273.53,19.661z"/>
<path fill="#6F2C14" d="M325.387,5.537c0,0-17.172,4.631-5.027,6.507l5.061,0.856c0,0-6.625-1.886-4.525-3.214
	C320.895,9.687,332.073,4.934,325.387,5.537z"/>
<path fill="#6F2C14" d="M328.348,14.008c0,0,15.178,1.47,24.018-0.852c0,0,8.156-2.417-2.051-5.457
	C350.315,7.699,352.494,13.519,328.348,14.008z"/>
<path fill="#59230D" d="M341.121,8.527c0.207,1.438-2.234,2.901-5.449,3.268c-3.215,0.37-5.988-0.498-6.195-1.937
	c-0.205-1.437,2.234-2.901,5.449-3.269C338.141,6.222,340.914,7.09,341.121,8.527z"/>
<path fill="#6F2C14" d="M485.684,43.658c0,0-20.352-1.139-55.303-8.219c0,0-64.287-12.766-96.859-3.224
	c0,0-31.348,6.198-49.809,0.936c0,0-34.656-2.967-86.467,1.927c0,0-15.957-5.657-32.89-3.854c0,0-27.544,3.698-48.812-2.424
	c0,0-18.984-4.326-39.686,2.722c0,0-34.458,11.688-75.833,7.821v18.528c0,0,14.76-1.191,23.834-7.237
	c0,0,22.698-12.494,61.157-7.194c0,0,37.938,2.063,50.81-2.912c0,0,27.275-6.904,59.173,1.248l5.469-1.889
	c0,0,27.875-5.387,65.338,3.383l5.469-2.387c0,0,37.277,5.275,64.559-0.387c0,0,94.781-15.466,149.906,15.886L485.684,43.658z"/>
<path fill="#80331E" d="M266.326,46.017l16.947,1.605l15.514-0.297c0,0,19.115-2.217,31.523,1.288c0,0,81.771,14.947,155.443,10.514
	l0.049,10.228c0,0-61.867-6.043-101.316-6.875l-99.416-9.579l-5.301,2.566l-16.697-2.534c0,0-86.015-9.176-138.567-0.74
	c0,0-66.723,6.893-87.977,3.946c0,0-9.114-2.636-36.502,10.508v-5.729c0,0,21.841-3.964,29.159-6.991c0,0,24.958-10.639,59.004-5.43
	c0,0,14.058,2.793,29.212-1.131c0,0,43.915-12.299,72.794-3.331c0,0,5.334,2.466,22.264-0.161L266.326,46.017z"/>
<path fill="#6F2C14" d="M0.027,68.271l8.761,2.754l2.351-2.447c0,0,16.808-10.289,40.765-6.123c0,0,11.478,3.365,28.318-0.169
	c0,0,102.392-21.026,140.571-3.589c0,0,20.601,7.754,58.665,0.571l30.904-0.798c0,0,69.6,8.721,82.75,9.256
	c0,0,69.725-0.266,92.709,5.541l0.027,6.322c0,0-34.721-6.389-93.047-6.287l-7.428-2.818l-4.381,0.906
	c0,0-70.186-13.124-135.203-2.186l-23.458-5.078c0,0-108.431-9.346-125.582-0.063c0,0-23.86,6.555-42.808,2.094
	c0,0-25.318-7.189-43.449,8.729L0,76.48L0.027,68.271z"/>
<path fill="#6F2C14" d="M275.737,57.743c0,0-33.576-6.699-60.716-5.176c0,0,8.249,1.87,14.071,4.189
	C229.092,56.757,248.617,62.955,275.737,57.743z"/>
<path fill="#80331E" d="M335.854,44.339c0,0,88.438-12.955,140.643,12.099l-13.402-0.282c0,0-49.648-18.957-114.838-9.257
	L335.854,44.339z"/>
<path fill="#6F2C14" d="M353.065,48.097c0,0,60.736,11.01,106.742,7.99C459.807,56.087,404.635,45.192,353.065,48.097z"/>
</svg>
