<?xml version="1.0" encoding="utf-8"?>
<!-- Generator: Adobe Illustrator 16.0.0, SVG Export Plug-In . SVG Version: 6.00 Build 0)  -->
<!DOCTYPE svg PUBLIC "-//W3C//DTD SVG 1.1//EN" "http://www.w3.org/Graphics/SVG/1.1/DTD/svg11.dtd" [
	<!ENTITY ns_extend "http://ns.adobe.com/Extensibility/1.0/">
	<!ENTITY ns_ai "http://ns.adobe.com/AdobeIllustrator/10.0/">
	<!ENTITY ns_graphs "http://ns.adobe.com/Graphs/1.0/">
	<!ENTITY ns_vars "http://ns.adobe.com/Variables/1.0/">
	<!ENTITY ns_imrep "http://ns.adobe.com/ImageReplacement/1.0/">
	<!ENTITY ns_sfw "http://ns.adobe.com/SaveForWeb/1.0/">
	<!ENTITY ns_custom "http://ns.adobe.com/GenericCustomNamespace/1.0/">
	<!ENTITY ns_adobe_xpath "http://ns.adobe.com/XPath/1.0/">
]>
<svg version="1.1" id="Layer_1" xmlns:x="&ns_extend;" xmlns:i="&ns_ai;" xmlns:graph="&ns_graphs;"
	 xmlns="http://www.w3.org/2000/svg" xmlns:xlink="http://www.w3.org/1999/xlink" x="0px" y="0px" width="192.334px"
	 height="94.335px" viewBox="0 0 192.334 94.335" enable-background="new 0 0 192.334 94.335" xml:space="preserve">
<metadata>
	<sfw  xmlns="&ns_sfw;">
		<slices></slices>
		<sliceSourceBounds  height="92.978" width="193.725" y="374.252" x="201.483" bottomLeftOrigin="true"></sliceSourceBounds>
	</sfw>
</metadata>
<path fill="#2B5721" d="M176.008,46.401c0,0,8.777,0.113,9.794,12.143c0,0,0.657,5.277,3.432,7.111c0,0-19.547,0.086-19.28-10.404
	C169.953,55.251,170.389,46.415,176.008,46.401z"/>
<path fill="#003307" d="M180.649,36.15c0,0,8.777,0.113,9.794,12.143c0,0,0.657,5.277,3.432,7.111c0,0-19.547,0.086-19.28-10.404
	C174.594,45,175.031,36.164,180.649,36.15z"/>
<path fill="#3E4D10" d="M171.008,42.65c0,0,8.777,0.113,9.794,12.143c0,0,0.657,5.277,3.432,7.111c0,0-19.547,0.086-19.28-10.404
	C164.953,51.5,165.389,42.664,171.008,42.65z"/>
<path fill="#2B5721" d="M169.008,31.15c0,0,8.777,0.113,9.794,12.143c0,0,0.657,5.277,3.432,7.111c0,0-19.547,0.086-19.28-10.404
	C162.953,40,163.389,31.164,169.008,31.15z"/>
<path fill="#003307" d="M171.746,21.968c0,0,8.777,0.113,9.794,12.143c0,0,0.657,5.277,3.432,7.111c0,0-19.547,0.086-19.28-10.405
	C165.691,30.818,166.128,21.982,171.746,21.968z"/>
<path fill="#2B5721" d="M174.104,17.968c0,0,8.777,0.113,9.794,12.143c0,0,0.657,5.277,3.432,7.111c0,0-19.547,0.086-19.28-10.405
	C168.05,26.818,168.486,17.982,174.104,17.968z"/>
<path fill="#003307" d="M158.496,22.218c0,0,8.777,0.113,9.794,12.143c0,0,0.657,5.277,3.432,7.111c0,0-19.547,0.086-19.28-10.405
	C152.441,31.068,152.878,22.232,158.496,22.218z"/>
<path fill="#2B5721" d="M150.854,17.218c0,0,8.777,0.113,9.794,12.143c0,0,0.657,5.277,3.432,7.111c0,0-19.547,0.086-19.28-10.405
	C144.8,26.068,145.236,17.232,150.854,17.218z"/>
<path fill="#003307" d="M169.874,9.354c0,0,8.358-2.68,13.144,8.404c0,0,2.299,4.795,5.513,5.653c0,0-18.508,6.29-21.587-3.743
	C166.943,19.668,164.551,11.151,169.874,9.354z"/>
<path fill="#3E4D10" d="M167.104,14.217c0,0,8.777,0.113,9.794,12.143c0,0,0.657,5.277,3.432,7.111c0,0-19.547,0.086-19.28-10.405
	C161.05,23.066,161.486,14.23,167.104,14.217z"/>
<path fill="#2B5721" d="M162.104,2.717c0,0,8.777,0.113,9.794,12.143c0,0,0.657,5.277,3.432,7.111c0,0-19.547,0.086-19.28-10.405
	C156.05,11.566,156.486,2.73,162.104,2.717z"/>
<path fill="#003307" d="M155.496,6.967c0,0,8.777,0.113,9.794,12.143c0,0,0.657,5.277,3.432,7.111c0,0-19.547,0.086-19.28-10.405
	C149.441,15.816,149.878,6.98,155.496,6.967z"/>
<path fill="#3E4D10" d="M145.854,16.467c0,0,8.777,0.113,9.794,12.143c0,0,0.657,5.277,3.432,7.111c0,0-19.547,0.086-19.28-10.405
	C139.8,25.316,140.236,16.48,145.854,16.467z"/>
<path fill="#2B5721" d="M145.854,1.967c0,0,8.777,0.113,9.794,12.143c0,0,0.657,5.277,3.432,7.111c0,0-19.547,0.086-19.28-10.405
	C139.8,10.816,140.236,1.98,145.854,1.967z"/>
<path fill="#003307" d="M151.482,69.912c0,0,8.777,0.113,9.794,12.144c0,0,0.657,5.277,3.432,7.111c0,0-19.547,0.086-19.28-10.405
	C145.427,78.761,145.864,69.925,151.482,69.912z"/>
<path fill="#3E4D10" d="M141.841,73.412c0,0,8.777,0.113,9.794,12.144c0,0,0.657,5.277,3.432,7.111c0,0-19.547,0.086-19.28-10.405
	C135.786,82.261,136.222,73.425,141.841,73.412z"/>
<path fill="#2B5721" d="M141.841,64.912c0,0,8.777,0.113,9.794,12.144c0,0,0.657,5.277,3.432,7.111c0,0-19.547,0.086-19.28-10.405
	C135.786,73.761,136.222,64.925,141.841,64.912z"/>
<path fill="#003307" d="M129.482,68.16c0,0,8.777,0.113,9.794,12.144c0,0,0.657,5.277,3.432,7.111c0,0-19.547,0.086-19.28-10.405
	C123.427,77.009,123.864,68.173,129.482,68.16z"/>
<path fill="#3E4D10" d="M117.841,73.66c0,0,8.777,0.113,9.794,12.144c0,0,0.657,5.277,3.432,7.111c0,0-19.547,0.086-19.28-10.405
	C111.786,82.509,112.222,73.673,117.841,73.66z"/>
<path fill="#2B5721" d="M119.841,63.16c0,0,8.777,0.113,9.794,12.144c0,0,0.657,5.277,3.432,7.111c0,0-19.547,0.086-19.28-10.405
	C113.786,72.009,114.222,63.173,119.841,63.16z"/>
<path fill="#003307" d="M108.232,67.41c0,0,8.777,0.113,9.794,12.144c0,0,0.657,5.277,3.432,7.111c0,0-19.547,0.086-19.28-10.405
	C102.177,76.259,102.614,67.423,108.232,67.41z"/>
<path fill="#3E4D10" d="M98.591,70.91c0,0,8.777,0.113,9.794,12.144c0,0,0.657,5.277,3.432,7.111c0,0-19.547,0.086-19.28-10.405
	C92.536,79.759,92.972,70.923,98.591,70.91z"/>
<path fill="#2B5721" d="M98.591,62.41c0,0,8.777,0.113,9.794,12.144c0,0,0.657,5.277,3.432,7.111c0,0-19.547,0.086-19.28-10.405
	C92.536,71.259,92.972,62.423,98.591,62.41z"/>
<path fill="#003307" d="M94.915,70.019c0,0,8.264,2.96,5.315,14.667c0,0-1.095,5.204,0.934,7.841c0,0-18.514-6.272-14.852-16.107
	C86.312,76.419,89.597,68.206,94.915,70.019z"/>
<path fill="#3E4D10" d="M79.949,74.162c0,0,8.777,0.113,9.794,12.143c0,0,0.657,5.277,3.432,7.111c0,0-19.547,0.086-19.28-10.404
	C73.894,83.011,74.331,74.175,79.949,74.162z"/>
<path fill="#2B5721" d="M81.949,64.662c0,0,8.777,0.113,9.794,12.143c0,0,0.657,5.277,3.432,7.111c0,0-19.547,0.086-19.28-10.404
	C75.894,73.511,76.331,64.675,81.949,64.662z"/>
<path fill="#003307" d="M70.341,66.912c0,0,8.777,0.113,9.794,12.143c0,0,0.657,5.277,3.432,7.111c0,0-19.547,0.086-19.28-10.404
	C64.286,75.761,64.722,66.925,70.341,66.912z"/>
<path fill="#3E4D10" d="M145.982,61.91c0,0,8.777,0.113,9.794,12.143c0,0,0.657,5.277,3.432,7.111c0,0-19.547,0.086-19.28-10.404
	C139.927,70.759,140.364,61.923,145.982,61.91z"/>
<path fill="#003307" d="M128.624,53.658c0,0,8.777,0.113,9.794,12.143c0,0,0.657,5.277,3.432,7.111c0,0-19.547,0.086-19.28-10.404
	C122.569,62.507,123.006,53.671,128.624,53.658z"/>
<path fill="#3E4D10" d="M120.982,60.158c0,0,8.777,0.113,9.794,12.143c0,0,0.657,5.277,3.432,7.111c0,0-19.547,0.086-19.28-10.404
	C114.927,69.007,115.364,60.171,120.982,60.158z"/>
<path fill="#003307" d="M107.374,52.908c0,0,8.777,0.113,9.794,12.143c0,0,0.657,5.277,3.432,7.111c0,0-19.547,0.086-19.28-10.404
	C101.319,61.757,101.756,52.921,107.374,52.908z"/>
<path fill="#3E4D10" d="M96.732,59.408c0,0,8.777,0.113,9.794,12.143c0,0,0.657,5.277,3.432,7.111c0,0-19.547,0.086-19.28-10.404
	C90.677,68.257,91.114,59.421,96.732,59.408z"/>
<path fill="#003307" d="M90.732,53.158c0,0,8.777,0.113,9.794,12.144c0,0,0.657,5.277,3.432,7.111c0,0-19.547,0.086-19.28-10.405
	C84.677,62.007,85.114,53.171,90.732,53.158z"/>
<path fill="#3E4D10" d="M84.091,58.658c0,0,8.777,0.113,9.794,12.144c0,0,0.657,5.277,3.432,7.111c0,0-19.547,0.086-19.28-10.405
	C78.036,67.507,78.472,58.671,84.091,58.658z"/>
<path fill="#2B5721" d="M81.091,53.158c0,0,8.777,0.113,9.794,12.144c0,0,0.657,5.277,3.432,7.111c0,0-19.547,0.086-19.28-10.405
	C75.036,62.007,75.472,53.171,81.091,53.158z"/>
<path fill="#003307" d="M69.482,52.408c0,0,8.777,0.113,9.794,12.144c0,0,0.657,5.277,3.432,7.111c0,0-19.547,0.086-19.28-10.405
	C63.427,61.257,63.864,52.421,69.482,52.408z"/>
<path fill="#3E4D10" d="M57.432,67.785c0,0,8.777,0.113,9.794,12.144c0,0,0.657,5.277,3.432,7.111c0,0-19.547,0.086-19.28-10.405
	C51.378,76.634,51.814,67.798,57.432,67.785z"/>
<path fill="#2B5721" d="M61.99,67.686c0,0,7.849,3.929,3.518,15.198c0,0-1.71,5.035-0.013,7.896c0,0-17.628-8.447-12.813-17.771
	C52.681,73.009,56.927,65.248,61.99,67.686z"/>
<path fill="#003307" d="M46.923,67.035c0,0,8.604,1.74,7.371,13.75c0,0-0.333,5.308,2.053,7.625c0,0-19.224-3.543-17.016-13.802
	C39.331,74.608,41.399,66.006,46.923,67.035z"/>
<path fill="#3E4D10" d="M34.432,70.033c0,0,8.777,0.113,9.794,12.144c0,0,0.657,5.277,3.432,7.111c0,0-19.547,0.086-19.28-10.405
	C28.378,78.882,28.814,70.046,34.432,70.033z"/>
<path fill="#2B5721" d="M32.432,62.533c0,0,8.777,0.113,9.794,12.144c0,0,0.657,5.277,3.432,7.111c0,0-19.547,0.086-19.28-10.405
	C26.378,71.382,26.814,62.546,32.432,62.533z"/>
<path fill="#003307" d="M25.824,63.783c0,0,8.777,0.113,9.794,12.144c0,0,0.657,5.277,3.432,7.111c0,0-19.547,0.086-19.28-10.405
	C19.769,72.632,20.206,63.796,25.824,63.783z"/>
<path fill="#3E4D10" d="M25.554,71.209c0,0,2.938,8.272-7.994,13.397c0,0-4.722,2.446-5.48,5.686c0,0-6.859-18.305,3.074-21.692
	C15.154,68.6,23.593,65.945,25.554,71.209z"/>
<path fill="#2B5721" d="M24.919,69.843c0,0-1.883,8.574-13.871,7.141c0,0-5.301-0.422-7.658,1.926c0,0,3.862-19.162,14.083-16.783
	C17.474,62.126,26.04,64.338,24.919,69.843z"/>
<path fill="#3E4D10" d="M34.574,59.531c0,0,8.777,0.113,9.794,12.143c0,0,0.657,5.277,3.432,7.111c0,0-19.547,0.086-19.28-10.404
	C28.519,68.38,28.956,59.544,34.574,59.531z"/>
<path fill="#003307" d="M24.847,61.889c0,0,2.745,8.338-8.3,13.209c0,0-4.777,2.337-5.61,5.557c0,0-6.435-18.457,3.572-21.614
	C14.51,59.041,23.008,56.581,24.847,61.889z"/>
<path fill="#003307" d="M177.607,68.285c0,0,8.777,0.113,9.794,12.143c0,0,0.657,5.277,3.432,7.111c0,0-19.547,0.086-19.28-10.404
	C171.552,77.134,171.989,68.298,177.607,68.285z"/>
<path fill="#3E4D10" d="M173.966,72.785c0,0,8.777,0.113,9.794,12.143c0,0,0.657,5.277,3.432,7.111c0,0-19.547,0.086-19.28-10.404
	C167.911,81.634,168.347,72.798,173.966,72.785z"/>
<path fill="#2B5721" d="M171.966,61.285c0,0,8.777,0.113,9.794,12.143c0,0,0.657,5.277,3.432,7.111c0,0-19.547,0.086-19.28-10.404
	C165.911,70.134,166.347,61.298,171.966,61.285z"/>
<path fill="#003307" d="M160.357,65.535c0,0,8.777,0.113,9.794,12.143c0,0,0.657,5.277,3.432,7.111c0,0-19.547,0.086-19.28-10.404
	C154.302,74.384,154.739,65.548,160.357,65.535z"/>
<path fill="#3E4D10" d="M176.107,58.281c0,0,8.777,0.113,9.794,12.144c0,0,0.657,5.277,3.432,7.111c0,0-19.547,0.086-19.28-10.405
	C170.052,67.13,170.489,58.294,176.107,58.281z"/>
<path fill="#003307" d="M168.199,64.408c0,0,8.777,0.113,9.794,12.143c0,0,0.657,5.277,3.432,7.111c0,0-19.547,0.086-19.28-10.404
	C162.144,73.257,162.581,64.421,168.199,64.408z"/>
<path fill="#3E4D10" d="M161.557,65.908c0,0,8.777,0.113,9.794,12.143c0,0,0.657,5.277,3.432,7.111c0,0-19.547,0.086-19.28-10.404
	C155.503,74.757,155.939,65.921,161.557,65.908z"/>
<path fill="#2B5721" d="M155.557,54.408c0,0,8.777,0.113,9.794,12.143c0,0,0.657,5.277,3.432,7.111c0,0-19.547,0.086-19.28-10.404
	C149.503,63.257,149.939,54.421,155.557,54.408z"/>
<path fill="#003307" d="M147.949,58.658c0,0,8.777,0.113,9.794,12.143c0,0,0.657,5.277,3.432,7.111c0,0-19.547,0.086-19.28-10.404
	C141.894,67.507,142.331,58.671,147.949,58.658z"/>
<path fill="#3E4D10" d="M138.307,62.158c0,0,8.777,0.113,9.794,12.143c0,0,0.657,5.277,3.432,7.111c0,0-19.547,0.086-19.28-10.404
	C132.253,71.007,132.689,62.171,138.307,62.158z"/>
<path fill="#2B5721" d="M138.307,53.658c0,0,8.777,0.113,9.794,12.143c0,0,0.657,5.277,3.432,7.111c0,0-19.547,0.086-19.28-10.404
	C132.253,62.507,132.689,53.671,138.307,53.658z"/>
<path fill="#003307" d="M125.949,56.906c0,0,8.777,0.113,9.794,12.143c0,0,0.657,5.277,3.432,7.111c0,0-19.547,0.086-19.28-10.404
	C119.894,65.755,120.331,56.919,125.949,56.906z"/>
<path fill="#3E4D10" d="M114.307,62.406c0,0,8.777,0.113,9.794,12.143c0,0,0.657,5.277,3.432,7.111c0,0-19.547,0.086-19.28-10.404
	C108.253,71.255,108.689,62.419,114.307,62.406z"/>
<path fill="#2B5721" d="M116.307,51.906c0,0,8.777,0.113,9.794,12.143c0,0,0.657,5.277,3.432,7.111c0,0-19.547,0.086-19.28-10.404
	C110.253,60.755,110.689,51.919,116.307,51.906z"/>
<path fill="#003307" d="M104.699,56.156c0,0,8.777,0.113,9.794,12.143c0,0,0.657,5.277,3.432,7.111c0,0-19.547,0.086-19.28-10.404
	C98.644,65.005,99.081,56.169,104.699,56.156z"/>
<path fill="#3E4D10" d="M95.057,59.656c0,0,8.777,0.113,9.794,12.143c0,0,0.657,5.277,3.432,7.111c0,0-19.547,0.086-19.28-10.404
	C89.003,68.505,89.439,59.669,95.057,59.656z"/>
<path fill="#2B5721" d="M95.057,51.156c0,0,8.777,0.113,9.794,12.143c0,0,0.657,5.277,3.432,7.111c0,0-19.547,0.086-19.28-10.404
	C89.003,60.005,89.439,51.169,95.057,51.156z"/>
<path fill="#003307" d="M91.382,58.764c0,0,8.264,2.96,5.315,14.667c0,0-1.095,5.205,0.934,7.841c0,0-18.514-6.272-14.852-16.106
	C82.779,65.166,86.064,56.951,91.382,58.764z"/>
<path fill="#3E4D10" d="M76.416,62.906c0,0,8.777,0.113,9.794,12.144c0,0,0.657,5.277,3.432,7.111c0,0-19.547,0.086-19.28-10.405
	C70.361,71.755,70.798,62.919,76.416,62.906z"/>
<path fill="#2B5721" d="M78.416,53.406c0,0,8.777,0.113,9.794,12.144c0,0,0.657,5.277,3.432,7.111c0,0-19.547,0.086-19.28-10.405
	C72.361,62.255,72.798,53.419,78.416,53.406z"/>
<path fill="#003307" d="M66.807,55.656c0,0,8.777,0.113,9.794,12.144c0,0,0.657,5.277,3.432,7.111c0,0-19.547,0.086-19.28-10.405
	C60.753,64.505,61.189,55.669,66.807,55.656z"/>
<path fill="#3E4D10" d="M57.166,54.156c0,0,8.777,0.113,9.794,12.144c0,0,0.657,5.277,3.432,7.111c0,0-19.547,0.086-19.28-10.405
	C51.111,63.005,51.548,54.169,57.166,54.156z"/>
<path fill="#2B5721" d="M61.723,54.057c0,0,7.849,3.929,3.518,15.198c0,0-1.71,5.035-0.013,7.896c0,0-17.628-8.447-12.813-17.771
	C52.415,59.38,56.661,51.619,61.723,54.057z"/>
<path fill="#003307" d="M46.656,53.406c0,0,8.604,1.74,7.371,13.75c0,0-0.333,5.308,2.053,7.625c0,0-19.224-3.543-17.016-13.802
	C39.064,60.979,41.133,52.377,46.656,53.406z"/>
<path fill="#3E4D10" d="M34.166,56.404c0,0,8.777,0.113,9.794,12.144c0,0,0.657,5.277,3.432,7.111c0,0-19.547,0.086-19.28-10.405
	C28.111,65.253,28.548,56.417,34.166,56.404z"/>
<path fill="#2B5721" d="M32.166,48.904c0,0,8.777,0.113,9.794,12.144c0,0,0.657,5.277,3.432,7.111c0,0-19.547,0.086-19.28-10.405
	C26.111,57.753,26.548,48.917,32.166,48.904z"/>
<path fill="#003307" d="M25.557,50.154c0,0,8.777,0.113,9.794,12.144c0,0,0.657,5.277,3.432,7.111c0,0-19.547,0.086-19.28-10.405
	C19.503,59.003,19.939,50.167,25.557,50.154z"/>
<path fill="#3E4D10" d="M21.706,54.41c0,0,6.171,6.242-1.55,15.523c0,0-3.237,4.22-2.548,7.474c0,0-13.981-13.66-6.426-20.945
	C11.181,56.461,17.695,50.475,21.706,54.41z"/>
<path fill="#2B5721" d="M24.653,56.214c0,0-1.883,8.573-13.871,7.141c0,0-5.302-0.421-7.658,1.926c0,0,3.861-19.162,14.083-16.783
	C17.207,48.498,25.773,50.709,24.653,56.214z"/>
<path fill="#003307" d="M165.68,46.375c0,0,8.427-2.46,12.919,8.746c0,0,2.172,4.854,5.362,5.796c0,0-18.667,5.802-21.481-4.308
	C162.48,56.609,160.312,48.031,165.68,46.375z"/>
<path fill="#3E4D10" d="M163.699,51.404c0,0,8.777,0.113,9.794,12.144c0,0,0.657,5.277,3.432,7.111c0,0-19.547,0.086-19.28-10.405
	C157.644,60.253,158.081,51.417,163.699,51.404z"/>
<path fill="#2B5721" d="M158.699,39.904c0,0,8.777,0.113,9.794,12.143c0,0,0.657,5.277,3.432,7.111c0,0-19.547,0.086-19.28-10.405
	C152.644,48.753,153.081,39.918,158.699,39.904z"/>
<path fill="#003307" d="M147.091,40.154c0,0,8.777,0.113,9.794,12.143c0,0,0.657,5.277,3.432,7.111c0,0-19.547,0.086-19.28-10.405
	C141.036,49.003,141.472,40.168,147.091,40.154z"/>
<path fill="#3E4D10" d="M142.449,50.654c0,0,8.777,0.113,9.794,12.144c0,0,0.657,5.277,3.432,7.111c0,0-19.547,0.086-19.28-10.405
	C136.394,59.503,136.831,50.667,142.449,50.654z"/>
<path fill="#2B5721" d="M130.842,40.446c0,0,8.064-3.468,13.888,7.107c0,0,2.748,4.553,6.028,5.099c0,0-17.82,8.033-21.846-1.658
	C128.912,50.994,125.716,42.744,130.842,40.446z"/>
<path fill="#003307" d="M125.091,42.402c0,0,8.777,0.113,9.794,12.143c0,0,0.657,5.277,3.432,7.111c0,0-19.547,0.086-19.28-10.405
	C119.036,51.251,119.472,42.416,125.091,42.402z"/>
<path fill="#3E4D10" d="M117.449,48.902c0,0,8.777,0.113,9.794,12.144c0,0,0.657,5.277,3.432,7.111c0,0-19.547,0.086-19.28-10.405
	C111.394,57.751,111.831,48.916,117.449,48.902z"/>
<path fill="#2B5721" d="M115.449,37.402c0,0,8.777,0.113,9.794,12.143c0,0,0.657,5.277,3.432,7.111c0,0-19.547,0.086-19.28-10.405
	C109.394,46.252,109.831,37.416,115.449,37.402z"/>
<path fill="#003307" d="M103.841,41.652c0,0,8.777,0.113,9.794,12.143c0,0,0.657,5.277,3.432,7.111c0,0-19.547,0.086-19.28-10.405
	C97.786,50.501,98.222,41.666,103.841,41.652z"/>
<path fill="#3E4D10" d="M93.199,48.152c0,0,8.777,0.113,9.794,12.144c0,0,0.657,5.277,3.432,7.111c0,0-19.547,0.086-19.28-10.405
	C87.144,57.001,87.581,48.166,93.199,48.152z"/>
<path fill="#2B5721" d="M94.199,36.652c0,0,8.777,0.113,9.794,12.143c0,0,0.657,5.277,3.432,7.111c0,0-19.547,0.086-19.28-10.405
	C88.144,45.502,88.581,36.666,94.199,36.652z"/>
<path fill="#003307" d="M87.199,41.903c0,0,8.777,0.113,9.794,12.143c0,0,0.657,5.277,3.432,7.111c0,0-19.547,0.086-19.28-10.404
	C81.144,50.753,81.581,41.917,87.199,41.903z"/>
<path fill="#3E4D10" d="M80.557,47.403c0,0,8.777,0.113,9.794,12.143c0,0,0.657,5.277,3.432,7.111c0,0-19.547,0.086-19.28-10.404
	C74.503,56.253,74.939,47.417,80.557,47.403z"/>
<path fill="#2B5721" d="M77.557,41.903c0,0,8.777,0.113,9.794,12.143c0,0,0.657,5.277,3.432,7.111c0,0-19.547,0.086-19.28-10.404
	C71.503,50.753,71.939,41.917,77.557,41.903z"/>
<path fill="#003307" d="M65.949,41.153c0,0,8.777,0.113,9.794,12.143c0,0,0.657,5.277,3.432,7.111c0,0-19.547,0.086-19.28-10.404
	C59.894,50.003,60.331,41.167,65.949,41.153z"/>
<path fill="#3E4D10" d="M58.307,47.653c0,0,8.777,0.114,9.794,12.143c0,0,0.657,5.277,3.432,7.111c0,0-19.547,0.086-19.28-10.404
	C52.253,56.503,52.689,47.667,58.307,47.653z"/>
<path fill="#2B5721" d="M56.307,36.153c0,0,8.777,0.113,9.794,12.143c0,0,0.657,5.277,3.432,7.111c0,0-19.547,0.086-19.28-10.405
	C50.253,45.003,50.689,36.167,56.307,36.153z"/>
<path fill="#003307" d="M43.949,39.401c0,0,8.777,0.113,9.794,12.143c0,0,0.657,5.277,3.432,7.111c0,0-19.547,0.086-19.28-10.404
	C37.894,48.251,38.331,39.415,43.949,39.401z"/>
<path fill="#3E4D10" d="M34.307,45.901c0,0,8.777,0.113,9.794,12.143c0,0,0.657,5.277,3.432,7.111c0,0-19.547,0.086-19.28-10.404
	C28.253,54.751,28.689,45.915,34.307,45.901z"/>
<path fill="#2B5721" d="M36.307,36.401c0,0,8.777,0.113,9.794,12.143c0,0,0.657,5.277,3.432,7.111c0,0-19.547,0.086-19.28-10.405
	C30.253,45.251,30.689,36.415,36.307,36.401z"/>
<path fill="#003307" d="M20.243,39.969c0,0,8.485-2.25,12.697,9.064c0,0,2.051,4.907,5.216,5.928c0,0-18.805,5.336-21.367-4.841
	C16.79,50.12,14.836,41.492,20.243,39.969z"/>
<path fill="#3E4D10" d="M13.057,45.151c0,0,8.777,0.113,9.794,12.143c0,0,0.657,5.277,3.432,7.111c0,0-19.547,0.086-19.28-10.404
	C7.003,54.001,7.439,45.165,13.057,45.151z"/>
<path fill="#2B5721" d="M21.813,38.891c0,0,6.194,6.219-1.492,15.528c0,0-3.221,4.232-2.521,7.483c0,0-14.031-13.609-6.503-20.921
	C11.296,40.981,17.787,34.971,21.813,38.891z"/>
<path fill="#003307" d="M160.341,26.151c0,0,8.777,0.113,9.794,12.143c0,0,0.657,5.277,3.432,7.111c0,0-19.547,0.086-19.28-10.405
	C154.286,35.001,154.722,26.165,160.341,26.151z"/>
<path fill="#3E4D10" d="M157.429,39.657c0,0,7.699-4.217,14.498,5.759c0,0,3.167,4.272,6.484,4.505c0,0-16.979,9.686-21.904,0.419
	C156.508,50.34,152.544,42.431,157.429,39.657z"/>
<path fill="#2B5721" d="M162.699,22.151c0,0,8.777,0.113,9.794,12.143c0,0,0.657,5.277,3.432,7.111c0,0-19.547,0.086-19.28-10.405
	C156.644,31.001,157.081,22.165,162.699,22.151z"/>
<path fill="#003307" d="M147.091,26.401c0,0,8.777,0.113,9.794,12.143c0,0,0.657,5.277,3.432,7.111c0,0-19.547,0.086-19.28-10.405
	C141.036,35.251,141.472,26.415,147.091,26.401z"/>
<path fill="#3E4D10" d="M140.439,32.273c0,0,8.355,2.69,5.789,14.487c0,0-0.924,5.237,1.188,7.806c0,0-18.707-5.667-15.367-15.615
	C132.05,38.951,135.065,30.634,140.439,32.273z"/>
<path fill="#2B5721" d="M139.449,21.401c0,0,8.777,0.113,9.794,12.143c0,0,0.657,5.277,3.432,7.111c0,0-19.547,0.086-19.28-10.405
	C133.394,30.251,133.831,21.415,139.449,21.401z"/>
<path fill="#003307" d="M125.091,24.649c0,0,8.777,0.113,9.794,12.143c0,0,0.657,5.277,3.432,7.111c0,0-19.547,0.086-19.28-10.405
	C119.036,33.499,119.472,24.663,125.091,24.649z"/>
<path fill="#3E4D10" d="M119.449,31.149c0,0,8.777,0.113,9.794,12.143c0,0,0.657,5.277,3.432,7.111c0,0-19.547,0.086-19.28-10.405
	C113.394,39.999,113.831,31.163,119.449,31.149z"/>
<path fill="#2B5721" d="M117.449,19.649c0,0,8.777,0.113,9.794,12.143c0,0,0.657,5.277,3.432,7.111c0,0-19.547,0.086-19.28-10.405
	C111.394,28.499,111.831,19.663,117.449,19.649z"/>
<path fill="#003307" d="M105.841,26.899c0,0,8.777,0.113,9.794,12.143c0,0,0.657,5.277,3.432,7.111c0,0-19.547,0.086-19.28-10.405
	C99.786,35.749,100.222,26.913,105.841,26.899z"/>
<path fill="#3E4D10" d="M94.199,33.399c0,0,8.777,0.113,9.794,12.143c0,0,0.657,5.277,3.432,7.111c0,0-19.547,0.086-19.28-10.405
	C88.144,42.249,88.581,33.413,94.199,33.399z"/>
<path fill="#2B5721" d="M100.199,21.899c0,0,8.777,0.113,9.794,12.143c0,0,0.657,5.277,3.432,7.111c0,0-19.547,0.086-19.28-10.405
	C94.144,30.749,94.581,21.913,100.199,21.899z"/>
<path fill="#003307" d="M87.199,27.15c0,0,8.777,0.113,9.794,12.143c0,0,0.657,5.277,3.432,7.111c0,0-19.547,0.086-19.28-10.405
	C81.144,36,81.581,27.164,87.199,27.15z"/>
<path fill="#3E4D10" d="M77.557,33.65c0,0,8.777,0.113,9.794,12.143c0,0,0.657,5.277,3.432,7.111c0,0-19.547,0.086-19.28-10.405
	C71.503,42.5,71.939,33.664,77.557,33.65z"/>
<path fill="#2B5721" d="M79.448,23.528c0,0,8.381,2.608,5.93,14.429c0,0-0.872,5.246,1.265,7.794c0,0-18.762-5.484-15.519-15.464
	C71.124,30.288,74.058,21.941,79.448,23.528z"/>
<path fill="#003307" d="M65.949,26.4c0,0,8.777,0.113,9.794,12.143c0,0,0.657,5.277,3.432,7.111c0,0-19.547,0.086-19.28-10.405
	C59.894,35.25,60.331,26.414,65.949,26.4z"/>
<path fill="#3E4D10" d="M60.307,32.9c0,0,8.777,0.113,9.794,12.143c0,0,0.657,5.277,3.432,7.111c0,0-19.547,0.086-19.28-10.405
	C54.253,41.75,54.689,32.914,60.307,32.9z"/>
<path fill="#2B5721" d="M58.307,21.4c0,0,8.777,0.113,9.794,12.143c0,0,0.657,5.277,3.432,7.111c0,0-19.547,0.086-19.28-10.405
	C52.253,30.25,52.689,21.414,58.307,21.4z"/>
<path fill="#003307" d="M45.949,24.648c0,0,8.777,0.113,9.794,12.143c0,0,0.657,5.277,3.432,7.111c0,0-19.547,0.086-19.28-10.405
	C39.894,33.498,40.331,24.662,45.949,24.648z"/>
<path fill="#3E4D10" d="M28.307,29.148c0,0,8.777,0.113,9.794,12.143c0,0,0.657,5.277,3.432,7.111c0,0-19.547,0.086-19.28-10.405
	C22.253,37.998,22.689,29.162,28.307,29.148z"/>
<path fill="#2B5721" d="M34.307,20.648c0,0,8.777,0.113,9.794,12.143c0,0,0.657,5.277,3.432,7.111c0,0-19.547,0.086-19.28-10.405
	C28.253,29.498,28.689,20.662,34.307,20.648z"/>
<path fill="#003307" d="M19.761,23.614c0,0,8.596-1.778,12.177,9.752c0,0,1.776,5.012,4.88,6.207c0,0-19.07,4.289-21.066-6.013
	C15.752,33.559,14.278,24.836,19.761,23.614z"/>
<path fill="#3E4D10" d="M24.909,38.738c0,0-1.883,8.574-13.871,7.14c0,0-5.302-0.421-7.658,1.925c0,0,3.864-19.162,14.084-16.782
	C17.465,31.021,26.031,33.233,24.909,38.738z"/>
<path fill="#2B5721" d="M13.057,16.898c0,0,8.777,0.113,9.794,12.143c0,0,0.657,5.277,3.432,7.111c0,0-19.547,0.086-19.28-10.405
	C7.003,25.748,7.439,16.912,13.057,16.898z"/>
<path fill="#003307" d="M158.469,13.537c0,0,8.359-2.68,13.144,8.404c0,0,2.3,4.795,5.513,5.653c0,0-18.508,6.29-21.587-3.743
	C155.538,23.851,153.146,15.334,158.469,13.537z"/>
<path fill="#3E4D10" d="M155.699,18.4c0,0,8.777,0.113,9.794,12.143c0,0,0.657,5.277,3.432,7.111c0,0-19.547,0.086-19.28-10.405
	C149.644,27.25,150.081,18.414,155.699,18.4z"/>
<path fill="#2B5721" d="M150.699,6.9c0,0,8.777,0.113,9.794,12.143c0,0,0.657,5.277,3.432,7.111c0,0-19.547,0.086-19.28-10.405
	C144.644,15.75,145.081,6.914,150.699,6.9z"/>
<path fill="#003307" d="M144.091,11.15c0,0,8.777,0.113,9.794,12.143c0,0,0.657,5.277,3.432,7.111c0,0-19.547,0.086-19.28-10.405
	C138.036,20,138.472,11.164,144.091,11.15z"/>
<path fill="#3E4D10" d="M134.449,20.65c0,0,8.777,0.113,9.794,12.143c0,0,0.657,5.277,3.432,7.111c0,0-19.547,0.086-19.28-10.405
	C128.394,29.5,128.831,20.664,134.449,20.65z"/>
<path fill="#2B5721" d="M134.449,6.15c0,0,8.777,0.113,9.794,12.143c0,0,0.657,5.277,3.432,7.111c0,0-19.547,0.086-19.28-10.405
	C128.394,15,128.831,6.164,134.449,6.15z"/>
<path fill="#003307" d="M122.091,9.398c0,0,8.777,0.113,9.794,12.143c0,0,0.657,5.277,3.432,7.111c0,0-19.547,0.086-19.28-10.405
	C116.036,18.248,116.472,9.412,122.091,9.398z"/>
<path fill="#3E4D10" d="M112.449,18.898c0,0,8.777,0.113,9.794,12.143c0,0,0.657,5.277,3.432,7.111c0,0-19.547,0.086-19.28-10.405
	C106.394,27.748,106.831,18.912,112.449,18.898z"/>
<path fill="#2B5721" d="M112.449,6.398c0,0,8.777,0.113,9.794,12.143c0,0,0.657,5.277,3.432,7.111c0,0-19.547,0.086-19.28-10.405
	C106.394,15.248,106.831,6.412,112.449,6.398z"/>
<path fill="#003307" d="M100.841,13.648c0,0,8.777,0.113,9.794,12.143c0,0,0.657,5.277,3.432,7.111c0,0-19.547,0.086-19.28-10.405
	C94.786,22.498,95.222,13.662,100.841,13.648z"/>
<path fill="#3E4D10" d="M91.199,18.148c0,0,8.777,0.113,9.794,12.143c0,0,0.657,5.277,3.432,7.111c0,0-19.547,0.086-19.28-10.405
	C85.144,26.998,85.581,18.162,91.199,18.148z"/>
<path fill="#2B5721" d="M84.647,19.945c0,0,1.795-8.592,13.797-7.281c0,0,5.306,0.368,7.638-2.003c0,0-3.667,19.2-13.912,16.925
	C92.17,27.585,83.582,25.461,84.647,19.945z"/>
<path fill="#003307" d="M82.199,13.899c0,0,8.777,0.113,9.794,12.143c0,0,0.657,5.277,3.432,7.111c0,0-19.547,0.086-19.28-10.405
	C76.144,22.749,76.581,13.913,82.199,13.899z"/>
<path fill="#3E4D10" d="M71.557,18.399c0,0,8.777,0.113,9.794,12.143c0,0,0.657,5.277,3.432,7.111c0,0-19.547,0.086-19.28-10.405
	C65.503,27.249,65.939,18.413,71.557,18.399z"/>
<path fill="#2B5721" d="M71.273,23.379c0,0,0.77-8.744,12.842-8.857c0,0,5.312-0.26,7.348-2.89c0,0-1.377,19.499-11.818,18.447
	C79.645,30.08,70.866,28.983,71.273,23.379z"/>
<path fill="#003307" d="M56.297,19.917c0,0,3.842-7.893,15.159-3.686c0,0,5.054,1.654,7.896-0.074c0,0-8.251,17.72-17.628,13.008
	C61.722,29.165,53.915,25.005,56.297,19.917z"/>
<path fill="#3E4D10" d="M55.234,17.138c0,0,8.59,1.806,7.264,13.806c0,0-0.375,5.305,1.994,7.641c0,0-19.195-3.691-16.908-13.933
	C47.584,24.651,49.719,16.066,55.234,17.138z"/>
<path fill="#2B5721" d="M44.653,16.615c0,0,2.49-8.417,14.344-6.133c0,0,5.258,0.798,7.775-1.375c0,0-5.219,18.838-15.244,15.736
	C51.529,24.843,43.142,22.026,44.653,16.615z"/>
<path fill="#003307" d="M38.949,8.397c0,0,8.777,0.113,9.794,12.143c0,0,0.657,5.277,3.432,7.111c0,0-19.547,0.086-19.28-10.405
	C32.894,17.247,33.331,8.411,38.949,8.397z"/>
<path fill="#3E4D10" d="M29.307,13.897c0,0,8.777,0.113,9.794,12.143c0,0,0.657,5.277,3.432,7.111c0,0-19.547,0.086-19.28-10.405
	C23.253,22.747,23.689,13.911,29.307,13.897z"/>
<path fill="#2B5721" d="M24.632,12.551c0,0,2.745-8.338,14.524-5.695c0,0,5.231,0.958,7.814-1.137c0,0-5.789,18.67-15.715,15.265
	C31.255,20.984,22.958,17.914,24.632,12.551z"/>
<path fill="#003307" d="M12.588,21.744c0,0-1.677-8.616,9.894-12.062c0,0,5.033-1.718,6.263-4.808c0,0,4.066,19.12-6.259,20.995
	C22.485,25.869,13.745,27.242,12.588,21.744z"/>
<path fill="#3E4D10" d="M17.218,31.402c0,0-8.595,1.783-12.183-9.745c0,0-1.78-5.011-4.885-6.204c0,0,19.068-4.301,21.071,6.001
	C21.221,21.455,22.701,30.176,17.218,31.402z"/>
<path fill="#2B5721" d="M13.9,21.295c0,0-8.683-1.292-8.073-13.349c0,0,0.058-5.318-2.445-7.508c0,0,19.381,2.542,17.707,12.902
	C21.089,13.34,19.469,22.037,13.9,21.295z"/>
</svg>
