<?xml version="1.0" encoding="utf-8"?>
<!-- Generator: Adobe Illustrator 21.1.0, SVG Export Plug-In . SVG Version: 6.00 Build 0)  -->
<svg version="1.1" id="Layer_1" xmlns="http://www.w3.org/2000/svg" xmlns:xlink="http://www.w3.org/1999/xlink" x="0px" y="0px"
	 viewBox="0 0 1275.6 2126" style="enable-background:new 0 0 1275.6 2126;" xml:space="preserve">
<style type="text/css">
	.st0{fill:none;stroke:#FF0000;stroke-miterlimit:10;}
	.st1{clip-path:url(#SVGID_2_);}
	.st2{clip-path:url(#SVGID_4_);}
	.st3{fill:#672F15;}
	.st4{fill:#AB5534;}
	.st5{fill:#A14413;}
	.st6{fill:#7A401D;}
	.st7{fill:#94492A;}
	.st8{opacity:0.5;}
	.st9{fill:#5E0A0B;}
	.st10{fill:none;}
	.st11{clip-path:url(#SVGID_7_);}
	.st12{clip-path:url(#SVGID_12_);fill:#FFFFFF;stroke:#010101;stroke-miterlimit:10;}
	.st13{clip-path:url(#SVGID_14_);fill:url(#SVGID_15_);}
	.st14{clip-path:url(#SVGID_17_);fill:#6F2C14;}
	.st15{clip-path:url(#SVGID_19_);fill:#6F2C14;}
	.st16{clip-path:url(#SVGID_21_);fill:#80331E;}
	.st17{clip-path:url(#SVGID_23_);fill:#80331E;}
	.st18{clip-path:url(#SVGID_25_);fill:#6F2C14;}
	.st19{clip-path:url(#SVGID_27_);fill:#80331E;}
	.st20{clip-path:url(#SVGID_29_);fill:#6F2C14;}
	.st21{clip-path:url(#SVGID_31_);fill:#6F2C14;}
	.st22{clip-path:url(#SVGID_33_);fill:#80331E;}
	.st23{clip-path:url(#SVGID_35_);fill:#6F2C14;}
	.st24{clip-path:url(#SVGID_37_);fill:#80331E;}
	.st25{clip-path:url(#SVGID_39_);fill:#6F2C14;}
	.st26{clip-path:url(#SVGID_41_);fill:#6F2C14;}
	.st27{clip-path:url(#SVGID_43_);fill:#59230D;}
	.st28{clip-path:url(#SVGID_45_);fill:#6F2C14;}
	.st29{clip-path:url(#SVGID_47_);fill:#80331E;}
	.st30{clip-path:url(#SVGID_49_);fill:#6F2C14;}
	.st31{clip-path:url(#SVGID_51_);fill:#6F2C14;}
	.st32{clip-path:url(#SVGID_53_);fill:#80331E;}
	.st33{clip-path:url(#SVGID_55_);fill:#6F2C14;}
	.st34{clip-path:url(#SVGID_57_);fill:#FFFFFF;stroke:#010101;stroke-miterlimit:10;}
	.st35{clip-path:url(#SVGID_59_);fill:url(#SVGID_60_);}
	.st36{clip-path:url(#SVGID_62_);fill:#6F2C14;}
	.st37{clip-path:url(#SVGID_64_);fill:#6F2C14;}
	.st38{clip-path:url(#SVGID_66_);fill:#80331E;}
	.st39{clip-path:url(#SVGID_68_);fill:#80331E;}
	.st40{clip-path:url(#SVGID_70_);fill:#6F2C14;}
	.st41{clip-path:url(#SVGID_72_);fill:#80331E;}
	.st42{clip-path:url(#SVGID_74_);fill:#6F2C14;}
	.st43{clip-path:url(#SVGID_76_);fill:#6F2C14;}
	.st44{clip-path:url(#SVGID_78_);fill:#80331E;}
	.st45{clip-path:url(#SVGID_80_);fill:#6F2C14;}
	.st46{clip-path:url(#SVGID_82_);fill:#80331E;}
	.st47{clip-path:url(#SVGID_84_);fill:#6F2C14;}
	.st48{clip-path:url(#SVGID_86_);fill:#6F2C14;}
	.st49{clip-path:url(#SVGID_88_);fill:#59230D;}
	.st50{clip-path:url(#SVGID_90_);fill:#6F2C14;}
	.st51{clip-path:url(#SVGID_92_);fill:#80331E;}
	.st52{clip-path:url(#SVGID_94_);fill:#6F2C14;}
	.st53{clip-path:url(#SVGID_96_);fill:#6F2C14;}
	.st54{clip-path:url(#SVGID_98_);fill:#80331E;}
	.st55{clip-path:url(#SVGID_100_);fill:#6F2C14;}
</style>
<g>
	
		<image style="overflow:visible;enable-background:new    ;" width="1215" height="1207" xlink:href="8BB30989.jpg"  transform="matrix(1 0 0 1 13 981)">
	</image>
</g>
<g>
	
		<image style="overflow:visible;enable-background:new    ;" width="1215" height="1207" xlink:href="8BB30988.jpg"  transform="matrix(1 0 0 1 46 -61)">
	</image>
</g>
<rect x="-688.3" y="206.2" class="st0" width="7.5" height="7.5"/>
<g>
	<defs>
		<rect id="SVGID_1_" x="-0.3" y="0" width="1275.9" height="2126"/>
	</defs>
	<clipPath id="SVGID_2_">
		<use xlink:href="#SVGID_1_"  style="overflow:visible;"/>
	</clipPath>
	<g class="st1">
		<g>
			<defs>
				<rect id="SVGID_3_" x="144.2" y="0" width="987.3" height="1033.8"/>
			</defs>
			<clipPath id="SVGID_4_">
				<use xlink:href="#SVGID_3_"  style="overflow:visible;"/>
			</clipPath>
			<g class="st2">
				<g>
					<g>
						<g>
							<g>
								<polygon class="st3" points="48.1,1230.8 1258.5,1062.3 1258.5,1033.8 48.1,1188.6 								"/>
								<path class="st4" d="M627.8,886.2C467.4,929.3,160,958.4,160,958.4c124-66.8,467.5-74.4,467.5-74.4L627.8,886.2z
									 M1250.9,883.9l-12.4-246.3l-80-34.6L123.1,828.3l-47.5,23.6l-27.5,13.6v260l485.8-23.6L48.1,1149v39.6l1210.4-154.8
									L1250.9,883.9z M1159.5,945.9c-163.9,74.3-443.8,62-443.8,62L1159.5,945.9z M1223.5,698.3c-80,17.3-743.6,136.2-743.6,136.2
									C633.8,765.1,1223.5,698.3,1223.5,698.3z"/>
								<polygon class="st5" points="48.1,1149 533.9,1101.9 48.1,1125.4 								"/>
								<path class="st6" d="M715.7,1007.9c0,0,279.9,12.4,443.8-62L715.7,1007.9z"/>
								<path class="st6" d="M160,958.4c0,0,307.4-28.9,467.8-72.2l-0.4-2.3C627.5,883.9,284,891.4,160,958.4z"/>
								<polygon class="st3" points="48.1,839.5 75.6,851.9 123.1,828.3 48.1,817.2 								"/>
								<path class="st7" d="M48.1,817.2l75,11.2L1158.5,603l50-16l8.9-74.3l-791.5,50.1l797.6-100.3l15-124.5h-66L48.1,456.9v31
									L236,475.4L48.1,512.6v232.2l349.8-21.7L48.1,766.4V817.2z M729.7,445.7c0,0-364.1,61-473.8,48.3
									C256,494,499.9,440.8,729.7,445.7z"/>
								<path class="st5" d="M479.9,834.5c0,0,663.6-118.9,743.6-136.2C1223.5,698.3,633.8,765.1,479.9,834.5z"/>
								<polygon class="st6" points="48.1,766.4 397.9,723.1 48.1,744.8 								"/>
								<polygon class="st6" points="425.9,562.8 1217.5,512.6 1223.5,462.5 								"/>
								<polygon class="st5" points="48.1,512.6 236,475.4 48.1,487.9 								"/>
								<path class="st5" d="M256,494c109.7,12.7,473.8-48.3,473.8-48.3C499.9,440.8,256,494,256,494z"/>
								<path class="st4" d="M48.1,456.9L1172.5,338l51-29.7l-257.9,1.3l242.9-27.2l33-48.3L99.1,271.2l-11,17.1l-24.9,38.6h250.9
									L99.2,361.4l30,28.7l-21.9,18.1L48.1,456.9z M851.7,326.8l-523.8,40.7C485.8,321.5,851.7,326.8,851.7,326.8z"/>
								<polygon class="st3" points="63.1,364.1 107.1,408.2 129.1,390 99.1,361.4 63.1,326.8 								"/>
								<path class="st5" d="M327.9,367.5l523.8-40.7C851.7,326.8,485.8,321.5,327.9,367.5z"/>
								<polygon class="st5" points="99.1,361.4 313.9,326.8 63.1,326.8 								"/>
								<polygon class="st5" points="965.6,309.6 1223.5,308.3 1208.5,282.3 								"/>
								<polygon class="st3" points="88,288.2 99.1,271.2 63.1,204.3 63.1,240.2 								"/>
								<path class="st7" d="M1253.4,24.7l1.4-24.7h-105.4l107.9-44.4l1.1-18.7l-241.9,26l-938.4-26l-4.9,87.9l510.6,21.1H72
									l-4.9,87.9H223L65.3,165.8l-2.2,38.5l36,66.8L1241.5,234L1253.4,24.7z M851.7,204.3c0,0-435.8,45.8-615.7,0H851.7z
									 M915.6,133.7c0,0-429.7-22.3-609.7-34.6C306,99.1,681.7,81.8,915.6,133.7z"/>
								<path class="st5" d="M236,204.3c179.9,45.8,615.7,0,615.7,0H236z"/>
								<polygon class="st6" points="65.3,165.8 223,133.7 67.1,133.7 								"/>
								<path class="st5" d="M306,99.1c179.9,12.4,609.7,34.6,609.7,34.6C681.7,81.8,306,99.1,306,99.1z"/>
								<polygon class="st5" points="72,45.8 583.8,45.8 73.2,24.7 								"/>
								<polygon class="st6" points="1149.5,0 1254.9,0 1257.4,-44.4 								"/>
							</g>
						</g>
					</g>
				</g>
				<g class="st8">
					<g>
						<g>
							<g>
								<polygon class="st9" points="48.1,1230.8 1258.5,1062.3 1258.5,1033.8 48.1,1188.6 								"/>
								<path class="st9" d="M627.8,886.2C467.4,929.3,160,958.4,160,958.4c124-66.8,467.5-74.4,467.5-74.4L627.8,886.2z
									 M1250.9,883.9l-12.4-246.3l-80-34.6L123.1,828.3l-47.5,23.6l-27.5,13.6v260l485.8-23.6L48.1,1149v39.6l1210.4-154.8
									L1250.9,883.9z M1159.5,945.9c-163.9,74.3-443.8,62-443.8,62L1159.5,945.9z M1223.5,698.3c-80,17.3-743.6,136.2-743.6,136.2
									C633.8,765.1,1223.5,698.3,1223.5,698.3z"/>
								<polygon class="st9" points="48.1,1149 533.9,1101.9 48.1,1125.4 								"/>
								<path class="st9" d="M715.7,1007.9c0,0,279.9,12.4,443.8-62L715.7,1007.9z"/>
								<path class="st9" d="M160,958.4c0,0,307.4-28.9,467.8-72.2l-0.4-2.3C627.5,883.9,284,891.4,160,958.4z"/>
								<polygon class="st9" points="48.1,839.5 75.6,851.9 123.1,828.3 48.1,817.2 								"/>
								<path class="st9" d="M48.1,817.2l75,11.2L1158.5,603l50-16l8.9-74.3l-791.5,50.1l797.6-100.3l15-124.5h-66L48.1,456.9v31
									L236,475.4L48.1,512.6v232.2l349.8-21.7L48.1,766.4V817.2z M729.7,445.7c0,0-364.1,61-473.8,48.3
									C256,494,499.9,440.8,729.7,445.7z"/>
								<path class="st9" d="M479.9,834.5c0,0,663.6-118.9,743.6-136.2C1223.5,698.3,633.8,765.1,479.9,834.5z"/>
								<polygon class="st9" points="48.1,766.4 397.9,723.1 48.1,744.8 								"/>
								<polygon class="st9" points="425.9,562.8 1217.5,512.6 1223.5,462.5 								"/>
								<polygon class="st9" points="48.1,512.6 236,475.4 48.1,487.9 								"/>
								<path class="st9" d="M256,494c109.7,12.7,473.8-48.3,473.8-48.3C499.9,440.8,256,494,256,494z"/>
								<path class="st9" d="M48.1,456.9L1172.5,338l51-29.7l-257.9,1.3l242.9-27.2l33-48.3L99.1,271.2l-11,17.1l-24.9,38.6h250.9
									L99.2,361.4l30,28.7l-21.9,18.1L48.1,456.9z M851.7,326.8l-523.8,40.7C485.8,321.5,851.7,326.8,851.7,326.8z"/>
								<polygon class="st9" points="63.1,364.1 107.1,408.2 129.1,390 99.1,361.4 63.1,326.8 								"/>
								<path class="st9" d="M327.9,367.5l523.8-40.7C851.7,326.8,485.8,321.5,327.9,367.5z"/>
								<polygon class="st9" points="99.1,361.4 313.9,326.8 63.1,326.8 								"/>
								<polygon class="st9" points="965.6,309.6 1223.5,308.3 1208.5,282.3 								"/>
								<polygon class="st9" points="88,288.2 99.1,271.2 63.1,204.3 63.1,240.2 								"/>
								<path class="st9" d="M1253.4,24.7l1.4-24.7h-105.4l107.9-44.4l1.1-18.7l-241.9,26l-938.4-26l-4.9,87.9l510.6,21.1H72
									l-4.9,87.9H223L65.3,165.8l-2.2,38.5l36,66.8L1241.5,234L1253.4,24.7z M851.7,204.3c0,0-435.8,45.8-615.7,0H851.7z
									 M915.6,133.7c0,0-429.7-22.3-609.7-34.6C306,99.1,681.7,81.8,915.6,133.7z"/>
								<path class="st9" d="M236,204.3c179.9,45.8,615.7,0,615.7,0H236z"/>
								<polygon class="st9" points="65.3,165.8 223,133.7 67.1,133.7 								"/>
								<path class="st9" d="M306,99.1c179.9,12.4,609.7,34.6,609.7,34.6C681.7,81.8,306,99.1,306,99.1z"/>
								<polygon class="st9" points="72,45.8 583.8,45.8 73.2,24.7 								"/>
								<polygon class="st9" points="1149.5,0 1254.9,0 1257.4,-44.4 								"/>
							</g>
						</g>
					</g>
				</g>
			</g>
		</g>
		<rect x="-0.3" y="0" class="st10" width="1275.9" height="2126"/>
		<g>
			<defs>
				<rect id="SVGID_6_" x="142.3" y="1033.8" width="987.3" height="1093.4"/>
			</defs>
			<clipPath id="SVGID_7_">
				<use xlink:href="#SVGID_6_"  style="overflow:visible;"/>
			</clipPath>
			<g class="st11">
				<g>
					<g>
						<g>
							<g>
								<polygon class="st3" points="1225.6,825.4 15.2,1003.6 15.2,1033.8 1225.6,870 								"/>
								<path class="st4" d="M22.8,1192.3l12.4,260.5l80,36.6L1150.6,1251l47.5-24.9l27.5-14.3v-275l-485.7,25l485.8-49.8V870
									L15.2,1033.8L22.8,1192.3z M645.9,1189.9c160.4-45.7,467.8-76.4,467.8-76.4c-124,70.7-467.5,78.7-467.5,78.7L645.9,1189.9z
									 M114.2,1126.8c163.9-78.6,443.8-65.5,443.8-65.5L114.2,1126.8z M50.2,1388.6c80-18.3,743.6-144.1,743.6-144.1
									C639.9,1317.9,50.2,1388.6,50.2,1388.6z"/>
								<polygon class="st5" points="1225.6,911.9 739.9,961.8 1225.6,936.8 								"/>
								<path class="st6" d="M558,1061.2c0,0-279.9-13.1-443.8,65.5L558,1061.2z"/>
								<path class="st6" d="M1113.7,1113.6c0,0-307.4,30.6-467.8,76.4l0.4,2.4C646.2,1192.3,989.8,1184.3,1113.7,1113.6z"/>
								<polygon class="st3" points="1225.6,1239.3 1198.2,1226.2 1150.7,1251.1 1225.6,1262.8 								"/>
								<path class="st7" d="M1225.6,1262.8l-75-11.8L115.2,1489.5l-50,17l-8.9,78.6l791.5-53L50.2,1638.1l-15,131.7h66L1225.6,1644
									v-32.8l-187.9,13.1l187.9-39.3v-245.6l-349.8,23l349.8-45.9L1225.6,1262.8L1225.6,1262.8z M544,1655.8
									c0,0,364.1-64.5,473.8-51.1C1017.8,1604.7,773.9,1661,544,1655.8z"/>
								<path class="st5" d="M793.8,1244.5c0,0-663.6,125.7-743.6,144.1C50.2,1388.6,639.9,1317.9,793.8,1244.5z"/>
								<polygon class="st6" points="1225.6,1316.6 875.8,1362.4 1225.6,1339.5 								"/>
								<polygon class="st6" points="847.8,1532 56.3,1585 50.2,1638 								"/>
								<polygon class="st5" points="1225.6,1585 1037.7,1624.4 1225.6,1611.2 								"/>
								<path class="st5" d="M1017.8,1604.7c-109.7-13.4-473.8,51.1-473.8,51.1C773.9,1661,1017.8,1604.7,1017.8,1604.7z"/>
								<path class="st4" d="M1225.6,1643.9L101.2,1769.7l-51,31.4l257.9-1.4l-242.9,28.8l-33,51.1l1142.4-39.3l11-18.1l24.9-40.9
									H959.8l214.9-36.4l-30-30.4l21.9-19.1L1225.6,1643.9z M422,1781.5l523.8-43C788,1787.2,422,1781.5,422,1781.5z"/>
								<polygon class="st3" points="1210.6,1742.1 1166.6,1695.5 1144.7,1714.7 1174.6,1745 1210.6,1781.5 								"/>
								<path class="st5" d="M945.9,1738.5l-523.9,43C422,1781.5,788,1787.2,945.9,1738.5z"/>
								<polygon class="st5" points="1174.6,1745 959.8,1781.5 1210.6,1781.5 								"/>
								<polygon class="st5" points="308.1,1799.7 50.2,1801.1 65.2,1828.6 								"/>
								<polygon class="st3" points="1185.7,1822.4 1174.6,1840.3 1210.6,1911.1 1210.6,1873.1 								"/>
								<path class="st7" d="M20.3,2101l-1.4,26.2h105.4l-107.9,47l-1.1,19.8l241.9-27.5l938.5,27.5l4.9-93L690,2078.7h511.8l4.9-93
									h-155.9l157.7-33.9l2.2-40.7l-36-70.7L32.2,1879.7L20.3,2101z M422,1911.1c0,0,435.8-48.5,615.7,0H422z M358.1,1985.8
									c0,0,429.7,23.6,609.7,36.6C967.7,2022.4,592,2040.7,358.1,1985.8z"/>
								<path class="st5" d="M1037.7,1911.1c-179.9-48.5-615.7,0-615.7,0H1037.7z"/>
								<polygon class="st6" points="1208.5,1951.8 1050.7,1985.8 1206.7,1985.8 								"/>
								<path class="st5" d="M967.7,2022.4c-179.9-13.1-609.7-36.6-609.7-36.6C592,2040.7,967.7,2022.4,967.7,2022.4z"/>
								<polygon class="st5" points="1201.7,2078.7 689.9,2078.7 1200.5,2101 								"/>
								<polygon class="st6" points="124.2,2127.2 18.8,2127.2 16.3,2174.2 								"/>
							</g>
						</g>
					</g>
				</g>
				<g class="st8">
					<g>
						<g>
							<g>
								<polygon class="st9" points="1225.6,825.4 15.2,1003.6 15.2,1033.8 1225.6,870 								"/>
								<path class="st9" d="M22.8,1192.3l12.4,260.5l80,36.6L1150.6,1251l47.5-24.9l27.5-14.3v-275l-485.7,25l485.8-49.8V870
									L15.2,1033.8L22.8,1192.3z M645.9,1189.9c160.4-45.7,467.8-76.4,467.8-76.4c-124,70.7-467.5,78.7-467.5,78.7L645.9,1189.9z
									 M114.2,1126.8c163.9-78.6,443.8-65.5,443.8-65.5L114.2,1126.8z M50.2,1388.6c80-18.3,743.6-144.1,743.6-144.1
									C639.9,1317.9,50.2,1388.6,50.2,1388.6z"/>
								<polygon class="st9" points="1225.6,911.9 739.9,961.8 1225.6,936.8 								"/>
								<path class="st9" d="M558,1061.2c0,0-279.9-13.1-443.8,65.5L558,1061.2z"/>
								<path class="st9" d="M1113.7,1113.6c0,0-307.4,30.6-467.8,76.4l0.4,2.4C646.2,1192.3,989.8,1184.3,1113.7,1113.6z"/>
								<polygon class="st9" points="1225.6,1239.3 1198.2,1226.2 1150.7,1251.1 1225.6,1262.8 								"/>
								<path class="st9" d="M1225.6,1262.8l-75-11.8L115.2,1489.5l-50,17l-8.9,78.6l791.5-53L50.2,1638.1l-15,131.7h66L1225.6,1644
									v-32.8l-187.9,13.1l187.9-39.3v-245.6l-349.8,23l349.8-45.9L1225.6,1262.8L1225.6,1262.8z M544,1655.8
									c0,0,364.1-64.5,473.8-51.1C1017.8,1604.7,773.9,1661,544,1655.8z"/>
								<path class="st9" d="M793.8,1244.5c0,0-663.6,125.7-743.6,144.1C50.2,1388.6,639.9,1317.9,793.8,1244.5z"/>
								<polygon class="st9" points="1225.6,1316.6 875.8,1362.4 1225.6,1339.5 								"/>
								<polygon class="st9" points="847.8,1532 56.3,1585 50.2,1638 								"/>
								<polygon class="st9" points="1225.6,1585 1037.7,1624.4 1225.6,1611.2 								"/>
								<path class="st9" d="M1017.8,1604.7c-109.7-13.4-473.8,51.1-473.8,51.1C773.9,1661,1017.8,1604.7,1017.8,1604.7z"/>
								<path class="st9" d="M1225.6,1643.9L101.2,1769.7l-51,31.4l257.9-1.4l-242.9,28.8l-33,51.1l1142.4-39.3l11-18.1l24.9-40.9
									H959.8l214.9-36.4l-30-30.4l21.9-19.1L1225.6,1643.9z M422,1781.5l523.8-43C788,1787.2,422,1781.5,422,1781.5z"/>
								<polygon class="st9" points="1210.6,1742.1 1166.6,1695.5 1144.7,1714.7 1174.6,1745 1210.6,1781.5 								"/>
								<path class="st9" d="M945.9,1738.5l-523.9,43C422,1781.5,788,1787.2,945.9,1738.5z"/>
								<polygon class="st9" points="1174.6,1745 959.8,1781.5 1210.6,1781.5 								"/>
								<polygon class="st9" points="308.1,1799.7 50.2,1801.1 65.2,1828.6 								"/>
								<polygon class="st9" points="1185.7,1822.4 1174.6,1840.3 1210.6,1911.1 1210.6,1873.1 								"/>
								<path class="st9" d="M20.3,2101l-1.4,26.2h105.4l-107.9,47l-1.1,19.8l241.9-27.5l938.5,27.5l4.9-93L690,2078.7h511.8l4.9-93
									h-155.9l157.7-33.9l2.2-40.7l-36-70.7L32.2,1879.7L20.3,2101z M422,1911.1c0,0,435.8-48.5,615.7,0H422z M358.1,1985.8
									c0,0,429.7,23.6,609.7,36.6C967.7,2022.4,592,2040.7,358.1,1985.8z"/>
								<path class="st9" d="M1037.7,1911.1c-179.9-48.5-615.7,0-615.7,0H1037.7z"/>
								<polygon class="st9" points="1208.5,1951.8 1050.7,1985.8 1206.7,1985.8 								"/>
								<path class="st9" d="M967.7,2022.4c-179.9-13.1-609.7-36.6-609.7-36.6C592,2040.7,967.7,2022.4,967.7,2022.4z"/>
								<polygon class="st9" points="1201.7,2078.7 689.9,2078.7 1200.5,2101 								"/>
								<polygon class="st9" points="124.2,2127.2 18.8,2127.2 16.3,2174.2 								"/>
							</g>
						</g>
					</g>
				</g>
			</g>
		</g>
		<g>
			<defs>
				<rect id="SVGID_9_" x="-0.3" y="0" width="1275.9" height="2126"/>
			</defs>
			<clipPath id="SVGID_10_">
				<use xlink:href="#SVGID_9_"  style="overflow:visible;"/>
			</clipPath>
		</g>
		<g>
			<defs>
				<rect id="SVGID_11_" x="-0.3" y="0" width="1275.9" height="2126"/>
			</defs>
			<clipPath id="SVGID_12_">
				<use xlink:href="#SVGID_11_"  style="overflow:visible;"/>
			</clipPath>
			<path class="st12" d="M147.5,2135.9"/>
		</g>
		<g>
			<defs>
				<rect id="SVGID_13_" x="-0.3" y="0" width="1275.9" height="2126"/>
			</defs>
			<clipPath id="SVGID_14_">
				<use xlink:href="#SVGID_13_"  style="overflow:visible;"/>
			</clipPath>
			
				<linearGradient id="SVGID_15_" gradientUnits="userSpaceOnUse" x1="325.9135" y1="615.7264" x2="325.9135" y2="225.8683" gradientTransform="matrix(-3.820000e-02 0.6003 -0.997 3.060000e-02 458.9101 858.6188)">
				<stop  offset="0" style="stop-color:#7C3624"/>
				<stop  offset="1.280000e-02" style="stop-color:#763421"/>
				<stop  offset="5.330000e-02" style="stop-color:#6B2F19"/>
				<stop  offset="0.1103" style="stop-color:#632C14"/>
				<stop  offset="0.2688" style="stop-color:#612C14"/>
				<stop  offset="0.4102" style="stop-color:#703117"/>
				<stop  offset="0.5323" style="stop-color:#783418"/>
				<stop  offset="0.7011" style="stop-color:#6C3016"/>
				<stop  offset="0.8011" style="stop-color:#612C14"/>
				<stop  offset="0.9183" style="stop-color:#632C14"/>
				<stop  offset="0.9605" style="stop-color:#6B2F19"/>
				<stop  offset="0.9905" style="stop-color:#763421"/>
				<stop  offset="1" style="stop-color:#7C3624"/>
			</linearGradient>
			<polygon class="st13" points="-82.1,2138.2 -82.1,-4.1 147.5,-4.1 148.4,2138 			"/>
		</g>
		<g>
			<defs>
				<rect id="SVGID_16_" x="-0.3" y="0" width="1275.9" height="2126"/>
			</defs>
			<clipPath id="SVGID_17_">
				<use xlink:href="#SVGID_16_"  style="overflow:visible;"/>
			</clipPath>
			<path class="st14" d="M135.4-4.3c0,0-5.9,37.8-0.6,62.6c0,0,4.1,22.5-3,56.5c0,0-13.6,108.5-2.7,302.5c0,0,1.9,119.6-7.1,171.6
				c0,0,3.6-121.9-3.4-171.5c0,0-24.3-78.7-1.9-306.9c0,0,11.4-73.7-12.3-114.7C104.4-4.3,135.4-4.3,135.4-4.3z"/>
		</g>
		<g>
			<defs>
				<rect id="SVGID_18_" x="-0.3" y="0" width="1275.9" height="2126"/>
			</defs>
			<clipPath id="SVGID_19_">
				<use xlink:href="#SVGID_18_"  style="overflow:visible;"/>
			</clipPath>
			<path class="st15" d="M98.5-4.1c0,0,18.3,13.9,10.6,48.6c0,0-8.4,40.7-4.3,64.8c0,0,6.3,46.6-1.4,81.3c0,0-11.4,102.4,11.6,230.1
				c0,0,4.7,30-0.5,55.7c0,0-8.1,81.4,7.4,145.9c0,0,12,42-1,111.4c0,0-8,69.3-2.8,248.3c0,0,16.6,359.8,29.3,244.6l-0.9,102.2
				c0,0-43.7-93.8-39.9-515.3c0,0,1.1-65.1,10-117.5c0,0,5.9-27.3-0.6-50.5c0,0-25.9-57.6-17-164.5c0,0,2.4-67.7-3.1-135.4
				c0,0-13-72.1-4.7-164c0,0,2.9-52.7-4.2-85.7c0,0-12.4-41.4-8.7-100L98.5-4.1L98.5-4.1z"/>
		</g>
		<g>
			<defs>
				<rect id="SVGID_20_" x="-0.3" y="0" width="1275.9" height="2126"/>
			</defs>
			<clipPath id="SVGID_21_">
				<use xlink:href="#SVGID_20_"  style="overflow:visible;"/>
			</clipPath>
			<path class="st16" d="M144.3,800.2c0,0-27.1,271.2-3.8,437.9L144.3,800.2z"/>
		</g>
		<g>
			<defs>
				<rect id="SVGID_22_" x="-0.3" y="0" width="1275.9" height="2126"/>
			</defs>
			<clipPath id="SVGID_23_">
				<use xlink:href="#SVGID_22_"  style="overflow:visible;"/>
			</clipPath>
			<path class="st17" d="M146.8,713.2c-12.6,99.5-18.7,54.9-18.7,54.9c6.8-57.3,3.3-130.9,3.3-130.9c-3.9-64.7,5-183.6,5-183.6
				s1.7-33.1-4.7-96.3c0,0-9.4-126.3,7.7-249.9c0,0,6.6-36.4,1-111.5l7-0.1L146.8,713.2z"/>
		</g>
		<g>
			<defs>
				<rect id="SVGID_24_" x="-0.3" y="0" width="1275.9" height="2126"/>
			</defs>
			<clipPath id="SVGID_25_">
				<use xlink:href="#SVGID_24_"  style="overflow:visible;"/>
			</clipPath>
			<path class="st18" d="M130.2,803.3c0,0,2.8,10.5-0.3,38.4c0,0-5.5,50.5-4,68.5c0,0-6.6-35.3-2.1-97.8
				C123.9,812.4,126.8,792.8,130.2,803.3z"/>
		</g>
		<g>
			<defs>
				<rect id="SVGID_26_" x="-0.3" y="0" width="1275.9" height="2126"/>
			</defs>
			<clipPath id="SVGID_27_">
				<use xlink:href="#SVGID_26_"  style="overflow:visible;"/>
			</clipPath>
			<path class="st19" d="M102.6,623.1c0,0,1,22.5,7.2,22.4c0,0,5.2-0.8,6,24.8c0,0,0.7,27.1-7.2,43c0,0-19.8,14.7-8.6,203.2
				c0,0,5.4,64.3,3,107.2c0,0-1-62.1-7.3-115c0,0-12.4-79.8,3.8-200.9C99.6,707.7,105.6,673.9,102.6,623.1z"/>
		</g>
		<g>
			<defs>
				<rect id="SVGID_28_" x="-0.3" y="0" width="1275.9" height="2126"/>
			</defs>
			<clipPath id="SVGID_29_">
				<use xlink:href="#SVGID_28_"  style="overflow:visible;"/>
			</clipPath>
			<path class="st20" d="M105.5,740.9c0,0-8.8,28.9-4.7,134.9C100.9,875.9,102.4,768.6,105.5,740.9z"/>
		</g>
		<g>
			<defs>
				<rect id="SVGID_30_" x="-0.3" y="0" width="1275.9" height="2126"/>
			</defs>
			<clipPath id="SVGID_31_">
				<use xlink:href="#SVGID_30_"  style="overflow:visible;"/>
			</clipPath>
			<path class="st21" d="M76.9,2163.3c0,0,25.9-414,19.4-657.7c0,0-10.2-144.3-9-233.1c0,0,15.3-209.3,0.8-382.2
				c0,0,18.6,67.7,8.9,242.2c0,0-6.4,182.1,0.8,278.4c0,0,17.7,210.5,8.7,332.4c0,0-12.2,177.7-3,341.6c0,0,10.6,52.4,1.2,78.1
				L76.9,2163.3z"/>
		</g>
		<g>
			<defs>
				<rect id="SVGID_32_" x="-0.3" y="0" width="1275.9" height="2126"/>
			</defs>
			<clipPath id="SVGID_33_">
				<use xlink:href="#SVGID_32_"  style="overflow:visible;"/>
			</clipPath>
			<path class="st22" d="M128,2134.9c0,0,14.8-131.1,11-268c0,0-4.6-86.9,8.5-175.8l-0.5-117.7c0,0-29.7,110.2-17,302.6
				C130,1876,139.1,2000.8,128,2134.9z"/>
		</g>
		<g>
			<defs>
				<rect id="SVGID_34_" x="-0.3" y="0" width="1275.9" height="2126"/>
			</defs>
			<clipPath id="SVGID_35_">
				<use xlink:href="#SVGID_34_"  style="overflow:visible;"/>
			</clipPath>
			<path class="st23" d="M147,1388c0.2-22.6-9.2-51.8-9.2-51.8c-15.6-59.6-31-248.7-31-248.7s8,166.6,21.4,252.2
				c0,0,16.3,70.9,14.9,130.7c0,0-2,92.6-15.2,137.9c0,0-3.5,15-2.7,76.8c0,0,4.4-80.4,21.9-117.8L147,1388z"/>
		</g>
		<g>
			<defs>
				<rect id="SVGID_36_" x="-0.3" y="0" width="1275.9" height="2126"/>
			</defs>
			<clipPath id="SVGID_37_">
				<use xlink:href="#SVGID_36_"  style="overflow:visible;"/>
			</clipPath>
			<path class="st24" d="M111,1216.5c0,0,2.6,98.5,8.6,129.3c0,0,5.7,24.8,2.7,48.9c0,0-12,91.9,1.2,211.4c0,0-14.6-105.1-9-201.5
				c0,0,1.8-26.4-1.6-66.2C112.9,1338.4,109.5,1281.2,111,1216.5z"/>
		</g>
		<g>
			<defs>
				<rect id="SVGID_38_" x="-0.3" y="0" width="1275.9" height="2126"/>
			</defs>
			<clipPath id="SVGID_39_">
				<use xlink:href="#SVGID_38_"  style="overflow:visible;"/>
			</clipPath>
			<path class="st25" d="M137.2,1448c0,0-8.6-76.6-12.1-22.4l-1.6,22.6c0,0,3.5-29.6,6-20.2C129.5,1427.9,138.3,1477.8,137.2,1448z"
				/>
		</g>
		<g>
			<defs>
				<rect id="SVGID_40_" x="-0.3" y="0" width="1275.9" height="2126"/>
			</defs>
			<clipPath id="SVGID_41_">
				<use xlink:href="#SVGID_40_"  style="overflow:visible;"/>
			</clipPath>
			<path class="st26" d="M121.5,1461.2c0,0-2.7,67.7,1.6,107.2c0,0,4.5,36.4,10.1-9.2C133.2,1559.2,122.4,1569,121.5,1461.2z"/>
		</g>
		<g>
			<defs>
				<rect id="SVGID_42_" x="-0.3" y="0" width="1275.9" height="2126"/>
			</defs>
			<clipPath id="SVGID_43_">
				<use xlink:href="#SVGID_42_"  style="overflow:visible;"/>
			</clipPath>
			<path class="st27" d="M131.7,1518.2c-2.7,0.9-5.4-10-6.1-24.3s0.9-26.7,3.6-27.6s5.4,10,6.1,24.3
				C135.9,1504.9,134.3,1517.3,131.7,1518.2z"/>
		</g>
		<g>
			<defs>
				<rect id="SVGID_44_" x="-0.3" y="0" width="1275.9" height="2126"/>
			</defs>
			<clipPath id="SVGID_45_">
				<use xlink:href="#SVGID_44_"  style="overflow:visible;"/>
			</clipPath>
			<path class="st28" d="M66.4,2163.4c0,0,2.1-90.8,15.3-246.8c0,0,23.7-286.9,6-432.3c0,0-11.5-139.9-1.7-222.3
				c0,0,5.5-154.7-3.6-385.9c0,0,10.5-71.2,7.2-146.8c0,0-6.9-122.9,4.5-217.9c0,0,8-84.7-5.1-177.1c0,0-21.7-153.8-14.5-338.5H40
				c0,0,2.2,65.9,13.4,106.4c0,0,23.2,101.3,13.4,273c0,0-3.8,169.3,5.4,226.8c0,0,12.8,121.7-2.3,264.1l3.5,24.4
				c0,0,10,124.4-6.3,291.6l4.4,24.4c0,0-9.8,166.4,0.7,288.1c0,0,28.7,423-29.5,669.1L66.4,2163.4z"/>
		</g>
		<g>
			<defs>
				<rect id="SVGID_46_" x="-0.3" y="0" width="1275.9" height="2126"/>
			</defs>
			<clipPath id="SVGID_47_">
				<use xlink:href="#SVGID_46_"  style="overflow:visible;"/>
			</clipPath>
			<path class="st29" d="M62,1184.4l-3,75.6l0.6,69.2c0,0,4.1,85.3-2.4,140.7c0,0-27.8,365-19.5,693.8l-19,0.2
				c0,0,11.2-276.1,12.8-452.2L49.3,1268l-4.8-23.7l4.7-74.5c0,0,17-383.9,1.4-618.4c0,0-12.8-297.8-7.3-392.7
				c0,0,4.9-40.7-19.5-162.9h10.6c0,0,7.4,97.5,13,130.1c0,0,19.8,111.4,10.1,263.3c0,0-5.2,62.7,2.1,130.4c0,0,22.8,196,6.2,324.9
				c0,0-4.6,23.8,0.3,99.4L62,1184.4z"/>
		</g>
		<g>
			<defs>
				<rect id="SVGID_48_" x="-0.3" y="0" width="1275.9" height="2126"/>
			</defs>
			<clipPath id="SVGID_49_">
				<use xlink:href="#SVGID_48_"  style="overflow:visible;"/>
			</clipPath>
			<path class="st30" d="M20.7-4.1L15.6,35l4.5,10.5c0,0,19.1,75,11.4,181.9c0,0-6.2,51.2,0.3,126.4c0,0,39,457,6.7,627.4
				c0,0-14.4,91.9-1.1,261.8l1.5,137.9c0,0-16.2,310.6-17.2,369.3c0,0,0.5,311.2-10.3,413.8l-11.7,0.1c0,0,11.9-155,11.7-415.3
				l5.2-33.2l-1.7-19.6c0,0,24.4-313.3,4.1-603.4L28.4,988c0,0,17.4-483.9,0.1-560.5c0,0-12.2-106.5-3.9-191.1
				c0,0,13.4-113-16.2-193.9l-3-46.8L20.7-4.1z"/>
		</g>
		<g>
			<defs>
				<rect id="SVGID_50_" x="-0.3" y="0" width="1275.9" height="2126"/>
			</defs>
			<clipPath id="SVGID_51_">
				<use xlink:href="#SVGID_50_"  style="overflow:visible;"/>
			</clipPath>
			<path class="st31" d="M40.3,1226.4c0,0,12.4-149.9,9.6-271c0,0-3.5,36.8-7.8,62.8C42.1,1018.2,30.6,1105.3,40.3,1226.4z"/>
		</g>
		<g>
			<defs>
				<rect id="SVGID_52_" x="-0.3" y="0" width="1275.9" height="2126"/>
			</defs>
			<clipPath id="SVGID_53_">
				<use xlink:href="#SVGID_52_"  style="overflow:visible;"/>
			</clipPath>
			<path class="st32" d="M65.2,1494.7c0,0,24.1,394.7-22.5,627.7l0.5-59.8c0,0,35.2-221.6,17.2-512.5L65.2,1494.7z"/>
		</g>
		<g>
			<defs>
				<rect id="SVGID_54_" x="-0.3" y="0" width="1275.9" height="2126"/>
			</defs>
			<clipPath id="SVGID_55_">
				<use xlink:href="#SVGID_54_"  style="overflow:visible;"/>
			</clipPath>
			<path class="st33" d="M58.2,1571.5c0,0-20.4,271.1-14.8,476.4C43.3,2047.9,63.6,1801.7,58.2,1571.5z"/>
		</g>
		<g>
			<defs>
				<rect id="SVGID_56_" x="-0.3" y="0" width="1275.9" height="2126"/>
			</defs>
			<clipPath id="SVGID_57_">
				<use xlink:href="#SVGID_56_"  style="overflow:visible;"/>
			</clipPath>
			<path class="st34" d="M1124.2-1.8"/>
		</g>
		<g>
			<defs>
				<rect id="SVGID_58_" x="-0.3" y="0" width="1275.9" height="2126"/>
			</defs>
			<clipPath id="SVGID_59_">
				<use xlink:href="#SVGID_58_"  style="overflow:visible;"/>
			</clipPath>
			
				<linearGradient id="SVGID_60_" gradientUnits="userSpaceOnUse" x1="2389.7275" y1="449.7279" x2="2389.7275" y2="59.8697" gradientTransform="matrix(3.820000e-02 -0.6003 0.997 -3.060000e-02 899.4094 2509.259)">
				<stop  offset="0" style="stop-color:#7C3624"/>
				<stop  offset="1.280000e-02" style="stop-color:#763421"/>
				<stop  offset="5.330000e-02" style="stop-color:#6B2F19"/>
				<stop  offset="0.1103" style="stop-color:#632C14"/>
				<stop  offset="0.2688" style="stop-color:#612C14"/>
				<stop  offset="0.4102" style="stop-color:#703117"/>
				<stop  offset="0.5323" style="stop-color:#783418"/>
				<stop  offset="0.7011" style="stop-color:#6C3016"/>
				<stop  offset="0.8011" style="stop-color:#612C14"/>
				<stop  offset="0.9183" style="stop-color:#632C14"/>
				<stop  offset="0.9605" style="stop-color:#6B2F19"/>
				<stop  offset="0.9905" style="stop-color:#763421"/>
				<stop  offset="1" style="stop-color:#7C3624"/>
			</linearGradient>
			<polygon class="st35" points="1353.7,-4.1 1353.7,2138.2 1124.2,2138.2 1123.3,-4 			"/>
		</g>
		<g>
			<defs>
				<rect id="SVGID_61_" x="-0.3" y="0" width="1275.9" height="2126"/>
			</defs>
			<clipPath id="SVGID_62_">
				<use xlink:href="#SVGID_61_"  style="overflow:visible;"/>
			</clipPath>
			<path class="st36" d="M1136.3,2138.3c0,0,5.9-37.8,0.6-62.6c0,0-4.1-22.5,3-56.5c0,0,13.6-108.5,2.7-302.5
				c0,0-1.9-119.6,7.1-171.6c0,0-3.6,121.9,3.4,171.5c0,0,24.3,78.7,1.9,306.9c0,0-11.4,73.7,12.3,114.7
				C1167.2,2138.3,1136.3,2138.3,1136.3,2138.3z"/>
		</g>
		<g>
			<defs>
				<rect id="SVGID_63_" x="-0.3" y="0" width="1275.9" height="2126"/>
			</defs>
			<clipPath id="SVGID_64_">
				<use xlink:href="#SVGID_63_"  style="overflow:visible;"/>
			</clipPath>
			<path class="st37" d="M1173.1,2138.2c0,0-18.3-13.9-10.6-48.6c0,0,8.4-40.7,4.3-64.8c0,0-6.3-46.6,1.4-81.3
				c0,0,11.4-102.4-11.6-230.1c0,0-4.7-30,0.5-55.7c0,0,8.1-81.4-7.4-145.9c0,0-12-42,1-111.4c0,0,8-69.3,2.8-248.3
				c0,0-16.6-359.8-29.3-244.6l0.9-102.2c0,0,43.7,93.8,39.9,515.3c0,0-1.1,65.1-10,117.5c0,0-5.9,27.3,0.6,50.5
				c0,0,25.9,57.6,17,164.5c0,0-2.4,67.7,3.1,135.4c0,0,13,72.1,4.7,164c0,0-2.9,52.7,4.2,85.7c0,0,12.4,41.4,8.7,100L1173.1,2138.2
				L1173.1,2138.2z"/>
		</g>
		<g>
			<defs>
				<rect id="SVGID_65_" x="-0.3" y="0" width="1275.9" height="2126"/>
			</defs>
			<clipPath id="SVGID_66_">
				<use xlink:href="#SVGID_65_"  style="overflow:visible;"/>
			</clipPath>
			<path class="st38" d="M1127.3,1333.9c0,0,27.1-271.2,3.8-437.9L1127.3,1333.9z"/>
		</g>
		<g>
			<defs>
				<rect id="SVGID_67_" x="-0.3" y="0" width="1275.9" height="2126"/>
			</defs>
			<clipPath id="SVGID_68_">
				<use xlink:href="#SVGID_67_"  style="overflow:visible;"/>
			</clipPath>
			<path class="st39" d="M1124.8,1420.8c12.6-99.5,18.7-54.9,18.7-54.9c-6.8,57.3-3.3,130.9-3.3,130.9c3.9,64.7-5,183.6-5,183.6
				s-1.7,33.1,4.7,96.3c0,0,9.4,126.3-7.7,249.9c0,0-6.6,36.4-1,111.5l-7,0.1L1124.8,1420.8z"/>
		</g>
		<g>
			<defs>
				<rect id="SVGID_69_" x="-0.3" y="0" width="1275.9" height="2126"/>
			</defs>
			<clipPath id="SVGID_70_">
				<use xlink:href="#SVGID_69_"  style="overflow:visible;"/>
			</clipPath>
			<path class="st40" d="M1141.4,1330.8c0,0-2.8-10.5,0.3-38.4c0,0,5.5-50.5,4-68.5c0,0,6.6,35.3,2.1,97.8
				C1147.8,1321.7,1144.9,1341.3,1141.4,1330.8z"/>
		</g>
		<g>
			<defs>
				<rect id="SVGID_71_" x="-0.3" y="0" width="1275.9" height="2126"/>
			</defs>
			<clipPath id="SVGID_72_">
				<use xlink:href="#SVGID_71_"  style="overflow:visible;"/>
			</clipPath>
			<path class="st41" d="M1169,1511c0,0-1-22.5-7.2-22.4c0,0-5.2,0.8-6-24.8c0,0-0.7-27.1,7.2-43c0,0,19.8-14.7,8.6-203.2
				c0,0-5.4-64.3-3-107.2c0,0,1,62.1,7.3,115c0,0,12.4,79.8-3.8,200.9C1172.1,1426.3,1166.1,1460.2,1169,1511z"/>
		</g>
		<g>
			<defs>
				<rect id="SVGID_73_" x="-0.3" y="0" width="1275.9" height="2126"/>
			</defs>
			<clipPath id="SVGID_74_">
				<use xlink:href="#SVGID_73_"  style="overflow:visible;"/>
			</clipPath>
			<path class="st42" d="M1166.1,1393.1c0,0,8.8-28.9,4.7-134.9C1170.8,1258.2,1169.3,1365.4,1166.1,1393.1z"/>
		</g>
		<g>
			<defs>
				<rect id="SVGID_75_" x="-0.3" y="0" width="1275.9" height="2126"/>
			</defs>
			<clipPath id="SVGID_76_">
				<use xlink:href="#SVGID_75_"  style="overflow:visible;"/>
			</clipPath>
			<path class="st43" d="M1194.7-29.2c0,0-25.9,414-19.4,657.7c0,0,10.2,144.3,9,233.1c0,0-15.3,209.3-0.8,382.2
				c0,0-18.6-67.7-8.9-242.2c0,0,6.4-182.1-0.8-278.4c0,0-17.7-210.5-8.7-332.4c0,0,12.2-177.7,3-341.6c0,0-10.6-52.4-1.2-78.1
				L1194.7-29.2z"/>
		</g>
		<g>
			<defs>
				<rect id="SVGID_77_" x="-0.3" y="0" width="1275.9" height="2126"/>
			</defs>
			<clipPath id="SVGID_78_">
				<use xlink:href="#SVGID_77_"  style="overflow:visible;"/>
			</clipPath>
			<path class="st44" d="M1143.7-0.8c0,0-14.8,131.1-11,268c0,0,4.6,86.9-8.5,175.8l0.5,117.7c0,0,29.7-110.2,17-302.6
				C1141.6,258,1132.5,133.2,1143.7-0.8z"/>
		</g>
		<g>
			<defs>
				<rect id="SVGID_79_" x="-0.3" y="0" width="1275.9" height="2126"/>
			</defs>
			<clipPath id="SVGID_80_">
				<use xlink:href="#SVGID_79_"  style="overflow:visible;"/>
			</clipPath>
			<path class="st45" d="M1124.6,746.1c-0.2,22.6,9.2,51.8,9.2,51.8c15.6,59.6,31,248.7,31,248.7s-8-166.6-21.4-252.2
				c0,0-16.3-70.9-14.9-130.7c0,0,2-92.6,15.2-137.9c0,0,3.5-15,2.7-76.8c0,0-4.4,80.4-21.9,117.8L1124.6,746.1z"/>
		</g>
		<g>
			<defs>
				<rect id="SVGID_81_" x="-0.3" y="0" width="1275.9" height="2126"/>
			</defs>
			<clipPath id="SVGID_82_">
				<use xlink:href="#SVGID_81_"  style="overflow:visible;"/>
			</clipPath>
			<path class="st46" d="M1160.7,917.5c0,0-2.6-98.5-8.6-129.3c0,0-5.7-24.8-2.7-48.9c0,0,12-91.9-1.2-211.4c0,0,14.6,105.1,9,201.5
				c0,0-1.8,26.4,1.6,66.2C1158.7,795.7,1162.2,852.8,1160.7,917.5z"/>
		</g>
		<g>
			<defs>
				<rect id="SVGID_83_" x="-0.3" y="0" width="1275.9" height="2126"/>
			</defs>
			<clipPath id="SVGID_84_">
				<use xlink:href="#SVGID_83_"  style="overflow:visible;"/>
			</clipPath>
			<path class="st47" d="M1134.4,686.1c0,0,8.6,76.6,12.1,22.4l1.6-22.6c0,0-3.5,29.6-6,20.2
				C1142.2,706.1,1133.3,656.2,1134.4,686.1z"/>
		</g>
		<g>
			<defs>
				<rect id="SVGID_85_" x="-0.3" y="0" width="1275.9" height="2126"/>
			</defs>
			<clipPath id="SVGID_86_">
				<use xlink:href="#SVGID_85_"  style="overflow:visible;"/>
			</clipPath>
			<path class="st48" d="M1150.2,672.9c0,0,2.7-67.7-1.6-107.2c0,0-4.5-36.4-10.1,9.2C1138.5,574.8,1149.3,565.1,1150.2,672.9z"/>
		</g>
		<g>
			<defs>
				<rect id="SVGID_87_" x="-0.3" y="0" width="1275.9" height="2126"/>
			</defs>
			<clipPath id="SVGID_88_">
				<use xlink:href="#SVGID_87_"  style="overflow:visible;"/>
			</clipPath>
			<path class="st49" d="M1140,615.9c2.7-0.9,5.4,10,6.1,24.3s-0.9,26.7-3.6,27.6c-2.7,0.9-5.4-10-6.1-24.3
				C1135.7,629.2,1137.3,616.8,1140,615.9z"/>
		</g>
		<g>
			<defs>
				<rect id="SVGID_89_" x="-0.3" y="0" width="1275.9" height="2126"/>
			</defs>
			<clipPath id="SVGID_90_">
				<use xlink:href="#SVGID_89_"  style="overflow:visible;"/>
			</clipPath>
			<path class="st50" d="M1205.2-29.4c0,0-2.1,90.8-15.3,246.8c0,0-23.7,286.9-6,432.3c0,0,11.5,139.9,1.7,222.3
				c0,0-5.5,154.7,3.6,385.9c0,0-10.5,71.2-7.2,146.8c0,0,6.9,122.9-4.5,217.9c0,0-8,84.7,5.1,177.1c0,0,21.7,153.8,14.5,338.5h34.4
				c0,0-2.2-65.9-13.4-106.4c0,0-23.2-101.3-13.4-273c0,0,3.8-169.3-5.4-226.8c0,0-12.8-121.7,2.3-264.1l-3.5-24.4
				c0,0-10-124.4,6.3-291.6l-4.4-24.4c0,0,9.8-166.4-0.7-288.1c0,0-28.7-423,29.5-669.1L1205.2-29.4z"/>
		</g>
		<g>
			<defs>
				<rect id="SVGID_91_" x="-0.3" y="0" width="1275.9" height="2126"/>
			</defs>
			<clipPath id="SVGID_92_">
				<use xlink:href="#SVGID_91_"  style="overflow:visible;"/>
			</clipPath>
			<path class="st51" d="M1209.6,949.7l3-75.6l-0.6-69.2c0,0-4.1-85.3,2.4-140.7c0,0,27.8-365,19.5-693.8l19-0.2
				c0,0-11.2,276.1-12.8,452.2L1222.4,866l4.8,23.7l-4.7,74.5c0,0-17,383.9-1.4,618.4c0,0,12.8,297.8,7.3,392.7
				c0,0-4.9,40.7,19.5,162.9h-10.6c0,0-7.4-97.5-13-130.1c0,0-19.8-111.4-10.1-263.3c0,0,5.2-62.7-2.1-130.4c0,0-22.8-196-6.2-324.9
				c0,0,4.6-23.8-0.3-99.4L1209.6,949.7z"/>
		</g>
		<g>
			<defs>
				<rect id="SVGID_93_" x="-0.3" y="0" width="1275.9" height="2126"/>
			</defs>
			<clipPath id="SVGID_94_">
				<use xlink:href="#SVGID_93_"  style="overflow:visible;"/>
			</clipPath>
			<path class="st52" d="M1250.9,2138.2l5.1-39.1l-4.5-10.5c0,0-19.1-75-11.4-181.9c0,0,6.2-51.2-0.3-126.4c0,0-39-457-6.7-627.4
				c0,0,14.4-91.9,1.1-261.8l-1.5-137.9c0,0,16.2-310.6,17.2-369.3c0,0-0.5-311.2,10.3-413.8l11.7-0.1c0,0-11.9,155-11.7,415.3
				l-5.2,33.2l1.7,19.6c0,0-24.4,313.3-4.1,603.4l-9.4,104.7c0,0-17.4,483.9-0.1,560.5c0,0,12.2,106.5,3.9,191.1
				c0,0-13.4,113,16.2,193.9l3,46.8L1250.9,2138.2z"/>
		</g>
		<g>
			<defs>
				<rect id="SVGID_95_" x="-0.3" y="0" width="1275.9" height="2126"/>
			</defs>
			<clipPath id="SVGID_96_">
				<use xlink:href="#SVGID_95_"  style="overflow:visible;"/>
			</clipPath>
			<path class="st53" d="M1231.4,907.7c0,0-12.4,149.9-9.6,271c0,0,3.5-36.8,7.8-62.8C1229.6,1115.9,1241.1,1028.7,1231.4,907.7z"/>
		</g>
		<g>
			<defs>
				<rect id="SVGID_97_" x="-0.3" y="0" width="1275.9" height="2126"/>
			</defs>
			<clipPath id="SVGID_98_">
				<use xlink:href="#SVGID_97_"  style="overflow:visible;"/>
			</clipPath>
			<path class="st54" d="M1206.5,639.4c0,0-24.1-394.7,22.5-627.7l-0.5,59.8c0,0-35.2,221.6-17.2,512.5L1206.5,639.4z"/>
		</g>
		<g>
			<defs>
				<rect id="SVGID_99_" x="-0.3" y="0" width="1275.9" height="2126"/>
			</defs>
			<clipPath id="SVGID_100_">
				<use xlink:href="#SVGID_99_"  style="overflow:visible;"/>
			</clipPath>
			<path class="st55" d="M1213.5,562.5c0,0,20.4-271.1,14.8-476.4C1228.3,86.1,1208.1,332.4,1213.5,562.5z"/>
		</g>
		<g>
			<defs>
				<rect id="SVGID_101_" x="-0.3" y="0" width="1275.9" height="2126"/>
			</defs>
			<clipPath id="SVGID_102_">
				<use xlink:href="#SVGID_101_"  style="overflow:visible;"/>
			</clipPath>
		</g>
	</g>
</g>
</svg>
