<?xml version="1.0" encoding="utf-8"?>
<!-- Generator: Adobe Illustrator 21.1.0, SVG Export Plug-In . SVG Version: 6.00 Build 0)  -->
<svg version="1.1" id="Layer_1" xmlns="http://www.w3.org/2000/svg" xmlns:xlink="http://www.w3.org/1999/xlink" x="0px" y="0px"
	 viewBox="0 0 413.6 567" style="enable-background:new 0 0 413.6 567;" xml:space="preserve">
<style type="text/css">
	.st0{clip-path:url(#SVGID_4_);}
	.st1{fill:#293688;}
	.st2{fill:#FFFFFF;}
	.st3{fill:#EB2B3A;}
	.st4{filter:url(#Adobe_OpacityMaskFilter);}
	.st5{opacity:0.1;mask:url(#SVGID_7_);}
	.st6{clip-path:url(#SVGID_11_);}
	.st7{opacity:0.2;}
	.st8{filter:url(#Adobe_OpacityMaskFilter_1_);}
	.st9{mask:url(#SVGID_14_);}
	.st10{opacity:0.4;}
	.st11{filter:url(#Adobe_OpacityMaskFilter_2_);}
	.st12{mask:url(#SVGID_15_);}
	.st13{opacity:0.6;}
	.st14{filter:url(#Adobe_OpacityMaskFilter_3_);}
	.st15{mask:url(#SVGID_16_);}
	.st16{opacity:0.19;fill:url(#SVGID_17_);}
	.st17{opacity:0.3;}
	.st18{fill:url(#SVGID_18_);}
	.st19{filter:url(#Adobe_OpacityMaskFilter_4_);}
	.st20{opacity:0.75;mask:url(#SVGID_19_);}
</style>
<g>
	<g>
		<g>
			<g>
				<defs>
					<path id="SVGID_1_" d="M279.6,38.4C404.3,163,411.7,368.5,411.7,368.5c0,202.3-202.3,196.5-202.3,196.5h-4.1
						c0,0-202.3,5.9-202.3-196.5c0,0-0.7-214.3,132.1-330.2C135.1,38.4,205.8-35.5,279.6,38.4z"/>
				</defs>
				<clipPath id="SVGID_2_">
					<use xlink:href="#SVGID_1_"  style="overflow:visible;"/>
				</clipPath>
			</g>
			<g>
				<defs>
					<path id="SVGID_3_" d="M279.6,38.4C404.3,163,411.7,368.5,411.7,368.5c0,202.3-202.3,196.5-202.3,196.5h-4.1
						c0,0-202.3,5.9-202.3-196.5c0,0-0.7-214.3,132.1-330.2C135.1,38.4,205.8-35.5,279.6,38.4z"/>
				</defs>
				<clipPath id="SVGID_4_">
					<use xlink:href="#SVGID_3_"  style="overflow:visible;"/>
				</clipPath>
				<g class="st0">
					<rect x="-8.2" y="-28.7" class="st1" width="144" height="627.8"/>
				</g>
				<g class="st0">
					<rect x="135.4" y="-27.1" class="st2" width="144" height="627.8"/>
				</g>
				<g class="st0">
					<rect x="279.2" y="-28.6" class="st3" width="144" height="627.8"/>
				</g>
			</g>
			<g>
				<defs>
					<path id="SVGID_5_" d="M279.6,38.4C404.3,163,411.7,368.5,411.7,368.5c0,202.3-202.3,196.5-202.3,196.5h-4.1
						c0,0-202.3,5.9-202.3-196.5c0,0-0.7-214.3,132.1-330.2C135.1,38.4,205.8-35.5,279.6,38.4z"/>
				</defs>
				<clipPath id="SVGID_6_">
					<use xlink:href="#SVGID_5_"  style="overflow:visible;"/>
				</clipPath>
			</g>
		</g>
		<defs>
			<filter id="Adobe_OpacityMaskFilter" filterUnits="userSpaceOnUse" x="-8.2" y="-28.7" width="431.4" height="629.4">
				
					<feColorMatrix  type="matrix" values="-1 0 0 0 1  0 -1 0 0 1  0 0 -1 0 1  0 0 0 1 0" color-interpolation-filters="sRGB" result="source"/>
			</filter>
		</defs>
		<mask maskUnits="userSpaceOnUse" x="-8.2" y="-28.7" width="431.4" height="629.4" id="SVGID_7_">
			<g class="st4">
				<image style="overflow:visible;" width="437" height="634" xlink:href="6B74C7DC.jpg"  transform="matrix(1 0 0 1 -11 -31)">
				</image>
			</g>
		</mask>
		<g class="st5">
			<g>
				<defs>
					<path id="SVGID_8_" d="M279.6,38.4C404.3,163,411.7,368.5,411.7,368.5c0,202.3-202.3,196.5-202.3,196.5h-4.1
						c0,0-202.3,5.9-202.3-196.5c0,0-0.7-214.3,132.1-330.2C135.1,38.4,205.8-35.5,279.6,38.4z"/>
				</defs>
				<clipPath id="SVGID_9_">
					<use xlink:href="#SVGID_8_"  style="overflow:visible;"/>
				</clipPath>
			</g>
			<g>
				<defs>
					<path id="SVGID_10_" d="M279.6,38.4C404.3,163,411.7,368.5,411.7,368.5c0,202.3-202.3,196.5-202.3,196.5h-4.1
						c0,0-202.3,5.9-202.3-196.5c0,0-0.7-214.3,132.1-330.2C135.1,38.4,205.8-35.5,279.6,38.4z"/>
				</defs>
				<clipPath id="SVGID_11_">
					<use xlink:href="#SVGID_10_"  style="overflow:visible;"/>
				</clipPath>
				<g class="st6">
					<rect x="-8.2" y="-28.7" width="144" height="627.8"/>
				</g>
				<g class="st6">
					<rect x="135.4" y="-27.1" width="144" height="627.8"/>
				</g>
				<g class="st6">
					<rect x="279.2" y="-28.6" width="144" height="627.8"/>
				</g>
			</g>
			<g>
				<defs>
					<path id="SVGID_12_" d="M279.6,38.4C404.3,163,411.7,368.5,411.7,368.5c0,202.3-202.3,196.5-202.3,196.5h-4.1
						c0,0-202.3,5.9-202.3-196.5c0,0-0.7-214.3,132.1-330.2C135.1,38.4,205.8-35.5,279.6,38.4z"/>
				</defs>
				<clipPath id="SVGID_13_">
					<use xlink:href="#SVGID_12_"  style="overflow:visible;"/>
				</clipPath>
			</g>
		</g>
	</g>
	<g class="st7">
		<defs>
			<filter id="Adobe_OpacityMaskFilter_1_" filterUnits="userSpaceOnUse" x="77.8" y="88" width="70.7" height="82.4">
				<feFlood  style="flood-color:white;flood-opacity:1" result="back"/>
				<feBlend  in="SourceGraphic" in2="back" mode="normal"/>
			</filter>
		</defs>
		<mask maskUnits="userSpaceOnUse" x="77.8" y="88" width="70.7" height="82.4" id="SVGID_14_">
			<g class="st8">
				<image style="overflow:visible;" width="76" height="87" xlink:href="6B74C7DD.jpg"  transform="matrix(1 0 0 1 75 86)">
				</image>
			</g>
		</mask>
		<g class="st9">
			<path class="st2" d="M135.4,145.3c-15.2,20.9-37.4,30.7-49.7,21.8c-12.3-8.9-9.9-33.1,5.3-54c15.2-20.9,37.4-30.7,49.7-21.8
				C152.9,100.2,150.5,124.4,135.4,145.3z"/>
		</g>
	</g>
	<g class="st10">
		<defs>
			<filter id="Adobe_OpacityMaskFilter_2_" filterUnits="userSpaceOnUse" x="92.9" y="105.6" width="40.5" height="47.2">
				<feFlood  style="flood-color:white;flood-opacity:1" result="back"/>
				<feBlend  in="SourceGraphic" in2="back" mode="normal"/>
			</filter>
		</defs>
		<mask maskUnits="userSpaceOnUse" x="92.9" y="105.6" width="40.5" height="47.2" id="SVGID_15_">
			<g class="st11">
				<image style="overflow:visible;" width="46" height="52" xlink:href="6B74C7DB.jpg"  transform="matrix(1 0 0 1 90 103)">
				</image>
			</g>
		</mask>
		<g class="st12">
			
				<ellipse transform="matrix(0.5871 -0.8095 0.8095 0.5871 -57.8564 144.9504)" class="st2" cx="113.2" cy="129.2" rx="26.8" ry="15.7"/>
		</g>
	</g>
	<g class="st13">
		<defs>
			<filter id="Adobe_OpacityMaskFilter_3_" filterUnits="userSpaceOnUse" x="98" y="111.5" width="30.3" height="35.4">
				<feFlood  style="flood-color:white;flood-opacity:1" result="back"/>
				<feBlend  in="SourceGraphic" in2="back" mode="normal"/>
			</filter>
		</defs>
		<mask maskUnits="userSpaceOnUse" x="98" y="111.5" width="30.3" height="35.4" id="SVGID_16_">
			<g class="st14">
				<image style="overflow:visible;" width="36" height="40" xlink:href="6B74C7E4.jpg"  transform="matrix(1 0 0 1 95 109)">
				</image>
			</g>
		</mask>
		<g class="st15">
			<path class="st2" d="M122.7,136.1c-6.5,9-16.1,13.2-21.3,9.4c-5.3-3.8-4.3-14.2,2.3-23.2c6.5-9,16.1-13.2,21.3-9.4
				C130.2,116.7,129.2,127.1,122.7,136.1z"/>
		</g>
	</g>
	
		<linearGradient id="SVGID_17_" gradientUnits="userSpaceOnUse" x1="262.9543" y1="545.5762" x2="313.9305" y2="494.6" gradientTransform="matrix(2.740000e-02 -1.8737 1.6469 2.400000e-02 -534.6668 1007.9061)">
		<stop  offset="0" style="stop-color:#FFFFFF"/>
		<stop  offset="1" style="stop-color:#F05A28"/>
	</linearGradient>
	<path class="st16" d="M397.4,355c0,0-26.7,204.8-175.6,202.6C221.8,557.6,331.6,532.1,397.4,355z"/>
	<g class="st17">
		<g>
			<linearGradient id="SVGID_18_" gradientUnits="userSpaceOnUse" x1="188.2482" y1="298.0558" x2="377.2948" y2="521.9271">
				<stop  offset="0" style="stop-color:#FFFFFF"/>
				<stop  offset="1" style="stop-color:#603813"/>
			</linearGradient>
			<path class="st18" d="M279.6,38.4C404.3,163,411.7,368.5,411.7,368.5c0,202.3-202.3,196.5-202.3,196.5h-4.1
				c0,0-202.3,5.9-202.3-196.5c0,0-0.7-214.3,132.1-330.2C135.1,38.4,205.8-35.5,279.6,38.4z"/>
		</g>
		<defs>
			<filter id="Adobe_OpacityMaskFilter_4_" filterUnits="userSpaceOnUse" x="3" y="5.6" width="408.7" height="559.5">
				
					<feColorMatrix  type="matrix" values="-1 0 0 0 1  0 -1 0 0 1  0 0 -1 0 1  0 0 0 1 0" color-interpolation-filters="sRGB" result="source"/>
			</filter>
		</defs>
		<mask maskUnits="userSpaceOnUse" x="3" y="5.6" width="408.7" height="559.5" id="SVGID_19_">
			<g class="st19">
				<image style="overflow:visible;" width="413" height="564" xlink:href="6B74C7E7.jpg"  transform="matrix(1 0 0 1 1 3)">
				</image>
			</g>
		</mask>
		<g class="st20">
			<path class="st2" d="M279.6,38.4C404.3,163,411.7,368.5,411.7,368.5c0,202.3-202.3,196.5-202.3,196.5h-4.1
				c0,0-202.3,5.9-202.3-196.5c0,0-0.7-214.3,132.1-330.2C135.1,38.4,205.8-35.5,279.6,38.4z"/>
		</g>
	</g>
</g>
</svg>
