<?xml version="1.0" encoding="utf-8"?>
<!-- Generator: Adobe Illustrator 21.1.0, SVG Export Plug-In . SVG Version: 6.00 Build 0)  -->
<svg version="1.1" id="Layer_1" xmlns="http://www.w3.org/2000/svg" xmlns:xlink="http://www.w3.org/1999/xlink" x="0px" y="0px"
	 viewBox="0 0 413.6 567" style="enable-background:new 0 0 413.6 567;" xml:space="preserve">
<style type="text/css">
	.st0{clip-path:url(#SVGID_2_);fill:#FFFFFF;}
	.st1{clip-path:url(#SVGID_2_);fill:#145FAC;}
	.st2{opacity:0.3;}
	.st3{fill:url(#SVGID_3_);}
	.st4{filter:url(#Adobe_OpacityMaskFilter);}
	.st5{opacity:0.75;mask:url(#SVGID_4_);}
	.st6{fill:#B5B1D7;}
	.st7{opacity:0.19;fill:url(#SVGID_5_);}
	.st8{opacity:0.2;}
	.st9{filter:url(#Adobe_OpacityMaskFilter_1_);}
	.st10{mask:url(#SVGID_6_);}
	.st11{fill:#FFFFFF;}
	.st12{opacity:0.6;}
	.st13{filter:url(#Adobe_OpacityMaskFilter_2_);}
	.st14{mask:url(#SVGID_7_);}
	.st15{opacity:0.8;}
	.st16{filter:url(#Adobe_OpacityMaskFilter_3_);}
	.st17{mask:url(#SVGID_8_);}
</style>
<g>
	<g>
		<defs>
			<path id="SVGID_1_" d="M278.8,40.2C402.7,164,410.1,368.3,410.1,368.3c0,201.1-201.1,195.3-201.1,195.3h-4.1
				c0,0-201.1,5.8-201.1-195.3c0,0-0.7-212.9,131.3-328.1C135.1,40.2,205.4-33.2,278.8,40.2z"/>
		</defs>
		<clipPath id="SVGID_2_">
			<use xlink:href="#SVGID_1_"  style="overflow:visible;"/>
		</clipPath>
		<rect x="0.6" y="3.3" class="st0" width="234" height="236.6"/>
		<rect x="0.6" y="145.2" class="st1" width="94.8" height="94.8"/>
		<rect x="139.8" y="145.2" class="st1" width="94.8" height="94.8"/>
		<rect x="0.6" y="3.3" class="st1" width="94.8" height="94.8"/>
		<rect x="139.8" y="3.3" class="st1" width="94.8" height="94.8"/>
		<rect x="234.6" y="99.1" class="st1" width="205.2" height="47"/>
		<rect x="234.6" y="146" class="st0" width="205.2" height="47"/>
		<rect x="234.6" y="193" class="st1" width="205.2" height="47"/>
		<rect x="234.6" y="6.2" class="st1" width="205.2" height="47"/>
		<rect x="234.6" y="53.2" class="st0" width="205.2" height="47"/>
		<rect x="0.6" y="332.8" class="st0" width="439.2" height="47"/>
		<rect x="0.6" y="379.8" class="st1" width="439.2" height="47"/>
		<rect x="0.6" y="426.7" class="st0" width="439.2" height="47"/>
		<rect x="0.6" y="240" class="st0" width="439.2" height="47"/>
		<rect x="0.6" y="287" class="st1" width="439.2" height="47"/>
		<rect x="0.6" y="566.5" class="st1" width="439.2" height="47"/>
		<rect x="0.6" y="473.7" class="st1" width="439.2" height="47"/>
		<rect x="0.6" y="520.7" class="st0" width="439.2" height="47"/>
	</g>
	<g class="st2">
		<g>
			<linearGradient id="SVGID_3_" gradientUnits="userSpaceOnUse" x1="214.7252" y1="290.044" x2="181.3513" y2="622.5462">
				<stop  offset="0" style="stop-color:#FFFFFF"/>
				<stop  offset="1" style="stop-color:#3E54A3"/>
			</linearGradient>
			<path class="st3" d="M278.8,40.2C402.7,164,410.1,368.3,410.1,368.3c0,201.1-201.1,195.3-201.1,195.3h-4.1
				c0,0-201.1,5.8-201.1-195.3c0,0-0.7-212.9,131.3-328.1C135.1,40.2,205.4-33.2,278.8,40.2z"/>
		</g>
		<defs>
			<filter id="Adobe_OpacityMaskFilter" filterUnits="userSpaceOnUse" x="3.9" y="7.6" width="406.2" height="556">
				
					<feColorMatrix  type="matrix" values="-1 0 0 0 1  0 -1 0 0 1  0 0 -1 0 1  0 0 0 1 0" color-interpolation-filters="sRGB" result="source"/>
			</filter>
		</defs>
		<mask maskUnits="userSpaceOnUse" x="3.9" y="7.6" width="406.2" height="556" id="SVGID_4_">
			<g class="st4">
				<image style="overflow:visible;" width="412" height="561" xlink:href="C5AEED99.jpg"  transform="matrix(1 0 0 1 1 5)">
				</image>
			</g>
		</mask>
		<g class="st5">
			<path class="st6" d="M278.8,40.2C402.7,164,410.1,368.3,410.1,368.3c0,201.1-201.1,195.3-201.1,195.3h-4.1
				c0,0-201.1,5.8-201.1-195.3c0,0-0.7-212.9,131.3-328.1C135.1,40.2,205.4-33.2,278.8,40.2z"/>
		</g>
	</g>
	
		<linearGradient id="SVGID_5_" gradientUnits="userSpaceOnUse" x1="264.9367" y1="546.5646" x2="315.599" y2="495.9023" gradientTransform="matrix(2.740000e-02 -1.8737 1.6469 2.400000e-02 -534.6668 1007.9061)">
		<stop  offset="0" style="stop-color:#FFFFFF"/>
		<stop  offset="1" style="stop-color:#F05A28"/>
	</linearGradient>
	<path class="st7" d="M398.9,352.4c0,0-26.5,203.5-174.5,201.4C224.4,553.7,333.5,528.4,398.9,352.4z"/>
	<g class="st8">
		<defs>
			<filter id="Adobe_OpacityMaskFilter_1_" filterUnits="userSpaceOnUse" x="81.1" y="89.5" width="53.2" height="62.1">
				<feFlood  style="flood-color:white;flood-opacity:1" result="back"/>
				<feBlend  in="SourceGraphic" in2="back" mode="normal"/>
			</filter>
		</defs>
		<mask maskUnits="userSpaceOnUse" x="81.1" y="89.5" width="53.2" height="62.1" id="SVGID_6_">
			<g class="st9">
				<image style="overflow:visible;" width="58" height="67" xlink:href="C5AEED9B.jpg"  transform="matrix(1 0 0 1 79 87)">
				</image>
			</g>
		</mask>
		<g class="st10">
			
				<ellipse transform="matrix(0.5871 -0.8095 0.8095 0.5871 -53.059 136.9317)" class="st11" cx="107.7" cy="120.5" rx="35.3" ry="20.7"/>
		</g>
	</g>
	<g class="st12">
		<defs>
			<filter id="Adobe_OpacityMaskFilter_2_" filterUnits="userSpaceOnUse" x="92.5" y="102.7" width="30.5" height="35.5">
				<feFlood  style="flood-color:white;flood-opacity:1" result="back"/>
				<feBlend  in="SourceGraphic" in2="back" mode="normal"/>
			</filter>
		</defs>
		<mask maskUnits="userSpaceOnUse" x="92.5" y="102.7" width="30.5" height="35.5" id="SVGID_7_">
			<g class="st13">
				<image style="overflow:visible;" width="35" height="41" xlink:href="C5AEED9E.jpg"  transform="matrix(1 0 0 1 90 100)">
				</image>
			</g>
		</mask>
		<g class="st14">
			
				<ellipse transform="matrix(0.5872 -0.8095 0.8095 0.5872 -53.0604 136.9197)" class="st11" cx="107.7" cy="120.5" rx="20.2" ry="11.8"/>
		</g>
	</g>
	<g class="st15">
		<defs>
			<filter id="Adobe_OpacityMaskFilter_3_" filterUnits="userSpaceOnUse" x="96.3" y="107.2" width="22.9" height="26.6">
				<feFlood  style="flood-color:white;flood-opacity:1" result="back"/>
				<feBlend  in="SourceGraphic" in2="back" mode="normal"/>
			</filter>
		</defs>
		<mask maskUnits="userSpaceOnUse" x="96.3" y="107.2" width="22.9" height="26.6" id="SVGID_8_">
			<g class="st16">
				<image style="overflow:visible;" width="28" height="31" xlink:href="C5AEED9F.jpg"  transform="matrix(1 0 0 1 94 105)">
				</image>
			</g>
		</mask>
		<g class="st17">
			
				<ellipse transform="matrix(0.5872 -0.8095 0.8095 0.5872 -53.0616 136.9218)" class="st11" cx="107.7" cy="120.5" rx="15.1" ry="8.9"/>
		</g>
	</g>
</g>
</svg>
