<?xml version="1.0" encoding="utf-8"?>
<!-- Generator: Adobe Illustrator 21.1.0, SVG Export Plug-In . SVG Version: 6.00 Build 0)  -->
<svg version="1.1" id="Layer_1" xmlns="http://www.w3.org/2000/svg" xmlns:xlink="http://www.w3.org/1999/xlink" x="0px" y="0px"
	 viewBox="0 0 413.6 567" style="enable-background:new 0 0 413.6 567;" xml:space="preserve">
<style type="text/css">
	.st0{clip-path:url(#SVGID_4_);}
	.st1{fill:#FDCD08;}
	.st2{fill:#DA1F26;}
	.st3{filter:url(#Adobe_OpacityMaskFilter);}
	.st4{opacity:0.39;mask:url(#SVGID_7_);}
	.st5{clip-path:url(#SVGID_11_);}
	.st6{fill:#FAF075;}
	.st7{opacity:0.37;}
	.st8{fill:url(#SVGID_14_);}
	.st9{filter:url(#Adobe_OpacityMaskFilter_1_);}
	.st10{opacity:0.75;mask:url(#SVGID_15_);}
	.st11{fill:#FFFFFF;}
	.st12{opacity:0.3;}
	.st13{fill:url(#SVGID_16_);}
	.st14{filter:url(#Adobe_OpacityMaskFilter_2_);}
	.st15{opacity:0.75;mask:url(#SVGID_17_);}
	.st16{opacity:0.19;fill:url(#SVGID_18_);}
	.st17{opacity:0.2;}
	.st18{filter:url(#Adobe_OpacityMaskFilter_3_);}
	.st19{mask:url(#SVGID_19_);}
	.st20{opacity:0.4;}
	.st21{filter:url(#Adobe_OpacityMaskFilter_4_);}
	.st22{mask:url(#SVGID_20_);}
	.st23{opacity:0.6;}
	.st24{filter:url(#Adobe_OpacityMaskFilter_5_);}
	.st25{mask:url(#SVGID_21_);}
	.st26{fill:url(#SVGID_22_);}
	.st27{filter:url(#Adobe_OpacityMaskFilter_6_);}
	.st28{opacity:0.75;mask:url(#SVGID_23_);}
</style>
<g>
	<g>
		<g>
			<g>
				<defs>
					<path id="SVGID_1_" d="M278.7,40.2c124.2,124.2,131.6,329,131.6,329c0,201.6-201.6,195.8-201.6,195.8h-4.1
						c0,0-201.6,5.8-201.6-195.8c0,0-0.7-213.5,131.6-329C134.6,40.2,205.1-33.3,278.7,40.2z"/>
				</defs>
				<clipPath id="SVGID_2_">
					<use xlink:href="#SVGID_1_"  style="overflow:visible;"/>
				</clipPath>
			</g>
			<g>
				<defs>
					<path id="SVGID_3_" d="M278.7,40.2c124.2,124.2,131.6,329,131.6,329c0,201.6-201.6,195.8-201.6,195.8h-4.1
						c0,0-201.6,5.8-201.6-195.8c0,0-0.7-213.5,131.6-329C134.6,40.2,205.1-33.3,278.7,40.2z"/>
				</defs>
				<clipPath id="SVGID_4_">
					<use xlink:href="#SVGID_3_"  style="overflow:visible;"/>
				</clipPath>
				<g class="st0">
					<rect x="-6.2" y="383" class="st1" width="426.2" height="194.5"/>
				</g>
				<g class="st0">
					<rect x="-6.5" y="189.1" class="st2" width="426.2" height="194.5"/>
				</g>
				<g class="st0">
					<rect x="-6.5" y="-5.2" width="426.2" height="194.5"/>
				</g>
			</g>
			<g>
				<defs>
					<path id="SVGID_5_" d="M278.7,40.2c124.2,124.2,131.6,329,131.6,329c0,201.6-201.6,195.8-201.6,195.8h-4.1
						c0,0-201.6,5.8-201.6-195.8c0,0-0.7-213.5,131.6-329C134.6,40.2,205.1-33.3,278.7,40.2z"/>
				</defs>
				<clipPath id="SVGID_6_">
					<use xlink:href="#SVGID_5_"  style="overflow:visible;"/>
				</clipPath>
			</g>
		</g>
		<defs>
			<filter id="Adobe_OpacityMaskFilter" filterUnits="userSpaceOnUse" x="-6.5" y="-5.2" width="426.5" height="582.7">
				
					<feColorMatrix  type="matrix" values="-1 0 0 0 1  0 -1 0 0 1  0 0 -1 0 1  0 0 0 1 0" color-interpolation-filters="sRGB" result="source"/>
			</filter>
		</defs>
		<mask maskUnits="userSpaceOnUse" x="-6.5" y="-5.2" width="426.5" height="582.7" id="SVGID_7_">
			<g class="st3">
				<image style="overflow:visible;" width="432" height="588" xlink:href="937EDF3F.jpg"  transform="matrix(1 0 0 1 -9 -8)">
				</image>
			</g>
		</mask>
		<g class="st4">
			<g>
				<defs>
					<path id="SVGID_8_" d="M278.7,40.2c124.2,124.2,131.6,329,131.6,329c0,201.6-201.6,195.8-201.6,195.8h-4.1
						c0,0-201.6,5.8-201.6-195.8c0,0-0.7-213.5,131.6-329C134.6,40.2,205.1-33.3,278.7,40.2z"/>
				</defs>
				<clipPath id="SVGID_9_">
					<use xlink:href="#SVGID_8_"  style="overflow:visible;"/>
				</clipPath>
			</g>
			<g>
				<defs>
					<path id="SVGID_10_" d="M278.7,40.2c124.2,124.2,131.6,329,131.6,329c0,201.6-201.6,195.8-201.6,195.8h-4.1
						c0,0-201.6,5.8-201.6-195.8c0,0-0.7-213.5,131.6-329C134.6,40.2,205.1-33.3,278.7,40.2z"/>
				</defs>
				<clipPath id="SVGID_11_">
					<use xlink:href="#SVGID_10_"  style="overflow:visible;"/>
				</clipPath>
				<g class="st5">
					<rect x="-6.2" y="383" class="st6" width="426.2" height="194.5"/>
				</g>
				<g class="st5">
					<rect x="-6.5" y="189.1" class="st6" width="426.2" height="194.5"/>
				</g>
				<g class="st5">
					<rect x="-6.5" y="-5.2" class="st6" width="426.2" height="194.5"/>
				</g>
			</g>
			<g>
				<defs>
					<path id="SVGID_12_" d="M278.7,40.2c124.2,124.2,131.6,329,131.6,329c0,201.6-201.6,195.8-201.6,195.8h-4.1
						c0,0-201.6,5.8-201.6-195.8c0,0-0.7-213.5,131.6-329C134.6,40.2,205.1-33.3,278.7,40.2z"/>
				</defs>
				<clipPath id="SVGID_13_">
					<use xlink:href="#SVGID_12_"  style="overflow:visible;"/>
				</clipPath>
			</g>
		</g>
	</g>
	<g class="st7">
		<g>
			<linearGradient id="SVGID_14_" gradientUnits="userSpaceOnUse" x1="187.5859" y1="299.0101" x2="375.9567" y2="522.0811">
				<stop  offset="0" style="stop-color:#FFFFFF"/>
				<stop  offset="1" style="stop-color:#603813"/>
			</linearGradient>
			<path class="st8" d="M278.7,40.2c124.2,124.2,131.6,329,131.6,329c0,201.6-201.6,195.8-201.6,195.8h-4.1
				c0,0-201.6,5.8-201.6-195.8c0,0-0.7-213.5,131.6-329C134.6,40.2,205.1-33.3,278.7,40.2z"/>
		</g>
		<defs>
			<filter id="Adobe_OpacityMaskFilter_1_" filterUnits="userSpaceOnUse" x="3" y="7.6" width="407.2" height="557.5">
				
					<feColorMatrix  type="matrix" values="-1 0 0 0 1  0 -1 0 0 1  0 0 -1 0 1  0 0 0 1 0" color-interpolation-filters="sRGB" result="source"/>
			</filter>
		</defs>
		<mask maskUnits="userSpaceOnUse" x="3" y="7.6" width="407.2" height="557.5" id="SVGID_15_">
			<g class="st9">
				<image style="overflow:visible;" width="412" height="562" xlink:href="937EDF3D.jpg"  transform="matrix(1 0 0 1 1 5)">
				</image>
			</g>
		</mask>
		<g class="st10">
			<path class="st11" d="M278.7,40.2c124.2,124.2,131.6,329,131.6,329c0,201.6-201.6,195.8-201.6,195.8h-4.1
				c0,0-201.6,5.8-201.6-195.8c0,0-0.7-213.5,131.6-329C134.6,40.2,205.1-33.3,278.7,40.2z"/>
		</g>
	</g>
	<g class="st12">
		<g>
			<linearGradient id="SVGID_16_" gradientUnits="userSpaceOnUse" x1="177.5983" y1="282.4376" x2="393.2329" y2="436.1081">
				<stop  offset="0" style="stop-color:#FFFFFF"/>
				<stop  offset="1" style="stop-color:#603813"/>
			</linearGradient>
			<path class="st13" d="M278.7,40.2c124.2,124.2,131.6,329,131.6,329c0,201.6-201.6,195.8-201.6,195.8h-4.1
				c0,0-201.6,5.8-201.6-195.8c0,0-0.7-213.5,131.6-329C134.6,40.2,205.1-33.3,278.7,40.2z"/>
		</g>
		<defs>
			<filter id="Adobe_OpacityMaskFilter_2_" filterUnits="userSpaceOnUse" x="3" y="7.6" width="407.2" height="557.5">
				
					<feColorMatrix  type="matrix" values="-1 0 0 0 1  0 -1 0 0 1  0 0 -1 0 1  0 0 0 1 0" color-interpolation-filters="sRGB" result="source"/>
			</filter>
		</defs>
		<mask maskUnits="userSpaceOnUse" x="3" y="7.6" width="407.2" height="557.5" id="SVGID_17_">
			<g class="st14">
				<image style="overflow:visible;" width="412" height="562" xlink:href="937EDF43.jpg"  transform="matrix(1 0 0 1 1 5)">
				</image>
			</g>
		</mask>
		<g class="st15">
			<path class="st11" d="M278.7,40.2c124.2,124.2,131.6,329,131.6,329c0,201.6-201.6,195.8-201.6,195.8h-4.1
				c0,0-201.6,5.8-201.6-195.8c0,0-0.7-213.5,131.6-329C134.6,40.2,205.1-33.3,278.7,40.2z"/>
		</g>
	</g>
	
		<linearGradient id="SVGID_18_" gradientUnits="userSpaceOnUse" x1="262.9206" y1="548.4098" x2="313.7145" y2="497.6158" gradientTransform="matrix(2.740000e-02 -1.8737 1.6469 2.400000e-02 -534.6668 1007.9061)">
		<stop  offset="0" style="stop-color:#FFFFFF"/>
		<stop  offset="1" style="stop-color:#F05A28"/>
	</linearGradient>
	<path class="st16" d="M402,355.8c0,0-26.6,204-175,201.9C227,557.6,336.4,532.2,402,355.8z"/>
	<g class="st17">
		<defs>
			<filter id="Adobe_OpacityMaskFilter_3_" filterUnits="userSpaceOnUse" x="96.8" y="72.1" width="70.4" height="82.1">
				<feFlood  style="flood-color:white;flood-opacity:1" result="back"/>
				<feBlend  in="SourceGraphic" in2="back" mode="normal"/>
			</filter>
		</defs>
		<mask maskUnits="userSpaceOnUse" x="96.8" y="72.1" width="70.4" height="82.1" id="SVGID_19_">
			<g class="st18">
				<image style="overflow:visible;" width="76" height="87" xlink:href="937EDF45.jpg"  transform="matrix(1 0 0 1 94 70)">
				</image>
			</g>
		</mask>
		<g class="st19">
			<path class="st11" d="M154.2,129.2c-15.1,20.9-37.3,30.6-49.5,21.7c-12.2-8.9-9.9-33,5.3-53.8c15.1-20.9,37.3-30.6,49.5-21.7
				C171.6,84.2,169.3,108.3,154.2,129.2z"/>
		</g>
	</g>
	<g class="st20">
		<defs>
			<filter id="Adobe_OpacityMaskFilter_4_" filterUnits="userSpaceOnUse" x="111.9" y="89.6" width="40.3" height="47">
				<feFlood  style="flood-color:white;flood-opacity:1" result="back"/>
				<feBlend  in="SourceGraphic" in2="back" mode="normal"/>
			</filter>
		</defs>
		<mask maskUnits="userSpaceOnUse" x="111.9" y="89.6" width="40.3" height="47" id="SVGID_20_">
			<g class="st21">
				<image style="overflow:visible;" width="46" height="52" xlink:href="937EDF47.jpg"  transform="matrix(1 0 0 1 109 87)">
				</image>
			</g>
		</mask>
		<g class="st22">
			
				<ellipse transform="matrix(0.5871 -0.8095 0.8095 0.5871 -37.0596 153.5924)" class="st11" cx="132" cy="113.1" rx="26.7" ry="15.7"/>
		</g>
	</g>
	<g class="st23">
		<defs>
			<filter id="Adobe_OpacityMaskFilter_5_" filterUnits="userSpaceOnUse" x="116.9" y="95.5" width="30.2" height="35.2">
				<feFlood  style="flood-color:white;flood-opacity:1" result="back"/>
				<feBlend  in="SourceGraphic" in2="back" mode="normal"/>
			</filter>
		</defs>
		<mask maskUnits="userSpaceOnUse" x="116.9" y="95.5" width="30.2" height="35.2" id="SVGID_21_">
			<g class="st24">
				<image style="overflow:visible;" width="36" height="40" xlink:href="937EDF44.jpg"  transform="matrix(1 0 0 1 114 93)">
				</image>
			</g>
		</mask>
		<g class="st25">
			<path class="st11" d="M141.5,120c-6.5,9-16,13.1-21.3,9.3c-5.3-3.8-4.2-14.2,2.3-23.1c6.5-9,16-13.1,21.3-9.3
				C149,100.7,148,111.1,141.5,120z"/>
		</g>
	</g>
</g>
<g>
	<g class="st12">
		<g>
			<linearGradient id="SVGID_22_" gradientUnits="userSpaceOnUse" x1="177.5983" y1="282.4376" x2="393.2329" y2="436.1081">
				<stop  offset="0" style="stop-color:#FFFFFF"/>
				<stop  offset="1" style="stop-color:#603813"/>
			</linearGradient>
			<path class="st26" d="M278.7,40.2c124.2,124.2,131.6,329,131.6,329c0,201.6-201.6,195.8-201.6,195.8h-4.1
				c0,0-201.6,5.8-201.6-195.8c0,0-0.7-213.5,131.6-329C134.6,40.2,205.1-33.3,278.7,40.2z"/>
		</g>
		<defs>
			<filter id="Adobe_OpacityMaskFilter_6_" filterUnits="userSpaceOnUse" x="3" y="7.6" width="407.2" height="557.5">
				
					<feColorMatrix  type="matrix" values="-1 0 0 0 1  0 -1 0 0 1  0 0 -1 0 1  0 0 0 1 0" color-interpolation-filters="sRGB" result="source"/>
			</filter>
		</defs>
		<mask maskUnits="userSpaceOnUse" x="3" y="7.6" width="407.2" height="557.5" id="SVGID_23_">
			<g class="st27">
				<image style="overflow:visible;" width="412" height="562" xlink:href="937EDF4C.jpg"  transform="matrix(1 0 0 1 1 5)">
				</image>
			</g>
		</mask>
		<g class="st28">
			<path class="st11" d="M278.7,40.2c124.2,124.2,131.6,329,131.6,329c0,201.6-201.6,195.8-201.6,195.8h-4.1
				c0,0-201.6,5.8-201.6-195.8c0,0-0.7-213.5,131.6-329C134.6,40.2,205.1-33.3,278.7,40.2z"/>
		</g>
	</g>
</g>
</svg>
