<?xml version="1.0" encoding="utf-8"?>
<!-- Generator: Adobe Illustrator 21.1.0, SVG Export Plug-In . SVG Version: 6.00 Build 0)  -->
<svg version="1.1" id="Layer_1" xmlns="http://www.w3.org/2000/svg" xmlns:xlink="http://www.w3.org/1999/xlink" x="0px" y="0px"
	 viewBox="0 0 413.6 567" style="enable-background:new 0 0 413.6 567;" xml:space="preserve">
<style type="text/css">
	.st0{clip-path:url(#SVGID_2_);}
	.st1{clip-path:url(#SVGID_6_);}
	.st2{fill:#FDCD08;}
	.st3{fill:#DA1F26;}
	.st4{filter:url(#Adobe_OpacityMaskFilter);}
	.st5{opacity:0.39;mask:url(#SVGID_9_);}
	.st6{clip-path:url(#SVGID_13_);}
	.st7{fill:#FAF075;}
	.st8{opacity:0.37;}
	.st9{fill:url(#SVGID_16_);}
	.st10{filter:url(#Adobe_OpacityMaskFilter_1_);}
	.st11{opacity:0.75;mask:url(#SVGID_17_);}
	.st12{fill:#FFFFFF;}
	.st13{opacity:0.3;}
	.st14{fill:url(#SVGID_18_);}
	.st15{filter:url(#Adobe_OpacityMaskFilter_2_);}
	.st16{opacity:0.75;mask:url(#SVGID_19_);}
	.st17{opacity:0.19;fill:url(#SVGID_20_);}
	.st18{opacity:0.2;}
	.st19{filter:url(#Adobe_OpacityMaskFilter_3_);}
	.st20{mask:url(#SVGID_21_);}
	.st21{opacity:0.4;}
	.st22{filter:url(#Adobe_OpacityMaskFilter_4_);}
	.st23{mask:url(#SVGID_22_);}
	.st24{opacity:0.6;}
	.st25{filter:url(#Adobe_OpacityMaskFilter_5_);}
	.st26{mask:url(#SVGID_23_);}
	.st27{fill:url(#SVGID_24_);}
	.st28{filter:url(#Adobe_OpacityMaskFilter_6_);}
	.st29{opacity:0.75;mask:url(#SVGID_25_);}
	.st30{clip-path:url(#SVGID_2_);fill:#7E2417;}
</style>
<g>
	<defs>
		<path id="SVGID_1_" d="M11.5,306.4C4.9,344.6,4,369.8,4,369.8C4,570.8,205,565,205,565h4.1c0,0,201,5.8,201-195.2
			c0,0,0.3-100.6-42.3-200.9L352,153.6l-9.1,34.6l-6.6-6.6l-8.2,17.3l-28-9.9l-14,37.1l-6.1-9.9l-36.4,31.5l-58.9-28.2l-13.9-29.7
			l13.9-36.2l-51,28l-9.9,18.9l-11.4,51.5l-15-36.7l-8.9,34.8l-19.9-7.6l-26.4,51.9l-4.9-14L11.5,306.4z"/>
	</defs>
	<clipPath id="SVGID_2_">
		<use xlink:href="#SVGID_1_"  style="overflow:visible;"/>
	</clipPath>
	<g class="st0">
		<g>
			<g>
				<g>
					<defs>
						<path id="SVGID_3_" d="M278.8,42.3c123.8,123.8,131.2,328,131.2,328c0,201-201,195.2-201,195.2H205c0,0-201,5.8-201-195.2
							c0,0-0.7-212.8,131.2-328C135.2,42.3,205.5-31.1,278.8,42.3z"/>
					</defs>
					<clipPath id="SVGID_4_">
						<use xlink:href="#SVGID_3_"  style="overflow:visible;"/>
					</clipPath>
				</g>
				<g>
					<defs>
						<path id="SVGID_5_" d="M278.8,42.3c123.8,123.8,131.2,328,131.2,328c0,201-201,195.2-201,195.2H205c0,0-201,5.8-201-195.2
							c0,0-0.7-212.8,131.2-328C135.2,42.3,205.5-31.1,278.8,42.3z"/>
					</defs>
					<clipPath id="SVGID_6_">
						<use xlink:href="#SVGID_5_"  style="overflow:visible;"/>
					</clipPath>
					<g class="st1">
						<rect x="-5.2" y="384" class="st2" width="424.9" height="193.9"/>
					</g>
					<g class="st1">
						<rect x="-5.5" y="190.7" class="st3" width="424.9" height="193.9"/>
					</g>
					<g class="st1">
						<rect x="-5.5" y="-3" width="424.9" height="193.9"/>
					</g>
				</g>
				<g>
					<defs>
						<path id="SVGID_7_" d="M278.8,42.3c123.8,123.8,131.2,328,131.2,328c0,201-201,195.2-201,195.2H205c0,0-201,5.8-201-195.2
							c0,0-0.7-212.8,131.2-328C135.2,42.3,205.5-31.1,278.8,42.3z"/>
					</defs>
					<clipPath id="SVGID_8_">
						<use xlink:href="#SVGID_7_"  style="overflow:visible;"/>
					</clipPath>
				</g>
			</g>
			<defs>
				<filter id="Adobe_OpacityMaskFilter" filterUnits="userSpaceOnUse" x="-5.5" y="-3" width="425.2" height="580.9">
					
						<feColorMatrix  type="matrix" values="-1 0 0 0 1  0 -1 0 0 1  0 0 -1 0 1  0 0 0 1 0" color-interpolation-filters="sRGB" result="source"/>
				</filter>
			</defs>
			<mask maskUnits="userSpaceOnUse" x="-5.5" y="-3" width="425.2" height="580.9" id="SVGID_9_">
				<g class="st4">
					<image style="overflow:visible;" width="430" height="586" xlink:href="85A224DF.jpg"  transform="matrix(1 0 0 1 -8 -6)">
					</image>
				</g>
			</mask>
			<g class="st5">
				<g>
					<defs>
						<path id="SVGID_10_" d="M278.8,42.3c123.8,123.8,131.2,328,131.2,328c0,201-201,195.2-201,195.2H205c0,0-201,5.8-201-195.2
							c0,0-0.7-212.8,131.2-328C135.2,42.3,205.5-31.1,278.8,42.3z"/>
					</defs>
					<clipPath id="SVGID_11_">
						<use xlink:href="#SVGID_10_"  style="overflow:visible;"/>
					</clipPath>
				</g>
				<g>
					<defs>
						<path id="SVGID_12_" d="M278.8,42.3c123.8,123.8,131.2,328,131.2,328c0,201-201,195.2-201,195.2H205c0,0-201,5.8-201-195.2
							c0,0-0.7-212.8,131.2-328C135.2,42.3,205.5-31.1,278.8,42.3z"/>
					</defs>
					<clipPath id="SVGID_13_">
						<use xlink:href="#SVGID_12_"  style="overflow:visible;"/>
					</clipPath>
					<g class="st6">
						<rect x="-5.2" y="384" class="st7" width="424.9" height="193.9"/>
					</g>
					<g class="st6">
						<rect x="-5.5" y="190.7" class="st7" width="424.9" height="193.9"/>
					</g>
					<g class="st6">
						<rect x="-5.5" y="-3" class="st7" width="424.9" height="193.9"/>
					</g>
				</g>
				<g>
					<defs>
						<path id="SVGID_14_" d="M278.8,42.3c123.8,123.8,131.2,328,131.2,328c0,201-201,195.2-201,195.2H205c0,0-201,5.8-201-195.2
							c0,0-0.7-212.8,131.2-328C135.2,42.3,205.5-31.1,278.8,42.3z"/>
					</defs>
					<clipPath id="SVGID_15_">
						<use xlink:href="#SVGID_14_"  style="overflow:visible;"/>
					</clipPath>
				</g>
			</g>
		</g>
		<g class="st8">
			<g>
				<linearGradient id="SVGID_16_" gradientUnits="userSpaceOnUse" x1="188.0195" y1="300.2515" x2="375.8122" y2="522.6379">
					<stop  offset="0" style="stop-color:#FFFFFF"/>
					<stop  offset="1" style="stop-color:#603813"/>
				</linearGradient>
				<path class="st9" d="M278.8,42.3c123.8,123.8,131.2,328,131.2,328c0,201-201,195.2-201,195.2H205c0,0-201,5.8-201-195.2
					c0,0-0.7-212.8,131.2-328C135.2,42.3,205.5-31.1,278.8,42.3z"/>
			</g>
			<defs>
				<filter id="Adobe_OpacityMaskFilter_1_" filterUnits="userSpaceOnUse" x="4" y="9.7" width="406" height="555.7">
					
						<feColorMatrix  type="matrix" values="-1 0 0 0 1  0 -1 0 0 1  0 0 -1 0 1  0 0 0 1 0" color-interpolation-filters="sRGB" result="source"/>
				</filter>
			</defs>
			<mask maskUnits="userSpaceOnUse" x="4" y="9.7" width="406" height="555.7" id="SVGID_17_">
				<g class="st10">
					<image style="overflow:visible;" width="410" height="561" xlink:href="85A224DD.jpg"  transform="matrix(1 0 0 1 2 7)">
					</image>
				</g>
			</mask>
			<g class="st11">
				<path class="st12" d="M278.8,42.3c123.8,123.8,131.2,328,131.2,328c0,201-201,195.2-201,195.2H205c0,0-201,5.8-201-195.2
					c0,0-0.7-212.8,131.2-328C135.2,42.3,205.5-31.1,278.8,42.3z"/>
			</g>
		</g>
		<g class="st13">
			<g>
				<linearGradient id="SVGID_18_" gradientUnits="userSpaceOnUse" x1="178.0625" y1="283.7299" x2="393.0354" y2="436.9288">
					<stop  offset="0" style="stop-color:#FFFFFF"/>
					<stop  offset="1" style="stop-color:#603813"/>
				</linearGradient>
				<path class="st14" d="M278.8,42.3c123.8,123.8,131.2,328,131.2,328c0,201-201,195.2-201,195.2H205c0,0-201,5.8-201-195.2
					c0,0-0.7-212.8,131.2-328C135.2,42.3,205.5-31.1,278.8,42.3z"/>
			</g>
			<defs>
				<filter id="Adobe_OpacityMaskFilter_2_" filterUnits="userSpaceOnUse" x="4" y="9.7" width="406" height="555.7">
					
						<feColorMatrix  type="matrix" values="-1 0 0 0 1  0 -1 0 0 1  0 0 -1 0 1  0 0 0 1 0" color-interpolation-filters="sRGB" result="source"/>
				</filter>
			</defs>
			<mask maskUnits="userSpaceOnUse" x="4" y="9.7" width="406" height="555.7" id="SVGID_19_">
				<g class="st15">
					<image style="overflow:visible;" width="410" height="561" xlink:href="85A224E3.jpg"  transform="matrix(1 0 0 1 2 7)">
					</image>
				</g>
			</mask>
			<g class="st16">
				<path class="st12" d="M278.8,42.3c123.8,123.8,131.2,328,131.2,328c0,201-201,195.2-201,195.2H205c0,0-201,5.8-201-195.2
					c0,0-0.7-212.8,131.2-328C135.2,42.3,205.5-31.1,278.8,42.3z"/>
			</g>
		</g>
		
			<linearGradient id="SVGID_20_" gradientUnits="userSpaceOnUse" x1="262.6328" y1="548.3273" x2="313.2709" y2="497.6891" gradientTransform="matrix(2.740000e-02 -1.8737 1.6469 2.400000e-02 -534.6668 1007.9061)">
			<stop  offset="0" style="stop-color:#FFFFFF"/>
			<stop  offset="1" style="stop-color:#F05A28"/>
		</linearGradient>
		<path class="st17" d="M401.8,356.8c0,0-26.5,203.4-174.4,201.3C227.3,558.1,336.4,532.7,401.8,356.8z"/>
		<g class="st18">
			<defs>
				<filter id="Adobe_OpacityMaskFilter_3_" filterUnits="userSpaceOnUse" x="97.5" y="74" width="70.2" height="81.8">
					<feFlood  style="flood-color:white;flood-opacity:1" result="back"/>
					<feBlend  in="SourceGraphic" in2="back" mode="normal"/>
				</filter>
			</defs>
			<mask maskUnits="userSpaceOnUse" x="97.5" y="74" width="70.2" height="81.8" id="SVGID_21_">
				<g class="st19">
					<image style="overflow:visible;" width="75" height="86" xlink:href="85A224E5.jpg"  transform="matrix(1 0 0 1 95 72)">
					</image>
				</g>
			</mask>
			<g class="st20">
				<path class="st12" d="M154.7,130.9c-15.1,20.8-37.2,30.5-49.4,21.7c-12.2-8.8-9.8-32.9,5.3-53.6c15.1-20.8,37.2-30.5,49.3-21.7
					C172.1,86.1,169.8,110.1,154.7,130.9z"/>
			</g>
		</g>
		<g class="st21">
			<defs>
				<filter id="Adobe_OpacityMaskFilter_4_" filterUnits="userSpaceOnUse" x="112.5" y="91.5" width="40.2" height="46.9">
					<feFlood  style="flood-color:white;flood-opacity:1" result="back"/>
					<feBlend  in="SourceGraphic" in2="back" mode="normal"/>
				</filter>
			</defs>
			<mask maskUnits="userSpaceOnUse" x="112.5" y="91.5" width="40.2" height="46.9" id="SVGID_22_">
				<g class="st22">
					<image style="overflow:visible;" width="45" height="52" xlink:href="85A224E7.jpg"  transform="matrix(1 0 0 1 110 89)">
					</image>
				</g>
			</mask>
			<g class="st23">
				
					<ellipse transform="matrix(0.5871 -0.8095 0.8095 0.5871 -38.2769 154.8295)" class="st12" cx="132.6" cy="114.9" rx="26.6" ry="15.6"/>
			</g>
		</g>
		<g class="st24">
			<defs>
				<filter id="Adobe_OpacityMaskFilter_5_" filterUnits="userSpaceOnUse" x="117.6" y="97.4" width="30.1" height="35.1">
					<feFlood  style="flood-color:white;flood-opacity:1" result="back"/>
					<feBlend  in="SourceGraphic" in2="back" mode="normal"/>
				</filter>
			</defs>
			<mask maskUnits="userSpaceOnUse" x="117.6" y="97.4" width="30.1" height="35.1" id="SVGID_23_">
				<g class="st25">
					<image style="overflow:visible;" width="35" height="40" xlink:href="85A224E4.jpg"  transform="matrix(1 0 0 1 115 95)">
					</image>
				</g>
			</mask>
			<g class="st26">
				<path class="st12" d="M142.1,121.8c-6.5,8.9-16,13.1-21.2,9.3c-5.2-3.8-4.2-14.1,2.3-23c6.5-8.9,16-13.1,21.2-9.3
					C149.6,102.6,148.6,112.9,142.1,121.8z"/>
			</g>
		</g>
	</g>
	<g class="st0">
		<g class="st13">
			<g>
				<linearGradient id="SVGID_24_" gradientUnits="userSpaceOnUse" x1="178.0625" y1="283.7299" x2="393.0354" y2="436.9288">
					<stop  offset="0" style="stop-color:#FFFFFF"/>
					<stop  offset="1" style="stop-color:#603813"/>
				</linearGradient>
				<path class="st27" d="M278.8,42.3c123.8,123.8,131.2,328,131.2,328c0,201-201,195.2-201,195.2H205c0,0-201,5.8-201-195.2
					c0,0-0.7-212.8,131.2-328C135.2,42.3,205.5-31.1,278.8,42.3z"/>
			</g>
			<defs>
				<filter id="Adobe_OpacityMaskFilter_6_" filterUnits="userSpaceOnUse" x="4" y="9.7" width="406" height="555.7">
					
						<feColorMatrix  type="matrix" values="-1 0 0 0 1  0 -1 0 0 1  0 0 -1 0 1  0 0 0 1 0" color-interpolation-filters="sRGB" result="source"/>
				</filter>
			</defs>
			<mask maskUnits="userSpaceOnUse" x="4" y="9.7" width="406" height="555.7" id="SVGID_25_">
				<g class="st28">
					<image style="overflow:visible;" width="410" height="561" xlink:href="85A224EC.jpg"  transform="matrix(1 0 0 1 2 7)">
					</image>
				</g>
			</mask>
			<g class="st29">
				<path class="st12" d="M278.8,42.3c123.8,123.8,131.2,328,131.2,328c0,201-201,195.2-201,195.2H205c0,0-201,5.8-201-195.2
					c0,0-0.7-212.8,131.2-328C135.2,42.3,205.5-31.1,278.8,42.3z"/>
			</g>
		</g>
	</g>
	<polygon class="st30" points="46.6,506.6 51,494.2 62.1,500.4 78.1,484.4 147.7,495.5 180.7,479.4 217.1,493 227.3,473.2 
		258.5,483.1 222.7,465.8 215.3,486.2 175.1,465.8 147.7,489.9 122.6,479.4 103.5,481.3 97.5,465.8 147.7,453.5 132.6,445.4 
		157.8,439.3 152.6,404.1 152.6,434.3 117.6,443.6 132.6,451 91.7,460.9 91.1,475.1 79.4,472.6 65.2,486.8 54.1,473.2 46.6,478.8 
		19.5,471.4 	"/>
	<polygon class="st30" points="216.5,212.6 207,242.6 231.3,266.3 227.3,278 249.3,278 244.3,291.6 258.5,291.6 264.1,312 
		264.1,284.2 250.5,287.6 254.8,272.5 235.5,274.3 235.5,259.5 223.3,249.6 235.5,249.6 250.5,258.3 277.1,262.3 293.7,293.5 
		314.5,284.8 354.9,325 314.5,275.6 296.2,287.6 280.9,252.7 253,255.2 243.7,247.8 249.9,237.3 	"/>
	<polygon class="st30" points="76.3,224.3 88.6,250.2 104.7,255.8 101.6,268.8 109.6,268.8 109.6,287.6 130,291.6 130,318.8 
		135.6,287.6 117.6,282.4 117.6,262.6 105.9,264.4 112.5,252.1 97.5,248.4 105.9,238.5 130,234.8 135.6,221.2 125.7,229.2 
		105.9,232.9 93.6,242.6 97.6,215.4 	"/>
</g>
</svg>
