<?xml version="1.0" encoding="utf-8"?>
<!-- Generator: Adobe Illustrator 21.1.0, SVG Export Plug-In . SVG Version: 6.00 Build 0)  -->
<svg version="1.1" id="Layer_1" xmlns="http://www.w3.org/2000/svg" xmlns:xlink="http://www.w3.org/1999/xlink" x="0px" y="0px"
	 viewBox="0 0 486.8 875.7" style="enable-background:new 0 0 486.8 875.7;" xml:space="preserve">
<style type="text/css">
	.st0{filter:url(#Adobe_OpacityMaskFilter);}
	.st1{mask:url(#SVGID_4_);}
	.st2{fill:url(#SVGID_6_);}
	.st3{clip-path:url(#SVGID_15_);}
	.st4{fill:url(#SVGID_22_);}
	.st5{filter:url(#Adobe_OpacityMaskFilter_1_);}
	.st6{opacity:0.75;mask:url(#SVGID_7_);}
	.st7{fill:#B72A2A;}
	.st8{clip-path:url(#SVGID_25_);}
	.st9{fill:#378636;}
	.st10{filter:url(#Adobe_OpacityMaskFilter_2_);}
	.st11{opacity:0.75;mask:url(#SVGID_8_);}
	.st12{fill:#7FBA28;}
	.st13{clip-path:url(#SVGID_27_);}
	.st14{fill:#358033;}
	.st15{filter:url(#Adobe_OpacityMaskFilter_3_);}
	.st16{opacity:0.75;mask:url(#SVGID_9_);}
	.st17{clip-path:url(#SVGID_29_);}
	.st18{filter:url(#Adobe_OpacityMaskFilter_4_);}
	.st19{opacity:0.75;mask:url(#SVGID_10_);}
	.st20{clip-path:url(#SVGID_31_);fill:url(#SVGID_32_);}
	.st21{clip-path:url(#SVGID_34_);}
	.st22{filter:url(#Adobe_OpacityMaskFilter_5_);}
	.st23{opacity:0.75;mask:url(#SVGID_12_);}
	.st24{clip-path:url(#SVGID_36_);}
	.st25{filter:url(#Adobe_OpacityMaskFilter_6_);}
	.st26{opacity:0.75;mask:url(#SVGID_13_);}
	.st27{clip-path:url(#SVGID_38_);}
	.st28{filter:url(#Adobe_OpacityMaskFilter_7_);}
	.st29{opacity:0.75;mask:url(#SVGID_14_);}
	.st30{clip-path:url(#SVGID_40_);fill:url(#SVGID_41_);}
	.st31{clip-path:url(#SVGID_43_);}
	.st32{filter:url(#Adobe_OpacityMaskFilter_8_);}
	.st33{opacity:0.75;mask:url(#SVGID_16_);}
	.st34{clip-path:url(#SVGID_45_);}
	.st35{filter:url(#Adobe_OpacityMaskFilter_9_);}
	.st36{opacity:0.75;mask:url(#SVGID_17_);}
	.st37{clip-path:url(#SVGID_47_);}
	.st38{filter:url(#Adobe_OpacityMaskFilter_10_);}
	.st39{opacity:0.75;mask:url(#SVGID_18_);}
	.st40{clip-path:url(#SVGID_49_);}
	.st41{filter:url(#Adobe_OpacityMaskFilter_11_);}
	.st42{opacity:0.75;mask:url(#SVGID_19_);}
	.st43{clip-path:url(#SVGID_51_);}
	.st44{filter:url(#Adobe_OpacityMaskFilter_12_);}
	.st45{opacity:0.75;mask:url(#SVGID_20_);}
	.st46{clip-path:url(#SVGID_53_);}
	.st47{filter:url(#Adobe_OpacityMaskFilter_13_);}
	.st48{opacity:0.75;mask:url(#SVGID_21_);}
	.st49{clip-path:url(#SVGID_55_);fill:url(#SVGID_56_);}
	.st50{clip-path:url(#SVGID_58_);fill:#95C11F;}
	.st51{clip-path:url(#SVGID_60_);fill:#95C11F;}
	.st52{clip-path:url(#SVGID_62_);fill:#95C11F;}
	.st53{clip-path:url(#SVGID_64_);fill:#95C11F;}
	.st54{clip-path:url(#SVGID_66_);fill:#95C11F;}
	.st55{clip-path:url(#SVGID_68_);fill:#95C11F;}
	.st56{clip-path:url(#SVGID_70_);fill:#95C11F;}
	.st57{clip-path:url(#SVGID_72_);fill:#95C11F;}
	.st58{clip-path:url(#SVGID_74_);fill:#95C11F;}
	.st59{clip-path:url(#SVGID_76_);fill:#95C11F;}
	.st60{clip-path:url(#SVGID_78_);fill:#95C11F;}
	.st61{clip-path:url(#SVGID_80_);fill:#95C11F;}
	.st62{clip-path:url(#SVGID_82_);fill:#95C11F;}
	.st63{clip-path:url(#SVGID_84_);fill:#95C11F;}
	.st64{clip-path:url(#SVGID_86_);fill:#95C11F;}
	.st65{clip-path:url(#SVGID_88_);fill:#95C11F;}
	.st66{clip-path:url(#SVGID_90_);fill:#95C11F;}
	.st67{clip-path:url(#SVGID_92_);fill:#95C11F;}
	.st68{clip-path:url(#SVGID_94_);fill:#95C11F;}
	.st69{clip-path:url(#SVGID_96_);fill:#95C11F;}
	.st70{clip-path:url(#SVGID_98_);fill:#95C11F;}
	.st71{clip-path:url(#SVGID_100_);fill:#95C11F;}
	.st72{clip-path:url(#SVGID_102_);fill:#95C11F;}
	.st73{clip-path:url(#SVGID_104_);fill:#95C11F;}
	.st74{clip-path:url(#SVGID_106_);fill:#95C11F;}
	.st75{clip-path:url(#SVGID_108_);fill:#95C11F;}
	.st76{clip-path:url(#SVGID_110_);fill:#95C11F;}
	.st77{clip-path:url(#SVGID_112_);fill:#95C11F;}
	.st78{clip-path:url(#SVGID_114_);fill:#95C11F;}
	.st79{clip-path:url(#SVGID_116_);fill:#95C11F;}
	.st80{clip-path:url(#SVGID_118_);fill:#95C11F;}
	.st81{clip-path:url(#SVGID_120_);fill:#95C11F;}
	.st82{clip-path:url(#SVGID_122_);fill:#95C11F;}
	.st83{clip-path:url(#SVGID_124_);fill:#95C11F;}
	.st84{clip-path:url(#SVGID_126_);fill:#95C11F;}
	.st85{clip-path:url(#SVGID_128_);fill:#95C11F;}
	.st86{clip-path:url(#SVGID_130_);fill:#95C11F;}
	.st87{clip-path:url(#SVGID_132_);fill:#95C11F;}
	.st88{clip-path:url(#SVGID_134_);fill:#95C11F;}
	.st89{clip-path:url(#SVGID_136_);fill:#95C11F;}
	.st90{clip-path:url(#SVGID_138_);fill:#95C11F;}
	.st91{clip-path:url(#SVGID_140_);fill:#95C11F;}
	.st92{clip-path:url(#SVGID_142_);fill:#95C11F;}
	.st93{opacity:0.3;clip-path:url(#SVGID_144_);}
	.st94{filter:url(#Adobe_OpacityMaskFilter_14_);}
	.st95{mask:url(#SVGID_23_);}
	.st96{fill:#FFFFFF;}
	.st97{opacity:0.3;clip-path:url(#SVGID_146_);}
	.st98{filter:url(#Adobe_OpacityMaskFilter_15_);}
	.st99{mask:url(#SVGID_1_);}
	.st100{clip-path:url(#SVGID_148_);fill:#95C11F;}
	.st101{clip-path:url(#SVGID_150_);fill:#95C11F;}
	.st102{clip-path:url(#SVGID_152_);fill:#95C11F;}
	.st103{clip-path:url(#SVGID_154_);fill:#95C11F;}
	.st104{clip-path:url(#SVGID_156_);fill:#95C11F;}
	.st105{clip-path:url(#SVGID_158_);fill:#95C11F;}
	.st106{clip-path:url(#SVGID_160_);fill:#95C11F;}
	.st107{clip-path:url(#SVGID_162_);fill:#95C11F;}
	.st108{clip-path:url(#SVGID_164_);fill:#95C11F;}
	.st109{clip-path:url(#SVGID_166_);fill:#95C11F;}
	.st110{clip-path:url(#SVGID_168_);fill:#95C11F;}
	.st111{clip-path:url(#SVGID_170_);fill:#95C11F;}
	.st112{clip-path:url(#SVGID_172_);fill:#95C11F;}
	.st113{clip-path:url(#SVGID_174_);fill:#95C11F;}
	.st114{clip-path:url(#SVGID_176_);fill:#95C11F;}
	.st115{clip-path:url(#SVGID_178_);fill:#95C11F;}
	.st116{clip-path:url(#SVGID_180_);fill:#95C11F;}
	.st117{clip-path:url(#SVGID_182_);fill:#95C11F;}
	.st118{clip-path:url(#SVGID_184_);fill:#95C11F;}
	.st119{clip-path:url(#SVGID_186_);fill:#95C11F;}
	.st120{clip-path:url(#SVGID_188_);fill:#95C11F;}
	.st121{clip-path:url(#SVGID_190_);fill:#95C11F;}
	.st122{clip-path:url(#SVGID_192_);fill:#95C11F;}
	.st123{clip-path:url(#SVGID_194_);fill:#95C11F;}
	.st124{fill:#FFFFFF;stroke:#000000;stroke-miterlimit:10;}
	.st125{fill:url(#SVGID_195_);}
	.st126{fill:#6F2A0D;}
	.st127{fill:#7F321E;}
	.st128{fill:#5B1E00;}
	.st129{filter:url(#Adobe_OpacityMaskFilter_16_);}
	.st130{opacity:0.75;mask:url(#SVGID_3_);}
	.st131{filter:url(#Adobe_OpacityMaskFilter_17_);}
	.st132{opacity:0.75;mask:url(#SVGID_2_);}
	.st133{filter:url(#Adobe_OpacityMaskFilter_18_);}
	.st134{opacity:0.75;mask:url(#SVGID_5_);}
	.st135{fill:url(#SVGID_196_);}
	.st136{fill:url(#SVGID_197_);}
	.st137{fill:url(#SVGID_198_);}
	.st138{fill:url(#SVGID_199_);}
</style>
<g>
	<defs>
		<filter id="Adobe_OpacityMaskFilter" filterUnits="userSpaceOnUse" x="97" y="219.7" width="312" height="312">
			<feColorMatrix  type="matrix" values="1 0 0 0 0  0 1 0 0 0  0 0 1 0 0  0 0 0 1 0"/>
		</filter>
	</defs>
	<mask maskUnits="userSpaceOnUse" x="97" y="219.7" width="312" height="312" id="SVGID_4_">
		<g class="st0">
			
				<image style="overflow:visible;enable-background:new    ;" width="317" height="316" xlink:href="733FC170.jpg"  transform="matrix(1 0 0 1 94.519 217.694)">
			</image>
		</g>
	</mask>
	<g class="st1">
		
			<radialGradient id="SVGID_6_" cx="253.0188" cy="455.244" r="155.999" gradientTransform="matrix(1 0 0 -1 0 830.938)" gradientUnits="userSpaceOnUse">
			<stop  offset="0" style="stop-color:#FFD615"/>
			<stop  offset="1" style="stop-color:#FFA835"/>
		</radialGradient>
		<circle class="st2" cx="253" cy="375.7" r="156"/>
	</g>
</g>
<g>
	<g>
		<g>
			<g>
				<defs>
					<rect id="SVGID_11_" x="13" y="15.2" width="480" height="860.6"/>
				</defs>
				<clipPath id="SVGID_15_">
					<use xlink:href="#SVGID_11_"  style="overflow:visible;"/>
				</clipPath>
				<g class="st3">
					<g>
						
							<radialGradient id="SVGID_22_" cx="248.7539" cy="426.0829" r="286.5366" gradientTransform="matrix(1.0162 0 0 -1.5469 1.0951 1118.7444)" gradientUnits="userSpaceOnUse">
							<stop  offset="0" style="stop-color:#0E5120"/>
							<stop  offset="1" style="stop-color:#4A8122"/>
						</radialGradient>
						<path class="st4" d="M-152.6,376.5c0,0,3.4-10.8,3.6-17c0,0,1.4,11.3,2.9,12.6c0,0,2.7-5.7,4.9-8c0,0,4.1,10.3,3.7,15.7
							c0,0,2.9-7.7,5.6-10.2c0,0,3.2,18.2,5.1,19.7c0,0,4.9-15.7,7.8-19.6c0,0,2.7,11.6,2.7,15.7c0,0,3.2-13.2,4.4-17.3l1.7,11.9
							c0,0,1.4-4.9,2.5-8.5c0,0,3.1,10.6,2.9,16.2c0,0,3.9-5.7,3.9-9l2,3.9l1-8.3l1.5,5.9c0,0,1.4-5.7,3.2-9.8
							c0,0,3.6,11.1,3.4,16.5c0,0,3.2-3.4,3-8c0,0,2.2,4.4,2.2,5.7l3.7-13.4c0,0,6.9,20.4,8,24.2c0,0,3.7-10.1,4.2-15.7l3.2,7
							c0,0,1.9-9.5,5.4-12.4c0,0,0.7,7.7,2.9,8.3l1.5-4.1c0,0,3.4,6.4,3.4,9.5l1.2-3.6l1.5,4.1l1-11.1l2.5,15l1.5-4.9l1.9,6.2
							c0,0,1.4-10.8,4.2-14.4c0,0,2.9,2.8,3.9,8c0,0,1-3.9,2.2-5.7c0,0,4.1,6.7,4.4,9.8c0,0-0.3-5.4,1.4-6.7c0,0,6.3,10.1,7.3,18.3
							c0,0,2.5-4.9,2.5-12.6l2.9,6.4l1.9-5.4l1.7,3.1l4.2-10.3c0,0,4.7,13.2,4.7,16.8c0,0-0.5-11.9,3.4-19.7c0,0,2.7,7.3,2.7,10.4
							l2.2-8.8c0,0,2.7,8.8,3,15.5l2.7-7l0.7,3.4c0,0,3.6-5.9,2.7-9.5c0,0,3.9,8.8,4.2,13.7l1.2-5.2l2.4,8l1.4-1.8l1.4,4.9l3.9-13.9
							l2.9,11.1c0,0,3.4-9.8,3.2-15.2c0,0,4.2,12.9,4.6,16.5c0,0,2.5-5.2,2.4-8.8c0,0,1.7,10.8,2.7,12.9l4.6-10.6l2.5,10.6
							c0,0,3.7-10.6,3.9-13.9c0,0,1.9,8.2,2.2,11.9c0,0,1.5-4.9,3.2-7c0,0,3.9,4.9,4.4,11.9l0.8-5.2l1.4,6.4l1.9-7l1.2,2.6l1.2-6.7
							l2.5,8.8c0,0,2.7-0.8,3.6-7.7c0,0,1.7,8.5,0,11.9c0,0,1.5-0.5,1.7-3.4l2.2,8.2l4.4-11.1c0,0,1.5,4.4,1.2,7l2.5-5.7l2.5,12.1
							l1-4.9l4.4,9.3c0,0,3-6.2,1.7-12.4c0,0,4.6,8,4.9,12.4l4.6-16c0,0,3.7,5.4,3.4,9.5c0,0,1.2-4.6,2-6.2c0,0,2.9,8,2.9,12.6
							l3.2-13.9c0,0,2,6.4,2.4,9l1.4-6.7l1.4,5.4l2-5.7l2.7,6.7c0,0,2-4.9,1.2-10.6c0,0,2.2,5.2,2.4,11.3c0,0,2.9,1.3,2.2-6.7
							l2.5,6.2c0,0,2.5-3.9,1.5-8.8c0,0,6.9,9.6,8.6,18.5c0,0,1.7-13.8,2.9-19.5c0,0,4.4,8.9,5.3,19.5c0,0,2.7-10.2,5.6-16.9
							c0,0,6.6,7.5,7.6,15.7c0,0,1.4-11.9,4.2-18.3c0,0,4.2,12.6,4.1,22.7l4.1-10.1c0,0,2.2,3.2,2.2,6.9l2.4-6.4
							c0,0,1.9,5.4,3.6,11.3c0,0,4.6-6.7,3.4-16.8c0,0,2.5,4.7,2,11.8c0,0,4.1-5.8,3.6-14.6c0,0,3.7,16,4.7,17.3l2-11.6l4.6,12.9
							l1-8.5l1.4,4.6l2-2.2c0,0,3.9,5.7,3.9,10.3v-12.1l5.3,16c0,0,2.9-17.3,3-26.8l5.3,17.5l1.7-13.4c0,0,4.4,18.3,4.7,22.7
							c0,0,2.4-21.1,3.7-23.2c0,0,6.4,13.4,6.9,16.2l0.8-8.5c0,0,4.2,11.3,5.1,17.8c0,0,6.8-18.3,6.9-25l2.7,13.2l2-16.5l1.4,12.9
							l1.5-6.7c0,0,3.9,9.8,4.2,16c0,0,9.5-21.9,9.8-36.1c0,0,2.9,16.8,3,23.2l2.7-8.3c0,0,2.9,11.1,2.9,16.2c0,0,4.6-15,4.9-23.7
							l2.4,15.7l2-11.9c0,0,3.2,13.4,2.9,22.2c0,0,7.5-24.5,6.4-35.8c0,0,7.6,17.5,7.6,24.2l5.6-27.6c0,0,8.5,17.5,9,25l2-16.8
							l2.9,16c0,0,3.6-11.9,3.7-19.9l3.6,13.2l3.4-11.9c0,0,4.6,11.9,4.9,20.1l1.9-9l2.4,8.8c0,0,3.4-14.2,3.4-23.7
							c0,0,3.6,15.5,4.1,21.9l3.9-14.7c0,0,3.2,16.2,3.4,22.7l2.5-10.3l6.1,12.3l1-11.5l6.3,14.2c0,0,3-17.3,5.1-21.4
							c0,0,6.8,9.5,7.6,17.3l2.5-8.5l2.9,10l6.6-31.1c0,0,5.2,27.3,9.8,32.7c0,0-1.4-19.6,8-37.9c0,0,0.7,13.7,5.6,18.3l5.4-12.1
							c0,0,10,22.4,10,31.2c0,0,6.6-6.7,8.1-18c0,0,2.7,11.3,2.9,18l2.7-17l3.1,8.8l1.5-5.2c0,0,2.7,4.9,2.9,8.8l2.5-9l2.5,5.7
							l3.4-12.4l1,8.5l3.7-7.5l1.7,3.1l2.2-3.1l1.2,2.3c0,0,3-5.7,3.2-10.6l1,10.3l3.9-27.1l2.7,15.2l1.7-4.9c0,0,3.9,11.9,3.9,16
							l4.1-13.4l2.5,10.8l3.7-13.1l3.6,13.4l1.5-6.7l2.4,4.4c0,0-0.3-10.8,2.9-15l2.2,6.7l1.4-3.6l1.5,2.1v-4.9l4.6,7.2
							c0,0,2.4-16,1.5-21.7c0,0,4.4,12.1,4.4,16c0,0,0.7-4.9,0-8.3c0,0,3.2,6.7,3.2,11.9c0,0,5.8,0.8,5.4-10.8l3.1,3.4l1.4-5.9
							l4.1,5.4l3-5.7l1.5,2.3c0,0,1-7.5,1.7-5.9c0.7,1.5,3.4-2.6,6.1,5.9s6.4-0.8,6.4-0.8s2.2-13.1,4.7-2.6
							c2.5,10.6,3.9-12.9,8.1,2.3l1.5-2.3l3.6,5.2l5.3-13.7v11.9l6.4-10.8l2,8.3l2.5-0.5l0.8,3.6l4.2-11.9l0.7,6.2l1.4-1.8l4.6,8.5
							l6.4-9.8l0.8,5.9l3.7-4.1l0.8,7.2l2.5-9.5l4.2,14.4c0,0,5.9-7.7,3.7-17c0,0,8.4,6.4,9.3,18v165.7h-813L-152.6,376.5z"/>
					</g>
					<defs>
						<filter id="Adobe_OpacityMaskFilter_1_" filterUnits="userSpaceOnUse" x="-152.6" y="359.5" width="813" height="200.3">
							<feColorMatrix  type="matrix" values="1 0 0 0 0  0 1 0 0 0  0 0 1 0 0  0 0 0 1 0"/>
						</filter>
					</defs>
					<mask maskUnits="userSpaceOnUse" x="-152.6" y="359.5" width="813" height="200.3" id="SVGID_7_">
						<g class="st5">
							
								<image style="overflow:visible;enable-background:new    ;" width="100" height="71" xlink:href="733FC150.jpeg"  transform="matrix(6.8411 0 0 7.3496 -88.1376 198.7762)">
							</image>
						</g>
					</mask>
					<g class="st6">
						<path class="st7" d="M-152.6,376.5c0,0,3.4-10.8,3.6-17c0,0,1.4,11.3,2.9,12.6c0,0,2.7-5.7,4.9-8c0,0,4.1,10.3,3.7,15.7
							c0,0,2.9-7.7,5.6-10.2c0,0,3.2,18.2,5.1,19.7c0,0,4.9-15.7,7.8-19.6c0,0,2.7,11.6,2.7,15.7c0,0,3.2-13.2,4.4-17.3l1.7,11.9
							c0,0,1.4-4.9,2.5-8.5c0,0,3.1,10.6,2.9,16.2c0,0,3.9-5.7,3.9-9l2,3.9l1-8.3l1.5,5.9c0,0,1.4-5.7,3.2-9.8
							c0,0,3.6,11.1,3.4,16.5c0,0,3.2-3.4,3-8c0,0,2.2,4.4,2.2,5.7l3.7-13.4c0,0,6.9,20.4,8,24.2c0,0,3.7-10.1,4.2-15.7l3.2,7
							c0,0,1.9-9.5,5.4-12.4c0,0,0.7,7.7,2.9,8.3l1.5-4.1c0,0,3.4,6.4,3.4,9.5l1.2-3.6l1.5,4.1l1-11.1l2.5,15l1.5-4.9l1.9,6.2
							c0,0,1.4-10.8,4.2-14.4c0,0,2.9,2.8,3.9,8c0,0,1-3.9,2.2-5.7c0,0,4.1,6.7,4.4,9.8c0,0-0.3-5.4,1.4-6.7c0,0,6.3,10.1,7.3,18.3
							c0,0,2.5-4.9,2.5-12.6l2.9,6.4l1.9-5.4l1.7,3.1l4.2-10.3c0,0,4.7,13.2,4.7,16.8c0,0-0.5-11.9,3.4-19.7c0,0,2.7,7.3,2.7,10.4
							l2.2-8.8c0,0,2.7,8.8,3,15.5l2.7-7l0.7,3.4c0,0,3.6-5.9,2.7-9.5c0,0,3.9,8.8,4.2,13.7l1.2-5.2l2.4,8l1.4-1.8l1.4,4.9l3.9-13.9
							l2.9,11.1c0,0,3.4-9.8,3.2-15.2c0,0,4.2,12.9,4.6,16.5c0,0,2.5-5.2,2.4-8.8c0,0,1.7,10.8,2.7,12.9l4.6-10.6l2.5,10.6
							c0,0,3.7-10.6,3.9-13.9c0,0,1.9,8.2,2.2,11.9c0,0,1.5-4.9,3.2-7c0,0,3.9,4.9,4.4,11.9l0.8-5.2l1.4,6.4l1.9-7l1.2,2.6l1.2-6.7
							l2.5,8.8c0,0,2.7-0.8,3.6-7.7c0,0,1.7,8.5,0,11.9c0,0,1.5-0.5,1.7-3.4l2.2,8.2l4.4-11.1c0,0,1.5,4.4,1.2,7l2.5-5.7l2.5,12.1
							l1-4.9l4.4,9.3c0,0,3-6.2,1.7-12.4c0,0,4.6,8,4.9,12.4l4.6-16c0,0,3.7,5.4,3.4,9.5c0,0,1.2-4.6,2-6.2c0,0,2.9,8,2.9,12.6
							l3.2-13.9c0,0,2,6.4,2.4,9l1.4-6.7l1.4,5.4l2-5.7l2.7,6.7c0,0,2-4.9,1.2-10.6c0,0,2.2,5.2,2.4,11.3c0,0,2.9,1.3,2.2-6.7
							l2.5,6.2c0,0,2.5-3.9,1.5-8.8c0,0,6.9,9.6,8.6,18.5c0,0,1.7-13.8,2.9-19.5c0,0,4.4,8.9,5.3,19.5c0,0,2.7-10.2,5.6-16.9
							c0,0,6.6,7.5,7.6,15.7c0,0,1.4-11.9,4.2-18.3c0,0,4.2,12.6,4.1,22.7l4.1-10.1c0,0,2.2,3.2,2.2,6.9l2.4-6.4
							c0,0,1.9,5.4,3.6,11.3c0,0,4.6-6.7,3.4-16.8c0,0,2.5,4.7,2,11.8c0,0,4.1-5.8,3.6-14.6c0,0,3.7,16,4.7,17.3l2-11.6l4.6,12.9
							l1-8.5l1.4,4.6l2-2.2c0,0,3.9,5.7,3.9,10.3v-12.1l5.3,16c0,0,2.9-17.3,3-26.8l5.3,17.5l1.7-13.4c0,0,4.4,18.3,4.7,22.7
							c0,0,2.4-21.1,3.7-23.2c0,0,6.4,13.4,6.9,16.2l0.8-8.5c0,0,4.2,11.3,5.1,17.8c0,0,6.8-18.3,6.9-25l2.7,13.2l2-16.5l1.4,12.9
							l1.5-6.7c0,0,3.9,9.8,4.2,16c0,0,9.5-21.9,9.8-36.1c0,0,2.9,16.8,3,23.2l2.7-8.3c0,0,2.9,11.1,2.9,16.2c0,0,4.6-15,4.9-23.7
							l2.4,15.7l2-11.9c0,0,3.2,13.4,2.9,22.2c0,0,7.5-24.5,6.4-35.8c0,0,7.6,17.5,7.6,24.2l5.6-27.6c0,0,8.5,17.5,9,25l2-16.8
							l2.9,16c0,0,3.6-11.9,3.7-19.9l3.6,13.2l3.4-11.9c0,0,4.6,11.9,4.9,20.1l1.9-9l2.4,8.8c0,0,3.4-14.2,3.4-23.7
							c0,0,3.6,15.5,4.1,21.9l3.9-14.7c0,0,3.2,16.2,3.4,22.7l2.5-10.3l6.1,12.3l1-11.5l6.3,14.2c0,0,3-17.3,5.1-21.4
							c0,0,6.8,9.5,7.6,17.3l2.5-8.5l2.9,10l6.6-31.1c0,0,5.2,27.3,9.8,32.7c0,0-1.4-19.6,8-37.9c0,0,0.7,13.7,5.6,18.3l5.4-12.1
							c0,0,10,22.4,10,31.2c0,0,6.6-6.7,8.1-18c0,0,2.7,11.3,2.9,18l2.7-17l3.1,8.8l1.5-5.2c0,0,2.7,4.9,2.9,8.8l2.5-9l2.5,5.7
							l3.4-12.4l1,8.5l3.7-7.5l1.7,3.1l2.2-3.1l1.2,2.3c0,0,3-5.7,3.2-10.6l1,10.3l3.9-27.1l2.7,15.2l1.7-4.9c0,0,3.9,11.9,3.9,16
							l4.1-13.4l2.5,10.8l3.7-13.1l3.6,13.4l1.5-6.7l2.4,4.4c0,0-0.3-10.8,2.9-15l2.2,6.7l1.4-3.6l1.5,2.1v-4.9l4.6,7.2
							c0,0,2.4-16,1.5-21.7c0,0,4.4,12.1,4.4,16c0,0,0.7-4.9,0-8.3c0,0,3.2,6.7,3.2,11.9c0,0,5.8,0.8,5.4-10.8l3.1,3.4l1.4-5.9
							l4.1,5.4l3-5.7l1.5,2.3c0,0,1-7.5,1.7-5.9c0.7,1.5,3.4-2.6,6.1,5.9s6.4-0.8,6.4-0.8s2.2-13.1,4.7-2.6
							c2.5,10.6,3.9-12.9,8.1,2.3l1.5-2.3l3.6,5.2l5.3-13.7v11.9l6.4-10.8l2,8.3l2.5-0.5l0.8,3.6l4.2-11.9l0.7,6.2l1.4-1.8l4.6,8.5
							l6.4-9.8l0.8,5.9l3.7-4.1l0.8,7.2l2.5-9.5l4.2,14.4c0,0,5.9-7.7,3.7-17c0,0,8.4,6.4,9.3,18v165.7h-813L-152.6,376.5z"/>
					</g>
				</g>
			</g>
		</g>
	</g>
	<g>
		<g>
			<g>
				<defs>
					<rect id="SVGID_24_" x="13" y="15.2" width="480" height="860.6"/>
				</defs>
				<clipPath id="SVGID_25_">
					<use xlink:href="#SVGID_24_"  style="overflow:visible;"/>
				</clipPath>
				<g class="st8">
					<g>
						<path class="st9" d="M137.3,537.2c0,0-3.4-1-0.5-4.8l0.8,1.2c0,0-1.1-1.7,1.3-3.9l-0.1,1.5c0,0,0.6-2.2,2.8-3.3
							c0,0-1.2,2.6,2.6,0.3c0,0,0.6,1.9,2.4-1.5c0,0,1.3,1.3,0.4,2.7c0,0,1.5-1.2,1.4-2.1c0,0,1.8,3.7-0.5,6c0,0,2.4-0.6,2.8-2.9
							c0,0,1.9,6.5-3.6,7.8L137.3,537.2z"/>
					</g>
					<defs>
						<filter id="Adobe_OpacityMaskFilter_2_" filterUnits="userSpaceOnUse" x="135.6" y="526.6" width="15.3" height="11.6">
							<feColorMatrix  type="matrix" values="1 0 0 0 0  0 1 0 0 0  0 0 1 0 0  0 0 0 1 0"/>
						</filter>
					</defs>
					<mask maskUnits="userSpaceOnUse" x="135.6" y="526.6" width="15.3" height="11.6" id="SVGID_8_">
						<g class="st10">
							
								<image style="overflow:visible;enable-background:new    ;" width="179" height="92" xlink:href="733FC151.jpeg"  transform="matrix(0.1241 0 0 0.1266 132.2101 526.6058)">
							</image>
						</g>
					</mask>
					<g class="st11">
						<path class="st12" d="M137.3,537.2c0,0-3.4-1-0.5-4.8l0.8,1.2c0,0-1.1-1.7,1.3-3.9l-0.1,1.5c0,0,0.6-2.2,2.8-3.3
							c0,0-1.2,2.6,2.6,0.3c0,0,0.6,1.9,2.4-1.5c0,0,1.3,1.3,0.4,2.7c0,0,1.5-1.2,1.4-2.1c0,0,1.8,3.7-0.5,6c0,0,2.4-0.6,2.8-2.9
							c0,0,1.9,6.5-3.6,7.8L137.3,537.2z"/>
					</g>
				</g>
			</g>
		</g>
	</g>
	<g>
		<g>
			<g>
				<defs>
					<rect id="SVGID_26_" x="13" y="15.2" width="480" height="860.6"/>
				</defs>
				<clipPath id="SVGID_27_">
					<use xlink:href="#SVGID_26_"  style="overflow:visible;"/>
				</clipPath>
				<g class="st13">
					<g>
						<path class="st14" d="M280.7,532.4c0,0-7.7-1.4-1.7-8.1c0,0,1.6-1.5,1.6,0.2c0,0,1.3-2.8,3.1-0.4c0,0,1.3-3.3,1.9-0.6
							c0,0,1.4-4.3,3.2-0.7c0,0,1.1,1.3,0.3-3c0,0-0.1-3.1,3.4-1.3c0,0,0.6-1.6,1.7-1.5c0,0,2-0.3,2.2,1.6c0,0,0.9,1.2-0.3,3.6
							c0,0,2.8-1.4,1.3,1.3c0,0,6.5,5.8,1,9.4L280.7,532.4z"/>
					</g>
					<defs>
						<filter id="Adobe_OpacityMaskFilter_3_" filterUnits="userSpaceOnUse" x="276.7" y="517" width="23.9" height="15.9">
							<feColorMatrix  type="matrix" values="1 0 0 0 0  0 1 0 0 0  0 0 1 0 0  0 0 0 1 0"/>
						</filter>
					</defs>
					<mask maskUnits="userSpaceOnUse" x="276.7" y="517" width="23.9" height="15.9" id="SVGID_9_">
						<g class="st15">
							
								<image style="overflow:visible;enable-background:new    ;" width="100" height="71" xlink:href="733FC150.jpeg"  transform="matrix(0.2777 0 0 0.2939 274.8183 514.6129)">
							</image>
						</g>
					</mask>
					<g class="st16">
						<path class="st12" d="M280.7,532.4c0,0-7.7-1.4-1.7-8.1c0,0,1.6-1.5,1.6,0.2c0,0,1.3-2.8,3.1-0.4c0,0,1.3-3.3,1.9-0.6
							c0,0,1.4-4.3,3.2-0.7c0,0,1.1,1.3,0.3-3c0,0-0.1-3.1,3.4-1.3c0,0,0.6-1.6,1.7-1.5c0,0,2-0.3,2.2,1.6c0,0,0.9,1.2-0.3,3.6
							c0,0,2.8-1.4,1.3,1.3c0,0,6.5,5.8,1,9.4L280.7,532.4z"/>
					</g>
				</g>
			</g>
		</g>
	</g>
	<g>
		<g>
			<g>
				<defs>
					<rect id="SVGID_28_" x="13" y="15.2" width="480" height="860.6"/>
				</defs>
				<clipPath id="SVGID_29_">
					<use xlink:href="#SVGID_28_"  style="overflow:visible;"/>
				</clipPath>
				<g class="st17">
					<g>
						<path class="st14" d="M471.3,518.1c0,0,6.1-1.3,1.2-6.5c0,0-1.3-1.2-1.3,0.2c0,0-1.1-2.2-2.5-0.2c0,0-1.1-2.6-1.5-0.4
							c0,0-1.2-3.4-2.5-0.5c0,0-0.9,1-0.3-2.4c0,0,0-2.5-2.8-1c0,0-0.5-1.3-1.4-1.2c0,0-1.6-0.2-1.7,1.4c0,0-0.7,1,0.4,2.9
							c0,0-2.3-1-1,1c0,0-5.1,4.8-0.6,7.5L471.3,518.1z"/>
					</g>
					<defs>
						<filter id="Adobe_OpacityMaskFilter_4_" filterUnits="userSpaceOnUse" x="455.3" y="506.1" width="19.1" height="12.8">
							<feColorMatrix  type="matrix" values="1 0 0 0 0  0 1 0 0 0  0 0 1 0 0  0 0 0 1 0"/>
						</filter>
					</defs>
					<mask maskUnits="userSpaceOnUse" x="455.3" y="506.1" width="19.1" height="12.8" id="SVGID_10_">
						<g class="st18">
							
								<image style="overflow:visible;enable-background:new    ;" width="179" height="92" xlink:href="733FC151.jpeg"  transform="matrix(0.1401 0 0 0.1524 452.3991 505.5797)">
							</image>
						</g>
					</mask>
					<g class="st19">
						<path class="st12" d="M471.3,518.1c0,0,6.1-1.3,1.2-6.5c0,0-1.3-1.2-1.3,0.2c0,0-1.1-2.2-2.5-0.2c0,0-1.1-2.6-1.5-0.4
							c0,0-1.2-3.4-2.5-0.5c0,0-0.9,1-0.3-2.4c0,0,0-2.5-2.8-1c0,0-0.5-1.3-1.4-1.2c0,0-1.6-0.2-1.7,1.4c0,0-0.7,1,0.4,2.9
							c0,0-2.3-1-1,1c0,0-5.1,4.8-0.6,7.5L471.3,518.1z"/>
					</g>
				</g>
			</g>
		</g>
	</g>
	<g>
		<g>
			<g>
				<defs>
					<rect id="SVGID_30_" x="13" y="15.2" width="480" height="860.6"/>
				</defs>
				<clipPath id="SVGID_31_">
					<use xlink:href="#SVGID_30_"  style="overflow:visible;"/>
				</clipPath>
				
					<linearGradient id="SVGID_32_" gradientUnits="userSpaceOnUse" x1="381.7194" y1="214.7561" x2="386.8309" y2="268.4264" gradientTransform="matrix(1 0 0 -1 -4.000000e-02 788.1276)">
					<stop  offset="0" style="stop-color:#1C7B34"/>
					<stop  offset="0.3842" style="stop-color:#67B12F"/>
					<stop  offset="1" style="stop-color:#BBD034"/>
				</linearGradient>
				<path class="st20" d="M95,538.3c0,0,167.4-6.5,224-11.9c0,0,90-9.8,194-10.3c0,0,136.6-4.1,140-14.9v268.1H95V538.3z"/>
			</g>
		</g>
	</g>
	<g>
		<g>
			<g>
				<defs>
					<rect id="SVGID_33_" x="13" y="15.2" width="480" height="860.6"/>
				</defs>
				<clipPath id="SVGID_34_">
					<use xlink:href="#SVGID_33_"  style="overflow:visible;"/>
				</clipPath>
				<g class="st21">
					<g>
						<path class="st9" d="M98.3,542.9c0,0-25.7,2.2-26.2-5l3.3,1.1c0,0-3.9-3-2.2-7.5c0,0,0.4,3.4,4.4,4.3c0,0-4.7-3.8,0.5-6.3
							c0,0,5.7-0.4,7.1-1.6l-1.9,2.5c0,0,3-3,8.5-2.5c0,0-5,1.4-2.5,2.2c0,0,5.4,0.9,9-3.4c0,0-0.3,2.5-2,3.4c0,0,5.7-0.4,8.2-5.4
							c0,0,1.5,10.9-6,13.8c0,0,9.7-2,11.5-7.5C110,530.9,109.6,542.6,98.3,542.9z"/>
					</g>
					<defs>
						<filter id="Adobe_OpacityMaskFilter_5_" filterUnits="userSpaceOnUse" x="72.2" y="524.6" width="37.8" height="18.6">
							<feColorMatrix  type="matrix" values="1 0 0 0 0  0 1 0 0 0  0 0 1 0 0  0 0 0 1 0"/>
						</filter>
					</defs>
					<mask maskUnits="userSpaceOnUse" x="72.2" y="524.6" width="37.8" height="18.6" id="SVGID_12_">
						<g class="st22">
							
								<image style="overflow:visible;enable-background:new    ;" width="100" height="71" xlink:href="733FC150.jpeg"  transform="matrix(0.385 0 0 0.4099 71.9111 519.3771)">
							</image>
						</g>
					</mask>
					<g class="st23">
						<path class="st12" d="M98.3,542.9c0,0-25.7,2.2-26.2-5l3.3,1.1c0,0-3.9-3-2.2-7.5c0,0,0.4,3.4,4.4,4.3c0,0-4.7-3.8,0.5-6.3
							c0,0,5.7-0.4,7.1-1.6l-1.9,2.5c0,0,3-3,8.5-2.5c0,0-5,1.4-2.5,2.2c0,0,5.4,0.9,9-3.4c0,0-0.3,2.5-2,3.4c0,0,5.7-0.4,8.2-5.4
							c0,0,1.5,10.9-6,13.8c0,0,9.7-2,11.5-7.5C110,530.9,109.6,542.6,98.3,542.9z"/>
					</g>
				</g>
			</g>
		</g>
	</g>
	<g>
		<g>
			<g>
				<defs>
					<rect id="SVGID_35_" x="13" y="15.2" width="480" height="860.6"/>
				</defs>
				<clipPath id="SVGID_36_">
					<use xlink:href="#SVGID_35_"  style="overflow:visible;"/>
				</clipPath>
				<g class="st24">
					<g>
						<path class="st9" d="M101.4,543.7c0,0,23.7,10.8,26.3,4.1l-3.5-0.1c0,0,4.6-1.6,4.3-6.4c0,0-1.3,3.1-5.4,2.6
							c0,0,5.5-2,1.4-6.1c0,0-5.3-2.3-6.2-3.9l1.1,3c0,0-2-3.9-7.3-5.3c0,0,4.4,3.1,1.8,2.9c0,0-5.3-1-7.6-6.3c0,0-0.4,2.5,0.9,3.9
							c0,0-5.3-2.3-6.2-7.9c0,0-4.6,9.9,1.6,15.1c0,0-8.6-5.2-8.7-11.1C93.9,528.3,90.7,539.6,101.4,543.7z"/>
					</g>
					<defs>
						<filter id="Adobe_OpacityMaskFilter_6_" filterUnits="userSpaceOnUse" x="93.4" y="524.2" width="35.1" height="25.7">
							<feColorMatrix  type="matrix" values="1 0 0 0 0  0 1 0 0 0  0 0 1 0 0  0 0 0 1 0"/>
						</filter>
					</defs>
					<mask maskUnits="userSpaceOnUse" x="93.4" y="524.2" width="35.1" height="25.7" id="SVGID_13_">
						<g class="st25">
							
								<image style="overflow:visible;enable-background:new    ;" width="179" height="92" xlink:href="733FC151.jpeg"  transform="matrix(0.24 0 0 0.2558 89.5251 525.4274)">
							</image>
						</g>
					</mask>
					<g class="st26">
						<path class="st12" d="M101.4,543.7c0,0,23.7,10.8,26.3,4.1l-3.5-0.1c0,0,4.6-1.6,4.3-6.4c0,0-1.3,3.1-5.4,2.6
							c0,0,5.5-2,1.4-6.1c0,0-5.3-2.3-6.2-3.9l1.1,3c0,0-2-3.9-7.3-5.3c0,0,4.4,3.1,1.8,2.9c0,0-5.3-1-7.6-6.3c0,0-0.4,2.5,0.9,3.9
							c0,0-5.3-2.3-6.2-7.9c0,0-4.6,9.9,1.6,15.1c0,0-8.6-5.2-8.7-11.1C93.9,528.3,90.7,539.6,101.4,543.7z"/>
					</g>
				</g>
			</g>
		</g>
	</g>
	<g>
		<g>
			<g>
				<defs>
					<rect id="SVGID_37_" x="13" y="15.2" width="480" height="860.6"/>
				</defs>
				<clipPath id="SVGID_38_">
					<use xlink:href="#SVGID_37_"  style="overflow:visible;"/>
				</clipPath>
				<g class="st27">
					<g>
						<path class="st14" d="M292.3,565.7c0,0-6.2-0.4-2-6.3c0,0,1.1-1.3,1.3,0c0,0,0.8-2.3,2.5-0.6c0,0,0.8-2.8,1.5-0.6
							c0,0,0.8-3.5,2.5-0.8c0,0,1,0.9,0-2.4c0,0-0.3-2.5,2.6-1.3c0,0,0.3-1.3,1.2-1.3c0,0,1.6-0.4,1.9,1.1c0,0,0.8,0.9,0,2.9
							c0,0,2.1-1.3,1.1,0.9c0,0,5.6,4,1.5,7.4L292.3,565.7z"/>
					</g>
					<defs>
						<filter id="Adobe_OpacityMaskFilter_7_" filterUnits="userSpaceOnUse" x="288.8" y="552.3" width="19.1" height="13.5">
							<feColorMatrix  type="matrix" values="1 0 0 0 0  0 1 0 0 0  0 0 1 0 0  0 0 0 1 0"/>
						</filter>
					</defs>
					<mask maskUnits="userSpaceOnUse" x="288.8" y="552.3" width="19.1" height="13.5" id="SVGID_14_">
						<g class="st28">
							
								<image style="overflow:visible;enable-background:new    ;" width="100" height="71" xlink:href="733FC150.jpeg"  transform="matrix(0.2328 0 0 0.2509 286.8296 550.108)">
							</image>
						</g>
					</mask>
					<g class="st29">
						<path class="st12" d="M292.3,565.7c0,0-6.2-0.4-2-6.3c0,0,1.1-1.3,1.3,0c0,0,0.8-2.3,2.5-0.6c0,0,0.8-2.8,1.5-0.6
							c0,0,0.8-3.5,2.5-0.8c0,0,1,0.9,0-2.4c0,0-0.3-2.5,2.6-1.3c0,0,0.3-1.3,1.2-1.3c0,0,1.6-0.4,1.9,1.1c0,0,0.8,0.9,0,2.9
							c0,0,2.1-1.3,1.1,0.9c0,0,5.6,4,1.5,7.4L292.3,565.7z"/>
					</g>
				</g>
			</g>
		</g>
	</g>
	<g>
		<g>
			<g>
				<defs>
					<rect id="SVGID_39_" x="13" y="15.2" width="480" height="860.6"/>
				</defs>
				<clipPath id="SVGID_40_">
					<use xlink:href="#SVGID_39_"  style="overflow:visible;"/>
				</clipPath>
				
					<linearGradient id="SVGID_41_" gradientUnits="userSpaceOnUse" x1="103.3337" y1="189.2907" x2="101.9957" y2="272.2468" gradientTransform="matrix(1 0 0 -1 -4.000000e-02 788.1276)">
					<stop  offset="0" style="stop-color:#1C7B34"/>
					<stop  offset="0.3842" style="stop-color:#67B12F"/>
					<stop  offset="1" style="stop-color:#BBD034"/>
				</linearGradient>
				<path class="st30" d="M355.9,571.5c0,0-43.5-9.1-71.5-8.5c0,0-71.5-0.7-144.5-16.9c0,0-176.9-34.3-286.9-29.8v252.8h502.9
					L355.9,571.5L355.9,571.5z"/>
			</g>
		</g>
	</g>
	<g>
		<g>
			<g>
				<defs>
					<rect id="SVGID_42_" x="13" y="15.2" width="480" height="860.6"/>
				</defs>
				<clipPath id="SVGID_43_">
					<use xlink:href="#SVGID_42_"  style="overflow:visible;"/>
				</clipPath>
				<g class="st31">
					<g>
						<path class="st9" d="M262,576.2c0,0-25.7,2.2-26.2-5l3.3,1.1c0,0-3.9-3-2.2-7.5c0,0,0.4,3.4,4.4,4.3c0,0-4.7-3.8,0.5-6.3
							c0,0,5.7-0.4,7.1-1.6l-1.9,2.5c0,0,3-3,8.5-2.5c0,0-5,1.4-2.5,2.2c0,0,5.4,0.9,9-3.4c0,0-0.3,2.5-2,3.4c0,0,5.7-0.4,8.2-5.4
							c0,0,1.5,10.9-6,13.8c0,0,9.7-2,11.5-7.5C273.7,564.2,273.4,576,262,576.2z"/>
					</g>
					<defs>
						<filter id="Adobe_OpacityMaskFilter_8_" filterUnits="userSpaceOnUse" x="235.9" y="557.9" width="37.8" height="18.6">
							<feColorMatrix  type="matrix" values="1 0 0 0 0  0 1 0 0 0  0 0 1 0 0  0 0 0 1 0"/>
						</filter>
					</defs>
					<mask maskUnits="userSpaceOnUse" x="235.9" y="557.9" width="37.8" height="18.6" id="SVGID_16_">
						<g class="st32">
							
								<image style="overflow:visible;enable-background:new    ;" width="179" height="92" xlink:href="733FC151.jpeg"  transform="matrix(0.2346 0 0 0.2498 233.8745 555.7869)">
							</image>
						</g>
					</mask>
					<g class="st33">
						<path class="st12" d="M262,576.2c0,0-25.7,2.2-26.2-5l3.3,1.1c0,0-3.9-3-2.2-7.5c0,0,0.4,3.4,4.4,4.3c0,0-4.7-3.8,0.5-6.3
							c0,0,5.7-0.4,7.1-1.6l-1.9,2.5c0,0,3-3,8.5-2.5c0,0-5,1.4-2.5,2.2c0,0,5.4,0.9,9-3.4c0,0-0.3,2.5-2,3.4c0,0,5.7-0.4,8.2-5.4
							c0,0,1.5,10.9-6,13.8c0,0,9.7-2,11.5-7.5C273.7,564.2,273.4,576,262,576.2z"/>
					</g>
				</g>
			</g>
		</g>
	</g>
	<g>
		<g>
			<g>
				<defs>
					<rect id="SVGID_44_" x="13" y="15.2" width="480" height="860.6"/>
				</defs>
				<clipPath id="SVGID_45_">
					<use xlink:href="#SVGID_44_"  style="overflow:visible;"/>
				</clipPath>
				<g class="st34">
					<g>
						<path class="st9" d="M390.2,577.2c0,0-6.7-14.4,5.1-17.5l-1.4,2.4c0,0,4.6-3.5,12.2-4.2c0,0-5.6,1.5-6.6,4.3
							c0,0,5.7-4.2,10.4-2.1c0,0,1.3,3.2,3.5,3.6l-4.4-0.2c0,0,5.4,0.6,5.2,4.1c0,0-3-2.4-3.9-0.7c0,0-0.8,3.5,6.7,4
							c0,0-4.2,0.8-5.9,0.1c0,0,1.3,3.2,9.9,2.8c0,0-17.9,5.1-23.6,1.8c0,0,4.4,5,13.8,3.9C411.5,579.5,392,583.8,390.2,577.2z"/>
					</g>
					<defs>
						<filter id="Adobe_OpacityMaskFilter_9_" filterUnits="userSpaceOnUse" x="388.3" y="557.9" width="32.9" height="23">
							<feColorMatrix  type="matrix" values="1 0 0 0 0  0 1 0 0 0  0 0 1 0 0  0 0 0 1 0"/>
						</filter>
					</defs>
					<mask maskUnits="userSpaceOnUse" x="388.3" y="557.9" width="32.9" height="23" id="SVGID_17_">
						<g class="st35">
							
								<image style="overflow:visible;enable-background:new    ;" width="100" height="71" xlink:href="A836F523.jpeg"  transform="matrix(0.365 0 0 0.3955 386.5458 555.3695)">
							</image>
						</g>
					</mask>
					<g class="st36">
						<path class="st12" d="M390.2,577.2c0,0-6.7-14.4,5.1-17.5l-1.4,2.4c0,0,4.6-3.5,12.2-4.2c0,0-5.6,1.5-6.6,4.3
							c0,0,5.7-4.2,10.4-2.1c0,0,1.3,3.2,3.5,3.6l-4.4-0.2c0,0,5.4,0.6,5.2,4.1c0,0-3-2.4-3.9-0.7c0,0-0.8,3.5,6.7,4
							c0,0-4.2,0.8-5.9,0.1c0,0,1.3,3.2,9.9,2.8c0,0-17.9,5.1-23.6,1.8c0,0,4.4,5,13.8,3.9C411.5,579.5,392,583.8,390.2,577.2z"/>
					</g>
				</g>
			</g>
		</g>
	</g>
	<g>
		<g>
			<g>
				<defs>
					<rect id="SVGID_46_" x="13" y="15.2" width="480" height="860.6"/>
				</defs>
				<clipPath id="SVGID_47_">
					<use xlink:href="#SVGID_46_"  style="overflow:visible;"/>
				</clipPath>
				<g class="st37">
					<g>
						<path class="st9" d="M150.5,584.3c0,0-25.7,2.2-26.2-5l3.3,1.1c0,0-3.9-3-2.2-7.5c0,0,0.4,3.4,4.4,4.3c0,0-4.7-3.8,0.5-6.3
							c0,0,5.7-0.4,7.1-1.6l-1.9,2.5c0,0,3-3,8.5-2.5c0,0-5,1.4-2.5,2.2c0,0,5.4,0.9,9-3.4c0,0-0.3,2.5-2,3.4c0,0,5.7-0.4,8.2-5.4
							c0,0,1.5,10.9-6,13.8c0,0,9.7-2,11.5-7.5C162.2,572.2,161.8,584,150.5,584.3z"/>
					</g>
					<defs>
						<filter id="Adobe_OpacityMaskFilter_10_" filterUnits="userSpaceOnUse" x="124.3" y="566" width="37.8" height="18.6">
							<feColorMatrix  type="matrix" values="1 0 0 0 0  0 1 0 0 0  0 0 1 0 0  0 0 0 1 0"/>
						</filter>
					</defs>
					<mask maskUnits="userSpaceOnUse" x="124.3" y="566" width="37.8" height="18.6" id="SVGID_18_">
						<g class="st38">
							
								<image style="overflow:visible;enable-background:new    ;" width="179" height="96" xlink:href="A836F520.jpeg"  transform="matrix(0.2346 0 0 0.2393 122.3247 563.8198)">
							</image>
						</g>
					</mask>
					<g class="st39">
						<path class="st12" d="M150.5,584.3c0,0-25.7,2.2-26.2-5l3.3,1.1c0,0-3.9-3-2.2-7.5c0,0,0.4,3.4,4.4,4.3c0,0-4.7-3.8,0.5-6.3
							c0,0,5.7-0.4,7.1-1.6l-1.9,2.5c0,0,3-3,8.5-2.5c0,0-5,1.4-2.5,2.2c0,0,5.4,0.9,9-3.4c0,0-0.3,2.5-2,3.4c0,0,5.7-0.4,8.2-5.4
							c0,0,1.5,10.9-6,13.8c0,0,9.7-2,11.5-7.5C162.2,572.2,161.8,584,150.5,584.3z"/>
					</g>
				</g>
			</g>
		</g>
	</g>
	<g>
		<g>
			<g>
				<defs>
					<rect id="SVGID_48_" x="13" y="15.2" width="480" height="860.6"/>
				</defs>
				<clipPath id="SVGID_49_">
					<use xlink:href="#SVGID_48_"  style="overflow:visible;"/>
				</clipPath>
				<g class="st40">
					<g>
						<path class="st9" d="M387.6,575.9c0,0,4.3-0.8,1.2-5.8l-1.2,1.4c0,0,1.6-2-1.2-5v1.8c0,0-0.5-2.8-3.1-4.5c0,0,1.2,3.3-3.2,0
							c0,0-0.9,2.3-2.8-2.2c0,0-1.8,1.4-0.8,3.3c0,0-1.7-1.7-1.4-2.8c0,0-2.6,4.3,0,7.5c0,0-2.9-1.1-3.1-3.9c0,0-3.1,7.8,3.5,10.2
							L387.6,575.9L387.6,575.9z"/>
					</g>
					<defs>
						<filter id="Adobe_OpacityMaskFilter_11_" filterUnits="userSpaceOnUse" x="371.2" y="561.5" width="18.7" height="14.3">
							<feColorMatrix  type="matrix" values="1 0 0 0 0  0 1 0 0 0  0 0 1 0 0  0 0 0 1 0"/>
						</filter>
					</defs>
					<mask maskUnits="userSpaceOnUse" x="371.2" y="561.5" width="18.7" height="14.3" id="SVGID_19_">
						<g class="st41">
							
								<image style="overflow:visible;enable-background:new    ;" width="100" height="79" xlink:href="A836F521.jpeg"  transform="matrix(0.228 0 0 0.2386 369.1909 559.3605)">
							</image>
						</g>
					</mask>
					<g class="st42">
						<path class="st12" d="M387.6,575.9c0,0,4.3-0.8,1.2-5.8l-1.2,1.4c0,0,1.6-2-1.2-5v1.8c0,0-0.5-2.8-3.1-4.5c0,0,1.2,3.3-3.2,0
							c0,0-0.9,2.3-2.8-2.2c0,0-1.8,1.4-0.8,3.3c0,0-1.7-1.7-1.4-2.8c0,0-2.6,4.3,0,7.5c0,0-2.9-1.1-3.1-3.9c0,0-3.1,7.8,3.5,10.2
							L387.6,575.9L387.6,575.9z"/>
					</g>
				</g>
			</g>
		</g>
	</g>
	<g>
		<g>
			<g>
				<defs>
					<rect id="SVGID_50_" x="13" y="15.2" width="480" height="860.6"/>
				</defs>
				<clipPath id="SVGID_51_">
					<use xlink:href="#SVGID_50_"  style="overflow:visible;"/>
				</clipPath>
				<g class="st43">
					<g>
						<path class="st9" d="M50.8,588.9c0,0-2.8-0.5-0.8-3.8l0.8,0.9c0,0-1-1.3,0.8-3.2v1.2c0,0,0.3-1.8,2-2.9c0,0-0.8,2.1,2.1,0
							c0,0,0.6,1.5,1.8-1.4c0,0,1.2,0.9,0.5,2.2c0,0,1.1-1.1,0.9-1.8c0,0,1.7,2.8,0,4.8c0,0,1.9-0.7,2-2.5c0,0,2,5-2.3,6.5H50.8z"/>
					</g>
					<defs>
						<filter id="Adobe_OpacityMaskFilter_12_" filterUnits="userSpaceOnUse" x="49.3" y="579.6" width="12" height="9.2">
							<feColorMatrix  type="matrix" values="1 0 0 0 0  0 1 0 0 0  0 0 1 0 0  0 0 0 1 0"/>
						</filter>
					</defs>
					<mask maskUnits="userSpaceOnUse" x="49.3" y="579.6" width="12" height="9.2" id="SVGID_20_">
						<g class="st44">
							
								<image style="overflow:visible;enable-background:new    ;" width="75" height="58" xlink:href="A836F522.jpeg"  transform="matrix(0.2144 0 0 0.2359 47.3159 577.4813)">
							</image>
						</g>
					</mask>
					<g class="st45">
						<path class="st12" d="M50.8,588.9c0,0-2.8-0.5-0.8-3.8l0.8,0.9c0,0-1-1.3,0.8-3.2v1.2c0,0,0.3-1.8,2-2.9c0,0-0.8,2.1,2.1,0
							c0,0,0.6,1.5,1.8-1.4c0,0,1.2,0.9,0.5,2.2c0,0,1.1-1.1,0.9-1.8c0,0,1.7,2.8,0,4.8c0,0,1.9-0.7,2-2.5c0,0,2,5-2.3,6.5H50.8z"/>
					</g>
				</g>
			</g>
		</g>
	</g>
	<g>
		<g>
			<g>
				<defs>
					<rect id="SVGID_52_" x="13" y="15.2" width="480" height="860.6"/>
				</defs>
				<clipPath id="SVGID_53_">
					<use xlink:href="#SVGID_52_"  style="overflow:visible;"/>
				</clipPath>
				<g class="st46">
					<g>
						<path class="st14" d="M31.8,589.6c0,0,6-2,0.6-6.6c0,0-1.4-1-1.3,0.3c0,0-1.3-2-2.5,0c0,0-1.4-2.5-1.6-0.3
							c0,0-1.5-3.2-2.6-0.2c0,0-0.8,1.1-0.5-2.4c0,0-0.2-2.5-2.8-0.7c0,0-0.6-1.2-1.5-1c0,0-1.6-0.1-1.6,1.6c0,0-0.6,1.1,0.6,2.8
							c0,0-2.4-0.8-0.9,1.2c0,0-4.6,5.3,0.1,7.6L31.8,589.6z"/>
					</g>
					<defs>
						<filter id="Adobe_OpacityMaskFilter_13_" filterUnits="userSpaceOnUse" x="15.7" y="578.9" width="19" height="13.1">
							<feColorMatrix  type="matrix" values="1 0 0 0 0  0 1 0 0 0  0 0 1 0 0  0 0 0 1 0"/>
						</filter>
					</defs>
					<mask maskUnits="userSpaceOnUse" x="15.7" y="578.9" width="19" height="13.1" id="SVGID_21_">
						<g class="st47">
							
								<image style="overflow:visible;enable-background:new    ;" width="100" height="71" xlink:href="A836F523.jpeg"  transform="matrix(0.2304 0 0 0.2473 13.7056 576.7649)">
							</image>
						</g>
					</mask>
					<g class="st48">
						<path class="st12" d="M31.8,589.6c0,0,6-2,0.6-6.6c0,0-1.4-1-1.3,0.3c0,0-1.3-2-2.5,0c0,0-1.4-2.5-1.6-0.3
							c0,0-1.5-3.2-2.6-0.2c0,0-0.8,1.1-0.5-2.4c0,0-0.2-2.5-2.8-0.7c0,0-0.6-1.2-1.5-1c0,0-1.6-0.1-1.6,1.6c0,0-0.6,1.1,0.6,2.8
							c0,0-2.4-0.8-0.9,1.2c0,0-4.6,5.3,0.1,7.6L31.8,589.6z"/>
					</g>
				</g>
			</g>
		</g>
	</g>
	<g>
		<g>
			<g>
				<defs>
					<rect id="SVGID_54_" x="13" y="15.2" width="480" height="860.6"/>
				</defs>
				<clipPath id="SVGID_55_">
					<use xlink:href="#SVGID_54_"  style="overflow:visible;"/>
				</clipPath>
				
					<linearGradient id="SVGID_56_" gradientUnits="userSpaceOnUse" x1="248.2348" y1="-63.8624" x2="259.6209" y2="199.908" gradientTransform="matrix(1 0 0 -1 -4.000000e-02 788.1276)">
					<stop  offset="0" style="stop-color:#1C7B34"/>
					<stop  offset="0.3842" style="stop-color:#67B12F"/>
					<stop  offset="1" style="stop-color:#BBD034"/>
				</linearGradient>
				<path class="st49" d="M653,596.5c-62.4-22.8-377.6-26-377.6-26c-80.5,2.1-296.5,24.9-296.5,24.9c-26,5.2-125.9,9.3-125.9,9.3
					v270.9h800L653,596.5L653,596.5z"/>
			</g>
		</g>
	</g>
	<g>
		<g>
			<g>
				<defs>
					<rect id="SVGID_57_" x="13" y="15.2" width="480" height="860.6"/>
				</defs>
				<clipPath id="SVGID_58_">
					<use xlink:href="#SVGID_57_"  style="overflow:visible;"/>
				</clipPath>
				<path class="st50" d="M138,682.4c0,0,10.1-19.3,14.7-23.5C152.8,658.9,140.2,679.1,138,682.4z"/>
			</g>
		</g>
	</g>
	<g>
		<g>
			<g>
				<defs>
					<rect id="SVGID_59_" x="13" y="15.2" width="480" height="860.6"/>
				</defs>
				<clipPath id="SVGID_60_">
					<use xlink:href="#SVGID_59_"  style="overflow:visible;"/>
				</clipPath>
				<path class="st51" d="M176.1,670.6c0,0,10.1-19.3,14.7-23.5C190.9,647.1,178.3,667.4,176.1,670.6z"/>
			</g>
		</g>
	</g>
	<g>
		<g>
			<g>
				<defs>
					<rect id="SVGID_61_" x="13" y="15.2" width="480" height="860.6"/>
				</defs>
				<clipPath id="SVGID_62_">
					<use xlink:href="#SVGID_61_"  style="overflow:visible;"/>
				</clipPath>
				<path class="st52" d="M98.6,656.1c0,0,10.2-19.3,14.7-23.5C113.3,632.6,100.8,652.8,98.6,656.1z"/>
			</g>
		</g>
	</g>
	<g>
		<g>
			<g>
				<defs>
					<rect id="SVGID_63_" x="13" y="15.2" width="480" height="860.6"/>
				</defs>
				<clipPath id="SVGID_64_">
					<use xlink:href="#SVGID_63_"  style="overflow:visible;"/>
				</clipPath>
				<path class="st53" d="M40.5,712.1c0,0,10.2-19.3,14.7-23.5C55.2,688.5,42.7,708.8,40.5,712.1z"/>
			</g>
		</g>
	</g>
	<g>
		<g>
			<g>
				<defs>
					<rect id="SVGID_65_" x="13" y="15.2" width="480" height="860.6"/>
				</defs>
				<clipPath id="SVGID_66_">
					<use xlink:href="#SVGID_65_"  style="overflow:visible;"/>
				</clipPath>
				<path class="st54" d="M128.5,712.1c0,0,10.1-19.3,14.7-23.5C143.2,688.5,130.7,708.8,128.5,712.1z"/>
			</g>
		</g>
	</g>
	<g>
		<g>
			<g>
				<defs>
					<rect id="SVGID_67_" x="13" y="15.2" width="480" height="860.6"/>
				</defs>
				<clipPath id="SVGID_68_">
					<use xlink:href="#SVGID_67_"  style="overflow:visible;"/>
				</clipPath>
				<path class="st55" d="M164.8,740.7c0,0,10.1-19.3,14.7-23.5C179.5,717.2,166.9,737.5,164.8,740.7z"/>
			</g>
		</g>
	</g>
	<g>
		<g>
			<g>
				<defs>
					<rect id="SVGID_69_" x="13" y="15.2" width="480" height="860.6"/>
				</defs>
				<clipPath id="SVGID_70_">
					<use xlink:href="#SVGID_69_"  style="overflow:visible;"/>
				</clipPath>
				<path class="st56" d="M108.7,697.9c0,0,10.2-19.3,14.7-23.5C123.5,674.4,110.9,694.6,108.7,697.9z"/>
			</g>
		</g>
	</g>
	<g>
		<g>
			<g>
				<defs>
					<rect id="SVGID_71_" x="13" y="15.2" width="480" height="860.6"/>
				</defs>
				<clipPath id="SVGID_72_">
					<use xlink:href="#SVGID_71_"  style="overflow:visible;"/>
				</clipPath>
				<path class="st57" d="M156.2,624.2c0,0,10.1-19.3,14.7-23.5C171,600.6,158.4,620.9,156.2,624.2z"/>
			</g>
		</g>
	</g>
	<g>
		<g>
			<g>
				<defs>
					<rect id="SVGID_73_" x="13" y="15.2" width="480" height="860.6"/>
				</defs>
				<clipPath id="SVGID_74_">
					<use xlink:href="#SVGID_73_"  style="overflow:visible;"/>
				</clipPath>
				<path class="st58" d="M181.5,746.9c0,0,10.1-19.3,14.7-23.5C196.3,723.3,183.7,743.6,181.5,746.9z"/>
			</g>
		</g>
	</g>
	<g>
		<g>
			<g>
				<defs>
					<rect id="SVGID_75_" x="13" y="15.2" width="480" height="860.6"/>
				</defs>
				<clipPath id="SVGID_76_">
					<use xlink:href="#SVGID_75_"  style="overflow:visible;"/>
				</clipPath>
				<path class="st59" d="M40.5,735.1c0,0,10.2-19.3,14.7-23.5C55.2,711.6,42.7,731.8,40.5,735.1z"/>
			</g>
		</g>
	</g>
	<g>
		<g>
			<g>
				<defs>
					<rect id="SVGID_77_" x="13" y="15.2" width="480" height="860.6"/>
				</defs>
				<clipPath id="SVGID_78_">
					<use xlink:href="#SVGID_77_"  style="overflow:visible;"/>
				</clipPath>
				<path class="st60" d="M215.8,656.1c0,0,10.1-19.3,14.7-23.5C230.6,632.6,218,652.8,215.8,656.1z"/>
			</g>
		</g>
	</g>
	<g>
		<g>
			<g>
				<defs>
					<rect id="SVGID_79_" x="13" y="15.2" width="480" height="860.6"/>
				</defs>
				<clipPath id="SVGID_80_">
					<use xlink:href="#SVGID_79_"  style="overflow:visible;"/>
				</clipPath>
				<path class="st61" d="M305.6,674c0,0,10.1-19.3,14.7-23.5C320.4,650.5,307.8,670.7,305.6,674z"/>
			</g>
		</g>
	</g>
	<g>
		<g>
			<g>
				<defs>
					<rect id="SVGID_81_" x="13" y="15.2" width="480" height="860.6"/>
				</defs>
				<clipPath id="SVGID_82_">
					<use xlink:href="#SVGID_81_"  style="overflow:visible;"/>
				</clipPath>
				<path class="st62" d="M363.9,704c0,0,10.1-19.3,14.7-23.5C378.7,680.5,366.1,700.8,363.9,704z"/>
			</g>
		</g>
	</g>
	<g>
		<g>
			<g>
				<defs>
					<rect id="SVGID_83_" x="13" y="15.2" width="480" height="860.6"/>
				</defs>
				<clipPath id="SVGID_84_">
					<use xlink:href="#SVGID_83_"  style="overflow:visible;"/>
				</clipPath>
				<path class="st63" d="M345.6,715.8c0,0,10.1-19.3,14.7-23.5C360.4,692.3,347.8,712.5,345.6,715.8z"/>
			</g>
		</g>
	</g>
	<g>
		<g>
			<g>
				<defs>
					<rect id="SVGID_85_" x="13" y="15.2" width="480" height="860.6"/>
				</defs>
				<clipPath id="SVGID_86_">
					<use xlink:href="#SVGID_85_"  style="overflow:visible;"/>
				</clipPath>
				<path class="st64" d="M294.8,616.7c0,0,10.1-19.3,14.7-23.5C309.6,593.2,297,613.4,294.8,616.7z"/>
			</g>
		</g>
	</g>
	<g>
		<g>
			<g>
				<defs>
					<rect id="SVGID_87_" x="13" y="15.2" width="480" height="860.6"/>
				</defs>
				<clipPath id="SVGID_88_">
					<use xlink:href="#SVGID_87_"  style="overflow:visible;"/>
				</clipPath>
				<path class="st65" d="M188.9,727.6c0,0,10.1-19.3,14.7-23.5C203.6,704,191.1,724.3,188.9,727.6z"/>
			</g>
		</g>
	</g>
	<g>
		<g>
			<g>
				<defs>
					<rect id="SVGID_89_" x="13" y="15.2" width="480" height="860.6"/>
				</defs>
				<clipPath id="SVGID_90_">
					<use xlink:href="#SVGID_89_"  style="overflow:visible;"/>
				</clipPath>
				<path class="st66" d="M433.7,715.8c0,0,10.1-19.3,14.7-23.5C448.5,692.3,435.9,712.5,433.7,715.8z"/>
			</g>
		</g>
	</g>
	<g>
		<g>
			<g>
				<defs>
					<rect id="SVGID_91_" x="13" y="15.2" width="480" height="860.6"/>
				</defs>
				<clipPath id="SVGID_92_">
					<use xlink:href="#SVGID_91_"  style="overflow:visible;"/>
				</clipPath>
				<path class="st67" d="M233.7,735.1c0,0,10.1-19.3,14.7-23.5C248.4,711.6,235.8,731.8,233.7,735.1z"/>
			</g>
		</g>
	</g>
	<g>
		<g>
			<g>
				<defs>
					<rect id="SVGID_93_" x="13" y="15.2" width="480" height="860.6"/>
				</defs>
				<clipPath id="SVGID_94_">
					<use xlink:href="#SVGID_93_"  style="overflow:visible;"/>
				</clipPath>
				<path class="st68" d="M128.5,754.8c0,0,10.1-19.3,14.7-23.5C143.2,731.3,130.7,751.6,128.5,754.8z"/>
			</g>
		</g>
	</g>
	<g>
		<g>
			<g>
				<defs>
					<rect id="SVGID_95_" x="13" y="15.2" width="480" height="860.6"/>
				</defs>
				<clipPath id="SVGID_96_">
					<use xlink:href="#SVGID_95_"  style="overflow:visible;"/>
				</clipPath>
				<path class="st69" d="M390.3,635.9c0,0,10.1-19.3,14.7-23.5C405.1,612.4,392.5,632.7,390.3,635.9z"/>
			</g>
		</g>
	</g>
	<g>
		<g>
			<g>
				<defs>
					<rect id="SVGID_97_" x="13" y="15.2" width="480" height="860.6"/>
				</defs>
				<clipPath id="SVGID_98_">
					<use xlink:href="#SVGID_97_"  style="overflow:visible;"/>
				</clipPath>
				<path class="st70" d="M390.3,624.2c0,0,10.1-19.3,14.7-23.5C405.1,600.6,392.5,620.9,390.3,624.2z"/>
			</g>
		</g>
	</g>
	<g>
		<g>
			<g>
				<defs>
					<rect id="SVGID_99_" x="13" y="15.2" width="480" height="860.6"/>
				</defs>
				<clipPath id="SVGID_100_">
					<use xlink:href="#SVGID_99_"  style="overflow:visible;"/>
				</clipPath>
				<path class="st71" d="M214.7,635.9c0,0,10.1-19.3,14.7-23.5C229.4,612.4,216.8,632.7,214.7,635.9z"/>
			</g>
		</g>
	</g>
	<g>
		<g>
			<g>
				<defs>
					<rect id="SVGID_101_" x="13" y="15.2" width="480" height="860.6"/>
				</defs>
				<clipPath id="SVGID_102_">
					<use xlink:href="#SVGID_101_"  style="overflow:visible;"/>
				</clipPath>
				<path class="st72" d="M465.7,647.7c0,0,10.1-19.3,14.7-23.5C480.4,624.2,467.8,644.4,465.7,647.7z"/>
			</g>
		</g>
	</g>
	<g>
		<g>
			<g>
				<defs>
					<rect id="SVGID_103_" x="13" y="15.2" width="480" height="860.6"/>
				</defs>
				<clipPath id="SVGID_104_">
					<use xlink:href="#SVGID_103_"  style="overflow:visible;"/>
				</clipPath>
				<path class="st73" d="M270.9,715.8c0,0,10.1-19.3,14.7-23.5C285.6,692.3,273.1,712.5,270.9,715.8z"/>
			</g>
		</g>
	</g>
	<g>
		<g>
			<g>
				<defs>
					<rect id="SVGID_105_" x="13" y="15.2" width="480" height="860.6"/>
				</defs>
				<clipPath id="SVGID_106_">
					<use xlink:href="#SVGID_105_"  style="overflow:visible;"/>
				</clipPath>
				<path class="st74" d="M328.9,628.5c0,0,10.1-19.3,14.7-23.5C343.6,605,331,625.2,328.9,628.5z"/>
			</g>
		</g>
	</g>
	<g>
		<g>
			<g>
				<defs>
					<rect id="SVGID_107_" x="13" y="15.2" width="480" height="860.6"/>
				</defs>
				<clipPath id="SVGID_108_">
					<use xlink:href="#SVGID_107_"  style="overflow:visible;"/>
				</clipPath>
				<path class="st75" d="M124.4,735.1c0,0,10.1-19.3,14.7-23.5C139.2,711.6,126.6,731.8,124.4,735.1z"/>
			</g>
		</g>
	</g>
	<g>
		<g>
			<g>
				<defs>
					<rect id="SVGID_109_" x="13" y="15.2" width="480" height="860.6"/>
				</defs>
				<clipPath id="SVGID_110_">
					<use xlink:href="#SVGID_109_"  style="overflow:visible;"/>
				</clipPath>
				<path class="st76" d="M72.4,704c0,0,10.2-19.3,14.7-23.5C87.2,680.5,74.6,700.8,72.4,704z"/>
			</g>
		</g>
	</g>
	<g>
		<g>
			<g>
				<defs>
					<rect id="SVGID_111_" x="13" y="15.2" width="480" height="860.6"/>
				</defs>
				<clipPath id="SVGID_112_">
					<use xlink:href="#SVGID_111_"  style="overflow:visible;"/>
				</clipPath>
				<path class="st77" d="M390.9,674c0,0,10.1-19.3,14.7-23.5C405.6,650.5,393,670.7,390.9,674z"/>
			</g>
		</g>
	</g>
	<g>
		<g>
			<g>
				<defs>
					<rect id="SVGID_113_" x="13" y="15.2" width="480" height="860.6"/>
				</defs>
				<clipPath id="SVGID_114_">
					<use xlink:href="#SVGID_113_"  style="overflow:visible;"/>
				</clipPath>
				<path class="st78" d="M393.3,754.8c0,0,10.1-19.3,14.7-23.5C408,731.3,395.4,751.6,393.3,754.8z"/>
			</g>
		</g>
	</g>
	<g>
		<g>
			<g>
				<defs>
					<rect id="SVGID_115_" x="13" y="15.2" width="480" height="860.6"/>
				</defs>
				<clipPath id="SVGID_116_">
					<use xlink:href="#SVGID_115_"  style="overflow:visible;"/>
				</clipPath>
				<path class="st79" d="M483.7,674c0,0,10.1-19.3,14.7-23.5C498.5,650.5,485.9,670.7,483.7,674z"/>
			</g>
		</g>
	</g>
	<g>
		<g>
			<g>
				<defs>
					<rect id="SVGID_117_" x="13" y="15.2" width="480" height="860.6"/>
				</defs>
				<clipPath id="SVGID_118_">
					<use xlink:href="#SVGID_117_"  style="overflow:visible;"/>
				</clipPath>
				<path class="st80" d="M315.1,698.4c0,0,10.1-19.3,14.7-23.5C329.8,674.9,317.3,695.2,315.1,698.4z"/>
			</g>
		</g>
	</g>
	<g>
		<g>
			<g>
				<defs>
					<rect id="SVGID_119_" x="13" y="15.2" width="480" height="860.6"/>
				</defs>
				<clipPath id="SVGID_120_">
					<use xlink:href="#SVGID_119_"  style="overflow:visible;"/>
				</clipPath>
				<path class="st81" d="M368.1,733.2c0,0,10.1-19.3,14.7-23.5C382.9,709.7,370.3,730,368.1,733.2z"/>
			</g>
		</g>
	</g>
	<g>
		<g>
			<g>
				<defs>
					<rect id="SVGID_121_" x="13" y="15.2" width="480" height="860.6"/>
				</defs>
				<clipPath id="SVGID_122_">
					<use xlink:href="#SVGID_121_"  style="overflow:visible;"/>
				</clipPath>
				<path class="st82" d="M252.9,550.7c0,0,3.6-6.8,5.2-8.4C258.1,542.3,253.7,549.5,252.9,550.7z"/>
			</g>
		</g>
	</g>
	<g>
		<g>
			<g>
				<defs>
					<rect id="SVGID_123_" x="13" y="15.2" width="480" height="860.6"/>
				</defs>
				<clipPath id="SVGID_124_">
					<use xlink:href="#SVGID_123_"  style="overflow:visible;"/>
				</clipPath>
				<path class="st83" d="M273.6,542.3c0,0,3.6-6.8,5.2-8.4C278.8,534,274.4,541.2,273.6,542.3z"/>
			</g>
		</g>
	</g>
	<g>
		<g>
			<g>
				<defs>
					<rect id="SVGID_125_" x="13" y="15.2" width="480" height="860.6"/>
				</defs>
				<clipPath id="SVGID_126_">
					<use xlink:href="#SVGID_125_"  style="overflow:visible;"/>
				</clipPath>
				<path class="st84" d="M267.1,546.5c0,0,3.6-6.8,5.2-8.4C272.3,538.1,267.9,545.3,267.1,546.5z"/>
			</g>
		</g>
	</g>
	<g>
		<g>
			<g>
				<defs>
					<rect id="SVGID_127_" x="13" y="15.2" width="480" height="860.6"/>
				</defs>
				<clipPath id="SVGID_128_">
					<use xlink:href="#SVGID_127_"  style="overflow:visible;"/>
				</clipPath>
				<path class="st85" d="M221.9,554.9c0,0,3.6-6.8,5.2-8.4C227.1,546.5,222.7,553.7,221.9,554.9z"/>
			</g>
		</g>
	</g>
	<g>
		<g>
			<g>
				<defs>
					<rect id="SVGID_129_" x="13" y="15.2" width="480" height="860.6"/>
				</defs>
				<clipPath id="SVGID_130_">
					<use xlink:href="#SVGID_129_"  style="overflow:visible;"/>
				</clipPath>
				<path class="st86" d="M375.5,713.9c0,0,10.1-19.3,14.7-23.5C390.2,690.4,377.7,710.7,375.5,713.9z"/>
			</g>
		</g>
	</g>
	<g>
		<g>
			<g>
				<defs>
					<rect id="SVGID_131_" x="13" y="15.2" width="480" height="860.6"/>
				</defs>
				<clipPath id="SVGID_132_">
					<use xlink:href="#SVGID_131_"  style="overflow:visible;"/>
				</clipPath>
				<path class="st87" d="M298.4,546.5c0,0,3.6-6.8,5.2-8.4C303.6,538.1,299.2,545.3,298.4,546.5z"/>
			</g>
		</g>
	</g>
	<g>
		<g>
			<g>
				<defs>
					<rect id="SVGID_133_" x="13" y="15.2" width="480" height="860.6"/>
				</defs>
				<clipPath id="SVGID_134_">
					<use xlink:href="#SVGID_133_"  style="overflow:visible;"/>
				</clipPath>
				<path class="st88" d="M420.3,721.5c0,0,10.1-19.3,14.7-23.5C435,697.9,422.4,718.2,420.3,721.5z"/>
			</g>
		</g>
	</g>
	<g>
		<g>
			<g>
				<defs>
					<rect id="SVGID_135_" x="13" y="15.2" width="480" height="860.6"/>
				</defs>
				<clipPath id="SVGID_136_">
					<use xlink:href="#SVGID_135_"  style="overflow:visible;"/>
				</clipPath>
				<path class="st89" d="M315.1,741.2c0,0,10.1-19.3,14.7-23.5C329.8,717.7,317.3,737.9,315.1,741.2z"/>
			</g>
		</g>
	</g>
	<g>
		<g>
			<g>
				<defs>
					<rect id="SVGID_137_" x="13" y="15.2" width="480" height="860.6"/>
				</defs>
				<clipPath id="SVGID_138_">
					<use xlink:href="#SVGID_137_"  style="overflow:visible;"/>
				</clipPath>
				<path class="st90" d="M457.5,702.2c0,0,10.1-19.3,14.7-23.5C472.2,678.6,459.7,698.9,457.5,702.2z"/>
			</g>
		</g>
	</g>
	<g>
		<g>
			<g>
				<defs>
					<rect id="SVGID_139_" x="13" y="15.2" width="480" height="860.6"/>
				</defs>
				<clipPath id="SVGID_140_">
					<use xlink:href="#SVGID_139_"  style="overflow:visible;"/>
				</clipPath>
				<path class="st91" d="M442.6,632.6c0,0,10.1-19.3,14.7-23.5C457.4,609,444.8,629.3,442.6,632.6z"/>
			</g>
		</g>
	</g>
	<g>
		<g>
			<g>
				<defs>
					<rect id="SVGID_141_" x="13" y="15.2" width="480" height="860.6"/>
				</defs>
				<clipPath id="SVGID_142_">
					<use xlink:href="#SVGID_141_"  style="overflow:visible;"/>
				</clipPath>
				<path class="st92" d="M284,560.4c0,0,3.6-6.8,5.2-8.4C289.3,552,284.8,559.2,284,560.4z"/>
			</g>
		</g>
	</g>
	<g>
		<g>
			<g>
				<defs>
					<rect id="SVGID_143_" x="13" y="15.2" width="480" height="860.6"/>
				</defs>
				<clipPath id="SVGID_144_">
					<use xlink:href="#SVGID_143_"  style="overflow:visible;"/>
				</clipPath>
				<g class="st93">
					<defs>
						<filter id="Adobe_OpacityMaskFilter_14_" filterUnits="userSpaceOnUse" x="-115.6" y="602.1" width="744.7" height="57">
							<feColorMatrix  type="matrix" values="1 0 0 0 0  0 1 0 0 0  0 0 1 0 0  0 0 0 1 0"/>
						</filter>
					</defs>
					<mask maskUnits="userSpaceOnUse" x="-115.6" y="602.1" width="744.7" height="57" id="SVGID_23_">
						<g class="st94">
							
								<image style="overflow:visible;enable-background:new    ;" width="167" height="121" xlink:href="A836F551.jpeg"  transform="matrix(3.6416 0 0 3.8583 -47.3168 397.2648)">
							</image>
						</g>
					</mask>
					<g class="st95">
						<path class="st96" d="M-115.6,602.1c0,0,382,31,470,57c0,0-98-34.2-168.7-34.7c0,0,366.7,12,443.3,19.2
							C629,643.6,128.4,601.2-115.6,602.1z"/>
					</g>
				</g>
			</g>
		</g>
		<g>
			<g>
				<defs>
					<rect id="SVGID_145_" x="13" y="15.2" width="480" height="860.6"/>
				</defs>
				<clipPath id="SVGID_146_">
					<use xlink:href="#SVGID_145_"  style="overflow:visible;"/>
				</clipPath>
				<g class="st97">
					<defs>
						<filter id="Adobe_OpacityMaskFilter_15_" filterUnits="userSpaceOnUse" x="335.6" y="531.4" width="744.7" height="57">
							<feColorMatrix  type="matrix" values="1 0 0 0 0  0 1 0 0 0  0 0 1 0 0  0 0 0 1 0"/>
						</filter>
					</defs>
					<mask maskUnits="userSpaceOnUse" x="335.6" y="531.4" width="744.7" height="57" id="SVGID_1_">
						<g class="st98">
							
								<image style="overflow:visible;enable-background:new    ;" width="167" height="121" xlink:href="A836F551.jpeg"  transform="matrix(3.6416 0 0 3.8583 403.9274 326.5773)">
							</image>
						</g>
					</mask>
					<g class="st99">
						<path class="st96" d="M335.6,531.5c0,0,382,31,470,57c0,0-98-34.2-168.7-34.7c0,0,366.7,12,443.3,19.2
							C1080.3,572.9,579.6,530.6,335.6,531.5z"/>
					</g>
				</g>
			</g>
		</g>
	</g>
	<g>
		<g>
			<g>
				<defs>
					<rect id="SVGID_147_" x="13" y="15.2" width="480" height="860.6"/>
				</defs>
				<clipPath id="SVGID_148_">
					<use xlink:href="#SVGID_147_"  style="overflow:visible;"/>
				</clipPath>
				<path class="st100" d="M81.3,594.5c0,0,6.2-9.4,9-11.4C90.3,583.1,82.6,592.9,81.3,594.5z"/>
			</g>
		</g>
	</g>
	<g>
		<g>
			<g>
				<defs>
					<rect id="SVGID_149_" x="13" y="15.2" width="480" height="860.6"/>
				</defs>
				<clipPath id="SVGID_150_">
					<use xlink:href="#SVGID_149_"  style="overflow:visible;"/>
				</clipPath>
				<path class="st101" d="M104.5,574.8c0,0,6.2-9.4,9-11.4C113.5,563.4,105.8,573.2,104.5,574.8z"/>
			</g>
		</g>
	</g>
	<g>
		<g>
			<g>
				<defs>
					<rect id="SVGID_151_" x="13" y="15.2" width="480" height="860.6"/>
				</defs>
				<clipPath id="SVGID_152_">
					<use xlink:href="#SVGID_151_"  style="overflow:visible;"/>
				</clipPath>
				<path class="st102" d="M184.4,551.5c0,0,6.2-9.4,9-11.4C193.4,540,185.7,549.9,184.4,551.5z"/>
			</g>
		</g>
	</g>
	<g>
		<g>
			<g>
				<defs>
					<rect id="SVGID_153_" x="13" y="15.2" width="480" height="860.6"/>
				</defs>
				<clipPath id="SVGID_154_">
					<use xlink:href="#SVGID_153_"  style="overflow:visible;"/>
				</clipPath>
				<path class="st103" d="M200.8,548.9c0,0,6.2-9.4,9-11.4C209.8,537.5,202.2,547.3,200.8,548.9z"/>
			</g>
		</g>
	</g>
	<g>
		<g>
			<g>
				<defs>
					<rect id="SVGID_155_" x="13" y="15.2" width="480" height="860.6"/>
				</defs>
				<clipPath id="SVGID_156_">
					<use xlink:href="#SVGID_155_"  style="overflow:visible;"/>
				</clipPath>
				<path class="st104" d="M97.6,601.3c0,0,6.2-9.4,9-11.4C106.6,589.9,98.9,599.7,97.6,601.3z"/>
			</g>
		</g>
	</g>
	<g>
		<g>
			<g>
				<defs>
					<rect id="SVGID_157_" x="13" y="15.2" width="480" height="860.6"/>
				</defs>
				<clipPath id="SVGID_158_">
					<use xlink:href="#SVGID_157_"  style="overflow:visible;"/>
				</clipPath>
				<path class="st105" d="M63.4,559c0,0,6.2-9.4,9-11.4C72.4,547.6,64.7,557.4,63.4,559z"/>
			</g>
		</g>
	</g>
	<g>
		<g>
			<g>
				<defs>
					<rect id="SVGID_159_" x="13" y="15.2" width="480" height="860.6"/>
				</defs>
				<clipPath id="SVGID_160_">
					<use xlink:href="#SVGID_159_"  style="overflow:visible;"/>
				</clipPath>
				<path class="st106" d="M32.2,552.9c0,0,6.2-9.4,9-11.4C41.2,541.5,33.5,551.3,32.2,552.9z"/>
			</g>
		</g>
	</g>
	<g>
		<g>
			<g>
				<defs>
					<rect id="SVGID_161_" x="13" y="15.2" width="480" height="860.6"/>
				</defs>
				<clipPath id="SVGID_162_">
					<use xlink:href="#SVGID_161_"  style="overflow:visible;"/>
				</clipPath>
				<path class="st107" d="M36,568.4c0,0,6.2-9.4,9-11.4C45,556.9,37.3,566.8,36,568.4z"/>
			</g>
		</g>
	</g>
	<g>
		<g>
			<g>
				<defs>
					<rect id="SVGID_163_" x="13" y="15.2" width="480" height="860.6"/>
				</defs>
				<clipPath id="SVGID_164_">
					<use xlink:href="#SVGID_163_"  style="overflow:visible;"/>
				</clipPath>
				<path class="st108" d="M105.5,563.7c0,0,6.2-9.4,9-11.4C114.5,552.2,106.8,562.1,105.5,563.7z"/>
			</g>
		</g>
	</g>
	<g>
		<g>
			<g>
				<defs>
					<rect id="SVGID_165_" x="13" y="15.2" width="480" height="860.6"/>
				</defs>
				<clipPath id="SVGID_166_">
					<use xlink:href="#SVGID_165_"  style="overflow:visible;"/>
				</clipPath>
				<path class="st109" d="M169.1,574.1c0,0,6.2-9.4,9-11.4C178.1,562.7,170.4,572.5,169.1,574.1z"/>
			</g>
		</g>
	</g>
	<g>
		<g>
			<g>
				<defs>
					<rect id="SVGID_167_" x="13" y="15.2" width="480" height="860.6"/>
				</defs>
				<clipPath id="SVGID_168_">
					<use xlink:href="#SVGID_167_"  style="overflow:visible;"/>
				</clipPath>
				<path class="st110" d="M164.6,596.3c0,0,6.2-9.4,9-11.4C173.6,584.9,165.9,594.7,164.6,596.3z"/>
			</g>
		</g>
	</g>
	<g>
		<g>
			<g>
				<defs>
					<rect id="SVGID_169_" x="13" y="15.2" width="480" height="860.6"/>
				</defs>
				<clipPath id="SVGID_170_">
					<use xlink:href="#SVGID_169_"  style="overflow:visible;"/>
				</clipPath>
				<path class="st111" d="M122,564.7c0,0,6.2-9.4,9-11.4C131,553.3,123.4,563.1,122,564.7z"/>
			</g>
		</g>
	</g>
	<g>
		<g>
			<g>
				<defs>
					<rect id="SVGID_171_" x="13" y="15.2" width="480" height="860.6"/>
				</defs>
				<clipPath id="SVGID_172_">
					<use xlink:href="#SVGID_171_"  style="overflow:visible;"/>
				</clipPath>
				<path class="st112" d="M345.6,540.7c0,0,5.1-7.7,7.4-9.4C353,531.3,346.7,539.4,345.6,540.7z"/>
			</g>
		</g>
	</g>
	<g>
		<g>
			<g>
				<defs>
					<rect id="SVGID_173_" x="13" y="15.2" width="480" height="860.6"/>
				</defs>
				<clipPath id="SVGID_174_">
					<use xlink:href="#SVGID_173_"  style="overflow:visible;"/>
				</clipPath>
				<path class="st113" d="M364.8,536c0,0,5.1-7.7,7.4-9.4C372.2,526.6,365.8,534.7,364.8,536z"/>
			</g>
		</g>
	</g>
	<g>
		<g>
			<g>
				<defs>
					<rect id="SVGID_175_" x="13" y="15.2" width="480" height="860.6"/>
				</defs>
				<clipPath id="SVGID_176_">
					<use xlink:href="#SVGID_175_"  style="overflow:visible;"/>
				</clipPath>
				<path class="st114" d="M398.2,545.4c0,0,5.1-7.7,7.4-9.4C405.6,536,399.3,544.1,398.2,545.4z"/>
			</g>
		</g>
	</g>
	<g>
		<g>
			<g>
				<defs>
					<rect id="SVGID_177_" x="13" y="15.2" width="480" height="860.6"/>
				</defs>
				<clipPath id="SVGID_178_">
					<use xlink:href="#SVGID_177_"  style="overflow:visible;"/>
				</clipPath>
				<path class="st115" d="M442.6,545.4c0,0,5.1-7.7,7.4-9.4C450,536,443.7,544.1,442.6,545.4z"/>
			</g>
		</g>
	</g>
	<g>
		<g>
			<g>
				<defs>
					<rect id="SVGID_179_" x="13" y="15.2" width="480" height="860.6"/>
				</defs>
				<clipPath id="SVGID_180_">
					<use xlink:href="#SVGID_179_"  style="overflow:visible;"/>
				</clipPath>
				<path class="st116" d="M359,564.1c0,0,5.1-7.7,7.4-9.4C366.5,554.7,360.1,562.8,359,564.1z"/>
			</g>
		</g>
	</g>
	<g>
		<g>
			<g>
				<defs>
					<rect id="SVGID_181_" x="13" y="15.2" width="480" height="860.6"/>
				</defs>
				<clipPath id="SVGID_182_">
					<use xlink:href="#SVGID_181_"  style="overflow:visible;"/>
				</clipPath>
				<path class="st117" d="M330.8,546.9c0,0,5.1-7.7,7.4-9.4C338.2,537.5,331.9,545.6,330.8,546.9z"/>
			</g>
		</g>
	</g>
	<g>
		<g>
			<g>
				<defs>
					<rect id="SVGID_183_" x="13" y="15.2" width="480" height="860.6"/>
				</defs>
				<clipPath id="SVGID_184_">
					<use xlink:href="#SVGID_183_"  style="overflow:visible;"/>
				</clipPath>
				<path class="st118" d="M469.3,559.4c0,0,5.1-7.7,7.4-9.4C476.7,549.9,470.4,558.1,469.3,559.4z"/>
			</g>
		</g>
	</g>
	<g>
		<g>
			<g>
				<defs>
					<rect id="SVGID_185_" x="13" y="15.2" width="480" height="860.6"/>
				</defs>
				<clipPath id="SVGID_186_">
					<use xlink:href="#SVGID_185_"  style="overflow:visible;"/>
				</clipPath>
				<path class="st119" d="M398.2,554.7c0,0,5.1-7.7,7.4-9.4C405.6,545.2,399.3,553.3,398.2,554.7z"/>
			</g>
		</g>
	</g>
	<g>
		<g>
			<g>
				<defs>
					<rect id="SVGID_187_" x="13" y="15.2" width="480" height="860.6"/>
				</defs>
				<clipPath id="SVGID_188_">
					<use xlink:href="#SVGID_187_"  style="overflow:visible;"/>
				</clipPath>
				<path class="st120" d="M442.6,562.6c0,0,5.1-7.7,7.4-9.4C450,553.1,443.7,561.3,442.6,562.6z"/>
			</g>
		</g>
	</g>
	<g>
		<g>
			<g>
				<defs>
					<rect id="SVGID_189_" x="13" y="15.2" width="480" height="860.6"/>
				</defs>
				<clipPath id="SVGID_190_">
					<use xlink:href="#SVGID_189_"  style="overflow:visible;"/>
				</clipPath>
				<path class="st121" d="M440.5,554.7c0,0,5.1-7.7,7.4-9.4C447.9,545.2,441.6,553.3,440.5,554.7z"/>
			</g>
		</g>
	</g>
	<g>
		<g>
			<g>
				<defs>
					<rect id="SVGID_191_" x="13" y="15.2" width="480" height="860.6"/>
				</defs>
				<clipPath id="SVGID_192_">
					<use xlink:href="#SVGID_191_"  style="overflow:visible;"/>
				</clipPath>
				<path class="st122" d="M414.3,542.2c0,0,5.1-7.7,7.4-9.4C421.7,532.8,415.4,540.9,414.3,542.2z"/>
			</g>
		</g>
	</g>
	<g>
		<g>
			<g>
				<defs>
					<rect id="SVGID_193_" x="13" y="15.2" width="480" height="860.6"/>
				</defs>
				<clipPath id="SVGID_194_">
					<use xlink:href="#SVGID_193_"  style="overflow:visible;"/>
				</clipPath>
				<path class="st123" d="M379.2,551.6c0,0,5.1-7.7,7.4-9.4C386.6,542.2,380.3,550.3,379.2,551.6z"/>
			</g>
		</g>
	</g>
</g>
<path class="st124" d="M21.5,815.7"/>
<linearGradient id="SVGID_195_" gradientUnits="userSpaceOnUse" x1="214.2108" y1="702.364" x2="214.2108" y2="539.7882" gradientTransform="matrix(-8.810000e-02 0.9961 -0.9961 -8.810000e-02 615.8491 260.851)">
	<stop  offset="0" style="stop-color:#7B3524"/>
	<stop  offset="1.280000e-02" style="stop-color:#753320"/>
	<stop  offset="5.330000e-02" style="stop-color:#6A2E17"/>
	<stop  offset="0.1103" style="stop-color:#632B12"/>
	<stop  offset="0.2688" style="stop-color:#612A11"/>
	<stop  offset="0.4102" style="stop-color:#702F15"/>
	<stop  offset="0.5323" style="stop-color:#773217"/>
	<stop  offset="0.7011" style="stop-color:#6B2E14"/>
	<stop  offset="0.8011" style="stop-color:#612A11"/>
	<stop  offset="0.9183" style="stop-color:#632B12"/>
	<stop  offset="0.9605" style="stop-color:#6A2E17"/>
	<stop  offset="0.9905" style="stop-color:#753320"/>
	<stop  offset="1" style="stop-color:#7B3524"/>
</linearGradient>
<polygon class="st125" points="-108.1,870.9 -54.7,-49.3 70,-31.4 16.6,888.7 "/>
<path class="st126" d="M55.5,14.9c0,0-3.9,13.7-1.5,23.3c0,0,1.8,8.7-2.6,20.9c0,0-9.3,39.5-7.1,112.9c0,0-1.2,44.8-7,63.6
	c0,0,4.2-45.3,1.4-64.4c0,0-11.6-31.3,4.7-114.9c0,0,7.7-26.5-4.3-43.6L55.5,14.9z"/>
<path class="st126" d="M35.5,12.3c0,0,9.3,6.4,4.5,18.8c0,0-5.3,14.6-3.5,23.9c0,0,2.5,17.9-2.2,30.3c0,0-8,37.4,1.9,86.9
	c0,0,2,11.6-1.3,20.8c0,0-5.9,29.8,1.2,55.1c0,0,5.6,16.6-2.6,41.6c0,0-5.6,25.3-6.1,92.6c0,0-0.6,110.3,5,90.7l-1.7,27.5
	c0,0-16.2-24.8-6.3-182c0,0,1.8-24.2,7.6-43.2c0,0,3.7-9.7,0.6-18.9c0,0-12.8-23.5-6-62.8c0,0,2.6-25.1,0.8-50.8
	c0,0-5.6-27.9,0.5-61.6c0,0,2.6-19.5-0.6-32.4c0,0-6-16.2-3-37.8L35.5,12.3z"/>
<path class="st127" d="M43,303.8c0,0-19.6,99.3-10.2,163.4L43,303.8z"/>
<path class="st127" d="M44.1,285.8c-8.6,36.2-7,17.2-7,17.2c4.7-20.9,4.2-48.7,4.2-48.7c-0.9-24.5,6.1-68.3,6.1-68.3
	s1.5-12.3-0.7-36.3c0,0-2.7-47.9,8.8-92.8c0,0,4.2-13.1,2.6-41.6l2.9,0.4L44.1,285.8z"/>
<path class="st126" d="M36.5,312c0,0,1.3,4.1-0.9,14.3c0,0-3.9,18.4-3.4,25.3c0,0-2.9-13.7,0.7-36.7C32.9,314.9,34.8,307.8,36.5,312
	z"/>
<path class="st127" d="M25.7,246.8c0,0,0.1,8.5,3.5,8.9c0,0,2.8,0.1,2.8,9.7c0,0-0.1,10.2-4.7,15.5c0,0-10.9,4-8.4,75.3
	c0,0,1.7,24.4-0.4,40.3c0,0,0.6-23.3-1.8-43.5c0,0-5.1-30.7,5.8-74.8C22.5,278.3,26.3,266.1,25.7,246.8z"/>
<path class="st126" d="M25.1,291.1c0,0-5.3,10.1-5,50.1C20,341.2,22.9,301.2,25.1,291.1z"/>
<path class="st126" d="M-16.9,820.6c0,0,21.6-152.8,22.7-244.4c0,0-2.8-54.7-0.4-87.8c0,0,12.1-77.1,7.5-142.8
	c0,0,8.7,26.7,0.3,91.2c0,0-6.8,67.6-4.8,104.1c0,0,5.6,80-1.5,124.9c0,0-9.8,65.5-8,127.5c0,0,4.7,20.4-0.8,29.3L-16.9,820.6z"/>
<path class="st127" d="M4.3,798c0,0,10.4-47.9,10.9-99.3c0,0-1.5-34.7,7.2-67l2.6-42.1c0,0-18,39-14.8,111.8
	C10.3,701.4,12.8,748.7,4.3,798z"/>
<path class="st126" d="M29.6,516.1c0.5-8.4-4-20.1-4-20.1c-7.3-23.5-7.6-93.2-7.6-93.2s-3.2,60.7,2.4,93.7c0,0,7.4,27.7,5.5,50
	c0,0-2.8,34.5-10.7,50.4c0,0-2.1,5.3-2.9,28.5c0,0,3-30.2,13.1-42.9L29.6,516.1z"/>
<path class="st127" d="M15.4,445.9c0,0-0.4,37,2.2,49c0,0,2.6,9.7,0.5,18.5c0,0-8.1,33.5-3.3,79.1c0,0-5.9-40.4-1.1-76
	c0,0,1.4-9.7,0.4-24.9C14.1,491.6,13.3,470,15.4,445.9z"/>
<path class="st126" d="M24.5,528c0,0-3.2-29.3-6.1-9.3l-1.3,8.3c0,0,2.4-10.8,3.6-7.1C20.8,519.9,24.6,539.2,24.5,528z"/>
<path class="st126" d="M16.7,534.6c0,0-2.7,25.1-1.2,40.2c0,0,1.7,13.9,5.6-2.7C21.2,572.1,15.2,575,16.7,534.6z"/>
<path class="st128" d="M21.2,558c-1.5,0.1-2.7-4.1-2.8-9.5c-0.1-5.4,1-9.9,2.4-10.1c1.5-0.1,2.7,4.1,2.8,9.5
	C23.7,553.3,22.6,557.8,21.2,558z"/>
<path class="st126" d="M-22.5,819.9c0,0,2.8-33.8,12.8-91.1c0,0,18.1-105.5,11.3-161.1c0,0-3.6-53.2,3.2-83.2
	c0,0,5.8-57.4,5.3-144.5c0,0,7-25.8,6.6-54.3c0,0-1.4-46.5,6.5-81.1c0,0,5.9-31.1,0.6-66.6c0,0-8.9-58.9-1.5-127.4L3.8,8.1
	c0,0,0,24.4,5.2,40.4c0,0,10.6,39.6,2.1,103c0,0-5.2,63-1.3,85.2c0,0,4.6,46.5-6.2,98.5l1.4,9.4c0,0,3,47.3-8.8,108.5l1.9,9.5
	c0,0-8.4,61.5-5,107.8c0,0,7.5,160.3-28.3,247.9L-22.5,819.9z"/>
<path class="st127" d="M-6.6,453.6l-3,28.1l-1,25.9c0,0,0.6,32.2-3.9,52.4c0,0-21.7,134.3-23.4,257.9l-10.2-1.3
	c0,0,11.2-102.4,15.3-168.1L-15,483.9l-2.1-9.2l3.9-27.5c0,0,16.3-142.2,12.3-231.1c0,0-1.3-112.3,3.4-147.3c0,0,3.4-14.4-7.4-61.9
	l5.7,0.8c0,0,2.1,36.6,4.5,49.2c0,0,8.5,43.1,0.5,99.2c0,0-4,23.1-1.3,48.9c0,0,8.6,75-2.7,121.9c0,0-2.9,8.6-1.7,37.2L-6.6,453.6z"
	/>
<path class="st126" d="M-6.7,6.7L-10,20.5l2.2,4.3c0,0,8.9,29.5,2.7,68.9c0,0-4.3,18.7-2.2,47.3c0,0,12.4,173.8-8.1,235
	c0,0-9.4,33.3-5.5,97.8l-1.8,51.7c0,0-14.5,114.9-16.1,136.8c0,0-5.5,116.4-13.3,153.9l-6.3-0.8c0,0,9.3-57,14-154.4l3.4-12
	l-0.5-7.4c0,0,18.9-115.3,13.4-225.3l7-38.4c0,0,18.4-179.6,10.5-209.5c0,0-4.5-40.7,1.5-71.7c0,0,9.3-41.2-5.1-73.7l-0.6-17.1
	L-6.7,6.7z"/>
<path class="st126" d="M-19,467.7c0,0,9.5-55.1,10.2-100.6c0,0-2.6,13.5-5.3,22.9C-14.2,390-22,421.7-19,467.7z"/>
<path class="st127" d="M-10.7,569.8c0,0,5.5,149.4-23.8,232.9l1.4-22.3c0,0,23-80.2,18.8-190.3L-10.7,569.8z"/>
<path class="st126" d="M-15.9,598c0,0-16,99.8-16.9,177C-32.7,775-17.3,684.5-15.9,598z"/>
<g>
	<g>
		<path class="st9" d="M102.4,855.9c0,0,372.8,104.9,413.4,40.3l-54.7-1.1c0,0,71.9-15.3,67.4-62.3c0,0-21,30.3-84.8,25.3
			c0,0,87-19.3,21.5-59.6c0,0-82.8-22.1-98.2-38.4l17,29.5c0,0-30.7-38.1-115.2-51.4c0,0,68.6,30,27.7,28.2c0,0-84-9.5-118.8-61.4
			c0,0-6.6,24.3,14.1,38.1c0,0-82.9-22.1-96.9-76.8c0,0-72.9,96.1,25.7,147.5c0,0-135-50.3-136.7-107.7
			C-16,706.2-65.2,816.1,102.4,855.9z"/>
	</g>
	<defs>
		<filter id="Adobe_OpacityMaskFilter_16_" filterUnits="userSpaceOnUse" x="-22.8" y="666.4" width="551.6" height="250.8">
			<feColorMatrix  type="matrix" values="1 0 0 0 0  0 1 0 0 0  0 0 1 0 0  0 0 0 1 0"/>
		</filter>
	</defs>
	<mask maskUnits="userSpaceOnUse" x="-22.8" y="666.4" width="551.6" height="250.8" id="SVGID_3_">
		<g class="st129">
			
				<image style="overflow:visible;enable-background:new    ;" width="167" height="121" xlink:href="A836F551.jpeg"  transform="matrix(3.6819 0 0 2.432 -54.2079 645.4585)">
			</image>
		</g>
	</mask>
	<g class="st130">
		<path class="st12" d="M102.4,855.9c0,0,372.8,104.9,413.4,40.3l-54.7-1.1c0,0,71.9-15.3,67.4-62.3c0,0-21,30.3-84.8,25.3
			c0,0,87-19.3,21.5-59.6c0,0-82.8-22.1-98.2-38.4l17,29.5c0,0-30.7-38.1-115.2-51.4c0,0,68.6,30,27.7,28.2c0,0-84-9.5-118.8-61.4
			c0,0-6.6,24.3,14.1,38.1c0,0-82.9-22.1-96.9-76.8c0,0-72.9,96.1,25.7,147.5c0,0-135-50.3-136.7-107.7
			C-16,706.2-65.2,816.1,102.4,855.9z"/>
	</g>
</g>
<g>
	<g>
		<path class="st9" d="M34.7,671.6c0,0-71.4,120.6-44.7,140.1l4-18.9c0,0,2.4,26.2,24,28.6c0,0-12.4-9.8-6.1-31.5
			c0,0,3.2,31.8,25.7,12.4c0,0,15.3-26.9,23.7-30.9l-14.5,3.4c0,0,19.2-7.5,30.6-35.7c0,0-18,21.3-14.6,7.3c0,0,9.7-28.4,35.4-36.1
			c0,0-10.6-4.3-18.2,1.7c0,0,15.3-26.9,41-27.2c0,0-38.9-33.3-68.5-3.4c0,0,31.4-42.7,57.6-38.4C110.1,643,63.4,616.8,34.7,671.6z"
			/>
	</g>
	<defs>
		<filter id="Adobe_OpacityMaskFilter_17_" filterUnits="userSpaceOnUse" x="-15.9" y="636.7" width="137" height="184.7">
			<feColorMatrix  type="matrix" values="1 0 0 0 0  0 1 0 0 0  0 0 1 0 0  0 0 0 1 0"/>
		</filter>
	</defs>
	<mask maskUnits="userSpaceOnUse" x="-15.9" y="636.7" width="137" height="184.7" id="SVGID_2_">
		<g class="st131">
			
				<image style="overflow:visible;enable-background:new    ;" width="167" height="121" xlink:href="A836F553.jpeg"  transform="matrix(-0.2349 1.2776 -1.1031 -0.2028 140.1169 634.8362)">
			</image>
		</g>
	</mask>
	<g class="st132">
		<path class="st12" d="M34.7,671.6c0,0-71.4,120.6-44.7,140.1l4-18.9c0,0,2.4,26.2,24,28.6c0,0-12.4-9.8-6.1-31.5
			c0,0,3.2,31.8,25.7,12.4c0,0,15.3-26.9,23.7-30.9l-14.5,3.4c0,0,19.2-7.5,30.6-35.7c0,0-18,21.3-14.6,7.3c0,0,9.7-28.4,35.4-36.1
			c0,0-10.6-4.3-18.2,1.7c0,0,15.3-26.9,41-27.2c0,0-38.9-33.3-68.5-3.4c0,0,31.4-42.7,57.6-38.4C110.1,643,63.4,616.8,34.7,671.6z"
			/>
	</g>
</g>
<g>
	<g>
		<path class="st9" d="M227.2,756.6c0,0,27.7,163.2,70,155.9l-11.5-19.2c0,0,23.7,19.8,47.1,2.7c0,0-20.3,2.7-31.8-20.9
			c0,0,29.1,23.6,35.6-12.2c0,0-6.8-35.9-1.7-46.5l-11.5,15.6c0,0,13-23.1,1.2-56.7c0,0-0.4,33.5-8.5,18.9c0,0-13.6-32.1,5.6-61.2
			c0,0-14,5.7-16.6,17.4c0,0-6.8-35.9,18.4-58.7c0,0-65.7,6.6-70.6,57.5c0,0-3.7-63.1,25.6-82.7
			C278.5,666.4,210.9,685.7,227.2,756.6z"/>
	</g>
	<defs>
		<filter id="Adobe_OpacityMaskFilter_18_" filterUnits="userSpaceOnUse" x="224.6" y="666.4" width="112" height="246.3">
			<feColorMatrix  type="matrix" values="1 0 0 0 0  0 1 0 0 0  0 0 1 0 0  0 0 0 1 0"/>
		</filter>
	</defs>
	<mask maskUnits="userSpaceOnUse" x="224.6" y="666.4" width="112" height="246.3" id="SVGID_5_">
		<g class="st133">
			
				<image style="overflow:visible;enable-background:new    ;" width="167" height="121" xlink:href="A836F557.jpeg"  transform="matrix(0.8096 1.2698 -1.258 0.8021 301.5459 633.231)">
			</image>
		</g>
	</mask>
	<g class="st134">
		<path class="st12" d="M227.2,756.6c0,0,27.7,163.2,70,155.9l-11.5-19.2c0,0,23.7,19.8,47.1,2.7c0,0-20.3,2.7-31.8-20.9
			c0,0,29.1,23.6,35.6-12.2c0,0-6.8-35.9-1.7-46.5l-11.5,15.6c0,0,13-23.1,1.2-56.7c0,0-0.4,33.5-8.5,18.9c0,0-13.6-32.1,5.6-61.2
			c0,0-14,5.7-16.6,17.4c0,0-6.8-35.9,18.4-58.7c0,0-65.7,6.6-70.6,57.5c0,0-3.7-63.1,25.6-82.7
			C278.5,666.4,210.9,685.7,227.2,756.6z"/>
	</g>
</g>
<path class="st124" d="M430-8"/>
<linearGradient id="SVGID_196_" gradientUnits="userSpaceOnUse" x1="-246.2582" y1="1346.6348" x2="-246.2582" y2="1176.7408" gradientTransform="matrix(3.350000e-02 -0.9994 0.6165 2.060000e-02 -291.2089 167.2004)">
	<stop  offset="0" style="stop-color:#7B3524"/>
	<stop  offset="1.280000e-02" style="stop-color:#753320"/>
	<stop  offset="5.330000e-02" style="stop-color:#6A2E17"/>
	<stop  offset="0.1103" style="stop-color:#632B12"/>
	<stop  offset="0.2688" style="stop-color:#612A11"/>
	<stop  offset="0.4102" style="stop-color:#702F15"/>
	<stop  offset="0.5323" style="stop-color:#773217"/>
	<stop  offset="0.7011" style="stop-color:#6B2E14"/>
	<stop  offset="0.8011" style="stop-color:#612A11"/>
	<stop  offset="0.9183" style="stop-color:#632B12"/>
	<stop  offset="0.9605" style="stop-color:#6A2E17"/>
	<stop  offset="0.9905" style="stop-color:#753320"/>
	<stop  offset="1" style="stop-color:#7B3524"/>
</linearGradient>
<polygon class="st135" points="527.5,-9.7 510.9,896.7 425.8,888.2 442.4,-18.3 "/>
<path class="st126" d="M441.4,889c0,0,3.6-15.5,0.2-26.2c0,0-2.6-9.6,1.7-23.5c0,0,8.3-44.8,1-126.6c0,0-1.4-50.2,4.1-71.5
	c0,0-2,50.9,2.5,72c0,0,15.4,34.2,1.9,128.7c0,0-7.2,30.1,7.7,48.5L441.4,889z"/>
<path class="st126" d="M464.8,890.7c0,0-11.2-6.5-6.4-20.7c0,0,5.2-16.6,2.5-26.9c0,0-4.1-19.8,0.7-34c0,0,6.9-42.3-7.7-97
	c0,0-3-12.8,0.2-23.3c0,0,4.9-33.7-4.9-61.5c0,0-7.6-18.2,0.4-46.6c0,0,4.9-28.6,1.2-103.9c0,0-6.4-123.3-11.6-101l0.3-30.9
	c0,0,20.3,26.7,18.9,203c0,0-0.5,27.2-6,48.7c0,0-3.6,11.1,0.5,21.2c0,0,16.3,25.5,11,69.8c0,0-1.4,28.3,2.3,56.9
	c0,0,8.3,30.9,3.3,68.9c0,0-1.7,21.9,2.8,36.1c0,0,8,17.7,5.8,42.1L464.8,890.7z"/>
<path class="st127" d="M437.7,565.4c0,0,16.4-112.2,1.5-183.2L437.7,565.4z"/>
<path class="st127" d="M437.5,585.6c7.7-41,7-19.6,7-19.6c-4.1,23.6-1.8,54.7-1.8,54.7c2.6,27.3-2.7,76.7-2.7,76.7s-1,13.8,3.1,40.6
	c0,0,6.1,53.4-4.3,104.3c0,0-4,14.9-0.4,46.6l-3.4-0.3L437.5,585.6z"/>
<path class="st126" d="M444.6,555.9c0,0-1.8-4.5,0.1-16.1c0,0,3.4-20.9,2.4-28.5c0,0,4.2,15.1,1.5,41.1
	C448.6,552.4,446.8,560.4,444.6,555.9z"/>
<path class="st127" d="M461.3,628c0,0-0.7-9.5-4.6-9.8c0,0-3.3,0.1-3.8-10.7c0,0-0.5-11.4,4.4-17.6c0,0,12.4-5.1,5-84.7
	c0,0-3.5-27.2-2.1-45c0,0,0.8,26,4.8,48.6c0,0,7.9,34-2,84C463,592.7,459.3,606.5,461.3,628z"/>
<path class="st126" d="M459.2,578.4c0,0,5.5-11.6,2.6-56.3C461.8,522.2,461.1,567,459.2,578.4z"/>
<path class="st126" d="M474.1-15.9c0,0-15.3,172.1-10.7,274.5c0,0,6.7,61,6.1,98.1c0,0-9.1,86.9,0.3,160.1c0,0-11.8-29.3-6.1-101.9
	c0,0,3.6-76-1.1-116.6c0,0-11.5-89.1-6.1-139.7c0,0,7.2-73.8,1.2-142.9c0,0-6.8-22.5-0.9-32.8L474.1-15.9z"/>
<path class="st127" d="M451,10.7c0,0-9,54.1-6.3,111.7c0,0,4,38.7-4,75.3l-0.4,47.2c0,0,18.4-44.6,10-125.9
	C450.3,119,444.3,66.3,451,10.7z"/>
<path class="st126" d="M439.6,327.2c-0.1,9.4,5.9,22.2,5.9,22.2c9.9,25.8,14.7,103.6,14.7,103.6s-0.1-68.1-8.7-104.6
	c0,0-10.4-30.5-9.6-55.5c0,0,1-38.7,9.2-57c0,0,2.1-6.1,1.5-32c0,0-1.6,33.9-12.5,48.7L439.6,327.2z"/>
<path class="st127" d="M460.6,404.9c0,0-1.9-41.4-5.7-54.6c0,0-3.6-10.7-1.8-20.6c0,0,7.3-37.9-1.2-88.6c0,0,9.4,44.8,6.1,84.9
	c0,0-1.1,10.9,1.1,27.8C459.1,353.7,461.4,377.9,460.6,404.9z"/>
<path class="st126" d="M444.8,313.7c0,0,5.5,32.5,7.6,10l0.9-9.4c0,0-2.1,12.2-3.7,8.2C449.7,322.5,444,301.1,444.8,313.7z"/>
<path class="st126" d="M453.4,305.8c0,0,1.6-28.2-1.2-45c0,0-2.9-15.5-6.3,3.3C445.9,264.2,452.6,260.6,453.4,305.8z"/>
<path class="st128" d="M446.7,280c1.7-0.2,3.4,4.5,3.9,10.5c0.5,6-0.5,11.1-2.2,11.4c-1.7,0.2-3.4-4.4-3.9-10.5
	C444.1,285.4,445.1,280.3,446.7,280z"/>
<path class="st126" d="M480.7-15.4c0,0-1.1,37.9-9,102.6c0,0-14.2,119-2.8,180.8c0,0,7.5,59.2,1.6,93.2c0,0-3.1,64.5,3.1,161.8
	c0,0-6.4,29.3-4.2,61.1c0,0,4.6,51.8-2.4,91c0,0-4.9,35.1,3.5,74.5c0,0,14,65.2,9.9,142.2l21.5,1.6c0,0-1.5-27.3-8.6-44.8
	c0,0-14.7-43.6-8.9-115c0,0,2-70.7-3.9-95.3c0,0-8.3-51.7,0.9-110.5l-2.2-10.4c0,0-6.5-52.6,3.3-121.8l-2.8-10.4
	c0,0,5.8-69.2-1.1-120.7c0,0-18.9-178.7,17.1-278.8L480.7-15.4z"/>
<path class="st127" d="M485.5,394.9l1.7-31.5l-0.5-29c0,0-2.8-36,1.2-58.8c0,0,16.6-151.5,10.8-289.6l11.9,0.9
	c0,0-6.4,115.1-7,188.8l-10.2,185l3,10.1l-2.8,31c0,0-9.9,159.9,0.4,259c0,0,8.6,125.4,5.4,164.9c0,0-3,16.3,12.5,68.7l-6.7-0.5
	c0,0-4.8-40.7-8.3-54.7c0,0-12.6-47.7-6.9-110.8c0,0,3.1-26-1.6-54.7c0,0-14.7-83.3-4.6-136.4c0,0,2.8-9.7-0.4-41.6L485.5,394.9z"/>
<path class="st126" d="M513.9,894.4l3-15.6l-2.9-4.6c0,0-12.1-32.4-7.5-76.8c0,0,3.8-21.1-0.5-53c0,0-25.4-193.4-5.5-263.2
	c0,0,8.8-37.8,0.1-109.6l-1.2-57.9c0,0,9.5-129.3,10-153.8c0,0-1-130.4,5.6-172.8l7.3,0.5c0,0-7.1,64.3-6.4,173.4l-3.2,13.6l1.1,8.3
	c0,0-14.6,130-1.3,252.6l-5.7,43.4c0,0-9.8,201.8,1.1,234.8c0,0,7.8,45.2,2.8,80.2c0,0-8.1,46.7,10.6,82.1l1.8,19.1L513.9,894.4z"/>
<path class="st126" d="M499,378.4c0,0-7.5,62.1-5.4,113c0,0,2.1-15.2,4.7-25.9C498.3,465.5,505.3,429.6,499,378.4z"/>
<path class="st127" d="M482.9,264.8c0,0-15.9-166.6,12.7-261.8l-0.2,25c0,0-21.6,91-9.7,213.8L482.9,264.8z"/>
<path class="st126" d="M487.1,232.9c0,0,12.2-112.5,8.3-198.8C495.4,34.1,483.2,136.3,487.1,232.9z"/>
<linearGradient id="SVGID_197_" gradientUnits="userSpaceOnUse" x1="-74.6497" y1="649.737" x2="287.2203" y2="453.6737" gradientTransform="matrix(1 0 0 1 -2.000000e-02 -391.4553)">
	<stop  offset="0" style="stop-color:#7B3524"/>
	<stop  offset="1.280000e-02" style="stop-color:#753320"/>
	<stop  offset="5.330000e-02" style="stop-color:#6A2E17"/>
	<stop  offset="0.1103" style="stop-color:#632B12"/>
	<stop  offset="0.2688" style="stop-color:#612A11"/>
	<stop  offset="0.4102" style="stop-color:#702F15"/>
	<stop  offset="0.5323" style="stop-color:#773217"/>
	<stop  offset="0.7011" style="stop-color:#6B2E14"/>
	<stop  offset="0.8011" style="stop-color:#612A11"/>
	<stop  offset="0.9183" style="stop-color:#632B12"/>
	<stop  offset="0.9605" style="stop-color:#6A2E17"/>
	<stop  offset="0.9905" style="stop-color:#753320"/>
	<stop  offset="1" style="stop-color:#7B3524"/>
</linearGradient>
<path class="st136" d="M0,252.7c0,0,19-35.2,51.2-51.1c0,0,27-0.1,52.8-13.9c0,0,24-33,71.3-38c0,0,84.7-34.4,110.4-56.4l-90.7,9.4
	c0,0-83.5,55.9-106.5,55.9c0,0-66.8,3.2-112.8,40C-24.3,198.7-68.5,262.7,0,252.7z"/>
<linearGradient id="SVGID_198_" gradientUnits="userSpaceOnUse" x1="482.6973" y1="707.9183" x2="335.9676" y2="494.2798" gradientTransform="matrix(1 0 0 1 -2.000000e-02 -391.4553)">
	<stop  offset="0" style="stop-color:#7B3524"/>
	<stop  offset="1.280000e-02" style="stop-color:#753320"/>
	<stop  offset="5.330000e-02" style="stop-color:#6A2E17"/>
	<stop  offset="0.1103" style="stop-color:#632B12"/>
	<stop  offset="0.2688" style="stop-color:#612A11"/>
	<stop  offset="0.4102" style="stop-color:#702F15"/>
	<stop  offset="0.5323" style="stop-color:#773217"/>
	<stop  offset="0.7011" style="stop-color:#6B2E14"/>
	<stop  offset="0.8011" style="stop-color:#612A11"/>
	<stop  offset="0.9183" style="stop-color:#632B12"/>
	<stop  offset="0.9605" style="stop-color:#6A2E17"/>
	<stop  offset="0.9905" style="stop-color:#753320"/>
	<stop  offset="1" style="stop-color:#7B3524"/>
</linearGradient>
<path class="st137" d="M495,273.9c0,0-39-8.5-63.2-35.2c0,0-8.3-29.1-28.7-50c0,0-21.4-19.9-28.1-39.8c0,0-25.8-70.5-54-89.1
	l-49-13.1c0,0,87,114.9,108.3,168c0,0,21.5,63.4,69.5,97.4C449.8,312.2,523.5,337,495,273.9z"/>
<linearGradient id="SVGID_199_" gradientUnits="userSpaceOnUse" x1="419.9839" y1="607.261" x2="446.7702" y2="523.7508" gradientTransform="matrix(1 0 0 1 -2.000000e-02 -391.4553)">
	<stop  offset="0" style="stop-color:#7B3524"/>
	<stop  offset="1.280000e-02" style="stop-color:#753320"/>
	<stop  offset="5.330000e-02" style="stop-color:#6A2E17"/>
	<stop  offset="0.1103" style="stop-color:#632B12"/>
	<stop  offset="0.2688" style="stop-color:#612A11"/>
	<stop  offset="0.4102" style="stop-color:#702F15"/>
	<stop  offset="0.5323" style="stop-color:#773217"/>
	<stop  offset="0.7011" style="stop-color:#6B2E14"/>
	<stop  offset="0.8011" style="stop-color:#612A11"/>
	<stop  offset="0.9183" style="stop-color:#632B12"/>
	<stop  offset="0.9605" style="stop-color:#6A2E17"/>
	<stop  offset="0.9905" style="stop-color:#753320"/>
	<stop  offset="1" style="stop-color:#7B3524"/>
</linearGradient>
<path class="st138" d="M447.1,158.6c-3.8-5.5-7.5-11-13.1-14.8c-4.6-3.1-7.4-8.7-10-14.1c4.7-10.9-14.2-43.6-13.2-45.7l-15.3,4.7
	c0.4,1.7,9.1,47.2,10.5,48.3c2,1.4,4.9,1.3,7.1,2.6c1.9,1.2,3.8,3,5.4,4.6c2.2,2.3,4.2,4.7,6,7.2c3.4,4,14.1,21,14.1,21
	c15.1,28.7,45.1,33,45.1,33s18.2-4.8-4.1-22.8c-0.4-0.3-2-0.4-2.5-0.5c-2.3-0.6-4.5-1.5-6.6-2.5c-6.6-3-12.5-7.3-17.3-12.8
	C451,164.2,449,161.4,447.1,158.6z"/>
</svg>
