<svg width="450" height="200" xmlns="http://www.w3.org/2000/svg" preserveAspectRatio="none" viewBox="0 0 450 160">
 <style type="text/css">.st0{fill:#E6E7E8;}
	.st1{fill:url(#SVGID_1_);}</style>

 <g>
  <rect fill="none" id="canvas_background" height="402" width="582" y="-1" x="-1"/>
 </g>
 <g>
  <polygon transform="rotate(180 231.6999969482422,82.44999694824219) " id="svg_1" points="-8.299999237060547,159.3000030517578 15.699996948242188,119.69999694824219 35.69999694824219,143.10000610351562 54.400001525878906,139.5 69,123.80000305175781 69,137 78.39999389648438,130.6999969482422 90.39999389648438,133.89999389648438 102.39999389648438,123.80000305175781 115.69999694824219,139.5 115.69999694824219,127.80000305175781 138.39999389648438,139.5 147.6999969482422,130.6999969482422 162.39999389648438,137 178.39999389648438,124.80000305175781 189,136 189,126.80000305175781 203.6999969482422,143.10000610351562 207.70001220703125,130.6999969482422 214.39999389648438,139.5 226.39999389648438,124.80000305175781 243.70001220703125,143.10000610351562 243.70001220703125,125.80000305175781 251.70001220703125,139.5 266.3999938964844,125.80000305175781 274.3999938964844,139.5 287.70001220703125,126.80000305175781 305,143.10000610351562 322.3999938964844,131.10000610351562 322.3999938964844,149.1999969482422 337,137 337,147.10000610351562 347.70001220703125,139.5 354.3999938964844,153.1999969482422 366.3999938964844,142 375.70001220703125,155.1999969482422 386.3999938964844,145.10000610351562 401,159.3000030517578 410.3999938964844,139.5 429,155.1999969482422 449,139.5 471.70001220703125,159.39999389648438 471.70001220703125,5.5 -8.299999237060547,5.5 " class="st0"/>
	<linearGradient id="SVGID_1_" gradientUnits="userSpaceOnUse" x1="282.6787" y1="168.8852" x2="282.6787" y2="38.2341">
		<stop  offset="0" style="stop-color:#FFFFFF"/>
		<stop  offset="0.3986" style="stop-color:#FCFCFD"/>
		<stop  offset="0.6516" style="stop-color:#F4F4F5"/>
		<stop  offset="0.8633" style="stop-color:#E5E6E7"/>
		<stop  offset="1" style="stop-color:#D7D8DA"/>
	</linearGradient>
	<polygon transform="rotate(180 231.6999969482422,89.25) " id="svg_2" points="-8.299999237060547,158.10000610351562 15.699996948242188,122.60000610351562 35.69999694824219,143.5 54.400001525878906,140.3000030517578 69,126.19999694824219 69,138.10000610351562 78.39999389648438,132.5 90.39999389648438,135.3000030517578 102.39999389648438,126.19999694824219 115.69999694824219,140.3000030517578 115.69999694824219,129.89999389648438 138.39999389648438,140.3000030517578 147.6999969482422,132.5 162.39999389648438,138.10000610351562 178.39999389648438,127.19999694824219 189,137.1999969482422 189,129 203.6999969482422,143.5 207.70001220703125,132.5 214.39999389648438,140.3000030517578 226.39999389648438,127.19999694824219 243.70001220703125,143.5 243.70001220703125,128.10000610351562 251.70001220703125,140.3000030517578 266.3999938964844,128.10000610351562 274.3999938964844,140.3000030517578 287.70001220703125,129 305,143.5 322.3999938964844,132.8000030517578 322.3999938964844,149 337,138.10000610351562 337,147.1999969482422 347.70001220703125,140.3000030517578 354.3999938964844,152.60000610351562 366.3999938964844,142.60000610351562 375.70001220703125,154.39999389648438 386.3999938964844,145.39999389648438 401,158.10000610351562 410.3999938964844,140.3000030517578 429,154.39999389648438 449,140.3000030517578 471.70001220703125,158.1999969482422 471.70001220703125,20.300003051757812 -8.299999237060547,20.300003051757812 " class="st1"/>
 </g>
</svg>
