<svg version="1.1" id="Layer_1" xmlns="http://www.w3.org/2000/svg" xmlns:xlink="http://www.w3.org/1999/xlink" x="0px" y="0px"
	 viewBox="45 50 475 160" style="enable-background:new 0 0 564.9 232.4;" preserveAspectRatio="none">
<style type="text/css">
	.st0{fill:#E6E7E8;}
	.st1{fill:url(#SVGID_1_);}
</style>
<polygon class="st0" points="42.7,200.3 66.7,160.7 86.7,184.1 105.4,180.5 120,164.8 120,178 129.4,171.7 141.4,174.9 153.4,164.8
	166.7,180.5 166.7,168.8 189.4,180.5 198.7,171.7 213.4,178 229.4,165.8 240,177 240,167.8 254.7,184.1 258.7,171.7 265.4,180.5
	277.4,165.8 294.7,184.1 294.7,166.8 302.7,180.5 317.4,166.8 325.4,180.5 338.7,167.8 356,184.1 373.4,172.1 373.4,190.2 388,178
	388,188.1 398.7,180.5 405.4,194.2 417.4,183 426.7,196.2 437.4,186.1 452,200.3 461.4,180.5 480,196.2 500,180.5 522.7,200.4
	522.7,46.5 42.7,46.5 "/>
<linearGradient id="SVGID_1_" gradientUnits="userSpaceOnUse" x1="282.6787" y1="168.8852" x2="282.6787" y2="38.2341">
	<stop  offset="0" style="stop-color:#FFFFFF"/>
	<stop  offset="0.3986" style="stop-color:#FCFCFD"/>
	<stop  offset="0.6516" style="stop-color:#F4F4F5"/>
	<stop  offset="0.8633" style="stop-color:#E5E6E7"/>
	<stop  offset="1" style="stop-color:#D7D8DA"/>
</linearGradient>
<polygon class="st1" points="42.7,184.1 66.7,148.6 86.7,169.5 105.4,166.3 120,152.2 120,164.1 129.4,158.5 141.4,161.3
	153.4,152.2 166.7,166.3 166.7,155.9 189.4,166.3 198.7,158.5 213.4,164.1 229.4,153.2 240,163.2 240,155 254.7,169.5 258.7,158.5
	265.4,166.3 277.4,153.2 294.7,169.5 294.7,154.1 302.7,166.3 317.4,154.1 325.4,166.3 338.7,155 356,169.5 373.4,158.8 373.4,175
	388,164.1 388,173.2 398.7,166.3 405.4,178.6 417.4,168.6 426.7,180.4 437.4,171.4 452,184.1 461.4,166.3 480,180.4 500,166.3
	522.7,184.2 522.7,46.3 42.7,46.3 "/>
</svg>
